<svg width="16" height="13" viewBox="0 0 16 13" fill="none" xmlns="http://www.w3.org/2000/svg">
<path d="M6.32046 7.77513C5.88921 7.34463 5.62671 6.75963 5.62671 6.10338C5.62671 4.78863 6.68571 3.72888 7.99971 3.72888C8.64996 3.72888 9.24846 3.99213 9.67221 4.42263" stroke="#ADA4A5" stroke-width="1.2" stroke-linecap="round" stroke-linejoin="round"/>
<path d="M10.3288 6.52417C10.1548 7.49167 9.39278 8.25517 8.42603 8.43067" stroke="#ADA4A5" stroke-width="1.2" stroke-linecap="round" stroke-linejoin="round"/>
<path d="M3.99101 10.1042C2.80076 9.16973 1.79276 7.80473 1.06226 6.10298C1.80026 4.39373 2.81501 3.02123 4.01276 2.07923C5.20301 1.13723 6.57626 0.625732 7.99976 0.625732C9.43151 0.625732 10.804 1.14473 12.0018 2.09348" stroke="#ADA4A5" stroke-width="1.2" stroke-linecap="round" stroke-linejoin="round"/>
<path d="M13.5858 3.74304C14.1018 4.42854 14.5556 5.21979 14.9373 6.10254C13.4621 9.52029 10.8551 11.579 7.99983 11.579C7.35258 11.579 6.71433 11.474 6.10083 11.2693" stroke="#ADA4A5" stroke-width="1.2" stroke-linecap="round" stroke-linejoin="round"/>
</svg>
