<svg width="24" height="24" viewBox="0 0 24 24" fill="none" xmlns="http://www.w3.org/2000/svg">
<g id="Iconly/Light/Ticket Star">
<g id="Ticket Star">
<path id="Stroke 1" fill-rule="evenodd" clip-rule="evenodd" d="M17.857 20.4171C19.73 20.4171 21.249 18.8991 21.25 17.0261V17.0241V14.3241C20.013 14.3241 19.011 13.3221 19.01 12.0851C19.01 10.8491 20.012 9.84612 21.249 9.84612H21.25V7.14612C21.252 5.27212 19.735 3.75212 17.862 3.75012H17.856H6.144C4.27 3.75012 2.751 5.26812 2.75 7.14212V7.14312V9.93312C3.944 9.89112 4.945 10.8251 4.987 12.0191C4.988 12.0411 4.989 12.0631 4.989 12.0851C4.99 13.3201 3.991 14.3221 2.756 14.3241H2.75V17.0241C2.749 18.8971 4.268 20.4171 6.141 20.4171H6.142H17.857Z" stroke="#130F26" stroke-width="1.5" stroke-linecap="round" stroke-linejoin="round"/>
<path id="Stroke 3" fill-rule="evenodd" clip-rule="evenodd" d="M12.3711 9.06315L12.9871 10.3102C13.0471 10.4322 13.1631 10.5172 13.2981 10.5372L14.6751 10.7382C15.0161 10.7882 15.1511 11.2062 14.9051 11.4452L13.9091 12.4152C13.8111 12.5102 13.7671 12.6472 13.7891 12.7822L14.0241 14.1522C14.0821 14.4912 13.7271 14.7492 13.4231 14.5892L12.1921 13.9422C12.0711 13.8782 11.9271 13.8782 11.8061 13.9422L10.5761 14.5892C10.2711 14.7492 9.91609 14.4912 9.97409 14.1522L10.2091 12.7822C10.2321 12.6472 10.1871 12.5102 10.0891 12.4152L9.09409 11.4452C8.84809 11.2062 8.98309 10.7882 9.32309 10.7382L10.7001 10.5372C10.8351 10.5172 10.9521 10.4322 11.0121 10.3102L11.6271 9.06315C11.7791 8.75515 12.2191 8.75515 12.3711 9.06315Z" stroke="#130F26" stroke-width="1.5" stroke-linecap="round" stroke-linejoin="round"/>
</g>
</g>
</svg>
