<svg width="18" height="19" viewBox="0 0 18 19" fill="none" xmlns="http://www.w3.org/2000/svg">
<g clip-path="url(#clip0_999_2492)">
<path d="M1.58203 1.33789H16.418C17.0141 1.33789 17.5 1.82375 17.5 2.41992V17.2559C17.5 17.852 17.0141 18.3379 16.418 18.3379H1.58203C0.985859 18.3379 0.5 17.852 0.5 17.2559V2.41992C0.5 1.82375 0.985859 1.33789 1.58203 1.33789ZM16.418 18.2832C16.9848 18.2832 17.4453 17.8227 17.4453 17.2559V2.41992C17.4453 1.85305 16.9848 1.39258 16.418 1.39258H1.58203C1.01516 1.39258 0.554688 1.85305 0.554688 2.41992V17.2559C0.554688 17.8227 1.01516 18.2832 1.58203 18.2832H16.418Z" stroke="#7B6F72"/>
<path d="M11.9654 9.19178L11.9655 9.19188C11.9774 9.20077 11.9945 9.19851 12.0036 9.18636L12.0036 9.18631L14.7874 5.48282L14.7875 5.4827C14.7918 5.47701 14.7937 5.46982 14.7926 5.46264L14.7926 5.46223C14.7916 5.4554 14.7878 5.44877 14.7818 5.44424C13.1005 4.18338 11.1026 3.51758 9.00001 3.51758C6.89739 3.51758 4.89956 4.18338 3.21822 5.44424C3.21212 5.44882 3.20827 5.45547 3.20725 5.46264L11.9654 9.19178ZM11.9654 9.19178C11.104 8.54582 10.077 8.20355 9.00001 8.20355C7.92289 8.20355 6.89604 8.54581 6.03468 9.19173L11.9654 9.19178ZM11.601 8.87817L11.9886 9.11538L12.2616 8.75211L14.4176 5.88386L14.7359 5.46032L14.2947 5.16703C12.7224 4.12202 10.9021 3.57227 9.00001 3.57227C7.09797 3.57227 5.27759 4.12202 3.70537 5.16703L3.26411 5.46032L3.58246 5.88386L5.73839 8.75211L6.01144 9.11538L6.39907 8.87817C7.04529 8.4827 7.76476 8.24332 8.51975 8.17191L8.97267 8.12908V7.67413V6.06683C8.97267 6.0517 8.98488 6.03949 9.00001 6.03949C9.01515 6.03949 9.02736 6.0517 9.02736 6.06683V7.67413V8.12908L9.48028 8.17191C10.2353 8.24332 10.9547 8.4827 11.601 8.87817ZM3.21261 5.48301C3.21259 5.48299 3.21258 5.48297 3.21256 5.48295L6.03461 9.19178C6.03149 9.19411 6.0289 9.1953 6.02672 9.19602C6.02434 9.1968 6.02161 9.19727 6.0186 9.19727C6.01392 9.19727 6.0094 9.19616 6.00573 9.19437C6.00258 9.19283 5.99946 9.19057 5.9962 9.18623L3.21261 5.48301Z" stroke="#7B6F72"/>
</g>
<defs>
<clipPath id="clip0_999_2492">
<rect width="18" height="18" fill="white" transform="translate(0 0.837891)"/>
</clipPath>
</defs>
</svg>
