<svg width="26" height="26" viewBox="0 0 26 26" fill="none" xmlns="http://www.w3.org/2000/svg">
<g clip-path="url(#clip0_414_12260)">
<path fill-rule="evenodd" clip-rule="evenodd" d="M0.999634 24.8748C0.999634 25.4354 1.44153 25.8951 1.98134 25.8951H7.07368L8.17106 25.0691L9.28475 25.8951H11.7004L12.5294 25.0691L13.3598 25.8951H14.1902L15.0206 25.0691L15.8511 25.8951H18.6197C19.1595 25.8951 19.6014 25.4354 19.6014 24.8748V23.8441V23.509L10.0548 21.7344L0.999634 23.509V24.8748Z" fill="#7E707D"/>
<path fill-rule="evenodd" clip-rule="evenodd" d="M13.3978 4.43809L19.1785 2.91075C19.223 2.91075 19.266 2.90333 19.3075 2.89297C19.5018 2.83661 19.6442 2.65572 19.6442 2.44513V0.570645C19.6442 0.314098 19.4351 0.10498 19.1786 0.10498H6.86435C6.60781 0.10498 6.39722 0.314098 6.39722 0.570645V2.2612L13.3978 4.43809Z" fill="#F5A96C"/>
<path fill-rule="evenodd" clip-rule="evenodd" d="M0.465613 5.067L6.62345 7.03264L12.7813 5.067C12.8243 5.067 12.8688 5.06106 12.9088 5.04923C13.103 4.99286 13.2469 4.81345 13.2469 4.60139V2.91077V2.7269C13.2469 2.47035 13.0363 2.26123 12.7813 2.26123H6.39732H0.465613C0.209066 2.26123 0 2.47035 0 2.7269V4.60139C0 4.84905 0.197234 5.0537 0.441898 5.06705H0.465613V5.067Z" fill="#FFBC85"/>
<path fill-rule="evenodd" clip-rule="evenodd" d="M20.587 22.0306V23.509H6.24728C4.36868 22.6511 3.15815 22.1159 1.31667 19.2308C1.41554 17.2235 1.42392 15.2869 1.31566 13.1917C1.30677 13.0212 1.29733 12.8496 1.28686 12.6764C1.27534 12.4901 1.2633 12.3023 1.25025 12.113C1.10481 10.0189 0.844306 7.73954 0.442017 5.06733H12.7813C12.8258 5.06733 12.8686 5.06104 12.909 5.04956C13.2469 5.55387 17.2029 15.6468 20.5515 21.3532C20.5688 21.3825 20.5588 21.4228 20.562 21.4584C20.5782 21.6361 20.587 21.8261 20.587 22.0306Z" fill="#FDE588"/>
<path fill-rule="evenodd" clip-rule="evenodd" d="M1.31697 19.231C1.25024 20.6012 1.14197 22.0026 0.999634 23.5093H6.24767C5.73016 21.2893 3.8409 19.231 1.31697 19.231Z" fill="#FFBC85"/>
<path fill-rule="evenodd" clip-rule="evenodd" d="M25.9999 19.8742V21.4582L22.7879 22.6512L19.5757 21.4582C19.5731 21.4227 19.57 21.3887 19.5653 21.3541C19.5653 21.3531 19.5653 21.3531 19.5653 21.3531C19.0955 17.2156 14.1053 20.4941 12.3689 17.2093C11.9431 16.4042 11.761 14.7374 11.8694 12.4727C11.8966 11.9161 11.94 11.3239 12.0028 10.6982C12.0153 10.5727 12.0284 10.4461 12.0425 10.3179C12.0571 10.185 12.0723 10.0511 12.088 9.91565C12.2638 8.44142 12.5353 6.8082 12.9088 5.06564C13.1029 5.00912 13.2467 4.82971 13.2467 4.61785V2.92866H19.1786C19.2231 2.92866 19.266 2.92292 19.3073 2.91089C18.7402 5.55537 18.4101 7.94402 18.2898 9.91677C18.2814 10.0523 18.2741 10.1862 18.2678 10.318C18.2615 10.4477 18.2563 10.5748 18.2521 10.7004C18.181 12.7705 18.3662 14.2954 18.7674 15.055C20.5901 18.5025 25.9999 14.7181 25.9999 19.8742Z" fill="#FDE588"/>
<path fill-rule="evenodd" clip-rule="evenodd" d="M17.9313 25.8954H18.6194C19.1592 25.8954 19.6011 25.4357 19.6011 24.8751V23.8444V23.5093H17.9313V23.8444V25.8954Z" fill="#6A5C69"/>
<path fill-rule="evenodd" clip-rule="evenodd" d="M17.313 2.92871C16.711 5.74336 16.3773 8.26734 16.2794 10.3079C16.278 10.3108 16.278 10.3153 16.278 10.3182H18.268C18.3659 8.27176 18.701 5.73737 19.3076 2.91089C19.3061 2.91089 19.3046 2.91089 19.3031 2.91236C19.2631 2.92272 19.2215 2.92866 19.1785 2.92866H17.313V2.92871Z" fill="#FDD76F"/>
<path fill-rule="evenodd" clip-rule="evenodd" d="M16.2779 10.3181C16.1696 12.5826 16.6842 15.329 17.1098 16.1343C18.9338 19.5822 24.0098 16.1298 24.0098 21.2876V21.4581H25.9999V19.8743V19.8728C25.9984 14.7181 20.5902 18.5026 18.7677 15.0547C18.4207 14.3992 18.2353 13.1713 18.2368 11.5149C18.2368 11.1367 18.2472 10.7378 18.2679 10.3181H16.2779Z" fill="#FDD76F"/>
<path d="M18.2901 9.91654C18.2817 10.052 18.2744 10.1859 18.2681 10.3178C18.2619 10.4475 18.2566 10.5746 18.2524 10.7002H12.0428C12.0292 10.7002 12.0161 10.6997 12.003 10.6981C11.8053 10.6783 11.6505 10.5108 11.6505 10.3079C11.6505 10.0908 11.8263 9.91553 12.0428 9.91553H18.2682C18.2755 9.91553 18.2828 9.91553 18.2901 9.91654Z" fill="#7E707D"/>
<path fill-rule="evenodd" clip-rule="evenodd" d="M19.6009 22.0305V23.5089H17.9316L17.896 22.2261C17.9876 19.4561 12.4355 21.4346 10.6992 18.1467C10.2979 17.386 10.1128 15.023 10.1839 12.8562C10.1881 12.7244 10.1933 12.5936 10.1996 12.4639H11.8695C11.8632 12.5968 11.8579 12.7275 11.8538 12.8562C11.7831 14.9226 11.9683 16.4455 12.369 17.2051C14.1054 20.4925 19.0956 17.2124 19.5653 21.353L19.5758 21.4582C19.592 21.636 19.6009 21.8259 19.6009 22.0305Z" fill="#FDD76F"/>
<path fill-rule="evenodd" clip-rule="evenodd" d="M12.909 5.04956C12.501 6.95482 12.2148 8.72724 12.0427 10.3082C11.9747 10.927 11.9244 11.5166 11.891 12.0727C11.8826 12.205 11.8758 12.3353 11.8695 12.464H10.1997C10.206 12.3353 10.2133 12.2045 10.2211 12.0717C10.2552 11.5156 10.3048 10.9271 10.3729 10.3082C10.545 8.73303 10.8295 6.96533 11.2345 5.06738H12.7814C12.8258 5.06733 12.8687 5.06109 12.909 5.04956Z" fill="#FDD76F"/>
<path d="M11.8908 12.0726C11.8825 12.2049 11.8757 12.3352 11.8694 12.4639C11.8631 12.5968 11.8579 12.7275 11.8537 12.8562H6.41357C5.92861 12.8562 5.59904 12.8656 5.43375 12.9928C5.25743 13.1288 5.17166 13.5007 5.17166 14.1296C5.17166 14.6129 4.97443 14.9833 4.63074 15.1444C4.53918 15.1873 4.40786 15.2287 4.23998 15.2287C3.97998 15.2287 3.63259 15.1293 3.21359 14.7814L1.31559 13.1915C1.3067 13.021 1.29726 12.8494 1.2868 12.6763C1.27527 12.49 1.26323 12.3022 1.25018 12.1128L3.71419 14.1771C4.01395 14.4256 4.22688 14.4669 4.29751 14.434C4.34043 14.4141 4.38699 14.31 4.38699 14.1296C4.38699 13.2036 4.55701 12.6778 4.95513 12.3713C5.34381 12.0715 5.8633 12.0715 6.41362 12.0715H11.8695C11.8767 12.0715 11.8835 12.0715 11.8908 12.0726Z" fill="#7E707D"/>
<path fill-rule="evenodd" clip-rule="evenodd" d="M19.6012 22.0307V23.5092V23.8444H20.5888L21.4192 23.0184L22.2497 23.8444H25.0183C25.5581 23.8444 26 23.3846 26 22.8241V21.4583H19.576C19.5923 21.6362 19.6012 21.8261 19.6012 22.0307Z" fill="#7E707D"/>
<path d="M24.0099 21.4583V23.8444H25.0183C25.5581 23.8444 26 23.3846 26 22.8241V21.4583H24.0099V21.4583Z" fill="#6A5C69"/>
</g>
<defs>
<clipPath id="clip0_414_12260">
<rect width="26" height="26" fill="white"/>
</clipPath>
</defs>
</svg>
