<svg width="206" height="295" viewBox="0 0 206 295" fill="none" xmlns="http://www.w3.org/2000/svg">
<path d="M99.5687 294.229C94.9076 294.237 90.2592 293.743 85.7036 292.754C77.7409 291.113 70.2402 287.721 63.7418 282.823C57.2434 277.925 51.909 271.642 48.1231 264.427C45.1188 257.678 42.8871 250.609 41.4706 243.357L41.1438 241.975C36.4754 222.029 30.5933 200.935 19.7393 181.879C17.9886 178.812 16.0746 175.745 14.2306 172.795C9.76935 166.116 5.99213 159.002 2.95643 151.561C-1.71196 138.802 -0.848304 126.113 5.52404 117.755C6.36345 116.457 7.45564 115.342 8.73513 114.477C10.0146 113.612 11.4551 113.015 12.9701 112.722C13.8933 112.61 14.8296 112.689 15.7209 112.955C16.6123 113.221 17.4397 113.667 18.152 114.267C18.7077 114.711 19.1633 115.269 19.4892 115.902C19.815 116.535 20.0036 117.231 20.0427 117.943H18.5255C18.489 117.446 18.3497 116.963 18.1166 116.524C17.8835 116.084 17.5617 115.698 17.1717 115.391C16.6175 114.929 15.9767 114.584 15.2871 114.374C14.5976 114.165 13.8732 114.097 13.1569 114.173C10.5271 114.774 8.22874 116.367 6.73782 118.621C0.692263 126.605 -0.264756 138.708 4.40363 150.976C7.41362 158.363 11.1678 165.423 15.6078 172.046C17.4518 175.019 19.3658 178.086 21.1398 181.176C32.0171 200.373 37.9693 221.584 42.6377 241.647L42.9645 243.029C44.3513 250.162 46.544 257.113 49.5002 263.748C53.1793 270.759 58.3647 276.864 64.682 281.621C70.9993 286.378 78.2909 289.669 86.0304 291.256C101.68 294.367 117.918 292.159 132.177 284.982C137.887 282.43 143.042 278.779 147.35 274.236C151.732 268.916 155.109 262.839 157.317 256.303C161.215 246.049 164.319 235.233 167.12 224.815C171.438 209.27 175.897 193.186 183.46 178.624C185.794 174.364 188.128 170.173 190.602 166.123C195.235 158.854 199.144 151.146 202.273 143.11C204.957 135.478 205.074 129.063 202.647 124.381C201.794 122.819 200.61 121.465 199.178 120.413C197.747 119.361 196.102 118.638 194.36 118.294C193.145 118.005 191.879 118.005 190.663 118.294C189.447 118.583 188.316 119.152 187.358 119.956L186.354 118.809C187.48 117.842 188.816 117.153 190.254 116.795C191.693 116.438 193.195 116.422 194.64 116.749C196.616 117.158 198.478 117.999 200.092 119.213C201.706 120.427 203.032 121.984 203.977 123.772C206.615 128.922 206.498 135.618 203.674 143.671C200.512 151.809 196.54 159.606 191.816 166.942C189.482 170.992 186.914 175.16 184.813 179.374C177.344 193.795 172.909 209.808 168.614 225.26C165.696 235.748 162.685 246.587 158.74 256.888C156.484 263.605 153.019 269.85 148.517 275.313C144.067 280.001 138.747 283.77 132.854 286.41C122.48 291.475 111.107 294.147 99.5687 294.229Z" fill="#AB8DA8"/>
<path d="M116.701 21.628C117.908 19.7066 118.599 17.505 118.708 15.2367C118.84 14.218 118.748 13.1827 118.437 12.2038C118.126 11.2249 117.606 10.3262 116.911 9.57118C116.328 9.00931 115.604 8.5645 115.067 7.95581C114.53 7.34712 114.273 6.71501 113.83 6.12973C113.349 5.50183 112.731 4.99354 112.022 4.64436C111.314 4.29518 110.535 4.1145 109.745 4.11636C108.135 4.11636 106.431 4.86552 105.077 4.11636C104.236 3.69496 103.676 2.85216 102.743 2.38393C101.864 1.93536 100.856 1.81105 99.8949 2.03277C99.0555 2.3264 98.169 2.46135 97.2806 2.43076C96.0201 2.24347 95.1565 1.11973 94.036 0.487624C93.4601 0.192286 92.8267 0.0268828 92.1803 0.00301214C91.5339 -0.0208585 90.8901 0.0973814 90.2941 0.349441C89.698 0.6015 89.1642 0.981277 88.73 1.46214C88.2957 1.94301 87.9716 2.51332 87.7804 3.13309C87.6282 3.72429 87.6282 4.34456 87.7804 4.93576C88.0372 6.36384 89.0175 7.51099 89.0876 8.93908C89.1576 10.3672 88.2939 11.608 89.0876 12.8722C89.8812 14.1364 91.0483 14.1832 91.6085 15.3772C92.3554 16.9925 91.6085 19.0996 92.2854 20.832C92.6355 21.9323 92.8223 23.5009 93.8493 24.2032C95.2732 25.1865 98.3776 24.3671 100.082 24.2032L106.687 23.6647C109.605 23.3838 113.2 23.6647 115.837 22.2132C116.156 22.068 116.448 21.8701 116.701 21.628Z" fill="#3B2645"/>
<path d="M94.2935 20.5974C94.0617 20.2782 93.758 20.0184 93.4071 19.8393C93.0562 19.6602 92.6681 19.5669 92.2744 19.5669C91.8807 19.5669 91.4926 19.6602 91.1417 19.8393C90.7908 20.0184 90.4871 20.2782 90.2553 20.5974C88.2246 22.9385 91.6558 27.6208 94.2935 27.9017C94.447 25.4694 94.447 23.0297 94.2935 20.5974Z" fill="#E0855C"/>
<path d="M127.089 59.8123C126.474 63.7558 125.648 67.6633 124.615 71.5179C124.451 72.2437 124.311 72.946 124.218 73.6249C124.124 74.3039 124.031 74.8189 123.914 75.6851C123.914 75.849 123.914 76.0363 123.914 76.2002C123.914 76.762 123.751 77.3473 123.681 77.9794L120.74 105.488C102.463 110.521 83.3928 105.488 83.3928 105.488C83.3928 105.488 83.3928 105.136 83.3928 104.458C83.0893 101.344 82.1557 91.4409 81.222 80.2737C81.222 80.2737 81.222 80.1098 81.222 80.0396C81.2314 79.8681 81.2314 79.6961 81.222 79.5246C80.8252 74.8423 80.4517 69.8791 80.1483 65.1501C79.5881 56.9327 79.2379 49.3475 79.308 44.6418C79.308 42.9094 83.3461 43.0967 86.1004 42.7221C88.1312 42.4412 90.2086 42.2539 92.006 42.1602C93.8033 42.0666 95.1571 42.0198 96.0674 42.0198H97.0945C97.0945 42.0198 97.3279 39.3275 97.3279 39.3041L97.9581 32.7021C98.2646 32.7813 98.5768 32.8361 98.8918 32.866C99.4695 32.9745 100.055 33.0372 100.642 33.0533C101.413 33.0533 102.136 33.0533 102.813 33.0533L103.817 32.9362H104.401C105.054 32.8191 105.684 32.6787 106.268 32.5148C106.851 32.3509 107.038 32.2807 107.412 32.1636C109.117 31.6156 110.736 30.8273 112.22 29.8225L112.43 29.682L112.827 29.3777L113.107 29.167C113.107 29.4947 113.107 29.6352 113.107 29.7757C112.92 31.3208 112.71 33.2874 112.617 35.2305C112.617 36.5884 112.477 37.9228 112.43 39.0699C112.383 40.2171 112.01 41.8793 112.827 42.4646C113.118 42.6288 113.433 42.7473 113.761 42.8157C115.042 43.0186 116.339 43.1048 117.635 43.0733C118.032 43.0733 118.429 43.0733 118.826 43.0733C119.821 43.0151 120.819 43.0151 121.814 43.0733C122.509 43.0712 123.198 43.209 123.839 43.4784C124.481 43.7478 125.062 44.1434 125.548 44.6418C126.153 45.5202 126.538 46.5322 126.669 47.5916L126.949 49.5114C127.393 52.928 127.44 56.3848 127.089 59.8123Z" fill="#FFEDE5"/>
<path d="M113.014 29.0023C112.698 30.6777 112.016 32.2622 111.017 33.6418C110.018 35.0214 108.727 36.1618 107.236 36.9811C105.745 37.8004 104.091 38.2782 102.394 38.3802C100.697 38.4821 98.9989 38.2057 97.4211 37.5708L97.8646 32.7247C100.508 33.2361 103.23 33.1683 105.845 32.5258C108.46 31.8833 110.905 30.6813 113.014 29.0023Z" fill="#E0855C"/>
<path d="M94.7608 13.5752C93.4069 14.9799 93.2902 18.117 93.1968 21.5818C92.8467 32.1169 95.9979 35.3945 101.343 35.9798C106.688 36.565 112.314 34.4814 113.458 24.7424C114.041 19.8494 114.648 15.3779 112.874 13.2474C110.33 10.1103 98.8689 9.26754 94.7608 13.5752Z" fill="#FFEDE5"/>
<path d="M112.664 23.3145C112.664 23.3145 114.298 18.96 116.889 21.2777C119.48 23.5954 115.909 30.174 111.941 29.6823C111.987 29.6823 111.45 24.8128 112.664 23.3145Z" fill="#FFEDE5"/>
<path d="M115.745 23.2669C115.132 23.4589 114.583 23.8151 114.158 24.297C113.676 24.7009 113.286 25.2039 113.014 25.7719C113.014 25.9358 113.177 26.0529 113.294 25.9358C113.623 25.6091 113.935 25.2653 114.228 24.9057C114.441 25.1412 114.704 25.3253 114.998 25.4442C115.231 25.4442 115.418 25.2335 115.325 25.0462C115.163 24.7983 114.948 24.5902 114.695 24.4375C115.13 24.1576 115.544 23.8446 115.932 23.5011C115.939 23.4729 115.94 23.4434 115.933 23.415C115.927 23.3865 115.915 23.3599 115.897 23.3371C115.879 23.3144 115.855 23.2962 115.829 23.2841C115.803 23.2719 115.774 23.266 115.745 23.2669Z" fill="#E0855C"/>
<path d="M97.7947 21.3469C97.7947 21.3469 96.8844 21.6747 97.0244 20.0593C97.1645 18.4439 97.7947 18.8185 97.7947 18.8185C97.7947 18.8185 98.4249 18.8185 98.3316 20.0827C98.2382 21.3469 97.7947 21.3469 97.7947 21.3469Z" fill="#3B2645"/>
<path d="M106.968 21.3469C106.968 21.3469 106.081 21.6747 106.221 20.0593C106.361 18.4439 106.968 18.8185 106.968 18.8185C106.968 18.8185 107.598 18.8185 107.505 20.0827C107.412 21.3469 106.968 21.3469 106.968 21.3469Z" fill="#3B2645"/>
<path d="M98.7753 16.4541C98.4085 16.2458 97.9857 16.1586 97.5667 16.2048C97.1478 16.251 96.7539 16.4284 96.4411 16.7116C96.4252 16.7436 96.4178 16.7792 96.4194 16.8149C96.421 16.8506 96.4317 16.8853 96.4504 16.9157C96.469 16.9461 96.4951 16.9713 96.5262 16.9889C96.5572 17.0064 96.5922 17.0157 96.6278 17.016C96.9546 17.016 97.2347 16.8287 97.5615 16.8053C97.9038 16.7889 98.2457 16.8447 98.5652 16.9692C98.8686 17.0628 99.0787 16.5946 98.7753 16.4541Z" fill="#3B2645"/>
<path d="M108.345 17.2509C107.972 16.3144 106.361 16.2442 105.661 16.806C105.627 16.8323 105.6 16.866 105.581 16.9045C105.562 16.9431 105.552 16.9855 105.552 17.0284C105.552 17.0714 105.562 17.1138 105.581 17.1524C105.6 17.1909 105.627 17.2246 105.661 17.2509C106.08 17.2859 106.502 17.2859 106.921 17.2509C107.261 17.3057 107.591 17.4081 107.902 17.5552C107.942 17.6142 108.004 17.6547 108.074 17.6679C108.144 17.6811 108.216 17.6658 108.275 17.6254C108.334 17.5851 108.375 17.5229 108.388 17.4527C108.401 17.3824 108.386 17.3098 108.345 17.2509Z" fill="#3B2645"/>
<path d="M99.6387 28.8854C101.608 29.1443 103.609 28.8016 105.381 27.9021C105.116 28.5268 104.723 29.089 104.229 29.5527C103.735 30.0163 103.149 30.3712 102.51 30.5944C100.479 31.1563 99.6387 28.8854 99.6387 28.8854Z" fill="white"/>
<path d="M87.8506 44.618C93.2192 48.3872 93.7094 55.7149 91.0951 61.5677C89.3211 65.4774 86.0299 68.2165 84.0925 71.9155C82.0736 75.503 79.7295 78.8964 77.0899 82.0526C71.3011 89.4271 65.7924 96.0993 63.6683 98.6277C56.3623 107.384 41.0033 118.949 35.4713 122.975C34.2108 123.912 33.4639 124.427 33.4639 124.427C33.4639 124.427 28.1652 121.641 29.5658 116.49C29.5658 116.49 50.5735 94.1094 53.678 89.5442C57.1087 83.6104 60.2253 77.4994 63.0147 71.2366C66.5938 64.2912 70.3208 57.4396 74.1955 50.6815C75.9695 47.5678 78.2337 43.6581 82.1318 42.9558C83.7049 42.7785 85.2931 43.1151 86.6601 43.9157C87.0731 44.121 87.471 44.3557 87.8506 44.618Z" fill="#FFEDE5"/>
<path d="M29.5665 116.514C30.1414 116.47 30.7188 116.47 31.2938 116.514C31.2938 116.514 36.3356 119.324 35.472 122.976C35.472 122.976 34.9351 123.467 34.0948 124.217C33.2545 124.966 32.3441 125.855 31.2471 126.979C30.15 128.103 27.6524 131.661 26.5787 131.357C26.3284 131.264 26.1098 131.102 25.9485 130.889L23.7777 128.548C22.5639 127.19 20.5331 124.896 22.0737 123.093C20.9533 123.772 18.339 125.434 17.0552 124.638L16.5183 123.772C16.5183 123.772 20.3697 120.892 21.957 119.464C24.0982 117.664 26.7744 116.626 29.5665 116.514Z" fill="#FFEDE5"/>
<path d="M94.2236 80.4843C94.2155 80.6092 94.2155 80.7345 94.2236 80.8594C94.2236 80.8594 94.4339 80.8594 94.3872 80.8594L94.2236 80.4843Z" fill="#D6BED3"/>
<path d="M102.883 156.36C100.736 173.614 98.2147 188.621 98.2147 188.621C98.5648 192.788 98.7282 197.306 98.7282 201.942C98.7282 211.025 98.1213 220.671 97.351 229.169C96.3707 240.008 95.0169 249.232 94.4333 253.868V254.453C95.297 285.192 86.5671 289.266 82.4822 282.547C78.3974 275.828 82.4822 256.022 82.4822 256.022C82.4954 255.842 82.4954 255.663 82.4822 255.483C80.7637 246.285 79.6177 236.988 79.051 227.647C77.6505 205.032 80.0547 189.557 79.7746 186.748C74.8961 137.584 81.712 110.474 81.712 110.474C82.7761 106.535 84.6973 102.881 87.3374 99.7752C92.3092 94.3906 98.2847 95.7484 102.043 102.327C102.438 103.002 102.796 103.697 103.117 104.411C104.648 108.189 105.516 112.205 105.684 116.28C106.058 126.464 104.634 142.173 102.883 156.36Z" fill="#FFEDE5"/>
<path d="M126.996 226.453C126.453 235.989 125.314 245.481 123.588 254.874L123.378 256.022C123.378 256.022 127.462 275.898 123.378 282.546C119.293 289.195 110.656 285.309 111.427 254.874C111.427 254.734 111.427 254.593 111.427 254.476C110.773 250.075 109.466 240.547 108.439 229.262C107.645 220.694 107.038 211.095 107.038 202.012C107.038 197.33 107.225 192.835 107.575 188.644C107.575 188.644 104.984 173.637 102.907 156.407C101.156 142.196 99.7089 126.487 100.316 116.397C100.49 112.32 101.367 108.304 102.907 104.527C103.213 103.792 103.571 103.08 103.98 102.397C108.299 94.882 115.488 94.2265 120.787 102.701C122.304 105.158 123.497 107.802 124.335 110.568C124.335 110.568 131.15 137.608 126.272 186.841C125.922 189.604 128.233 204.54 126.996 226.453Z" fill="#FFEDE5"/>
<path d="M29.0058 131.708C29.4709 132.248 30.0485 132.679 30.6979 132.97C31.3473 133.262 32.0526 133.406 32.7639 133.394C33.0897 133.318 33.3968 133.176 33.6665 132.978C33.9363 132.779 34.1631 132.528 34.3333 132.239C34.5034 131.95 34.6135 131.63 34.6567 131.297C34.6998 130.964 34.6753 130.626 34.5846 130.303C34.3131 129.591 33.8724 128.956 33.3008 128.454C29.7761 124.942 26.1581 121.431 22.4934 118.176C21.881 117.484 21.0626 117.008 20.1592 116.819C19.3192 116.818 18.5062 117.117 17.865 117.661C17.2239 118.206 16.7961 118.961 16.658 119.792C16.658 121.29 17.9418 121.852 18.9922 122.695C22.3067 125.645 25.6213 128.735 29.0058 131.708Z" fill="#3B2645"/>
<path d="M28.4921 127.563C28.6374 127.413 28.7558 127.239 28.8422 127.048C28.9014 126.806 28.9048 126.554 28.8522 126.311C28.7997 126.067 28.6925 125.839 28.5388 125.644C27.6751 124.216 25.9011 121.921 24.1505 121.711C23.5725 121.681 22.9969 121.804 22.4809 122.067C21.9649 122.33 21.5266 122.723 21.2094 123.209C20.6856 123.965 20.3525 124.837 20.2386 125.75C20.1248 126.664 20.2336 127.591 20.5558 128.453C21.0682 130.004 22.1206 131.317 23.5203 132.152C24.2187 132.449 25.0045 132.464 25.7135 132.193C26.4224 131.923 26.9998 131.388 27.325 130.701C27.6751 129.834 27.5584 128.781 28.1186 128.055C28.2249 127.878 28.3501 127.713 28.4921 127.563Z" fill="#FFEDE5"/>
<path d="M117.822 44.6185C112.43 48.3877 111.94 55.7154 114.578 61.5682C116.328 65.4779 119.62 68.217 121.58 71.916C123.616 75.4931 125.959 78.8851 128.583 82.0531C134.372 89.4276 139.904 96.0998 142.005 98.6282C149.334 107.431 164.693 118.949 170.225 122.976L172.256 124.427C172.256 124.427 177.531 121.641 176.13 116.491C176.13 116.491 155.123 94.1099 152.018 89.5447C148.578 83.616 145.461 77.5045 142.681 71.2371C139.087 64.2137 135.375 57.4479 131.477 50.682C129.703 47.5683 127.463 43.6586 123.541 42.9563C121.968 42.7807 120.38 43.1172 119.013 43.9162C118.599 44.1205 118.201 44.3552 117.822 44.6185Z" fill="#FFEDE5"/>
<path d="M176.107 116.514C175.524 116.47 174.939 116.47 174.357 116.514C174.357 116.514 169.315 119.323 170.178 122.976C170.178 122.976 170.739 123.467 171.556 124.216C172.373 124.966 173.33 125.855 174.403 126.979C175.477 128.103 178.021 131.661 179.072 131.357C179.318 131.258 179.536 131.097 179.702 130.889L181.849 128.547C183.086 127.19 185.094 124.895 183.577 123.093C184.674 123.772 187.288 125.434 188.595 124.638L189.039 123.772C189.039 123.772 185.187 120.892 183.577 119.464C181.477 117.686 178.852 116.649 176.107 116.514Z" fill="#FFEDE5"/>
<path d="M176.644 131.708C176.179 132.248 175.601 132.679 174.952 132.97C174.303 133.261 173.597 133.406 172.886 133.394C172.556 133.323 172.244 133.185 171.969 132.989C171.694 132.793 171.462 132.542 171.287 132.253C171.112 131.964 170.998 131.641 170.952 131.306C170.906 130.971 170.929 130.629 171.019 130.303C171.31 129.623 171.758 129.021 172.326 128.548C175.858 125.036 179.469 121.61 183.157 118.27C183.766 117.574 184.586 117.097 185.491 116.912C186.328 116.913 187.138 117.212 187.775 117.757C188.413 118.302 188.836 119.056 188.969 119.885C188.969 121.384 187.708 121.946 186.635 122.788C183.343 125.645 180.029 128.735 176.644 131.708Z" fill="#3B2645"/>
<path d="M177.181 127.563C177.022 127.42 176.894 127.245 176.807 127.048C176.758 126.804 176.762 126.553 176.818 126.31C176.875 126.068 176.982 125.841 177.134 125.644C177.975 124.216 179.748 121.921 181.499 121.711C182.077 121.681 182.653 121.804 183.169 122.067C183.685 122.33 184.123 122.723 184.44 123.209C184.958 123.968 185.282 124.844 185.384 125.758C185.486 126.672 185.362 127.598 185.024 128.453C184.527 130.012 183.47 131.33 182.059 132.152C181.361 132.449 180.575 132.464 179.866 132.193C179.157 131.923 178.58 131.388 178.255 130.701C177.928 129.834 178.045 128.781 177.461 128.055L177.181 127.563Z" fill="#FFEDE5"/>
<path d="M127.346 211.446V213.787C127.346 215.356 127.346 216.971 127.346 218.633V220.53C127.346 222.449 127.206 224.439 127.112 226.476C121.069 228.148 114.846 229.084 108.579 229.262C108.322 226.64 107.809 219.663 107.785 218.891C107.785 217.299 107.435 212.804 107.412 212.195C107.272 208.777 107.178 205.359 107.178 202.011C107.178 197.657 107.342 193.396 107.669 189.439C107.669 189.158 107.669 188.901 107.669 188.643C107.669 188.386 105.078 173.66 103 156.406C102.767 158.232 102.533 160.058 102.3 161.814C100.339 176.657 98.2617 188.643 98.2617 188.643C98.6119 192.811 98.7752 197.329 98.7752 201.964C98.7752 205.5 98.7752 208.988 98.5185 212.687C98.5185 213.295 98.0516 221.115 97.9816 221.864C97.8182 224.369 97.6081 226.827 97.3981 229.192C94.1302 229.051 90.909 228.841 87.7112 228.56C85.1902 228.349 82.0157 228.208 78.9346 227.764C78.7946 225.657 78.7012 223.643 78.6312 221.677C78.6312 221.185 78.6312 220.693 78.6312 220.202C78.6312 218.048 78.6312 216.011 78.6312 214.045V212.499C78.6312 198.312 80.0083 188.971 79.7983 186.747C74.9198 137.584 81.7356 110.473 81.7356 110.473C82.7998 106.534 84.7209 102.88 87.361 99.7744C89.3619 100.085 91.3254 100.603 93.2199 101.32C96.1059 102.076 99.0848 102.415 102.066 102.326H104.214C106.805 102.326 109.396 102.022 111.963 101.952H113.691C116.152 101.915 118.61 102.15 121.02 102.654C122.461 105.137 123.575 107.797 124.335 110.567C126.22 119.403 127.329 128.389 127.649 137.42C128.44 153.905 127.98 170.426 126.272 186.841C125.992 188.924 127.229 197.844 127.346 211.446Z" fill="#3B2645"/>
<path d="M94.2933 254.453C94.6201 266.556 93.4764 274.516 91.7024 279.316C88.9947 286.737 84.6998 286.643 82.3656 282.64C81.7352 281.529 81.3009 280.317 81.0818 279.058C79.3779 270.7 82.3656 256.115 82.3656 256.115C82.3787 255.936 82.3787 255.756 82.3656 255.577C83.527 256.426 84.8435 257.039 86.2404 257.379C87.8077 257.765 89.4576 257.632 90.9429 256.999C92.4283 256.366 93.6693 255.267 94.4801 253.868L94.2933 254.453Z" fill="#AB8DA8"/>
<path d="M124.778 278.403C124.579 279.89 124.104 281.328 123.377 282.64C120.856 286.76 116.515 286.737 113.83 278.754C112.197 274.072 111.146 266.276 111.496 254.851C113.244 256.426 115.496 257.323 117.845 257.379C119.941 257.186 121.932 256.371 123.564 255.038C123.607 255.404 123.607 255.773 123.564 256.139C123.564 256.139 126.225 269.951 124.778 278.403Z" fill="#AB8DA8"/>
<path d="M90.7685 261.64C89.5862 260.933 88.2353 260.56 86.8587 260.56C85.4822 260.56 84.1312 260.933 82.949 261.64C82.9051 261.689 82.8758 261.749 82.8643 261.814C82.8528 261.878 82.8596 261.945 82.8839 262.006C82.9082 262.067 82.9491 262.12 83.0018 262.158C83.0546 262.197 83.1171 262.22 83.1824 262.225C84.3495 262.225 85.5166 261.734 86.6136 261.757C87.8978 261.867 89.1659 262.118 90.395 262.506C90.5002 262.52 90.6068 262.498 90.6988 262.445C90.7908 262.393 90.8633 262.311 90.9054 262.214C90.9475 262.116 90.9569 262.007 90.9322 261.904C90.9075 261.801 90.8501 261.708 90.7685 261.64Z" fill="#291B30"/>
<path d="M90.3949 265.386C88.4016 264.22 86.0625 263.798 83.7891 264.192C83.0189 264.192 82.9955 265.479 83.7891 265.409C84.8874 265.303 85.995 265.351 87.0804 265.55C88.0841 265.737 88.9944 266.158 89.9981 266.369C90.1216 266.395 90.2505 266.377 90.3621 266.318C90.4737 266.259 90.5609 266.162 90.6083 266.044C90.6557 265.927 90.6603 265.797 90.6212 265.676C90.5822 265.556 90.5021 265.453 90.3949 265.386Z" fill="#291B30"/>
<path d="M121.3 261.641C119.526 261.032 115.674 260.798 114.297 262.437C114.11 262.647 114.297 263.092 114.554 263.069C115.651 262.928 116.608 262.483 117.752 262.437C118.895 262.39 120.086 262.694 121.16 262.624C121.224 262.633 121.29 262.629 121.353 262.613C121.416 262.597 121.475 262.569 121.527 262.529C121.579 262.49 121.623 262.441 121.656 262.385C121.689 262.329 121.711 262.267 121.72 262.202C121.729 262.138 121.725 262.072 121.709 262.009C121.693 261.946 121.665 261.886 121.626 261.834C121.587 261.782 121.538 261.738 121.482 261.705C121.426 261.672 121.364 261.65 121.3 261.641Z" fill="#291B30"/>
<path d="M122.164 265.596C120.227 264.73 115.395 264.098 114.415 266.72C114.275 267.071 114.718 267.352 114.998 267.188C116.007 266.624 117.131 266.299 118.284 266.239C119.437 266.178 120.589 266.382 121.651 266.837C122.351 267.118 122.888 265.901 122.164 265.596Z" fill="#291B30"/>
<path d="M33.7911 41.8319C33.7911 41.6914 33.511 41.6914 33.4876 41.8319C32.3206 49.8151 32.9975 58.2198 32.9975 66.3903C32.9975 75.0291 32.7174 83.738 33.2309 92.3534C33.253 92.4454 33.3053 92.5272 33.3794 92.5858C33.4535 92.6443 33.545 92.6761 33.6394 92.6761C33.7337 92.6761 33.8253 92.6443 33.8994 92.5858C33.9735 92.5272 34.0258 92.4454 34.0479 92.3534C34.538 83.738 34.2579 75.0291 34.2579 66.3903C34.2579 58.4071 34.9348 49.8854 33.7911 41.8319Z" fill="#F7F8F8"/>
<path d="M43.9918 44.5477C43.967 44.4327 43.9036 44.3298 43.8123 44.256C43.721 44.1821 43.6073 44.1418 43.49 44.1418C43.3727 44.1418 43.2589 44.1821 43.1676 44.256C43.0763 44.3298 43.013 44.4327 42.9881 44.5477C42.9881 52.2266 42.4979 60.0459 42.9881 67.7014C42.9881 67.8318 43.0398 67.9569 43.1317 68.0491C43.2236 68.1413 43.3483 68.1931 43.4783 68.1931C43.6083 68.1931 43.733 68.1413 43.8249 68.0491C43.9168 67.9569 43.9685 67.8318 43.9685 67.7014C44.5053 60.0459 44.0385 52.2266 43.9918 44.5477Z" fill="#F7F8F8"/>
<path d="M148.353 124.942C148.334 124.872 148.293 124.811 148.236 124.768C148.179 124.724 148.109 124.701 148.038 124.701C147.966 124.701 147.897 124.724 147.84 124.768C147.783 124.811 147.742 124.872 147.723 124.942C147.065 134.995 146.933 145.075 147.326 155.142C147.326 165.209 147.326 175.252 147.699 185.319C147.719 185.394 147.763 185.46 147.824 185.508C147.885 185.555 147.961 185.58 148.038 185.58C148.115 185.58 148.19 185.555 148.251 185.508C148.313 185.46 148.356 185.394 148.376 185.319C148.703 175.252 148.703 165.209 148.75 155.142C149.131 145.075 148.999 134.995 148.353 124.942Z" fill="#F7F8F8"/>
<path d="M166.35 66.0628C166.278 59.364 165.841 52.6741 165.043 46.0228C165.043 45.6248 164.413 45.7419 164.39 46.0228C164.21 53.2162 164.42 60.4141 165.02 67.5846C165.323 74.2568 165.253 81.0928 166.14 87.6948C166.14 88.3035 167.167 88.1162 167.191 87.5543C167.517 80.4139 166.771 73.133 166.35 66.0628Z" fill="#F7F8F8"/>
<path d="M171.018 69.785C171.002 69.7326 170.969 69.6868 170.925 69.6543C170.881 69.6218 170.828 69.6042 170.773 69.6042C170.718 69.6042 170.665 69.6218 170.621 69.6543C170.577 69.6868 170.544 69.7326 170.528 69.785C169.91 79.4035 169.863 89.0504 170.388 98.6745C170.374 98.7331 170.373 98.7943 170.385 98.8534C170.398 98.9125 170.424 98.9679 170.461 99.0155C170.498 99.0631 170.545 99.1016 170.599 99.1281C170.654 99.1545 170.713 99.1683 170.773 99.1683C170.833 99.1683 170.893 99.1545 170.947 99.1281C171.001 99.1016 171.049 99.0631 171.086 99.0155C171.123 98.9679 171.149 98.9125 171.161 98.8534C171.174 98.7943 171.173 98.7331 171.158 98.6745C171.684 89.0504 171.637 79.4035 171.018 69.785Z" fill="#F7F8F8"/>
<path d="M102.183 161.791C102.219 159.968 102.454 158.155 102.883 156.383C102.65 158.209 102.417 160.036 102.183 161.791Z" fill="#291B30"/>
<path d="M127.579 137.42C124.428 118.434 98.4018 117.544 98.4018 117.544C96.7912 109.725 107.295 107.384 107.295 107.384L113.434 102.07C115.895 102.033 118.353 102.268 120.763 102.772C122.284 105.205 123.484 107.826 124.335 110.568C126.182 119.409 127.267 128.393 127.579 137.42Z" fill="#291B30"/>
<path d="M124.707 112.604C103.7 122.507 80.8713 113.424 80.8713 113.424C82.5286 108.741 81.2915 84.8618 81.1748 80.32C81.1748 80.32 81.1748 80.1562 81.1748 80.0859C81.1842 79.9144 81.1842 79.7424 81.1748 79.5709C85.5864 69.3167 86.0766 49.5577 86.0999 42.7684C88.084 42.4641 90.1614 42.3002 91.9588 42.2065C92.659 49.7918 95.1566 69.2465 102.112 68.4037C109.068 67.5609 112.383 50.2366 113.597 42.6514C114.877 42.8667 116.175 42.9529 117.471 42.9089C117.868 42.9089 118.265 42.9089 118.662 42.9089C118.055 53.2801 123.797 75.0759 123.961 75.6846C123.961 75.8485 123.961 76.0358 123.961 76.1996C123.961 76.7615 123.797 77.3468 123.727 77.9789C123.727 77.9789 123.727 78.2364 123.727 78.3769C122.257 91.5808 124.707 112.604 124.707 112.604Z" fill="#AB8DA8"/>
</svg>
