<svg width="184" height="291" viewBox="0 0 184 291" fill="none" xmlns="http://www.w3.org/2000/svg">
<path d="M95.8259 120.128C95.6462 123.695 95.1843 127.827 94.5171 132.395C93.311 140.453 91.4634 149.64 89.3847 158.57C84.8169 179.048 79.3766 197.935 79.3766 197.935C78.911 209.998 77.5298 222.008 75.245 233.862C75.014 235.171 74.7831 236.428 74.5265 237.711C73.7566 241.843 72.9354 245.821 72.1656 249.49C69.3171 262.527 66.7252 271.944 66.7252 271.944L54.2279 269.789C53.6376 262.706 53.4067 255.931 53.4323 249.593C53.4323 245.641 53.4323 241.894 53.689 238.25C53.689 236.351 53.8942 234.504 54.0226 232.733C55.4853 211.126 59.1549 196.806 59.1549 193.958C59.1549 179.51 60.1044 166.91 61.2592 156.158C64.4926 126.518 70.2153 111.07 70.2153 111.07C78.2988 92.4904 90.4112 93.7735 94.4145 107.451C95.5719 111.572 96.0486 115.854 95.8259 120.128Z" fill="#FFEDE5"/>
<path d="M135.576 253.545C135.576 258.677 135.268 264.092 134.806 269.686L122.308 272.073C122.308 272.073 120.101 263.989 117.51 252.39C116.56 248.13 115.559 243.408 114.61 238.43C114.353 237.019 114.071 235.556 113.814 234.119C111.516 222.18 110.126 210.084 109.657 197.935C109.657 197.935 104.165 178.869 99.5462 158.288C97.5446 149.46 95.697 140.324 94.4139 132.343C93.721 127.801 93.2847 123.618 93.1051 120.077C92.8306 115.757 93.2728 111.422 94.4139 107.246C98.4684 93.5682 110.555 92.3108 118.639 110.864C118.639 110.864 124.336 126.262 127.543 155.721C128.897 168.354 129.608 181.048 129.673 193.752C129.673 196.601 133.369 210.638 134.806 231.937C134.806 233.734 135.037 235.556 135.139 237.429C135.55 242.536 135.653 247.874 135.576 253.545Z" fill="#FFEDE5"/>
<path d="M134.986 232.04C127.961 233.104 120.886 233.798 113.789 234.119C111.499 222.179 110.118 210.084 109.657 197.935C109.657 197.935 104.166 178.869 99.5465 158.288C97.5449 149.46 95.6972 140.324 94.4141 132.343C93.208 140.401 91.3604 149.588 89.2817 158.519C84.8166 179.048 79.3762 197.935 79.3762 197.935C78.9106 209.998 77.5295 222.008 75.2447 233.862C67.5461 233.503 60.1811 233.015 54.0222 232.502C55.4849 210.895 59.1546 196.575 59.1546 193.727C59.1546 179.279 60.1041 166.679 61.2589 155.927C64.4923 126.287 70.2149 110.839 70.2149 110.839C78.2984 92.2594 90.4109 93.5425 94.4141 107.22C97.4936 96.776 105.269 93.5682 112.378 100.908C115.031 103.825 117.15 107.187 118.639 110.839C120.235 115.557 121.555 120.363 122.591 125.235C124.854 135.327 126.542 145.54 127.646 155.824C129 168.457 129.711 181.15 129.776 193.855C129.802 196.704 133.472 210.766 134.986 232.04Z" fill="#AB8DA8"/>
<path d="M122.694 125.363C115.662 117.69 84.8423 115.817 84.8423 115.817L112.48 101.164C115.133 104.082 117.253 107.444 118.742 111.095C120.333 115.771 121.653 120.535 122.694 125.363Z" fill="#826B80"/>
<path d="M68.3671 284.673C68.3813 284.801 68.3813 284.93 68.3671 285.058C67.9566 290.832 63.2348 289.959 56.2547 290.19C50.6861 290.19 47.7093 287.085 48.0429 283.723C48.1523 282.705 48.5236 281.733 49.1207 280.9C50.7098 278.417 51.8721 275.684 52.5594 272.817C52.8615 271.519 53.5941 270.361 54.638 269.532C59.0262 265.991 63.2348 268.711 65.339 270.661C66.2795 271.501 66.9344 272.614 67.2124 273.843C68.0033 277.398 68.3907 281.031 68.3671 284.673Z" fill="#3B2645"/>
<path d="M132.856 290.062C125.696 290.062 120.82 290.883 120.692 284.673V284.134C120.678 280.731 121.057 277.339 121.821 274.023C122.116 272.615 122.853 271.338 123.925 270.379C125.131 268.994 126.791 268.086 128.608 267.817C130.424 267.549 132.276 267.939 133.831 268.916C135.217 269.874 136.203 271.308 136.602 272.945C137.297 275.682 138.441 278.283 139.99 280.644C140.325 281.127 140.593 281.654 140.785 282.209C142.017 286.11 139.117 290.164 132.856 290.062Z" fill="#3B2645"/>
<path d="M107.399 20.8679C108.083 20.0691 108.52 19.0882 108.656 18.0451C108.729 16.3861 109.031 14.7452 109.554 13.1693C110.017 12.4717 110.396 11.7224 110.684 10.9367C110.778 10.5188 110.767 10.0838 110.65 9.67136C110.534 9.25897 110.316 8.88233 110.016 8.57581C109.58 8.13956 108.964 7.83162 108.759 7.24139C108.707 6.86681 108.707 6.48684 108.759 6.11226C108.68 5.55725 108.462 5.03118 108.125 4.58266C107.789 4.13414 107.345 3.77763 106.834 3.54607C105.788 3.03542 104.673 2.68094 103.524 2.49393C102.394 2.35338 101.312 1.94901 100.367 1.31348C99.9788 0.950915 99.5579 0.624514 99.11 0.338325C98.2593 -0.0263383 97.3116 -0.0985395 96.4155 0.13303C94.7137 0.428058 93.0517 0.918895 91.4627 1.59576C90.8896 1.89652 90.2759 2.11262 89.6407 2.23731C88.6912 2.23731 87.6904 2.05768 86.7409 2.23731C86.0297 2.46416 85.3765 2.84345 84.8269 3.34871C84.2773 3.85398 83.8446 4.47306 83.5589 5.16277C83.3861 5.56044 83.1224 5.91202 82.789 6.18925C82.3695 6.40295 81.9193 6.55012 81.4546 6.6255C80.8672 6.85633 80.3451 7.22713 79.9336 7.70567C79.5222 8.1842 79.2338 8.75599 79.0937 9.37133C78.8509 10.643 78.8509 11.949 79.0937 13.2206C79.1402 14.4778 79.2775 15.7299 79.5043 16.9673C82.0705 27.232 82.8147 24.3836 82.8147 24.3836L90.5132 23.5881C94.0033 23.2031 97.4676 22.7925 100.932 22.305C102.318 22.0997 103.703 21.8174 105.089 21.5864C105.921 21.6393 106.744 21.3835 107.399 20.8679Z" fill="#3B2645"/>
<path d="M82.0965 19.9184C81.8417 19.5685 81.5078 19.2838 81.1221 19.0875C80.7363 18.8911 80.3096 18.7888 79.8767 18.7888C79.4439 18.7888 79.0172 18.8911 78.6314 19.0875C78.2456 19.2838 77.9117 19.5685 77.657 19.9184C75.527 22.6642 79.4533 27.617 82.3531 27.771C82.4256 25.1507 82.3399 22.5284 82.0965 19.9184Z" fill="#E0855C"/>
<path d="M124.413 49.5579C121.614 56.805 119.358 64.2504 117.664 71.8325C117.459 72.8076 117.305 73.7571 117.125 74.681C116.945 75.6048 116.868 76.2977 116.766 77.0419C116.663 77.7861 116.766 78.094 116.56 78.8125C115.765 86.5111 114.276 107.888 113.994 111.532C113.994 111.891 113.994 112.07 113.994 112.07C94.0548 118.204 72.9351 113.328 72.9351 113.328L72.7811 112.199C72.3192 108.657 68.0079 70.7803 67.854 69.2663C66.9558 60.2589 66.3143 51.9701 66.2629 46.8121C66.2629 46.0422 66.9302 45.606 67.931 45.3237C69.5477 44.8618 71.8316 44.7848 73.6279 44.4768C76.9732 43.9177 80.35 43.5663 83.7387 43.4247H84.5599C84.7308 43.4145 84.9022 43.4145 85.0732 43.4247H85.689L86.3306 33.1599H87.3314C87.9852 33.2612 88.6458 33.3127 89.3074 33.3139C90.0963 33.3252 90.8852 33.2823 91.6683 33.1856L92.7717 33.0573C93.3106 33.0573 93.7982 32.8776 94.2858 32.7493C95.0725 32.5679 95.8446 32.3277 96.5954 32.0308C96.8263 31.981 97.0503 31.9035 97.2626 31.7998H97.4679L97.9811 31.5689C98.9231 31.1598 99.8325 30.6794 100.701 30.1318L101.907 29.3106L102.113 29.131C102.276 29.0239 102.431 28.9038 102.575 28.7717L102.857 28.5408C102.857 28.9257 102.857 29.0797 102.857 29.2336C102.633 31.2277 102.513 33.232 102.498 35.2385C102.498 36.7013 102.498 38.164 102.498 39.4471C102.498 41.6284 102.498 43.2194 102.498 43.2194H103.935C103.961 43.2006 103.992 43.1905 104.025 43.1905C104.057 43.1905 104.088 43.2006 104.114 43.2194C106.195 43.2475 108.27 43.4276 110.325 43.7583C114.228 44.271 118.065 45.2001 121.77 46.5298C122.334 46.7608 122.745 46.9661 123.104 47.1457C123.463 47.3253 124.593 49.096 124.413 49.5579Z" fill="#FFEDE5"/>
<path d="M102.96 28.5665C102.669 30.4138 101.972 32.1735 100.919 33.719C99.866 35.2646 98.4837 36.5575 96.8714 37.5048C95.259 38.4521 93.4567 39.0302 91.5942 39.1974C89.7316 39.3647 87.8552 39.1169 86.0999 38.472L86.4335 33.16C89.3564 33.6194 92.3438 33.4471 95.1945 32.6547C98.0453 31.8624 100.693 30.4683 102.96 28.5665Z" fill="#E0855C"/>
<path d="M82.3785 12.1942C80.9414 13.7852 80.9158 17.3266 80.9158 21.0475C80.9158 32.5698 84.4571 36.0598 90.3594 36.4447C96.2616 36.8296 102.369 34.4431 103.19 23.6137C103.678 18.2504 104.191 13.349 102.19 11.0394C99.2897 7.88296 86.741 7.34406 82.3785 12.1942Z" fill="#FFEDE5"/>
<path d="M102.446 22.2793C102.446 22.2793 104.088 17.4548 107.014 19.8927C109.939 22.3306 106.218 29.6699 101.881 29.2593C101.856 29.2593 101.112 23.9473 102.446 22.2793Z" fill="#FFEDE5"/>
<path d="M105.757 22.0996C105.096 22.3339 104.511 22.7416 104.063 23.2801C103.539 23.7429 103.12 24.3114 102.831 24.9481C102.831 25.1277 103.037 25.2304 103.165 25.1277C103.293 25.0251 103.806 24.3322 104.14 23.973C104.368 24.244 104.659 24.4553 104.987 24.5888C105.045 24.6147 105.11 24.6202 105.171 24.6045C105.233 24.5888 105.287 24.5529 105.326 24.5024C105.365 24.452 105.385 24.39 105.384 24.3266C105.383 24.2631 105.361 24.2018 105.321 24.1526C105.142 23.8884 104.905 23.6689 104.628 23.511C105.1 23.1867 105.546 22.8263 105.962 22.4332C105.991 22.4002 106.008 22.359 106.012 22.3154C106.015 22.2719 106.005 22.2283 105.982 22.1911C105.959 22.1539 105.925 22.1249 105.884 22.1085C105.844 22.092 105.799 22.0889 105.757 22.0996Z" fill="#E0855C"/>
<path d="M85.9716 20.6112C85.9716 20.6112 84.9964 20.9962 85.0734 19.2511C85.1504 17.5061 85.8946 17.8397 85.8946 17.8397C85.8946 17.8397 86.5875 17.8397 86.5105 19.1998C86.4335 20.5599 85.9716 20.6112 85.9716 20.6112Z" fill="#3B2645"/>
<path d="M96.0568 20.3033C96.0568 20.3033 95.0817 20.6882 95.1843 18.9176C95.287 17.1469 95.9799 17.5318 95.9799 17.5318C95.9799 17.5318 96.6727 17.5318 96.6214 18.8919C96.5701 20.252 96.0568 20.3033 96.0568 20.3033Z" fill="#3B2645"/>
<path d="M90.6928 25.1791C90.1796 25.1791 89.0248 25.4358 88.7682 24.8969C88.8368 23.6695 89.0522 22.4547 89.4097 21.2785C89.8258 19.6972 90.1598 18.0955 90.4105 16.4797C90.4105 16.4797 90.4105 16.4797 90.2309 16.4797C89.2954 19.3353 88.5917 22.2617 88.1266 25.2305C88.1139 25.2664 88.1102 25.3049 88.1159 25.3426C88.1216 25.3802 88.1366 25.4159 88.1595 25.4464C88.1823 25.4769 88.2124 25.5013 88.247 25.5173C88.2815 25.5334 88.3195 25.5406 88.3576 25.5384C89.1018 25.5384 89.8203 25.5384 90.5645 25.5384C90.8468 25.6154 90.8981 25.2048 90.6928 25.1791Z" fill="#E0855C"/>
<path d="M87.9476 15.2992C87.3327 15.2476 86.7147 15.2476 86.0999 15.2992C85.4683 15.1509 84.8236 15.0649 84.1752 15.0426C84.1013 15.0435 84.0292 15.0656 83.9676 15.1064C83.9059 15.1472 83.8573 15.2048 83.8275 15.2725C83.7977 15.3401 83.7881 15.4149 83.7997 15.4879C83.8113 15.5609 83.8437 15.6291 83.893 15.6842C84.4895 16.1055 85.1788 16.3769 85.9025 16.4752C86.6262 16.5734 87.3629 16.4958 88.0502 16.2487C88.157 16.2144 88.2487 16.1442 88.3098 16.0501C88.3709 15.956 88.3977 15.8437 88.3856 15.7322C88.3736 15.6206 88.3234 15.5166 88.2436 15.4378C88.1638 15.3589 88.0592 15.31 87.9476 15.2992Z" fill="#3B2645"/>
<path d="M98.7765 13.9392C97.9123 14.4243 96.9625 14.738 95.9794 14.863C95.3378 14.863 94.5679 14.7347 94.0547 15.171C94.0227 15.2207 94.0056 15.2786 94.0056 15.3378C94.0056 15.3969 94.0227 15.4548 94.0547 15.5046C95.0555 16.9673 98.3403 15.248 99.1871 14.2215C99.2128 14.0418 98.9561 13.8622 98.7765 13.9392Z" fill="#3B2645"/>
<path d="M94.4649 28.1815C93.384 28.0274 92.2867 28.0274 91.2058 28.1815C90.4616 28.1815 89.4095 28.0532 88.8706 28.669C89.4608 29.2079 90.4616 28.977 91.2058 28.9513C92.2898 29.0542 93.381 29.0542 94.4649 28.9513C94.567 28.9513 94.6649 28.9108 94.7371 28.8386C94.8093 28.7664 94.8498 28.6685 94.8498 28.5664C94.8498 28.4643 94.8093 28.3664 94.7371 28.2942C94.6649 28.222 94.567 28.1815 94.4649 28.1815Z" fill="#E0855C"/>
<path d="M182.332 161.803H2.31329C1.8709 161.803 1.44663 161.628 1.13382 161.315C0.821 161.002 0.645264 160.578 0.645264 160.135C0.645264 159.693 0.821 159.269 1.13382 158.956C1.44663 158.643 1.8709 158.467 2.31329 158.467H182.332C182.774 158.467 183.199 158.643 183.511 158.956C183.824 159.269 184 159.693 184 160.135C184 160.578 183.824 161.002 183.511 161.315C183.199 161.628 182.774 161.803 182.332 161.803Z" fill="#3B2645"/>
<path d="M8.01034 168.732C7.25488 168.732 6.53036 168.432 5.99616 167.898C5.46197 167.364 5.16187 166.639 5.16187 165.884V154.31C5.16187 153.555 5.46197 152.83 5.99616 152.296C6.53036 151.762 7.25488 151.462 8.01034 151.462C8.76581 151.462 9.49032 151.762 10.0245 152.296C10.5587 152.83 10.8588 153.555 10.8588 154.31V165.832C10.8692 166.212 10.803 166.589 10.6641 166.942C10.5253 167.295 10.3167 167.617 10.0508 167.887C9.78494 168.158 9.4672 168.372 9.1166 168.518C8.76601 168.663 8.38976 168.736 8.01034 168.732Z" fill="#3B2645"/>
<path d="M13.7071 178.817C12.9517 178.817 12.2271 178.517 11.6929 177.983C11.1587 177.449 10.8586 176.724 10.8586 175.969V144.302C10.9262 143.59 11.2568 142.928 11.7859 142.447C12.315 141.966 13.0046 141.699 13.7199 141.699C14.4353 141.699 15.1249 141.966 15.654 142.447C16.1831 142.928 16.5137 143.59 16.5813 144.302V175.969C16.5745 176.727 16.2687 177.451 15.7304 177.985C15.1922 178.518 14.465 178.817 13.7071 178.817Z" fill="#291B30"/>
<path d="M19.4296 183.59C19.0546 183.594 18.6827 183.522 18.3355 183.38C17.9884 183.239 17.673 183.029 17.4078 182.764C17.1426 182.498 16.933 182.183 16.791 181.836C16.6491 181.489 16.5777 181.117 16.5812 180.742V140.478C16.5812 139.723 16.8813 138.998 17.4155 138.464C17.9497 137.93 18.6742 137.63 19.4296 137.63C20.1851 137.63 20.9096 137.93 21.4438 138.464C21.978 138.998 22.2781 139.723 22.2781 140.478V180.742C22.2781 181.497 21.978 182.222 21.4438 182.756C20.9096 183.29 20.1851 183.59 19.4296 183.59Z" fill="#3B2645"/>
<path d="M174.145 168.732C174.901 168.732 175.625 168.432 176.159 167.898C176.694 167.364 176.994 166.639 176.994 165.884V154.31C176.994 153.555 176.694 152.83 176.159 152.296C175.625 151.762 174.901 151.462 174.145 151.462C173.39 151.462 172.665 151.762 172.131 152.296C171.597 152.83 171.297 153.555 171.297 154.31V165.832C171.29 166.211 171.359 166.587 171.499 166.938C171.639 167.29 171.848 167.61 172.113 167.88C172.378 168.15 172.694 168.364 173.043 168.51C173.392 168.657 173.767 168.732 174.145 168.732Z" fill="#3B2645"/>
<path d="M168.449 178.817C169.205 178.817 169.929 178.517 170.463 177.983C170.997 177.449 171.298 176.724 171.298 175.969V144.302C171.23 143.59 170.899 142.928 170.37 142.447C169.841 141.966 169.152 141.699 168.436 141.699C167.721 141.699 167.031 141.966 166.502 142.447C165.973 142.928 165.642 143.59 165.575 144.302V175.969C165.582 176.727 165.888 177.451 166.426 177.985C166.964 178.518 167.691 178.817 168.449 178.817Z" fill="#291B30"/>
<path d="M162.726 183.59C163.101 183.594 163.473 183.522 163.82 183.38C164.167 183.239 164.483 183.029 164.748 182.764C165.013 182.498 165.223 182.183 165.365 181.836C165.507 181.489 165.578 181.117 165.575 180.742V140.478C165.575 139.723 165.275 138.998 164.74 138.464C164.206 137.93 163.482 137.63 162.726 137.63C161.971 137.63 161.246 137.93 160.712 138.464C160.178 138.998 159.878 139.723 159.878 140.478V180.742C159.878 181.497 160.178 182.222 160.712 182.756C161.246 183.29 161.971 183.59 162.726 183.59Z" fill="#3B2645"/>
<path d="M77.3999 66.1869C76.3486 69.8521 74.8941 73.3894 73.0631 76.734C72.3189 78.2737 69.3164 84.7918 69.1881 85.0484C64.5176 95.2876 57.9225 110.402 57.3323 112.199C55.8696 117.998 52.7388 151.744 52.7131 151.744C49.5054 156.568 43.3978 154.31 43.3978 154.31C43.3978 154.31 43.3978 153.284 43.1156 151.539C42.4227 144.071 40.7803 123.079 42.6793 110.659C43.2182 107.22 45.2455 98.8802 47.8117 89.4623C49.8647 81.7637 50.7628 74.4501 53.2007 66.9568C55.2542 60.5093 58.3489 54.4414 62.362 48.9934C63.8654 47.2782 65.8363 46.0386 68.0333 45.4264C68.9828 45.4264 69.3934 46.6582 70.1889 47.0174C72.4492 48.0727 74.2661 49.8896 75.3213 52.1498C77.5574 56.467 78.2889 61.407 77.3999 66.1869Z" fill="#FFEDE5"/>
<path d="M42.7822 157.774C42.7822 156.645 43.0132 155.49 43.0389 154.361C43.0389 152.591 43.0389 151.436 43.0389 151.436C44.1365 150.37 45.5371 149.669 47.0487 149.43C48.5602 149.191 50.1086 149.426 51.4816 150.101C52.0997 150.553 52.6676 151.069 53.1753 151.641C54.2018 152.616 55.3822 153.386 56.3574 154.413C56.8648 154.902 57.2535 155.501 57.4937 156.164C57.7339 156.827 57.8193 157.535 57.7431 158.236C56.5267 158.37 55.3981 158.935 54.5611 159.827C53.6116 161.008 54.0222 162.086 53.5602 163.394C53.0983 164.703 51.9692 164.831 50.9941 164.985C47.7093 165.473 43.0132 165.627 42.7309 161.393C42.6592 160.187 42.6764 158.978 42.7822 157.774Z" fill="#FFEDE5"/>
<path d="M145.507 151.359C145.353 153.104 145.224 154.13 145.224 154.13C145.224 154.13 139.117 156.466 135.883 151.564C135.883 151.564 132.753 117.921 131.187 112.122C130.931 111.147 128.929 106.399 126.414 100.651C123.899 94.9027 115.816 77.3242 115.559 76.734C113.717 73.3946 112.262 69.856 111.222 66.1869C110.248 61.3443 110.945 56.3146 113.198 51.9189C114.268 49.6686 116.08 47.856 118.331 46.7865C119.125 46.3877 120.009 46.202 120.897 46.2476C121.178 46.2468 121.456 46.299 121.718 46.4016C122.193 46.5331 122.644 46.7411 123.052 47.0175C123.681 47.4563 124.265 47.9547 124.797 48.5059C129.398 53.4078 132.798 59.3111 134.729 65.7507C137.295 73.4493 138.809 81.7381 140.759 89.1544C143.325 98.5723 145.327 106.912 145.891 110.351C147.842 122.9 146.174 143.891 145.507 151.359Z" fill="#FFEDE5"/>
<path d="M145.738 157.8C145.738 156.517 145.584 155.234 145.559 154.361C145.559 152.591 145.559 151.436 145.559 151.436C144.467 150.369 143.071 149.667 141.563 149.428C140.055 149.189 138.51 149.424 137.141 150.102C136.521 150.559 135.945 151.074 135.422 151.641C134.421 152.616 133.215 153.386 132.266 154.413C131.753 154.899 131.361 155.497 131.121 156.161C130.88 156.825 130.798 157.535 130.88 158.236C132.056 158.546 133.206 158.95 134.319 159.442C135.268 160.418 134.55 161.29 134.55 162.419C134.55 163.985 135.627 164.524 137.116 164.78L139.99 165.293C141.514 165.66 143.116 165.525 144.558 164.908C144.765 164.79 144.948 164.633 145.097 164.447C145.219 164.259 145.306 164.05 145.353 163.831C145.844 161.86 145.975 159.817 145.738 157.8Z" fill="#FFEDE5"/>
<path d="M117.664 71.8326L119.101 111.994C95.3889 121.258 69.7526 112.609 69.7526 112.609L69.1881 74.1165L68.4182 73.8856C67.2634 73.5263 66.0317 73.1414 64.7742 72.6281C64.0557 72.3458 63.3115 72.0636 62.5673 71.7043C59.3559 70.2373 56.2289 68.5924 53.2007 66.7772C55.2542 60.3298 58.3488 54.2618 62.362 48.8138C63.8721 47.1065 65.8404 45.8685 68.0333 45.2468C69.65 44.8106 71.9339 44.7079 73.7302 44.4C77.0756 43.8408 80.4523 43.4894 83.8411 43.3478L93.1563 66.4436C97.1451 58.9156 100.651 51.1414 103.652 43.1682H103.909C103.935 43.1494 103.966 43.1393 103.999 43.1393C104.031 43.1393 104.062 43.1494 104.088 43.1682C106.169 43.1963 108.244 43.3764 110.299 43.7071C114.212 44.2381 118.057 45.1844 121.769 46.5299C122.245 46.6614 122.695 46.8694 123.104 47.1458C123.732 47.5846 124.316 48.0831 124.849 48.6342C129.45 53.5361 132.849 59.4394 134.78 65.879C131.692 67.2948 128.531 68.5455 125.311 69.6257C121.051 70.9601 117.664 71.8326 117.664 71.8326Z" fill="#3B2645"/>
<path d="M69.1883 60.8492V74.1165L68.4184 73.8855C67.2636 73.5262 66.0318 73.1413 64.7744 72.6281C66.4471 68.7803 67.9204 64.8488 69.1883 60.8492Z" fill="#27192E"/>
<path d="M62.6447 275.819C60.6174 274.69 56.8194 273.818 54.9461 275.383C54.9101 275.446 54.8911 275.516 54.8911 275.588C54.8911 275.661 54.9101 275.731 54.9461 275.794V275.948C54.9461 276.153 55.2284 276.204 55.3824 276.127C55.5363 276.05 55.3824 276.127 55.562 276.127C56.0009 275.848 56.5052 275.689 57.0247 275.665C57.6885 275.635 58.3534 275.695 59.0007 275.845C60.2039 276.2 61.4438 276.415 62.696 276.487C62.7845 276.48 62.8667 276.438 62.9244 276.371C62.9822 276.303 63.0108 276.216 63.004 276.127C62.9972 276.039 62.9555 275.957 62.8881 275.899C62.8207 275.841 62.7332 275.813 62.6447 275.819Z" fill="#27192E"/>
<path d="M63.9535 279.438C62.8066 278.508 61.3752 278.001 59.8989 278.001C58.4371 277.651 56.8999 277.804 55.5364 278.437C55.3568 278.591 55.2541 278.976 55.5364 279.104C56.734 279.412 57.9706 279.542 59.2061 279.489C60.6809 279.897 62.1949 280.146 63.7226 280.233C63.8074 280.218 63.8863 280.18 63.9504 280.122C64.0145 280.064 64.0612 279.99 64.0853 279.907C64.1093 279.825 64.1097 279.737 64.0864 279.654C64.0631 279.571 64.0171 279.496 63.9535 279.438Z" fill="#27192E"/>
<path d="M133.035 274.434C131.657 273.675 130.079 273.357 128.515 273.522C126.95 273.687 125.474 274.328 124.284 275.358C124.028 275.691 124.284 276.333 124.669 276.281C125.978 276.281 127.235 275.511 128.518 275.383C129.802 275.255 131.213 275.742 132.547 275.588C133.061 275.537 133.523 274.921 133.035 274.434Z" fill="#27192E"/>
<path d="M134.113 277.795C132.433 277.395 130.695 277.3 128.981 277.513C128.376 277.435 127.761 277.486 127.177 277.663C126.593 277.84 126.053 278.139 125.593 278.54C125.234 279.001 125.593 279.874 126.235 279.643C128.801 278.745 131.701 280.079 134.241 279.155C134.381 279.095 134.497 278.992 134.574 278.862C134.651 278.731 134.685 278.58 134.671 278.429C134.656 278.278 134.595 278.135 134.495 278.022C134.395 277.908 134.261 277.829 134.113 277.795Z" fill="#27192E"/>
<path d="M45.5537 26.6676C36.9056 28.2586 27.9239 26.9242 19.5068 30.1576C18.9423 30.3886 18.9679 31.3381 19.6608 31.2867C24.7932 31.0045 29.7973 29.978 34.904 29.67C38.5993 29.4391 42.9362 30.2346 46.2979 28.4126C47.2731 27.848 46.5545 26.4879 45.5537 26.6676Z" fill="#F7F8F8"/>
<path d="M48.6841 14.6321C44.467 12.4593 40.1123 10.5648 35.6478 8.96076C34.878 8.70414 34.4417 9.85893 35.1089 10.2695C39.1393 12.5927 43.3039 14.6749 47.5806 16.5054C48.8381 17.0443 49.9672 15.2479 48.6841 14.6321Z" fill="#F7F8F8"/>
</svg>
