<svg width="230" height="265" viewBox="0 0 230 265" fill="none" xmlns="http://www.w3.org/2000/svg">
<path d="M229.217 210.273C229.028 213.812 228.379 221.081 223.489 221.081H223.245C222.636 221.025 222.041 220.86 221.489 220.594C221.235 220.48 220.991 220.344 220.76 220.189C219.617 219.254 218.731 218.046 218.182 216.675C217.634 215.305 217.443 213.818 217.625 212.353C217.654 211.445 217.563 210.536 217.355 209.651C217.276 209.23 217.167 208.815 217.031 208.408C217.019 208.328 217.019 208.246 217.031 208.165C216.815 207.679 216.626 207.301 216.436 206.949C216.326 206.733 216.2 206.525 216.058 206.328C216.077 206.275 216.077 206.218 216.058 206.166C215.984 206.038 215.893 205.92 215.788 205.815C215.5 205.424 215.174 205.062 214.815 204.734L214.653 204.572C214.248 204.22 213.87 203.869 213.491 203.572C212.059 202.356 210.789 201.518 210.952 199.978C211.168 196.358 213.653 191.683 217.085 192.71C217.085 192.71 217.95 188.387 215.572 187.306C214.059 186.55 215.572 186.144 216.49 186.063C218.058 185.928 219.625 186.55 221.3 186.415C221.404 186.319 221.512 186.229 221.624 186.144C222.287 186.05 222.961 186.05 223.624 186.144H223.786C224.505 186.298 225.175 186.625 225.74 187.096C226.305 187.566 226.747 188.167 227.028 188.846C227.495 190.221 227.733 191.663 227.731 193.115C228.001 198.979 229.541 204.356 229.217 210.273Z" fill="#3B2645"/>
<path d="M219.138 202.356C218.922 202.923 218.463 203.167 217.976 203.491C217.415 203.885 216.882 204.318 216.382 204.788C216.099 205.084 215.837 205.4 215.599 205.733C215.31 205.342 214.985 204.981 214.626 204.653L214.464 204.491C214.647 204.236 214.846 203.992 215.058 203.761C215.869 202.869 217.463 201.221 218.76 201.626C218.905 201.676 219.025 201.779 219.095 201.915C219.166 202.051 219.181 202.209 219.138 202.356Z" fill="#E8CEE5"/>
<path d="M220.381 205.49C219.322 206.494 218.173 207.398 216.95 208.192C216.733 207.706 216.544 207.328 216.355 206.976C217.286 205.862 218.576 205.108 220.003 204.842C220.076 204.848 220.147 204.872 220.209 204.911C220.271 204.951 220.323 205.005 220.36 205.068C220.397 205.132 220.418 205.203 220.422 205.277C220.426 205.35 220.412 205.423 220.381 205.49Z" fill="#E8CEE5"/>
<path d="M229.216 210.273C229.027 213.812 228.379 221.081 223.488 221.081H223.245C222.635 221.025 222.04 220.86 221.489 220.594C228.703 217.892 227.109 208.381 226.433 201.681C226.369 196.406 225.522 191.17 223.92 186.144C224.616 186.314 225.262 186.648 225.802 187.118C226.343 187.588 226.763 188.18 227.028 188.846C227.495 190.221 227.732 191.663 227.73 193.115C228 198.979 229.54 204.355 229.216 210.273Z" fill="#E8CEE5"/>
<path d="M83.8246 66.6909C83.8246 66.6909 83.0951 69.9063 81.8792 74.7968C79.3752 85.2228 76.069 95.4396 71.9901 105.356C70.8756 107.992 69.4516 110.486 67.748 112.786C60.1555 122.405 29.6234 100.384 25.7326 97.5202C25.476 97.3226 25.1646 97.2094 24.841 97.196C22.6794 97.196 14.0332 96.7367 14.2223 90.7654C14.3844 84.2536 18.8697 76.0667 28.6777 85.3614C34.7301 91.0626 56.1026 98.1417 56.1026 98.1417L63.0466 53.1271C63.1341 52.5729 63.3713 52.053 63.7326 51.6237C64.0939 51.1944 64.5656 50.872 65.0968 50.6912C65.628 50.5104 66.1985 50.4782 66.7467 50.598C67.2949 50.7178 67.7999 50.985 68.2073 51.3709C72.0171 54.9104 77.9074 60.6115 83.8246 66.6909Z" fill="#FFEDE5"/>
<path d="M81.8516 74.6887C79.3617 85.1507 76.0645 95.4038 71.9894 105.356C71.8543 92.3865 71.5571 74.5266 71.5571 74.5266C73.1574 73.7161 74.9308 73.3074 76.7244 73.3356C78.5179 73.3638 80.2777 73.8283 81.8516 74.6887Z" fill="#E0855C"/>
<path d="M106.196 145.75C100.549 149.749 94.2538 153.613 87.9853 157.423C84.9861 159.233 82.122 161.043 79.4201 162.827C71.4583 168.114 63.7913 173.833 56.4535 179.957C59.6148 183.74 62.9111 192.44 65.8833 202.329C71.8546 222.216 76.6911 246.992 76.6911 246.992C71.2872 251.937 66.7209 249.694 66.7209 249.694C62.4788 241.589 53.3462 224.053 45.6457 207.922C38.4314 192.926 32.4871 178.957 33.0816 174.526C33.676 170.095 45.3484 157.288 57.3991 144.967C70.9089 131.457 84.7429 118.433 84.7429 118.433C89.9266 112.878 95.8018 108.011 102.225 103.951C108.682 100.141 115.734 97.9527 121.138 101.519C123.892 103.46 125.963 106.221 127.056 109.409C127.255 109.876 127.426 110.354 127.569 110.841C131.703 124 121.003 135.348 106.196 145.75Z" fill="#FFEDE5"/>
<path d="M215.599 199.33C200.738 200.032 185.31 201.735 172.8 202.707C161.992 203.572 153.454 203.95 149.347 202.707C141.241 200.384 128.299 181.416 119.625 167.582C114.519 159.314 110.844 152.856 110.844 152.856C110.844 152.856 108.71 150.154 106.116 145.75C99.2797 134.321 89.3095 112.462 108.818 106.545C117.194 104.005 122.868 105.896 127.38 110.841C133.432 117.461 137.404 129.538 143.051 143.994L158.588 182.605C163.162 181.649 167.831 181.223 172.503 181.335C187.342 181.91 202.092 183.919 216.545 187.333C221.192 193.115 215.599 199.33 215.599 199.33Z" fill="#FFEDE5"/>
<path d="M78.1773 24.4594C83.8784 22.8923 89.5525 21.2171 95.1726 19.3798C98.4689 18.299 102.09 18.2449 103.278 14.4352C103.729 12.8582 103.815 11.1993 103.529 9.58426C103.244 7.9692 102.594 6.44032 101.63 5.11344C99.7533 2.75224 97.1194 1.11079 94.1728 0.466075C91.2423 -0.155358 88.214 -0.155358 85.2834 0.466075C83.1689 0.73342 81.1346 1.44448 79.314 2.55269C77.4934 3.66089 75.9275 5.14122 74.7188 6.89673C73.4262 9.47711 72.9189 12.3799 73.2597 15.2458C73.4874 17.7586 74.3421 20.174 75.7455 22.2708C75.9346 22.5681 77.2046 25.1619 77.853 24.9728C78.0422 24.8647 78.1502 24.4864 78.1773 24.4594Z" fill="#3B2645"/>
<path d="M76.6643 19.9471C76.3253 19.6438 75.9195 19.4247 75.4798 19.3078C75.0402 19.1908 74.5791 19.1792 74.1342 19.274C73.6892 19.3688 73.2729 19.5672 72.9191 19.8532C72.5653 20.1392 72.284 20.5046 72.098 20.9198C70.3958 24.1622 75.4214 28.5934 78.4206 28.1881C78.0091 25.4069 77.4225 22.6544 76.6643 19.9471Z" fill="#E0855C"/>
<path d="M126.11 42.6976C124.433 51.6942 123.484 60.8113 123.273 69.9603C123.273 70.852 123.273 71.6356 123.273 72.4191C123.624 78.0662 126.515 104.68 127.056 108.868C127.056 109.22 127.056 109.409 127.056 109.409C108.871 118.866 87.8503 118.46 85.1754 118.433H84.8781C84.7817 118.049 84.6644 117.67 84.5269 117.299C82.9057 112.408 76.6372 92.2785 71.5845 74.5266C71.5845 74.2565 71.4224 74.0133 71.3413 73.7161C68.6394 64.5835 64.8296 57.5043 63.8029 52.2896C63.4246 50.3171 69.6391 48.0475 72.6653 46.8857C73.0976 46.6965 73.5569 46.5614 74.0433 46.3993C76.421 45.5617 78.8798 44.8592 80.8522 44.3458L84.9322 43.4001L83.6623 32.5923H84.743C85.4224 32.5633 86.0993 32.4911 86.7695 32.3762C87.6005 32.2406 88.4219 32.0511 89.2283 31.8088L90.3631 31.4575L91.8492 30.8361C92.6411 30.5033 93.4086 30.1151 94.1458 29.6742C94.3123 29.6022 94.4747 29.521 94.6322 29.431C94.6568 29.4453 94.6848 29.4528 94.7132 29.4528C94.7417 29.4528 94.7697 29.4453 94.7943 29.431L95.3077 29.1068C96.2146 28.5105 97.0647 27.8322 97.8475 27.0803C98.2798 26.675 98.6581 26.3238 98.9553 25.9996L99.1444 25.7834C99.2865 25.6541 99.4134 25.509 99.5227 25.3511C99.627 25.2557 99.7179 25.1466 99.7929 25.0269V25.27C99.7929 25.4321 99.7929 25.5943 99.7929 25.7834C99.7929 27.5667 100.171 29.8093 100.549 32.0519C100.766 33.592 101.009 35.1051 101.252 36.4291C101.684 38.6987 102.036 40.3469 102.036 40.3469C102.525 40.2284 103.021 40.1382 103.522 40.0767H103.684H104.494C106.401 39.7934 108.323 39.622 110.249 39.5634C111.06 39.5634 111.844 39.5634 112.6 39.5634C116.877 39.6302 121.12 40.3313 125.191 41.6439C125.438 41.696 125.661 41.827 125.827 42.0171C125.993 42.2072 126.092 42.4461 126.11 42.6976Z" fill="#FFEDE5"/>
<path d="M100.036 24.9188C100.089 26.8936 99.7025 28.8555 98.9053 30.663C98.108 32.4705 96.9195 34.0784 95.4254 35.3709C93.9313 36.6633 92.169 37.608 90.2656 38.1368C88.3622 38.6655 86.3651 38.7652 84.4185 38.4286L83.77 32.8355C86.8922 32.7693 89.963 32.0273 92.7709 30.6606C95.5789 29.2939 98.0574 27.3351 100.036 24.9188Z" fill="#E0855C"/>
<path d="M75.5026 11.8954C74.3137 13.8138 74.9622 17.2993 75.6647 21.3252C77.8263 33.2949 82.1494 36.24 88.3639 35.5916C94.5784 34.9431 100.415 31.2684 99.3609 19.9743C98.8475 14.3272 98.4692 9.16644 95.9564 7.13998C92.2007 4.22187 79.1232 6.0592 75.5026 11.8954Z" fill="#FFEDE5"/>
<path d="M98.1989 18.6232C98.1989 18.6232 98.9824 13.2193 102.468 15.2728C105.953 17.3262 103.495 25.5672 98.9014 26.0806C98.9014 25.9185 97.1181 20.5416 98.1989 18.6232Z" fill="#FFEDE5"/>
<path d="M80.8249 19.9202C80.8249 19.9202 79.8793 20.5416 79.6361 18.6773C79.3929 16.8129 80.2035 17.0831 80.2035 17.0831C80.2035 17.0831 80.906 16.921 81.1222 18.38C81.3383 19.8391 80.8249 19.9202 80.8249 19.9202Z" fill="#3B2645"/>
<path d="M91.2278 17.7045C91.2278 17.7045 90.2821 18.2989 90.0389 16.4616C89.7957 14.6243 90.6063 14.8675 90.6063 14.8675C90.6063 14.8675 91.3088 14.7053 91.525 16.1644C91.7411 17.6235 91.2278 17.7045 91.2278 17.7045Z" fill="#3B2645"/>
<path d="M86.5264 23.7839C86.013 23.7839 84.8782 24.3784 84.4999 23.7839C84.3374 22.5011 84.3374 21.2029 84.4999 19.9201C84.6438 18.2039 84.6889 16.4808 84.635 14.7594C84.635 14.7594 84.4729 14.7594 84.4458 14.7594C83.9769 17.9162 83.7691 21.1063 83.8244 24.2973C83.817 24.3395 83.8208 24.3829 83.8355 24.4231C83.8502 24.4633 83.8753 24.499 83.9082 24.5264C83.9411 24.5538 83.9807 24.572 84.0229 24.5793C84.0651 24.5865 84.1085 24.5824 84.1486 24.5675C84.9052 24.4054 85.6887 24.4054 86.4453 24.2433C86.7966 24.1892 86.7965 23.7569 86.5264 23.7839Z" fill="#E0855C"/>
<path d="M80.7708 14.165C79.9331 13.9488 78.5551 14.165 78.0688 15.0296C78.0498 15.0685 78.0429 15.1122 78.049 15.155C78.0552 15.1978 78.074 15.2379 78.1031 15.2699C78.1322 15.3019 78.1702 15.3244 78.2123 15.3346C78.2544 15.3447 78.2985 15.342 78.339 15.3268C78.6902 15.3268 78.9875 14.9756 79.3387 14.8675C79.7309 14.7867 80.1354 14.7867 80.5276 14.8675C80.6207 14.8998 80.7229 14.8937 80.8116 14.8506C80.9002 14.8075 80.9682 14.731 81.0004 14.6378C81.0327 14.5447 81.0266 14.4425 80.9835 14.3539C80.9404 14.2652 80.8639 14.1972 80.7708 14.165Z" fill="#3B2645"/>
<path d="M91.768 12.7599C91.5552 12.5593 91.3044 12.4033 91.0303 12.3013C90.7563 12.1992 90.4645 12.1531 90.1724 12.1657C89.8802 12.1783 89.5935 12.2493 89.3292 12.3746C89.065 12.4999 88.8285 12.6768 88.6337 12.895C88.6064 12.9416 88.5911 12.9943 88.5893 13.0483C88.5875 13.1023 88.5992 13.1558 88.6233 13.2042C88.6475 13.2525 88.6834 13.294 88.7276 13.3249C88.7719 13.3559 88.8232 13.3753 88.8769 13.3814C89.3527 13.3213 89.8226 13.2219 90.2819 13.0841C90.6763 13.0294 91.0764 13.0294 91.4708 13.0841C91.687 13.2192 91.9301 12.949 91.768 12.7599Z" fill="#3B2645"/>
<path d="M89.7959 25.7024C88.6341 26.2968 88.0126 27.1884 86.6346 27.4316C85.9615 27.6079 85.2543 27.6079 84.5811 27.4316C84.2029 27.4316 84.2029 27.2425 83.8246 27.2695C83.7968 27.2723 83.7699 27.2812 83.746 27.2956C83.722 27.31 83.7016 27.3295 83.6861 27.3528C83.6706 27.376 83.6604 27.4024 83.6563 27.4301C83.6522 27.4577 83.6543 27.4859 83.6625 27.5127C83.9867 28.6745 85.824 28.4854 86.7157 28.3503C87.4203 28.2737 88.0959 28.0271 88.6842 27.6318C89.2725 27.2364 89.756 26.7041 90.0931 26.0806C90.1742 25.8645 89.985 25.6213 89.7959 25.7024Z" fill="#E0855C"/>
<path d="M147.32 154.315C146.509 154.91 145.753 155.477 144.969 155.99C144.186 156.504 143.726 156.855 143.105 157.26C136.017 162.166 128.057 165.669 119.652 167.582C114.518 159.314 110.844 152.856 110.844 152.856C110.844 152.856 108.709 150.154 106.115 145.75C100.468 149.749 94.1726 153.613 87.9041 157.423C84.9049 159.233 82.0408 161.043 79.3389 162.826C76.772 161.286 74.4483 159.746 72.3408 158.26C66.816 154.492 61.8027 150.023 57.426 144.966C70.9358 131.457 84.7698 118.433 84.7698 118.433C89.9535 112.878 95.8287 108.011 102.251 103.951C108.331 101.89 114.762 101.063 121.165 101.519C123.909 103.464 125.97 106.225 127.055 109.409C127.255 109.876 127.426 110.354 127.569 110.841C133.621 117.461 137.593 129.538 143.24 143.994C144.672 147.614 145.969 151.019 147.32 154.315Z" fill="#AB8DA8"/>
<path d="M76.6375 246.992C71.2336 251.937 66.6673 249.694 66.6673 249.694C62.4252 241.588 53.2926 224.053 45.592 207.922C52.5393 206.815 59.344 204.949 65.8837 202.356C71.855 222.215 76.6375 246.992 76.6375 246.992Z" fill="#E8CEE5"/>
<path d="M79.4743 250.613C79.5152 250.864 79.5152 251.119 79.4743 251.37C79.2846 252.561 78.6586 253.64 77.718 254.396C76.5375 255.252 75.235 255.926 73.8542 256.395C68.4503 258.584 63.83 261.799 58.1019 263.231C54.6974 264.123 47.6453 265.744 46.0782 261.097C46.0726 261.016 46.0726 260.934 46.0782 260.853C46.0146 260.378 46.0146 259.897 46.0782 259.421C46.1057 259.02 46.169 258.622 46.2673 258.233C46.7807 256.449 48.3748 254.234 52.752 252.829C53.6228 252.562 54.4576 252.19 55.2378 251.721C55.6027 251.518 55.9546 251.292 56.2915 251.045L56.5077 250.856C56.9081 250.539 57.2789 250.186 57.6155 249.802L57.9668 249.397L58.1019 249.235L58.4801 248.641C58.6954 248.313 58.8851 247.97 59.0475 247.614C59.3448 246.992 59.5609 246.479 59.75 246.02C60.4255 244.29 60.8849 242.885 62.452 242.507C65.9645 241.588 71.1523 242.507 71.2874 246.074C71.2874 246.074 75.6646 245.56 76.0158 242.939C76.259 241.264 77.1506 242.561 77.5019 243.426C78.0963 244.885 78.0153 246.56 78.6637 248.073C78.6637 248.289 78.8529 248.451 78.9339 248.668C79.258 249.258 79.486 249.897 79.6094 250.559C79.5675 250.584 79.5219 250.602 79.4743 250.613Z" fill="#3B2645"/>
<path d="M215.599 199.33C200.738 200.032 185.31 201.735 172.8 202.707C173.705 198.265 174.041 193.725 173.8 189.198C173.761 186.512 173.38 183.843 172.665 181.254C187.504 181.829 202.254 183.837 216.707 187.252C221.192 193.115 215.599 199.33 215.599 199.33Z" fill="#E8CEE5"/>
<path d="M60.2633 255.017C59.0744 253.774 57.9937 252.45 56.7508 251.234L56.3455 250.856C56.7459 250.539 57.1167 250.186 57.4533 249.802C57.6154 249.964 57.7505 250.127 57.9126 250.262C59.1546 251.418 60.2688 252.704 61.236 254.098C61.6413 254.72 60.8037 255.585 60.2633 255.017Z" fill="#E8CEE5"/>
<path d="M63.4246 251.423C63.4665 251.528 63.4762 251.643 63.4525 251.753C63.4288 251.864 63.3728 251.964 63.2916 252.043C63.2104 252.121 63.1077 252.173 62.9966 252.193C62.8856 252.213 62.7712 252.199 62.668 252.153C61.4702 251.358 60.3486 250.453 59.3176 249.451C59.0011 249.177 58.6671 248.925 58.3179 248.694C58.5331 248.367 58.7228 248.024 58.8853 247.668C59.2863 247.824 59.6601 248.043 59.9931 248.316C61.4012 249.016 62.5887 250.091 63.4246 251.423Z" fill="#E8CEE5"/>
<path d="M79.4475 251.37C79.2577 252.561 78.6318 253.64 77.6912 254.396C76.5106 255.252 75.2082 255.926 73.8274 256.395C68.4235 258.584 63.8031 261.799 58.075 263.231C54.6705 264.123 47.6184 265.744 46.0513 261.097C46.0458 261.016 46.0458 260.934 46.0513 260.853C45.9878 260.378 45.9878 259.897 46.0513 259.421C52.8332 263.988 59.3449 259.827 66.2349 257.611C71.2605 255.963 76.3402 254.99 79.4475 251.37Z" fill="#E8CEE5"/>
<path d="M144.97 155.99C144.348 156.45 143.727 156.855 143.105 157.26C136.513 141.4 130.541 125.08 121.787 110.49C121.328 109.733 122.381 108.922 122.922 109.679C128.326 117.109 131.649 126.296 135.459 134.645C138.701 141.616 141.997 148.776 144.97 155.99Z" fill="#E8CEE5"/>
<path d="M106.197 145.75C100.549 149.749 94.2539 153.613 87.9854 157.423C84.9862 159.233 82.1221 161.043 79.4202 162.826C76.8533 161.286 74.5296 159.746 72.4221 158.26C91.7681 147.236 105.818 145.777 106.197 145.75Z" fill="#826B80"/>
<path d="M127.055 109.409C108.871 118.866 87.85 118.514 85.1751 118.433H84.8778L84.5266 117.38C82.9054 112.489 76.6369 92.3596 71.5842 74.6077C74.2862 65.5292 74.2862 51.452 74.043 46.5614C76.4207 45.7238 78.8795 45.0213 80.8519 44.5079C80.987 49.2634 82.2569 61.125 91.3896 61.4492C102.197 61.8275 104.278 46.5344 104.656 39.8336C106.563 39.5502 108.485 39.3788 110.411 39.3202C111.222 39.3202 112.005 39.3202 112.762 39.3202C112.198 43.8193 112.353 48.3796 113.221 52.83C114.656 60.26 118.159 67.1343 123.327 72.6623C123.489 75.5264 124.272 83.6322 125.083 91.576C125.894 99.5197 127.055 109.409 127.055 109.409Z" fill="#3B2645"/>
<path d="M123.353 72.6623C123.353 75.3642 124.272 83.4701 125.083 91.5759C117.075 80.3069 112.906 66.7596 113.194 52.938C114.656 60.3326 118.167 67.1673 123.326 72.6623H123.353Z" fill="#291B30"/>
<path d="M31.704 88.4957C30.6502 92.3055 28.7588 95.737 27.624 99.4657C27.0296 101.411 29.7856 102.168 30.8934 100.979C33.5691 97.5456 35.4182 93.5423 36.2973 89.2793C36.9728 86.4423 32.4875 85.6857 31.704 88.4957Z" fill="#AB8DA8"/>
<path d="M79.366 38.6988C80.0145 39.5905 80.6899 40.4011 81.3654 41.2387C81.6229 41.5264 81.8577 41.8335 82.0679 42.1573C86.1749 47.8855 86.8774 54.4782 88.9309 60.8278L89.6604 59.693C89.066 57.2072 88.5526 54.7214 87.8771 52.2896C88.5077 48.5053 90.0571 44.9334 92.3894 41.8871C94.2149 40.0796 95.8701 38.1079 97.334 35.9969C98.5533 33.7274 99.2633 31.2194 99.4145 28.6476C99.4697 26.1429 99.9541 23.6662 100.847 21.3253C100.946 21.1289 101.019 20.9198 101.063 20.7038C101.071 20.4259 101.012 20.1501 100.89 19.9004C100.767 19.6508 100.585 19.4349 100.36 19.2718C100.191 19.128 99.9852 19.0344 99.7657 19.0016C99.6522 18.9882 99.5373 19.0094 99.4361 19.0625C99.3348 19.1155 99.252 19.1979 99.1983 19.2988C99.1706 19.4416 99.1706 19.5883 99.1983 19.7311C99.2565 21.3122 99.1661 22.8953 98.9281 24.4595C98.766 26.1077 98.685 27.7829 98.4958 29.4581C98.0287 33.3011 96.243 36.863 93.4432 39.5364C90.2508 42.6158 88.1617 46.661 87.4989 51.0468C86.8624 48.7757 85.9553 46.5895 84.7969 44.535C83.2028 41.8331 81.0412 39.4554 79.393 36.8075C78.1992 34.963 77.365 32.9095 76.9342 30.7551C76.6358 29.7646 76.4811 28.7363 76.4749 27.7019C76.4749 26.6751 76.9612 24.6216 76.3128 23.757C75.3131 22.406 74.9348 23.9732 75.0699 24.9189C75.3941 26.9723 75.3671 29.0528 75.7994 31.0793C76.3912 33.5337 77.4259 35.8594 78.8526 37.9423L79.366 38.6988Z" fill="#AB8DA8"/>
<path d="M101.576 90.9005C99.9006 92.8459 100.225 96.3044 100.279 98.5741C100.545 100.553 100.662 102.549 100.63 104.545C100.618 105.408 100.415 106.257 100.037 107.033C99.6586 107.808 99.1139 108.49 98.4416 109.031C97.9146 109.273 97.3457 109.41 96.7664 109.436C96.2587 109.544 95.734 109.544 95.2263 109.436C94.5032 109.132 93.8837 108.626 93.443 107.977C91.5516 105.599 91.9299 103.492 91.7948 100.655C91.7808 99.4494 91.5167 98.2603 91.019 97.1626C90.5213 96.0649 89.801 95.0826 88.9037 94.278C83.9591 89.0902 86.553 84.659 88.0391 78.8498C89.9575 71.3384 90.741 61.6924 87.4446 54.5322C88.1423 59.1938 88.5305 63.8965 88.6065 68.6094C88.1999 73.7132 87.1747 78.7488 85.5533 83.6052C84.9914 84.9584 84.7021 86.4092 84.7021 87.8743C84.7021 89.3395 84.9914 90.7903 85.5533 92.1434C86.1538 93.1414 86.8904 94.0508 87.7419 94.8454C90.4438 97.5473 90.4438 100.087 90.741 103.789C91.0382 107.491 94.9831 112.759 99.3332 109.652C100.167 108.908 100.811 107.976 101.21 106.932C101.61 105.888 101.754 104.764 101.63 103.654C101.63 101.708 101.225 99.79 101.117 97.8445C100.945 96.2037 101.018 94.5464 101.333 92.927C101.415 92.6038 101.563 92.3005 101.765 92.0353C102.178 91.5874 102.73 91.2923 103.332 91.1977C103.638 91.0633 103.972 91.0076 104.305 91.0356C104.733 91.0832 105.133 91.2736 105.44 91.576C106.19 92.4598 106.8 93.4529 107.25 94.5211C107.25 94.7643 107.439 95.2777 107.709 95.3858C107.979 95.4938 108.412 95.2507 108.331 94.8994C107.655 92.1975 104.737 87.2799 101.576 90.9005Z" fill="#AB8DA8"/>
<path d="M112.076 92.1992L105.982 95.1753C104.534 95.8826 103.933 97.6299 104.641 99.078L112.075 114.301C112.782 115.749 114.53 116.35 115.978 115.642L122.072 112.666C123.52 111.959 124.121 110.212 123.413 108.763L115.979 93.5407C115.272 92.0925 113.524 91.4919 112.076 92.1992Z" fill="#E8CEE5"/>
<path d="M124.111 41.4277C124.536 41.3385 124.977 41.3533 125.396 41.4709C125.814 41.5885 126.198 41.8054 126.515 42.1032C131.919 47.2099 157.777 72.7704 160.074 83.9025C162.478 95.5479 127.191 104.491 122.652 105.518C122.343 105.587 122.067 105.759 121.868 106.004C120.517 107.572 114.843 113.651 110.493 109.868C106.143 106.085 102.387 97.2771 115.437 95.737C123.408 94.7913 141.943 83.335 141.943 83.335L119.679 66.2857C119.679 66.2857 112.438 43.9946 124.111 41.4277Z" fill="#FFEDE5"/>
<path d="M152.859 182.659C142.24 182.037 131.487 182.659 120.868 182.659C110.249 182.659 99.4685 182.253 88.8769 183.01C88.8292 183.027 88.7878 183.058 88.7586 183.099C88.7293 183.14 88.7136 183.189 88.7136 183.24C88.7136 183.29 88.7293 183.339 88.7586 183.381C88.7878 183.422 88.8292 183.453 88.8769 183.469C99.4685 184.226 110.249 183.767 120.868 183.794C131.487 183.821 142.24 184.388 152.859 183.794C153.01 183.794 153.154 183.734 153.26 183.627C153.367 183.521 153.427 183.377 153.427 183.226C153.427 183.076 153.367 182.931 153.26 182.825C153.154 182.719 153.01 182.659 152.859 182.659Z" fill="#F7F8F8"/>
<path d="M229.433 139.833C217.679 139.211 205.818 139.644 194.064 139.644C182.311 139.644 170.368 138.914 158.695 139.968C158.581 139.968 158.471 140.013 158.39 140.095C158.309 140.176 158.263 140.286 158.263 140.4C158.263 140.515 158.309 140.625 158.39 140.706C158.471 140.787 158.581 140.833 158.695 140.833C170.368 141.859 182.365 141.103 194.064 141.13C205.764 141.157 217.679 141.562 229.433 140.968C229.583 140.968 229.727 140.908 229.834 140.801C229.94 140.695 230 140.551 230 140.4C230 140.25 229.94 140.105 229.834 139.999C229.727 139.893 229.583 139.833 229.433 139.833Z" fill="#F7F8F8"/>
<path d="M49.2393 124.567C41.2686 124.08 33.1627 124.432 25.1649 124.567C17.1305 124.233 9.0835 124.359 1.06349 124.945C0.998994 124.945 0.937141 124.971 0.891537 125.016C0.845933 125.062 0.820313 125.124 0.820312 125.188C0.820313 125.253 0.845933 125.315 0.891537 125.36C0.937141 125.406 0.998994 125.431 1.06349 125.431C9.0841 126.004 17.1303 126.13 25.1649 125.81C33.2708 125.81 41.3766 126.161 49.2393 125.81C49.4041 125.81 49.5622 125.744 49.6788 125.628C49.7953 125.511 49.8608 125.353 49.8608 125.188C49.8608 125.023 49.7953 124.865 49.6788 124.749C49.5622 124.632 49.4041 124.567 49.2393 124.567Z" fill="#F7F8F8"/>
<path d="M57.345 130.484C48.7918 129.7 40.1801 129.809 31.6494 130.808C31.6494 130.808 31.6494 131.051 31.6494 131.079C40.1819 132.056 48.7922 132.155 57.345 131.376C57.4446 131.351 57.533 131.294 57.5962 131.213C57.6594 131.132 57.6937 131.032 57.6937 130.93C57.6937 130.827 57.6594 130.728 57.5962 130.647C57.533 130.566 57.4446 130.509 57.345 130.484Z" fill="#F7F8F8"/>
<path d="M198.333 24.0271C187.201 23.4057 175.934 23.838 164.775 23.865C153.616 23.892 142.348 23.4868 131.216 24.2703C131.13 24.2703 131.048 24.3045 130.987 24.3653C130.926 24.4261 130.892 24.5086 130.892 24.5946C130.892 24.6805 130.926 24.763 130.987 24.8238C131.048 24.8846 131.13 24.9188 131.216 24.9188C142.348 25.7024 153.643 25.3241 164.775 25.3511C175.907 25.3781 187.201 25.8104 198.333 25.189C198.466 25.1602 198.584 25.0869 198.67 24.9812C198.755 24.8755 198.801 24.7438 198.801 24.6081C198.801 24.4723 198.755 24.3406 198.67 24.2349C198.584 24.1293 198.466 24.0559 198.333 24.0271Z" fill="#F7F8F8"/>
</svg>
