<svg width="278" height="301" viewBox="0 0 278 301" fill="none" xmlns="http://www.w3.org/2000/svg">
<path d="M132.427 300.202C205.42 300.202 264.88 273.035 276.611 197.247C288.342 121.458 186.894 156.752 188.78 88.0396C190.666 19.3555 168.313 -20.5705 107.106 11.6545C45.8995 43.8794 55.1623 111.739 46.1213 143.226C28.5386 204.322 -68.3885 300.202 132.427 300.202Z" fill="#98BFFD"/>
<path d="M38.6046 149.764C45.0256 131.499 44.1915 114.464 36.7416 111.714C29.2918 108.964 18.0472 121.541 11.6262 139.806C5.20524 158.07 6.03931 175.106 13.4892 177.856C20.939 180.605 32.1836 168.028 38.6046 149.764Z" fill="#98BFFD"/>
<path d="M251.779 113.368C261.329 104.816 259.87 87.0957 248.52 73.7889C237.17 60.482 220.228 56.6274 210.678 65.1793C201.128 73.7312 202.588 91.4513 213.938 104.758C225.287 118.065 242.23 121.92 251.779 113.368Z" fill="#98BFFD"/>
</svg>
