<svg width="85" height="270" viewBox="0 0 85 270" fill="none" xmlns="http://www.w3.org/2000/svg">
<path d="M40.3265 4.6128C40.3265 4.6128 31.0914 4.55596 29.3442 17.8267C27.597 31.0975 30.093 36.9799 23.7976 42.9759C17.5022 48.9719 27.8189 52.3251 36.2775 46.6417C44.7638 40.9583 40.3265 4.6128 40.3265 4.6128Z" fill="#3B2645"/>
<path d="M40.3264 4.61279C40.3264 4.61279 31.84 9.33003 31.6736 22.6008C31.535 34.337 34.4747 43.4305 29.9819 49.2844C32.0064 48.8866 34.1974 48.0341 36.2773 46.6416C44.7637 40.9582 40.3264 4.61279 40.3264 4.61279Z" fill="#3B2645"/>
<path d="M51.3087 34.9907L48.3413 47.5794L29.3441 46.0733C29.3441 46.0733 34.1697 38.3439 36.7211 24.9595L51.3087 34.9907Z" fill="#FFEDE5"/>
<path d="M40.0492 30.6713L49.5894 42.3507L51.3088 34.9907L40.0492 30.6713Z" fill="#DF845C"/>
<path d="M61.4313 8.44911C61.4313 8.44911 65.0921 13.7063 63.4835 19.1339C61.875 24.5616 61.9582 25.4994 61.6809 27.517C61.4036 29.5062 56.6889 38.6281 54.4426 38.9691C52.1962 39.3101 38.5515 33.8256 35.8614 26.0961C33.1713 18.3667 50.9205 -3.11664 61.4313 8.44911Z" fill="#FFEDE5"/>
<path d="M35.9446 28.6536L39.6608 22.6008L41.3525 23.2828C41.3525 23.2828 42.7669 22.885 43.3493 17.4005C43.3493 17.4005 47.5925 15.5534 48.3967 11.3477C48.3967 11.3477 62.5961 1.68585 63.8995 16.5764C63.8995 16.5764 66.035 9.75629 59.6286 5.12431C53.2223 0.492329 45.152 -0.843274 40.0491 3.04986C34.9462 6.943 26.8204 20.4695 35.9446 28.6536Z" fill="#3B2645"/>
<path d="M39.9328 26.5044C41.508 25.7322 41.8203 23.0403 40.6304 20.4919C39.4404 17.9435 37.1989 16.5036 35.6238 17.2758C34.0486 18.048 33.7363 20.7398 34.9263 23.2883C36.1162 25.8367 38.3577 27.2766 39.9328 26.5044Z" fill="#FFEDE5"/>
<path d="M39.3558 24.1354C39.2726 24.1354 39.1894 24.107 39.134 24.0217L37.359 21.521C37.2758 21.4073 37.3036 21.2084 37.4145 21.1232C37.5254 21.0379 37.7196 21.0663 37.8028 21.18L39.5777 23.6807C39.6609 23.7944 39.6331 23.9933 39.5222 24.0785C39.4667 24.107 39.4113 24.1354 39.3558 24.1354Z" fill="#472938"/>
<path d="M51.1978 29.8473C51.1978 29.8473 53.4441 31.4387 57.0217 31.5807C57.0217 31.5807 53.1391 32.4048 51.1978 29.8473Z" fill="#472938"/>
<path d="M57.0496 28.54C56.4395 28.54 55.8571 28.4548 55.3856 28.199C55.2469 28.1138 55.1915 27.9433 55.2747 27.8296C55.3579 27.6875 55.5243 27.6307 55.6352 27.7159C56.8 28.3127 59.0464 27.8012 59.3237 27.4602C59.3515 27.176 58.9355 25.8973 58.6581 25.0732C58.4085 24.3343 58.1867 23.6523 58.1035 23.1692C57.7984 21.8336 59.1296 20.1854 59.1851 20.1002C59.296 19.9865 59.4624 19.9581 59.5733 20.0718C59.6843 20.1854 59.712 20.3559 59.6011 20.4696C59.2683 20.8958 58.4363 22.1746 58.6304 23.0555C58.7413 23.5102 58.9632 24.2206 59.1851 24.9027C59.7397 26.5793 59.9616 27.3465 59.8229 27.6875C59.7397 27.8865 59.5456 28.0285 59.1573 28.199C58.7136 28.3695 57.8816 28.54 57.0496 28.54Z" fill="#472938"/>
<path d="M63.1509 20.3844C63.1509 20.3844 63.9552 19.6739 63.2063 19.2193C62.4575 18.7646 61.1541 18.8783 60.9877 19.3045C60.8213 19.7308 60.7658 19.9865 61.3205 20.0149C61.9029 20.0434 63.0677 19.7308 63.1509 20.3844Z" fill="#472938"/>
<path d="M48.3967 18.0257C48.3967 18.0257 50.5877 16.8606 52.1684 17.3437C53.7492 17.8268 54.1098 18.5088 54.8863 18.3099C55.6628 18.0825 54.9695 16.8038 53.25 16.3207C51.5306 15.8376 49.1455 16.5764 48.3967 18.0257Z" fill="#472938"/>
<path d="M51.3365 22.0326C51.0037 21.9758 50.7819 21.6632 50.8096 21.3222L50.8928 20.8391C50.9482 20.4981 51.2533 20.2707 51.5861 20.2991C51.9189 20.356 52.1408 20.6686 52.113 21.0096L52.0299 21.4927C51.9744 21.8337 51.6693 22.0894 51.3365 22.0326Z" fill="#472938"/>
<path d="M60.4052 23.1692C60.1279 23.1408 59.9615 22.885 59.9892 22.6009L60.0447 22.203C60.0724 21.9188 60.322 21.7483 60.5993 21.7768C60.8766 21.8052 61.043 22.0609 61.0153 22.3451L60.9599 22.7429C60.9321 23.0271 60.6825 23.1976 60.4052 23.1692Z" fill="#472938"/>
<path d="M74.9374 254.655C76.1299 255.678 77.6553 257.014 78.8755 254.882C78.7369 253.518 78.9032 249.256 78.9032 249.256L68.4202 249.853L69.0026 254.314C69.0026 254.286 73.7449 253.632 74.9374 254.655Z" fill="#FFEDE5"/>
<path d="M78.0712 266.618C79.763 265.993 83.4237 262.214 84.1725 261.418C83.9229 260.168 83.3405 258.917 82.564 258.775C81.4269 258.605 79.0142 256.218 78.8755 254.854C77.6275 257.013 76.1299 255.678 74.9374 254.626C73.7449 253.603 69.0025 254.257 69.0025 254.257C69.0025 254.257 67.4495 262.413 67.2831 266.647C69.6404 266.817 76.5182 267.215 78.0712 266.618Z" fill="#3B2645"/>
<path d="M67.5882 269.091C68.7807 270.142 77.3225 269.829 78.2099 269.574C79.0974 269.318 83.4237 264.942 84.0616 263.89C84.3389 263.436 84.3667 262.413 84.1448 261.418C83.396 262.214 79.7353 265.993 78.0435 266.618C76.4905 267.187 69.5849 266.817 67.2554 266.675C67.2554 267.954 67.3108 268.863 67.5882 269.091Z" fill="#E5E5E5"/>
<path d="M9.09911 254.541C11.7892 254.911 12.4548 256.53 13.2868 256.445C14.1188 256.36 16.0324 254.655 16.0324 254.655C16.0324 253.405 17.2526 249.256 17.2526 249.256L6.18715 249.625L4.99463 255.252C5.02236 255.252 6.43674 254.172 9.09911 254.541Z" fill="#FFEDE5"/>
<path d="M16.6424 263.066C17.724 262.64 18.6947 261.702 19.3048 261.077C19.2771 260.054 18.9997 258.889 18.2232 258.434C16.892 257.667 16.06 254.655 16.06 254.655C16.06 254.655 14.1464 256.331 13.3144 256.445C12.4824 256.559 11.7891 254.939 9.12674 254.541C6.43664 254.172 5.04998 255.252 5.04998 255.252C4.05159 258.207 3.63559 262.782 3.52466 265.425C4.88358 265.709 7.10223 266.05 10.1806 266.05C15.7549 266.022 14.923 263.72 16.6424 263.066Z" fill="#3B2645"/>
<path d="M3.497 267.386C3.63567 267.84 4.05166 269.091 10.2639 269.091C16.476 269.091 16.2819 265.936 16.6979 264.913C17.1416 263.862 18.8056 263.208 19.0829 262.697C19.1939 262.469 19.3048 261.816 19.2771 261.077C18.6947 261.702 17.6963 262.64 16.6147 263.066C14.8953 263.72 15.755 266.05 10.1252 266.05C7.04682 266.05 4.82818 265.709 3.46927 265.425C3.44153 266.505 3.44153 267.272 3.497 267.386Z" fill="#E5E5E5"/>
<path d="M67.7821 101.998C67.7821 101.998 75.3532 119.73 77.3778 133.74C79.4023 147.75 75.0759 185.715 75.7138 188.955C76.3516 192.194 79.9015 202.14 80.4284 215.496C80.9276 228.852 78.9031 249.227 78.9031 249.227C78.9031 249.227 72.7463 252.04 68.42 249.824C68.42 249.824 65.0643 228.113 63.2062 218.991C61.3481 209.87 61.3481 199.185 59.2958 194.183C57.2436 189.182 51.9188 154.03 50.3935 148.375C50.3935 148.375 44.7637 176.622 39.5499 189.296C34.3361 201.97 32.8939 203.305 31.3131 210.608C29.7324 217.912 18.5837 244.339 17.2802 249.256C17.2802 249.256 11.2621 252.382 6.21472 249.625C6.21472 249.625 9.18217 217.343 14.5069 204.556C19.8317 191.768 20.4695 191.427 21.662 182.106C22.8546 172.785 17.9458 132.063 31.2577 106.033C31.2299 106.005 49.8943 101.856 67.7821 101.998Z" fill="#AB8DA8"/>
<path d="M50.3934 102.959C51.6137 108.415 67.7266 133.252 67.7266 133.252L58.3251 102.22L50.3934 102.959Z" fill="#543753"/>
<path d="M43.3493 141.299C43.3493 141.299 45.7898 147.21 57.9369 146.386C57.9369 146.386 51.281 147.892 51.8911 155.934L50.3935 148.403L48.7018 156.36C48.7018 156.36 49.1455 148.46 40.4651 145.732L46.1504 145.903C46.1781 145.874 43.3771 143.828 43.3493 141.299Z" fill="#543753"/>
<path d="M25.3784 46.9542C25.3784 46.9542 21.2739 50.4495 9.21004 69.4321C-2.85385 88.4147 0.25226 89.4378 2.22131 92.2226C4.16262 95.0075 18.778 110.694 19.8595 112.115C20.9411 113.564 24.9347 117.883 27.0701 116.15C29.2056 114.416 28.5123 109.443 30.8973 107.568C33.2823 105.664 35.2791 103.76 35.4733 102.737C35.6674 101.714 35.1682 100.861 34.9463 100.861C34.7245 100.861 32.3117 102.993 30.8418 103.732C29.372 104.47 25.9331 107.028 25.8776 107.028C25.8222 107.028 12.7599 86.8518 12.7599 86.8518L27.292 69.0911L25.3784 46.9542Z" fill="#FFEDE5"/>
<path d="M25.6557 53.3765C25.6557 53.3765 20.2755 60.1113 21.7176 76.1385L27.3475 69.29L25.6557 53.3765Z" fill="#DF845C"/>
<path d="M10.8461 102.083L16.3095 92.2795L12.9538 87.0508L10.0419 101.203L10.8461 102.083Z" fill="#DF845C"/>
<path d="M45.1241 43.6009C48.674 44.4818 58.02 49.8242 63.8994 61.0205C69.7788 72.2169 67.6989 74.2061 65.4525 77.4172L64.5928 91.7962L68.3644 103.817L31.2576 106.033C31.2576 106.033 34.1418 93.6433 32.6443 89.7218C31.1467 85.8002 14.8951 63.6349 23.9083 48.9433C28.4843 41.4128 45.1241 43.6009 45.1241 43.6009Z" fill="#FFEDE5"/>
<path d="M64.5928 91.768L65.4525 77.3889C67.6989 74.2062 69.8066 72.1886 63.8995 60.9923C62.4574 58.2642 60.8211 55.8772 59.1017 53.8027C58.7966 58.179 57.9092 63.4077 55.8292 68.8354C51.1423 81.14 32.3393 80.4011 27.3196 79.9749C29.7324 84.6921 32.0619 88.3011 32.5889 89.6651C32.8662 90.3755 33.0049 91.3701 33.0326 92.5068C47.2597 93.8993 64.5928 91.768 64.5928 91.768Z" fill="#AB8DA8"/>
<path d="M45.4293 43.6814C45.3184 43.653 45.2075 43.6245 45.1243 43.5961C45.1243 43.5961 44.8747 43.5677 44.4587 43.5109C38.3851 45.2159 33.6428 49.0806 30.4812 54.9345C29.4273 51.1266 28.845 47.5745 29.2055 44.8749C29.15 44.9033 29.0945 44.9317 29.0391 44.9317C28.9004 44.9886 28.7618 45.0454 28.6231 45.1022C28.1239 45.3011 27.6524 45.5285 27.2087 45.7842C24.1026 49.2227 23.021 55.6449 23.9917 64.9657C24.4354 69.143 25.2119 73.1498 25.9052 76.2189C25.9052 76.5031 25.9052 76.7872 25.9052 77.0714C26.0439 77.3556 26.1549 77.6113 26.2935 77.8955C26.349 78.0376 26.4322 78.1797 26.4876 78.3217C26.8204 79.0038 27.1532 79.6573 27.486 80.3109C27.2364 79.3732 26.8482 77.9239 26.4599 76.1621C26.4599 72.8373 26.7372 68.0916 27.9575 63.2323C28.5676 60.7316 29.3719 58.4866 30.3425 56.4406C33.615 67.3243 40.3264 79.5437 40.7424 80.2825L41.5467 81.7318L41.2694 80.0836C41.2416 79.9131 38.3297 63.1186 40.3542 53.2295C41.6299 47.0062 43.5712 44.7896 44.7915 43.994C45.1243 43.9087 45.4293 43.8235 45.7621 43.7666C45.6512 43.7382 45.5403 43.7098 45.4293 43.6814ZM27.4028 63.1186C26.4322 66.9549 26.0717 70.7344 25.9607 73.8034C24.1026 64.7384 22.3831 50.3025 28.6231 45.2727C28.3458 48.1428 29.0114 51.8086 30.1207 55.7018C28.9836 57.9183 28.0962 60.3906 27.4028 63.1186ZM39.7718 53.1442C38.1078 61.2999 39.7441 74.0592 40.4374 78.5775C38.4961 74.8549 33.3377 64.6816 30.7031 55.7018C33.5873 50.0468 37.8305 46.2957 43.4048 44.4202C42.1846 45.7274 40.7702 48.2565 39.7718 53.1442Z" fill="#AB8DA8"/>
<path d="M46.6495 90.8733H32.8662C32.6998 90.8733 32.5889 90.7624 32.5889 90.5959C32.5889 90.4295 32.6998 90.3185 32.8662 90.3185H46.6495C46.8159 90.3185 46.9269 90.4295 46.9269 90.5959C46.9269 90.7624 46.7882 90.8733 46.6495 90.8733Z" fill="#472938"/>
<path d="M50.8927 104.84L58.8243 104.357L54.7475 92.6204C52.8062 92.734 50.6985 92.8477 48.4521 92.9045C49.2009 97.4797 50.0052 101.714 50.8927 104.84Z" fill="#DF845C"/>
<path d="M45.2074 65.1127C45.2074 65.1127 45.6789 70.6256 46.4554 77.7583C47.3706 77.3888 48.2858 76.9626 49.1455 76.4511L45.2074 65.1127Z" fill="#DF845C"/>
<path d="M46.4832 77.7583C47.0101 82.4755 47.6757 87.8748 48.4799 92.933C50.6986 92.8762 52.834 92.7625 54.7753 92.6488L49.1733 76.4795C48.2858 76.9626 47.3983 77.3888 46.4832 77.7583Z" fill="#543753"/>
<path d="M33.0881 105.891L33.8647 105.834C33.8647 105.834 35.1126 104.726 35.3622 103.277C35.0294 103.959 34.1697 104.897 33.0881 105.891Z" fill="#DF845C"/>
<path d="M45.7345 43.7716C45.7345 43.7716 57.4101 46.1871 59.0741 51.9557C60.7658 57.7244 62.0138 91.7681 62.0138 91.7681C62.0138 91.7681 73.6894 125.726 74.9374 130.898C76.1854 136.07 78.7923 144.397 78.9587 146.073C79.1251 147.75 77.5166 151.614 76.9619 152.24C76.4072 152.865 73.0793 154.144 72.3305 154.314C71.5817 154.485 67.0612 151.444 67.2831 150.819C67.5049 150.194 69.3076 149.085 69.3076 149.085L69.6404 146.784C69.6404 146.784 66.3956 140.304 66.6175 137.008C66.8393 133.74 66.3401 131.609 65.2586 129.62C64.177 127.63 51.1701 97.8493 49.8389 92.649C48.5078 87.4487 44.6529 64.2319 44.7361 59.8557C44.8193 55.4794 45.7345 43.7716 45.7345 43.7716Z" fill="#FFEDE5"/>
</svg>
