<svg width="125" height="298" viewBox="0 0 125 298" fill="none" xmlns="http://www.w3.org/2000/svg">
<path d="M76.852 29.9647L79.1816 43.1502C79.4866 44.8837 80.6514 46.333 82.2599 46.9866L87.4183 49.061C87.4183 49.061 81.9826 57.3872 71.0835 59.7458C60.1844 62.076 54.2218 51.9595 54.2218 51.9595L58.8255 48.4358C59.8516 47.6402 60.4063 46.3898 60.3231 45.0826L59.4911 32.8348L76.852 29.9647Z" fill="#FFEDE5"/>
<path d="M60.1288 42.0136C60.1288 42.0136 73.1911 49.9135 76.8518 29.9647L59.5187 32.8064L60.1288 42.0136Z" fill="#DF845C"/>
<path d="M80.6058 25.7781C81.0981 23.6395 80.5304 21.6722 79.3378 21.384C78.1452 21.0957 76.7793 22.5956 76.287 24.7342C75.7946 26.8727 76.3623 28.84 77.5549 29.1283C78.7475 29.4166 80.1134 27.9166 80.6058 25.7781Z" fill="#FFEDE5"/>
<path d="M57.7189 31.5867C58.78 30.9589 58.7711 28.9075 57.6989 27.0047C56.6268 25.1019 54.8974 24.0683 53.8363 24.6961C52.7751 25.3239 52.7841 27.3753 53.8562 29.2781C54.9284 31.1808 56.6578 32.2144 57.7189 31.5867Z" fill="#DF845C"/>
<path d="M77.7394 26.4411C77.6839 26.4411 77.6562 26.4411 77.6007 26.4127C77.462 26.3274 77.4066 26.1569 77.4898 26.0432L78.4604 24.1109C78.5436 23.9688 78.71 23.912 78.821 23.9972C78.9596 24.0825 79.0151 24.253 78.9319 24.3666L77.9612 26.299C77.9335 26.3843 77.8503 26.4411 77.7394 26.4411Z" fill="#472938"/>
<path d="M56.8565 29.1123C56.801 29.1123 56.7178 29.0839 56.6623 29.0271L54.7765 27.2368C54.6656 27.1231 54.6656 26.9526 54.7488 26.8389C54.8597 26.7253 55.0261 26.7253 55.137 26.8105L57.0229 28.6008C57.1338 28.7145 57.1338 28.885 57.0506 28.9986C56.9951 29.0839 56.9119 29.1123 56.8565 29.1123Z" fill="#472938"/>
<path d="M52.7519 16.7792C52.7519 16.7792 57.3002 34.1136 59.0196 36.6143C60.7113 39.0866 65.9529 41.3884 66.8403 41.5305C67.7278 41.6726 71.2499 41.3031 72.0541 40.5927C72.8584 39.8823 77.1848 35.1935 77.8504 32.1528C78.4882 29.1122 78.6546 13.0565 75.909 10.1296C73.1357 7.20262 51.3653 9.58965 52.7519 16.7792Z" fill="#FFEDE5"/>
<path d="M67.0066 29.1122C66.3133 29.1122 65.0931 28.7428 64.9267 28.6575C64.7048 28.5439 64.6771 28.5439 64.7603 23.5424C64.7603 23.2014 64.7603 22.9457 64.7603 22.8604C64.7325 22.6331 64.0669 21.468 63.4845 20.5018C63.4013 20.3597 63.4291 20.1892 63.5677 20.104C63.7064 20.0187 63.8728 20.0471 63.956 20.1892C64.4552 21.0133 65.3427 22.4342 65.3427 22.832C65.3427 22.9173 65.3427 23.173 65.3427 23.514C65.3149 24.537 65.2872 27.464 65.3149 28.146C65.6477 28.2597 66.5906 28.5154 67.0621 28.487C67.4504 28.4586 68.0605 27.9755 68.3378 27.6913C68.4488 27.5777 68.6152 27.5777 68.7261 27.6913C68.837 27.805 68.837 27.9755 68.7261 28.0892C68.6429 28.1744 67.7832 29.0269 67.0898 29.0554C67.0621 29.1122 67.0344 29.1122 67.0066 29.1122Z" fill="#472938"/>
<path d="M63.5677 32.1243L71.2775 31.0444C71.2775 31.0444 70.6951 34.6818 67.9496 35.307C65.204 35.9322 63.5677 32.1243 63.5677 32.1243Z" fill="white"/>
<path d="M71.2221 22.0081C70.7506 22.0649 70.3346 21.7239 70.2792 21.2408L70.2237 20.5872C70.1682 20.1041 70.501 19.6779 70.9725 19.6211C71.4439 19.5642 71.8599 19.9052 71.9154 20.3883L71.9709 21.0419C72.0541 21.525 71.6935 21.9513 71.2221 22.0081Z" fill="#472938"/>
<path d="M60.4339 23.997C59.9624 24.0822 59.5187 23.7696 59.4355 23.2866L59.3246 22.633C59.2414 22.1499 59.5464 21.6952 60.0179 21.6099C60.4894 21.5247 60.9331 21.8373 61.0163 22.3204L61.1272 22.974C61.2104 23.4571 60.9054 23.9117 60.4339 23.997Z" fill="#472938"/>
<path d="M68.3379 18.0012C68.3379 18.0012 72.3314 16.5519 74.4669 17.8307C74.4669 17.8307 74.1063 16.0404 71.9154 16.1256C69.7245 16.2109 68.3102 16.5235 68.0883 17.0634C67.8664 17.6033 68.3379 18.0012 68.3379 18.0012Z" fill="#472938"/>
<path d="M62.403 19.1094C62.403 19.1094 58.1876 18.7116 56.4404 20.5019C56.4404 20.5019 56.3572 18.6548 58.4926 18.2001C60.6281 17.7454 62.0702 17.6886 62.403 18.1433C62.7635 18.6264 62.403 19.1094 62.403 19.1094Z" fill="#472938"/>
<path d="M55.442 26.4125L54.6378 19.2514C54.6378 19.2514 61.2659 19.9618 66.2579 14.7899C71.2498 9.61798 74.7165 12.5165 74.7165 12.5165L78.1831 22.2068L79.0151 21.3258C79.0151 21.3258 79.2092 12.2892 79.0151 11.9766C78.821 11.664 77.3511 10.7262 77.3511 10.7262C77.3511 10.7262 76.8797 1.91694 66.2024 0.183498C55.5252 -1.54995 52.6964 9.90215 49.5903 10.3568L50.8383 11.9766C50.8383 11.9766 50.4223 13.2838 50.4501 14.9036C50.4778 16.5233 53.8612 24.7075 53.8612 24.7075L55.442 26.4125Z" fill="#3B2645"/>
<path d="M40.6325 56.6765C40.6325 56.6765 34.3371 58.5237 34.6144 71.9649C34.6144 71.9649 28.3745 81.5699 27.6812 93.0504C27.6812 93.0504 12.428 78.6998 11.901 76.9379C11.3464 75.1476 11.6515 68.8675 11.2909 67.3329C10.9304 65.7984 9.59921 64.1786 9.7656 62.019C9.932 59.8593 10.2925 56.8186 10.0984 56.506C9.90427 56.1935 6.9923 56.5345 6.4931 59.0067C5.99391 61.479 5.85524 64.2923 5.85524 64.2923C5.85524 64.2923 1.16835 65.4858 0.585958 66.3668C0.00356388 67.2477 0.336362 69.5779 0.336362 69.5779C0.336362 69.5779 0.447294 77.421 1.22382 78.3019C2.00035 79.1829 5.71658 81.1152 6.4931 81.6551C7.26963 82.1951 16.0333 102.854 19.8327 107.543C23.6321 112.232 27.1542 113.539 30.4545 112.431C33.7547 111.323 42.8789 98.7054 45.8186 92.8515C48.7583 86.9976 47.6767 57.3586 40.6325 56.6765Z" fill="#FFEDE5"/>
<path d="M47.2051 76.1992C43.8494 75.3467 41.6585 75.8582 41.6585 75.8582C41.6585 75.8582 46.1236 92.397 39.218 103.139C41.9359 99.4444 44.4873 95.466 45.7908 92.8801C47.0387 90.351 47.5657 83.3604 47.2051 76.1992Z" fill="#DF845C"/>
<path d="M27.6533 93.0506L30.2602 95.0113L27.7643 91.8286L27.6533 93.0506Z" fill="#DF845C"/>
<path d="M2.52721 66.2247C2.52721 66.2247 7.26956 66.5941 7.51916 66.8783C7.76876 67.1625 8.15702 77.1937 7.26956 77.8757C6.35437 78.5861 1.80615 78.4725 1.80615 78.4725C1.80615 78.4725 7.24183 78.984 7.82423 78.7282C8.40662 78.4725 9.46047 74.9488 9.65461 73.1301C9.84874 71.3114 8.73941 66.5089 8.32342 66.3952C7.90742 66.2816 2.52721 66.2247 2.52721 66.2247Z" fill="#DF845C"/>
<path d="M100.896 267.532C101.091 261.28 101.728 252.101 101.618 243.604C101.451 231.385 100.259 217.631 99.6762 213.624C99.0661 209.618 100.48 191.061 100.48 191.061L75.4098 194.642C76.0199 196.631 80.5681 214.079 80.7623 221.695C80.9841 229.311 90.1083 264.775 90.4688 267.617C90.5243 267.986 90.552 268.384 90.6075 268.782C92.9093 269.066 97.3189 269.293 100.896 267.532Z" fill="#FFEDE5"/>
<path d="M93.1312 276.597C93.1312 276.597 92.8539 273.556 96.1818 272.817C99.5098 272.078 101.035 273.783 101.035 273.783C100.841 272.448 100.841 270.26 100.924 267.531C97.3466 269.293 92.9371 269.066 90.663 268.782C90.8848 270.998 90.9403 273.641 90.7184 275.801C91.079 276.767 93.1312 276.597 93.1312 276.597Z" fill="white"/>
<path d="M89.6368 289.555C93.1866 291.459 92.1605 295.721 96.5978 296.773C100.286 297.654 105.888 297.142 108.079 296.886C108.662 296.829 109.133 296.346 109.244 295.75C109.3 295.323 109.355 294.755 109.327 294.158C106.554 294.414 100.037 294.925 97.4298 294.272C94.1018 293.448 93.2976 289.952 91.6336 288.986C90.3856 288.276 89.5813 287.338 89.2485 286.912C89.1931 287.509 89.1099 288.02 89.0821 288.39C88.9712 288.901 89.2208 289.356 89.6368 289.555Z" fill="#3B2645"/>
<path d="M108.079 290.35C107.414 289.384 106.443 287.31 105.445 284.951C104.862 287.082 98.2063 286.088 97.3466 285.86C96.4869 285.633 93.1589 276.596 93.1589 276.596C93.1589 276.596 91.1067 276.739 90.7184 275.772C90.6629 276.255 90.6075 276.739 90.5243 277.165C90.1915 278.983 89.5813 283.956 89.2485 286.912C89.5813 287.338 90.3856 288.247 91.6336 288.986C93.3253 289.952 94.1018 293.448 97.4298 294.272C100.037 294.925 106.554 294.414 109.327 294.158C109.244 293.021 108.967 291.657 108.079 290.35Z" fill="#AB8DA8"/>
<path d="M97.3189 285.86C98.1786 286.088 104.835 287.082 105.417 284.951C103.309 280.006 101.007 273.783 101.007 273.783C101.007 273.783 99.482 272.078 96.1541 272.817C92.8261 273.556 93.1034 276.596 93.1034 276.596C93.1034 276.596 96.4591 285.661 97.3189 285.86Z" fill="#3B2645"/>
<path d="M91.8377 214.516C94.4711 214.096 96.5238 213.216 96.4227 212.549C96.3215 211.882 94.1047 211.682 91.4714 212.101C88.838 212.52 86.7853 213.401 86.8864 214.068C86.9876 214.735 89.2043 214.935 91.8377 214.516Z" fill="#E0855C"/>
<path d="M29.8444 268.014C29.8721 261.734 30.2049 252.612 30.5932 244.116C31.2865 229.026 34.5035 215.755 34.5035 214.136C34.5035 207.713 35.2246 187.793 35.6128 188.276L58.8254 194.045C58.1598 196.006 51.8089 212.487 51.3375 220.103C50.866 227.719 40.7157 265.656 40.2443 268.469C40.1888 268.839 40.1333 269.208 40.0779 269.634C37.776 269.805 33.3665 269.89 29.8444 268.014Z" fill="#FFEDE5"/>
<path d="M37.3046 277.335C37.3046 277.335 37.6929 274.295 34.3926 273.442C31.0924 272.59 29.5116 274.238 29.5116 274.238C29.7612 272.902 29.8444 270.714 29.8444 267.986C33.3665 269.862 37.7761 269.776 40.0779 269.577C39.8006 271.766 39.6342 274.408 39.8006 276.597C39.3291 277.563 37.3046 277.335 37.3046 277.335Z" fill="white"/>
<path d="M40.3552 290.407C36.7222 292.198 37.6374 296.489 33.1723 297.369C29.4561 298.108 23.8818 297.426 21.6908 297.085C21.1085 297 20.637 296.517 20.5815 295.892C20.5261 295.466 20.4983 294.897 20.5538 294.3C23.3271 294.641 29.8166 295.38 32.4513 294.84C35.807 294.13 36.7222 290.663 38.4139 289.754C39.6896 289.072 40.5216 288.191 40.8821 287.765C40.9376 288.361 40.9653 288.873 40.9931 289.271C41.0485 289.754 40.7712 290.208 40.3552 290.407Z" fill="#3B2645"/>
<path d="M21.9126 290.578C22.606 289.64 23.6598 287.594 24.7414 285.264C25.2683 287.423 31.9243 286.656 32.8117 286.457C33.6992 286.258 37.3045 277.335 37.3045 277.335C37.3045 277.335 39.329 277.563 39.7727 276.597C39.8005 277.08 39.8559 277.563 39.9114 277.989C40.1887 279.836 40.6324 284.809 40.882 287.764C40.5215 288.191 39.6895 289.072 38.4138 289.754C36.6944 290.663 35.8069 294.101 32.4512 294.84C29.8443 295.409 23.327 294.67 20.5537 294.3C20.6369 293.192 20.9974 291.828 21.9126 290.578Z" fill="#AB8DA8"/>
<path d="M32.7841 286.457C31.8966 286.656 25.2407 287.423 24.7137 285.264C26.9879 280.376 29.4838 274.238 29.4838 274.238C29.4838 274.238 31.0646 272.59 34.3648 273.442C37.6651 274.295 37.2768 277.335 37.2768 277.335C37.2768 277.335 33.6715 286.258 32.7841 286.457Z" fill="#3B2645"/>
<path d="M45.5755 216.563C45.6985 215.9 43.6757 214.949 41.0575 214.439C38.4393 213.929 36.2172 214.053 36.0942 214.716C35.9713 215.379 37.994 216.33 40.6122 216.84C43.2304 217.35 45.4525 217.226 45.5755 216.563Z" fill="#E0855C"/>
<path d="M97.4297 136.898C97.4297 136.898 102.089 167.134 100.48 191.061C100.48 191.061 91.4671 197.967 70.4178 193.846L67.173 174.835L61.8482 193.96C61.8482 193.96 40.0223 195.295 34.1707 186.628C34.1707 186.628 37.3045 150.766 43.9327 136.273C50.5609 121.78 95.2666 125.02 97.4297 136.898Z" fill="#3B2645"/>
<path d="M67.173 174.835C67.173 174.835 64.5661 172.476 64.2887 172.249C64.0114 172.022 61.5986 162.246 61.5986 162.246L64.261 185.292L67.173 174.835Z" fill="#3B2645"/>
<path d="M79.0983 191.573C74.4114 191.573 71.028 191.203 70.9448 191.203C70.8616 191.203 70.8061 191.118 70.8339 191.033C70.8339 190.948 70.9171 190.891 71.0003 190.919C71.1944 190.948 89.8033 192.965 100.647 187.367C100.702 187.339 100.786 187.367 100.841 187.424C100.869 187.481 100.841 187.566 100.786 187.623C94.4347 190.891 85.5324 191.573 79.0983 191.573Z" fill="white"/>
<path d="M62.7081 191.004C62.7081 191.004 62.6804 191.004 62.7081 191.004C42.5184 189.271 34.5036 183.502 34.4204 183.445C34.3649 183.388 34.3372 183.303 34.3927 183.246C34.4481 183.19 34.5313 183.161 34.5868 183.218C34.67 183.275 42.6294 188.987 62.7358 190.72C62.819 190.72 62.8745 190.805 62.8745 190.862C62.819 190.947 62.7636 191.004 62.7081 191.004Z" fill="white"/>
<path d="M83.896 47.64C83.896 47.64 79.6251 56.4209 69.8354 57.0745C60.0456 57.7281 56.2462 50.4533 56.2462 50.4533L40.6324 56.7051C40.6324 56.7051 43.4612 66.9921 41.6586 75.8866C41.6586 75.8866 45.7908 91.0045 45.7908 92.9084C45.7908 94.8124 49.2574 102.883 49.4793 104.787C49.7012 106.691 43.9327 136.301 43.9327 136.301C43.9327 136.301 71.4993 144.599 77.9057 144.315C84.312 144.031 97.4297 136.898 97.4297 136.898C97.4297 136.898 96.1263 112.09 97.4297 105.98C98.7332 99.8706 103.614 83.5308 103.614 83.5308C103.614 83.5308 99.482 62.1327 100.647 53.6076L83.896 47.64Z" fill="#AB8DA8"/>
<path d="M100.453 83.1897C100.314 83.1897 100.203 83.1045 100.175 82.9624C97.7349 72.7322 97.2634 52.6982 97.2634 52.4993C97.2634 52.3288 97.3744 52.2151 97.5408 52.2151C97.7072 52.2151 97.8181 52.3288 97.8181 52.4993C97.8181 52.6982 98.2896 72.6754 100.73 82.8487C100.758 82.9908 100.675 83.1613 100.536 83.1897C100.48 83.1897 100.453 83.1897 100.453 83.1897Z" fill="#472938"/>
<path d="M42.5737 79.524C42.5183 79.524 42.4351 79.4955 42.3796 79.4671C42.2687 79.3535 42.2409 79.183 42.3519 79.0693C47.2329 73.4143 42.7401 55.9946 42.6847 55.8241C42.6569 55.682 42.7401 55.5115 42.8788 55.4831C43.0175 55.4547 43.1839 55.5399 43.2116 55.682C43.4057 56.4209 47.8153 73.5564 42.7401 79.4387C42.7124 79.4955 42.6292 79.524 42.5737 79.524Z" fill="#472938"/>
<path d="M68.3378 60.1718C58.6312 60.1718 53.6115 51.6467 53.5561 51.533C53.4729 51.3909 53.5283 51.2204 53.667 51.1352C53.8057 51.0499 53.9721 51.1068 54.0553 51.2489C54.1107 51.3341 59.3523 60.2571 69.4748 59.5466C77.6838 58.9783 82.1211 53.5791 83.591 51.7888C84.0901 51.1636 84.2288 51.0215 84.4507 51.0784C84.5616 51.1068 84.6448 51.192 84.6725 51.3057C84.728 51.4478 84.6448 51.6183 84.4784 51.6467C84.4507 51.6467 84.4507 51.6467 84.4229 51.6467C84.3397 51.7319 84.1733 51.9593 84.0069 52.1582C82.5094 53.9769 77.9611 59.5182 69.5026 60.115C69.1143 60.1718 68.726 60.1718 68.3378 60.1718Z" fill="#472938"/>
<path d="M100.647 53.6076C100.647 53.6076 110.742 53.0393 112.877 69.3507C112.877 69.3507 123.249 89.5268 124.442 95.9775C125.634 102.428 123.499 111.522 120.892 116.182C118.285 120.842 109.605 135.903 108.024 138.205C106.443 140.507 106.693 141.104 102.56 141.416C102.56 141.416 99.5097 141.985 98.8996 142.269C98.2894 142.553 94.6009 144.571 93.8522 144.287C93.1034 144.031 92.3823 143.008 92.521 142.809C92.6874 142.581 96.5423 140.45 96.5423 140.45C96.5423 140.45 90.3301 141.53 89.7477 141.502C89.1653 141.473 88.3055 140.138 88.3055 140.138C88.3055 140.138 86.281 139.2 86.0314 138.461C85.7818 137.722 88.0005 136.244 88.0005 136.244C88.0005 136.244 86.6693 135.903 86.1978 135.193C85.7264 134.483 93.9631 129.964 94.9615 130.021C95.9599 130.078 102.727 130.959 102.727 130.959C102.727 130.959 111.712 101.348 111.795 99.5012C111.879 97.6541 104.668 89.9531 103.559 83.5308C103.614 83.5308 98.9828 61.195 100.647 53.6076Z" fill="#FFEDE5"/>
<path d="M87.9172 140.223C87.8063 140.223 87.7231 140.166 87.6676 140.052C87.6122 139.91 87.6676 139.74 87.8063 139.683L94.074 136.756C94.2126 136.699 94.379 136.756 94.4345 136.898C94.49 137.04 94.4345 137.211 94.2958 137.268L88.0281 140.194C88.0004 140.223 87.9727 140.223 87.9172 140.223Z" fill="#472938"/>
<path d="M88.056 136.557C87.9451 136.557 87.8619 136.5 87.8064 136.415C87.7232 136.273 87.7787 136.103 87.9174 136.017L94.0463 132.664C94.185 132.579 94.3514 132.636 94.4346 132.778C94.5178 132.92 94.4623 133.09 94.3237 133.176L88.1947 136.529C88.1392 136.529 88.0838 136.557 88.056 136.557Z" fill="#472938"/>
</svg>
