<svg width="27" height="17" viewBox="0 0 27 17" fill="none" xmlns="http://www.w3.org/2000/svg">
<path fill-rule="evenodd" clip-rule="evenodd" d="M24.9834 13.8977C24.9834 15.0193 19.8854 16.249 14.4781 16.249C9.07081 16.249 4.64966 14.2999 4.64966 13.1783C4.64966 12.0567 9.78765 11.8679 15.1936 11.8679C20.5995 11.8679 24.9834 12.7761 24.9834 13.8977Z" fill="#E2CAB3"/>
<path fill-rule="evenodd" clip-rule="evenodd" d="M25.8202 15.0427C25.8354 15.6418 24.5329 16.1615 22.91 16.2026C21.2871 16.2436 19.9584 15.7922 19.9432 15.1918C19.9281 14.5913 21.2305 14.0729 22.8534 14.0319C24.4763 13.9909 25.805 14.4422 25.8202 15.0427Z" fill="#E2CAB3"/>
<path fill-rule="evenodd" clip-rule="evenodd" d="M2.19096 10.7791C1.32634 12.8089 2.3788 13.8717 3.78069 14.0468C4.33316 14.1151 5.16187 13.7363 5.77512 13.4996C6.27408 13.2802 6.74778 13.0082 7.18806 12.6885C7.39662 12.4765 7.64247 12.1879 7.69219 11.8679C7.69887 11.7442 7.67218 11.621 7.61485 11.5109C7.63044 11.4647 7.65328 11.4214 7.68253 11.3823C7.75711 11.2455 7.55546 11.1402 7.65628 10.987C7.8165 10.7422 7.60518 10.4782 7.50159 10.2607C7.46706 10.1909 6.5762 9.40719 6.53476 9.33196C5.79169 8.55369 5.59142 8.18712 4.56935 8.02708C3.28623 7.82465 2.04179 8.28833 2.19096 10.7791Z" fill="#5F825C"/>
<g style="mix-blend-mode:multiply" opacity="0.4">
<path fill-rule="evenodd" clip-rule="evenodd" d="M2.65508 10.0295C2.80148 10.0473 2.8733 10.4399 2.81253 10.9104C2.75176 11.3809 2.58602 11.742 2.43823 11.7242C2.29044 11.7065 2.22139 11.3139 2.28078 10.8434C2.34017 10.3729 2.50038 10.0104 2.65508 10.0295Z" fill="#5F825C"/>
</g>
<path fill-rule="evenodd" clip-rule="evenodd" d="M2.79322 12.2303C2.47969 12.3671 2.50869 12.7679 2.63576 13.0278C2.63888 13.0319 2.64122 13.0365 2.64267 13.0414C2.67251 13.1013 2.70961 13.1573 2.75316 13.2083C2.90708 13.4024 3.11949 13.5428 3.3595 13.6091C3.6606 13.6843 4.00589 13.6337 4.17992 13.3971C4.18418 13.3898 4.1911 13.3844 4.19926 13.382V13.3519C4.16058 13.1987 3.92302 13.1686 3.79595 13.1495C3.51972 13.1071 3.43823 12.8664 3.35398 12.6434C3.26972 12.4205 3.06945 12.1045 2.79322 12.2303Z" fill="#8DB54F"/>
<g style="mix-blend-mode:multiply" opacity="0.4">
<path fill-rule="evenodd" clip-rule="evenodd" d="M5.63011 9.21581C5.37459 9.35259 5.61215 9.66171 5.73508 9.80806C6.01131 10.1473 6.38975 10.3907 6.62041 10.7765C6.85107 11.1622 6.54997 11.7599 6.91875 12.0854C6.93652 12.1012 6.95728 12.1132 6.97981 12.1209C7.00234 12.1286 7.0262 12.1318 7.04998 12.1303C7.07376 12.1287 7.097 12.1225 7.11834 12.112C7.13968 12.1015 7.15869 12.0869 7.17427 12.069C7.19042 12.0432 7.20253 12.015 7.21018 11.9856C7.25506 11.9288 7.29007 11.865 7.31376 11.7968C7.3759 11.5828 7.36768 11.3548 7.29028 11.1458C7.23227 10.9584 7.36211 10.7765 7.30548 10.5891C7.27953 10.5192 7.23798 10.4561 7.18393 10.4044C7.12728 10.3393 7.06227 10.2818 6.99057 10.2334C6.85688 10.1234 6.73346 10.0016 6.62179 9.86961C6.48803 9.71262 6.34111 9.56712 6.18258 9.43465C6.01546 9.27736 5.79861 9.12416 5.63011 9.21581Z" fill="#5F825C"/>
</g>
<path fill-rule="evenodd" clip-rule="evenodd" d="M2.4259 10.9051C2.28778 10.8819 2.20076 10.8271 1.75464 10.7177C1.30852 10.6083 1.08201 10.5837 1.01295 10.5426C0.94389 10.5016 1.13726 10.2869 1.13726 10.2869C1.13726 10.2869 1.4715 10.4141 1.74636 10.5153C2.02121 10.6165 2.52396 10.7505 2.52396 10.7505C2.52396 10.7505 2.60269 10.7943 2.57092 10.8654C2.53915 10.9366 2.4259 10.9051 2.4259 10.9051Z" fill="#300D33"/>
<path fill-rule="evenodd" clip-rule="evenodd" d="M25.859 6.95059C25.4847 7.03676 25.1684 7.26108 24.7789 7.28023C24.3645 7.30074 23.9502 7.12977 23.5455 7.05181C22.6657 6.8822 21.7651 6.78782 20.8757 6.69071C19.0801 6.49374 17.2611 6.40894 15.4587 6.20377C13.6562 5.9986 11.8676 5.76471 10.0638 5.77292C9.19479 5.77508 8.32753 5.85012 7.47132 5.99723C6.76554 6.11897 6.04732 6.26122 5.45618 6.68113C5.0012 7.01256 4.65833 7.47276 4.47278 8.00106C4.23246 8.64392 5.50176 12.5804 5.69374 12.839C7.36221 15.0274 10.1632 15.5062 14.7722 15.4145C19.6975 15.316 21.6008 14.773 22.9958 13.5529C23.7458 12.8978 24.377 11.2126 24.4902 10.883C24.6822 10.3017 24.8949 9.72858 25.0938 9.15001C25.2195 8.78344 25.3507 8.42097 25.5081 8.06671C25.6747 7.7339 25.8133 7.38804 25.9225 7.03266C25.9256 7.02298 25.9264 7.01269 25.9246 7.00268C25.9228 6.99266 25.9187 6.98322 25.9124 6.97515C25.9062 6.96709 25.898 6.96064 25.8887 6.95636C25.8794 6.95208 25.8692 6.9501 25.859 6.95059Z" fill="#DA840D"/>
<path fill-rule="evenodd" clip-rule="evenodd" d="M25.1131 7.22012C24.4847 7.65782 23.58 7.6756 22.8438 7.81922C21.0262 8.17485 19.2141 8.41968 17.3592 8.37591C15.5443 8.33488 13.7281 8.12287 11.9201 7.97515C10.0721 7.82469 8.21992 7.71663 6.36638 7.80007C5.95691 7.8149 5.55071 7.87827 5.15646 7.98883C4.95481 8.04627 4.65371 8.12561 4.55289 8.33078C4.52802 8.38402 4.51439 8.44174 4.51283 8.50038V8.50996C4.42168 8.81361 4.52803 9.06802 4.633 9.33747C4.65786 9.451 4.68548 9.56453 4.71172 9.67806C4.66476 9.67806 4.65786 9.74918 4.71172 9.75055H4.72692C4.73262 9.75695 4.73963 9.76208 4.74749 9.76559C4.75535 9.76911 4.76387 9.77092 4.7725 9.77092C4.78112 9.77092 4.78964 9.76911 4.7975 9.76559C4.80536 9.76208 4.81237 9.75695 4.81807 9.75055C5.14403 9.75055 5.46723 9.69037 5.79457 9.68216C6.28627 9.66848 6.70338 9.91742 7.13293 10.1226C7.90363 10.4864 8.63151 10.9118 9.41188 11.2346C9.76005 11.3789 10.1182 11.4982 10.4837 11.5916C10.848 11.6692 11.2171 11.7231 11.5886 11.753C11.9836 11.8036 12.3745 11.8898 12.7681 11.9431C13.209 11.9949 13.6535 12.009 14.0968 11.9855C15.8574 11.9548 17.6126 11.7833 19.3453 11.4726C20.9199 11.1799 22.4944 10.7395 23.8659 9.89827C24.4082 9.57177 24.8675 9.12627 25.2084 8.59613C25.3659 8.35129 25.4999 8.08731 25.6463 7.83563C25.754 7.64824 25.8838 7.42529 25.8645 7.20781C25.8327 6.73456 25.3065 7.08745 25.1131 7.22012Z" fill="#C66720"/>
<path opacity="0.4" fill-rule="evenodd" clip-rule="evenodd" d="M14.5222 14.4954C7.68534 15.4529 5.63843 12.7269 5.70058 12.8076C7.36905 14.9961 10.1715 15.4748 14.7791 15.3831C19.7044 15.286 21.7057 14.7102 23.1021 13.4901C23.8092 12.8705 24.5924 10.5849 24.7484 10.1404C21.3273 12.928 20.3508 13.6748 14.5222 14.4954Z" fill="#C66720"/>
<path fill-rule="evenodd" clip-rule="evenodd" d="M26.9942 4.72117C26.9154 4.24108 26.1655 4.17406 25.7953 4.03728C25.468 3.91691 25.2428 3.62694 24.9763 3.40946C24.6886 3.17396 24.3687 2.98008 24.026 2.83361C23.2457 2.49987 22.4639 2.23315 21.7526 1.76126C21.0979 1.32493 20.2941 1.26885 19.5427 1.14712C19.0782 1.07531 18.6236 0.950937 18.1878 0.776448C17.8006 0.59626 17.3916 0.466163 16.971 0.389361C16.5373 0.331914 16.0911 0.430395 15.6575 0.448176C15.1768 0.467326 14.7348 0.311397 14.2832 0.174617C13.9145 0.0423829 13.5229 -0.0157412 13.1313 0.00364233C12.7666 0.0337339 12.4407 0.225225 12.1341 0.413982C12.1264 0.418214 12.1199 0.424342 12.1153 0.43177C12.1107 0.439198 12.1081 0.447676 12.1078 0.456383C11.7611 0.635565 11.4283 0.835263 11.0802 1.01581C10.7898 1.17445 10.4783 1.29186 10.1548 1.3646C9.75843 1.44667 9.38552 1.38101 8.99188 1.33041C8.30129 1.2415 7.64799 1.22509 6.99331 1.47539C6.21433 1.77357 5.59418 2.38087 4.8221 2.70641C4.15775 2.97997 3.57904 3.30414 3.16468 3.91007C2.99222 4.16438 2.87466 4.45123 2.81939 4.75263C2.76828 5.0768 2.84701 5.37088 2.91607 5.68821C3.00723 6.09855 2.92574 6.42682 2.80696 6.82211C2.70574 7.08276 2.71319 7.37254 2.82768 7.62774C2.93541 7.83565 3.16468 7.96969 3.36495 8.07638C3.56523 8.18307 4.07626 8.29796 4.11908 8.5469C4.30139 9.60284 5.50026 9.1077 6.20604 9.36758C6.55272 9.49752 6.87315 9.69449 7.22535 9.82169C7.63004 9.96805 8.05406 10.0775 8.46841 10.1883C9.29712 10.4098 10.0954 10.7053 10.9007 11.0089C11.2556 11.1457 11.5913 11.3153 11.9711 11.3837C12.3509 11.4521 12.7432 11.3906 13.1188 11.3577C13.8992 11.288 16.3674 11.4945 16.6947 11.329C17.1187 11.1225 17.5124 11.1416 17.9709 11.1799C18.3287 11.21 18.638 10.9474 18.9971 10.9187C19.4099 10.8784 19.817 10.7935 20.2112 10.6656C20.5628 10.5311 20.9209 10.4142 21.2844 10.3155C21.6987 10.2238 22.0606 9.92701 22.4791 9.87093C23.2926 9.76014 23.8893 9.30877 24.5191 8.7849C25.0909 8.31028 26.4431 6.67439 26.5605 6.35022C26.6779 6.02605 26.7649 5.66632 26.8602 5.33121C26.9127 5.14382 27.0273 4.92087 26.9942 4.72117Z" fill="#F0A508"/>
<g opacity="0.5">
<path opacity="0.5" fill-rule="evenodd" clip-rule="evenodd" d="M14.2335 2.3098C14.1189 2.45889 13.9808 2.49992 13.9932 3.42729C14.0056 4.35465 14.0954 4.70481 13.7349 5.40786C13.3744 6.1109 12.6755 6.79344 12.4283 7.54162C12.1811 8.2898 11.8689 9.51809 12.1852 9.99545C12.5015 10.4728 13.6534 10.7081 15.2238 10.7505C16.7942 10.7929 18.5165 10.5385 19.4848 10.2403C20.453 9.9421 21.0123 9.819 21.2319 9.55639C21.4516 9.29377 20.3563 7.05058 19.5897 6.17519C18.8232 5.2998 18.4558 5.00983 17.5912 4.2849C16.7265 3.55996 16.3481 3.27136 15.9213 2.68594C15.4945 2.10052 15.384 2.06906 14.9352 2.0759C14.6816 2.07519 14.435 2.15741 14.2335 2.3098Z" fill="#E2CAB3"/>
<path opacity="0.5" fill-rule="evenodd" clip-rule="evenodd" d="M5.51001 8.20369C6.11911 6.81264 6.92296 6.17935 7.14809 5.86475C7.76824 4.99894 8.13563 4.62006 8.95743 4.49696C9.77924 4.37385 9.32897 4.37796 10.2626 4.24802C11.1963 4.11808 11.9795 3.91701 12.6107 3.42734C13.2419 2.93767 13.5678 2.55605 13.9034 2.43705C14.2391 2.31806 14.757 2.0527 14.3896 2.42748C14.0222 2.80226 14.5125 2.94451 13.8219 3.96078C13.1314 4.97705 12.8026 5.50229 12.5568 6.28603C12.3109 7.06978 12.0568 9.5154 11.4947 9.70826C10.9325 9.90112 9.5914 9.93532 8.34557 9.4771C7.37886 9.1013 6.43241 8.67626 5.51001 8.20369Z" fill="#E2CAB3"/>
<path opacity="0.5" fill-rule="evenodd" clip-rule="evenodd" d="M22.3467 8.82864C22.3467 8.82864 23.5013 8.47164 24.1643 7.90127C24.8272 7.3309 25.4902 6.79882 25.7002 6.01508C25.9101 5.23133 26.1477 5.03573 25.8908 4.80321C25.6339 4.57068 24.2596 3.33556 23.1284 2.72689C21.9972 2.11822 20.5594 1.73387 19.2804 1.46715C18.0015 1.20043 17.3233 1.35636 16.6562 1.33037C15.9891 1.30438 14.9325 2.06625 14.9477 2.07445C15.317 2.42622 15.7279 2.73254 16.1714 2.98677C16.7708 3.29863 18.1686 3.8266 18.8509 4.21779C19.5332 4.60898 20.0746 5.47343 20.2321 5.8783C20.3895 6.28317 20.6105 6.409 20.8356 7.18454C21.0608 7.96008 21.6851 9.20888 21.6851 9.20888L22.3467 8.82864Z" fill="#E2CAB3"/>
<path opacity="0.5" fill-rule="evenodd" clip-rule="evenodd" d="M3.62903 4.11662C3.62903 4.11662 3.0959 5.53502 3.37214 6.21755C3.56371 6.66525 3.82467 7.08059 4.1456 7.44857C4.1456 7.44857 4.83619 8.10238 5.30717 7.42532C5.77815 6.74826 6.79884 5.16709 7.60959 4.55705C8.42035 3.94701 9.42999 3.8157 10.1786 3.7268C10.9272 3.63789 12.6854 3.33834 13.1716 2.94578C13.6578 2.55323 14.9478 2.0745 14.9478 2.0745C14.3897 1.82076 13.8083 1.6206 13.2117 1.47677C12.3084 1.2716 10.8637 1.82009 9.69103 1.54653C8.51841 1.27297 7.37479 1.88985 6.07648 2.54639C5.21434 2.99533 4.39516 3.5209 3.62903 4.11662Z" fill="#E2CAB3"/>
<path opacity="0.5" fill-rule="evenodd" clip-rule="evenodd" d="M11.3635 1.21278C11.3635 1.21278 12.5776 0.0788792 13.4021 0.0993962C14.4449 0.126752 14.7833 0.353806 15.2819 0.509735C15.8496 0.684813 16.0761 0.754571 15.9297 0.980258C15.7833 1.20594 15.0927 2.21128 15.0927 2.21128C15.0927 2.21128 13.4353 1.40564 12.8276 1.31263C12.3428 1.2426 11.8534 1.20922 11.3635 1.21278Z" fill="#E2CAB3"/>
</g>
<path opacity="0.4" fill-rule="evenodd" clip-rule="evenodd" d="M23.3037 2.46842C22.9763 2.33164 22.6476 2.21812 22.3258 2.06629C21.9489 1.87465 21.5616 1.70387 21.1656 1.55473C20.8083 1.44618 20.4417 1.37063 20.0703 1.32905C19.2306 1.19227 18.4599 0.848951 17.6547 0.602747C17.193 0.462084 16.7105 0.400108 16.2279 0.419462C15.808 0.446818 15.3868 0.446818 14.9669 0.419462C14.5525 0.375693 14.1879 0.185569 13.7846 0.0802487C13.2943 -0.0483242 12.8868 0.0802487 12.4518 0.311406C11.8095 0.641046 11.1686 1.04318 10.4725 1.25382C10.1007 1.3739 9.71165 1.43304 9.32062 1.4289C8.90627 1.41522 8.51125 1.33315 8.1038 1.3058C7.65494 1.25833 7.20178 1.34002 6.79859 1.54106C6.49258 1.70167 6.20421 1.89327 5.93811 2.1128C5.93673 2.13694 5.93673 2.16114 5.93811 2.18529C5.85779 2.41767 5.82905 2.66447 5.85386 2.90885C5.86601 3.15822 5.93196 3.40212 6.04727 3.62414C6.16258 3.84615 6.32457 4.04113 6.52235 4.19595C6.80964 4.43668 7.11073 4.62134 7.35106 4.90994C7.59138 5.19855 7.76541 5.49946 8.04165 5.73062C8.49191 6.11087 9.08996 6.14096 9.65625 6.14096C9.95458 6.14096 10.2515 6.12591 10.5485 6.14096C10.9561 6.18346 11.3568 6.27533 11.7418 6.41452C12.5374 6.66072 13.3178 7.0013 14.1396 7.16134C14.9614 7.32137 15.7763 7.12851 16.5746 6.9165C17.3729 6.70449 18.1602 6.56224 18.9419 6.35707C19.6487 6.185 20.3195 5.8915 20.9239 5.48989C21.5689 5.02586 22.1522 4.48312 22.66 3.87452C22.8548 3.6502 23.0399 3.41767 23.2319 3.19062C23.4026 3.01952 23.5168 2.80103 23.5592 2.56417C23.4725 2.53653 23.3872 2.50457 23.3037 2.46842Z" fill="#E2CAB3"/>
<path fill-rule="evenodd" clip-rule="evenodd" d="M12.2833 3.4082C12.2198 3.42188 12.1563 3.43282 12.0969 3.44103H12.0775C11.6439 3.52447 11.2143 3.62842 10.7682 3.59422C10.4671 3.57234 9.29033 3.6038 9.56656 4.14134C9.56982 4.15064 9.56982 4.16076 9.56656 4.17007C9.80965 4.32326 10.3497 4.26034 10.5334 4.24666C10.6891 4.23612 10.8438 4.21372 10.9961 4.17964C11.4293 4.0095 11.8413 3.79058 12.2239 3.5272C12.2487 3.49015 12.2686 3.45017 12.2833 3.4082Z" fill="#C66720"/>
<path fill-rule="evenodd" clip-rule="evenodd" d="M13.996 4.51059C14.0245 4.2242 14.0143 3.93532 13.9656 3.65161C13.7811 4.08567 13.5446 4.49622 13.2612 4.87442C13.0955 5.08096 12.8759 5.26014 12.7419 5.48993C12.6701 5.61303 12.5706 5.79632 12.6231 5.94677C12.706 6.1834 12.8524 6.18204 13.0085 6.15058C13.2764 5.98644 13.5222 5.60346 13.6548 5.40649C13.7775 5.22404 13.8772 5.02745 13.9518 4.82108C13.967 4.71849 13.9808 4.61591 13.996 4.51059Z" fill="#C66720"/>
<path fill-rule="evenodd" clip-rule="evenodd" d="M18.4117 3.68989C18.0878 3.55928 17.7573 3.4456 17.4214 3.34931C17.2163 3.2965 17.0158 3.22743 16.8219 3.14278C16.6731 3.05428 16.5049 3.00267 16.3316 2.99232C16.3211 2.99163 16.3107 2.99365 16.3012 2.99816C16.2918 3.00267 16.2837 3.00953 16.2777 3.01807C16.2717 3.02661 16.2681 3.03654 16.2671 3.04689C16.2661 3.05723 16.2679 3.06765 16.2722 3.07712C16.2859 3.12065 16.313 3.15888 16.3496 3.18655C16.5555 3.47179 16.7837 3.7407 17.0319 3.99081C17.2542 4.23975 17.4462 4.50784 17.6948 4.739C18.0318 5.06043 18.6409 5.25602 18.9862 4.81286C19.3674 4.31908 18.8481 3.87181 18.4117 3.68989Z" fill="#C66720"/>
<path fill-rule="evenodd" clip-rule="evenodd" d="M17.0194 1.26616C16.902 1.01586 16.5208 1.02269 16.268 1.08151C16.2475 1.08416 16.2272 1.08828 16.2072 1.09382C15.8574 1.27202 15.5861 1.57144 15.4448 1.93502C15.8592 1.81328 16.1644 1.52468 16.6023 1.47407C16.6727 1.46586 17.0995 1.4344 17.0194 1.26616Z" fill="#C66720"/>
<path fill-rule="evenodd" clip-rule="evenodd" d="M11.1742 1.72033C11.2297 1.73784 11.2873 1.74796 11.3455 1.75042C11.4823 1.72723 11.6211 1.71806 11.7598 1.72306C11.8137 1.72038 11.8676 1.72038 11.9214 1.72306C12.1023 1.73024 12.2826 1.7476 12.4615 1.77504L12.5319 1.79419C12.6303 1.8045 12.7289 1.77763 12.8082 1.71896C12.4035 1.54251 11.2889 1.12397 11.1369 1.66425C11.1348 1.67653 11.1375 1.68915 11.1444 1.69956C11.1513 1.70996 11.162 1.71739 11.1742 1.72033Z" fill="#C66720"/>
<path fill-rule="evenodd" clip-rule="evenodd" d="M3.59862 7.63999C3.56628 7.71115 3.54307 7.78605 3.52956 7.86294C3.50889 7.92015 3.49679 7.98006 3.49365 8.04075C3.4943 8.04457 3.49586 8.04818 3.49818 8.0513C3.50051 8.05441 3.50355 8.05694 3.50705 8.05867C3.51055 8.0604 3.51441 8.06129 3.51832 8.06127C3.52223 8.06125 3.52609 8.06031 3.52956 8.05853C3.571 8.03528 3.57238 7.96552 3.57929 7.92175C3.59181 7.8288 3.61308 7.73722 3.64282 7.64819C3.65387 7.62768 3.61105 7.614 3.59862 7.63999Z" fill="#C66720"/>
<path fill-rule="evenodd" clip-rule="evenodd" d="M3.85821 7.85214C3.82294 7.91988 3.79738 7.99216 3.78225 8.06689C3.7712 8.10655 3.73943 8.16947 3.75186 8.20367C3.75265 8.2081 3.75479 8.21219 3.758 8.21537C3.76122 8.21855 3.76534 8.22067 3.76982 8.22145C3.8223 8.22145 3.82783 8.15306 3.83611 8.11613C3.85545 8.03543 3.87202 7.95199 3.89965 7.87266C3.90932 7.84941 3.87202 7.82752 3.85821 7.85214Z" fill="#C66720"/>
<path fill-rule="evenodd" clip-rule="evenodd" d="M5.10679 8.785C5.09436 8.92178 5.05016 9.05855 5.05155 9.20354C5.05155 9.24457 5.11646 9.25141 5.11784 9.20354C5.13872 9.06254 5.15209 8.92055 5.1579 8.77816C5.15652 8.7508 5.10956 8.75764 5.10679 8.785Z" fill="#C66720"/>
<path fill-rule="evenodd" clip-rule="evenodd" d="M5.44936 8.85596C5.4042 8.96379 5.38255 9.07985 5.38582 9.19654C5.38582 9.24031 5.45626 9.24851 5.45764 9.19654C5.46172 9.08362 5.47418 8.97116 5.49493 8.86006C5.50046 8.83818 5.45902 8.83134 5.44936 8.85596Z" fill="#C66720"/>
<path fill-rule="evenodd" clip-rule="evenodd" d="M11.0307 10.7231C11.0098 10.7746 10.995 10.8283 10.9865 10.8831C10.9735 10.9322 10.9679 10.9829 10.9699 11.0335C10.9717 11.039 10.9752 11.0438 10.9799 11.0472C10.9846 11.0505 10.9903 11.0524 10.9961 11.0524C11.0019 11.0524 11.0076 11.0505 11.0123 11.0472C11.017 11.0438 11.0206 11.039 11.0224 11.0335C11.0341 10.9889 11.0401 10.9429 11.0403 10.8968C11.0486 10.8393 11.0514 10.7819 11.0624 10.7244C11.0652 10.7121 11.0376 10.708 11.0307 10.7231Z" fill="#C66720"/>
<path fill-rule="evenodd" clip-rule="evenodd" d="M11.4228 10.771C11.4012 10.8401 11.3864 10.9111 11.3786 10.983C11.3631 11.0433 11.3585 11.1058 11.3648 11.1677C11.367 11.173 11.3707 11.1776 11.3755 11.1808C11.3803 11.184 11.3859 11.1857 11.3917 11.1857C11.3975 11.1857 11.4032 11.184 11.408 11.1808C11.4128 11.1776 11.4165 11.173 11.4187 11.1677C11.4334 11.1138 11.4399 11.058 11.438 11.0022C11.438 10.9256 11.4504 10.849 11.4574 10.7738C11.4566 10.7699 11.4546 10.7664 11.4517 10.7638C11.4488 10.7612 11.4451 10.7596 11.4411 10.7593C11.4372 10.759 11.4333 10.76 11.43 10.7621C11.4267 10.7642 11.4242 10.7673 11.4228 10.771Z" fill="#C66720"/>
<path fill-rule="evenodd" clip-rule="evenodd" d="M12.9822 11.0049C12.9822 10.983 12.956 10.9638 12.945 10.9843C12.9094 11.052 12.8905 11.1269 12.8897 11.2032C12.8897 11.2415 12.88 11.34 12.9284 11.3495C12.9315 11.3506 12.9347 11.3511 12.938 11.3509C12.9413 11.3508 12.9445 11.3499 12.9474 11.3485C12.9504 11.3472 12.953 11.3452 12.9552 11.3428C12.9574 11.3404 12.9591 11.3376 12.9601 11.3345C12.9624 11.2919 12.9591 11.2491 12.9505 11.2073C12.9499 11.1386 12.9606 11.0702 12.9822 11.0049Z" fill="#C66720"/>
<path fill-rule="evenodd" clip-rule="evenodd" d="M13.3704 10.9913C13.3695 10.9882 13.3675 10.9855 13.3649 10.9836C13.3623 10.9817 13.3592 10.9807 13.3559 10.9807C13.3527 10.9807 13.3495 10.9817 13.3469 10.9836C13.3443 10.9855 13.3424 10.9882 13.3414 10.9913C13.3109 11.1082 13.2988 11.2291 13.3055 11.3496C13.3055 11.3866 13.3649 11.3907 13.3635 11.3496C13.357 11.2302 13.3593 11.1104 13.3704 10.9913Z" fill="#C66720"/>
<path fill-rule="evenodd" clip-rule="evenodd" d="M13.7957 11.0337C13.7957 11.0289 13.7938 11.0244 13.7905 11.0211C13.7871 11.0177 13.7825 11.0159 13.7778 11.0159C13.773 11.0159 13.7684 11.0177 13.7651 11.0211C13.7617 11.0244 13.7598 11.0289 13.7598 11.0337C13.7543 11.0884 13.7501 11.1431 13.7474 11.1978C13.7474 11.2375 13.7198 11.2894 13.7474 11.3236C13.7496 11.3253 13.7522 11.3262 13.755 11.3262C13.7577 11.3262 13.7604 11.3253 13.7626 11.3236C13.8095 11.3236 13.8068 11.2484 13.8095 11.2128C13.8121 11.1528 13.8074 11.0926 13.7957 11.0337Z" fill="#C66720"/>
<path fill-rule="evenodd" clip-rule="evenodd" d="M21.3619 10.1786C21.3619 10.1868 21.3619 10.1649 21.3619 10.1622C21.3536 10.1426 21.3466 10.1225 21.3412 10.102C21.3274 10.0487 21.3246 9.99121 21.308 9.93786C21.308 9.92282 21.2777 9.91461 21.2735 9.93786C21.2694 9.96112 21.2735 10.262 21.3591 10.2114C21.3622 10.21 21.3648 10.2078 21.3666 10.205C21.3685 10.2023 21.3697 10.1991 21.37 10.1958C21.3702 10.1925 21.3697 10.1892 21.3682 10.1861C21.3668 10.1831 21.3646 10.1805 21.3619 10.1786Z" fill="#C66720"/>
<path fill-rule="evenodd" clip-rule="evenodd" d="M21.8536 10.0557C21.8262 9.97189 21.7929 9.89009 21.7541 9.81085C21.7523 9.80523 21.7483 9.80055 21.743 9.79786C21.7376 9.79517 21.7315 9.79467 21.7258 9.79649C21.7201 9.7983 21.7154 9.80227 21.7127 9.80753C21.71 9.81279 21.7095 9.8189 21.7113 9.82453C21.7319 9.91288 21.7587 9.99972 21.7914 10.0844C21.8066 10.1254 21.8701 10.0967 21.8536 10.0557Z" fill="#C66720"/>
<path fill-rule="evenodd" clip-rule="evenodd" d="M22.3258 9.81346C22.2778 9.74501 22.2453 9.66709 22.2305 9.58504C22.2292 9.58 22.2263 9.57552 22.2222 9.57232C22.2181 9.56912 22.213 9.56738 22.2077 9.56738C22.2025 9.56738 22.1974 9.56912 22.1933 9.57232C22.1891 9.57552 22.1862 9.58 22.1849 9.58504C22.1786 9.68311 22.208 9.78018 22.2678 9.8586C22.294 9.90237 22.3534 9.85313 22.3258 9.81346Z" fill="#C66720"/>
<path fill-rule="evenodd" clip-rule="evenodd" d="M22.9143 9.74653C22.8678 9.70791 22.8298 9.66036 22.8025 9.60675C22.7752 9.55314 22.7592 9.49459 22.7554 9.43467C22.7557 9.43138 22.755 9.42807 22.7534 9.42518C22.7518 9.42229 22.7493 9.41996 22.7463 9.41848C22.7433 9.417 22.74 9.41645 22.7367 9.4169C22.7334 9.41735 22.7303 9.41877 22.7278 9.42099C22.6063 9.50579 22.7886 9.72464 22.8562 9.78893C22.8908 9.82722 22.9488 9.78072 22.9143 9.74653Z" fill="#C66720"/>
<path fill-rule="evenodd" clip-rule="evenodd" d="M23.5802 9.4347C23.5071 9.31218 23.4264 9.19432 23.3385 9.08181C23.3288 9.0654 23.297 9.07087 23.304 9.09275C23.3468 9.22953 23.4683 9.32664 23.5277 9.45932C23.5429 9.49625 23.5954 9.47163 23.5802 9.4347Z" fill="#C66720"/>
<path fill-rule="evenodd" clip-rule="evenodd" d="M24.1295 9.01202C24.1171 8.98603 24.084 8.97098 24.0619 8.95457L23.9527 8.87524C23.9251 8.85472 23.8961 8.83557 23.8671 8.81643C23.8381 8.79728 23.8367 8.80822 23.8243 8.80138C23.8119 8.79454 23.8133 8.80138 23.8174 8.80138C23.8215 8.80138 23.8243 8.82326 23.834 8.83284C23.8584 8.85795 23.8842 8.88169 23.9113 8.90396C23.9458 8.93406 23.9818 8.96141 24.0177 8.98877C24.0536 9.01612 24.0729 9.03937 24.1047 9.03937C24.1082 9.0394 24.1117 9.03868 24.1149 9.03728C24.1181 9.03587 24.121 9.03381 24.1233 9.03122C24.1257 9.02864 24.1274 9.02559 24.1285 9.02228C24.1296 9.01897 24.1299 9.01547 24.1295 9.01202Z" fill="#C66720"/>
<path fill-rule="evenodd" clip-rule="evenodd" d="M24.598 8.66992C24.5954 8.66196 24.5907 8.65484 24.5844 8.64931C24.5781 8.64377 24.5704 8.64002 24.5621 8.63846C24.5363 8.62663 24.5126 8.61095 24.4916 8.59195C24.4429 8.54971 24.401 8.50036 24.3673 8.4456C24.3521 8.42235 24.3162 8.4456 24.3273 8.47159C24.3567 8.537 24.3995 8.59567 24.453 8.64393C24.4861 8.67402 24.5483 8.72463 24.5911 8.69591C24.5948 8.69281 24.5975 8.68865 24.5987 8.684C24.5999 8.67934 24.5997 8.67442 24.598 8.66992Z" fill="#C66720"/>
<path fill-rule="evenodd" clip-rule="evenodd" d="M26.1574 6.911C26.151 6.9036 26.1432 6.8976 26.1344 6.89336C26.1256 6.88912 26.116 6.88674 26.1063 6.88638C26.0756 6.88112 26.0464 6.86946 26.0206 6.85218C25.9657 6.81457 25.9245 6.76034 25.9032 6.69762C25.9032 6.6771 25.8673 6.68941 25.8687 6.70856C25.8773 6.78238 25.9144 6.85004 25.9723 6.89732C26.0123 6.93015 26.1104 6.98349 26.156 6.93562C26.1591 6.93233 26.1609 6.92806 26.1612 6.92356C26.1615 6.91905 26.1601 6.91461 26.1574 6.911Z" fill="#C66720"/>
<path fill-rule="evenodd" clip-rule="evenodd" d="M26.4624 6.56215C26.3457 6.50237 26.2475 6.41261 26.1779 6.30227C26.1655 6.28175 26.1296 6.30227 26.142 6.32005C26.2055 6.44633 26.3095 6.54827 26.4376 6.61002C26.4652 6.62097 26.49 6.57446 26.4624 6.56215Z" fill="#C66720"/>
<path fill-rule="evenodd" clip-rule="evenodd" d="M26.6517 6.07942C26.5988 6.04526 26.548 6.00779 26.4998 5.96727C26.4529 5.92486 26.4087 5.88246 26.3617 5.84416C26.3437 5.83049 26.3203 5.85647 26.3355 5.87426C26.4074 5.98497 26.5074 6.07506 26.6255 6.1355C26.6327 6.13729 26.6402 6.13653 26.6469 6.13338C26.6536 6.13022 26.6589 6.12486 26.6621 6.11822C26.6652 6.11157 26.6658 6.10406 26.6639 6.09698C26.6621 6.0899 26.6578 6.08369 26.6517 6.07942Z" fill="#C66720"/>
<path fill-rule="evenodd" clip-rule="evenodd" d="M3.25596 7.27904C3.13638 7.44133 3.05561 7.62842 3.01978 7.82616C3.01978 7.84257 3.04326 7.84394 3.0474 7.82616C3.09481 7.63835 3.17931 7.4617 3.29601 7.3064C3.31259 7.28041 3.27253 7.25305 3.25596 7.27904Z" fill="#C66720"/>
<path fill-rule="evenodd" clip-rule="evenodd" d="M3.04069 7.14348C3.0103 7.15716 2.99787 7.18315 2.97715 7.2105C2.95644 7.23786 2.92053 7.28983 2.89566 7.33224C2.86043 7.38086 2.84158 7.43926 2.8418 7.49911C2.8418 7.51962 2.87357 7.51552 2.87495 7.49911C2.891 7.43719 2.9202 7.37937 2.96058 7.3295C2.99373 7.27889 3.05864 7.22144 3.06555 7.16126C3.06579 7.15822 3.06524 7.15517 3.06394 7.1524C3.06265 7.14963 3.06066 7.14724 3.05816 7.14546C3.05567 7.14367 3.05275 7.14255 3.04969 7.1422C3.04663 7.14186 3.04353 7.1423 3.04069 7.14348Z" fill="#C66720"/>
<path fill-rule="evenodd" clip-rule="evenodd" d="M3.43976 7.58816C3.4009 7.65001 3.36939 7.7161 3.34584 7.78512C3.3151 7.84952 3.29282 7.91755 3.27954 7.98755C3.27954 8.00533 3.30578 8.0108 3.30993 7.98755C3.32763 7.92014 3.35312 7.85496 3.38589 7.79333C3.42623 7.73117 3.45434 7.66202 3.46876 7.58952C3.46895 7.58572 3.46759 7.58199 3.465 7.57917C3.46241 7.57635 3.4588 7.57466 3.45495 7.57448C3.4511 7.5743 3.44734 7.57564 3.44449 7.5782C3.44164 7.58077 3.43994 7.58435 3.43976 7.58816Z" fill="#C66720"/>
<path fill-rule="evenodd" clip-rule="evenodd" d="M4.18831 8.06689C4.08472 8.09835 4.03638 8.23377 4.00875 8.32814C4.00771 8.333 4.00848 8.33807 4.01093 8.34241C4.01338 8.34675 4.01733 8.35006 4.02205 8.35173C4.02677 8.3534 4.03195 8.35332 4.03662 8.35149C4.04128 8.34967 4.04512 8.34623 4.04743 8.34182C4.06398 8.29403 4.08575 8.24816 4.11234 8.20504C4.13858 8.16401 4.17588 8.12981 4.2035 8.08878C4.20902 8.08057 4.20074 8.06689 4.18831 8.06689Z" fill="#C66720"/>
<path fill-rule="evenodd" clip-rule="evenodd" d="M4.41763 8.47712C4.36377 8.49627 4.33476 8.56329 4.3099 8.6139C4.28169 8.67273 4.26887 8.73764 4.27261 8.80266C4.27261 8.82454 4.30576 8.82865 4.30714 8.80266C4.31177 8.74826 4.32578 8.69506 4.34857 8.64536C4.37067 8.59202 4.42454 8.55098 4.43973 8.49764C4.44079 8.49464 4.44094 8.4914 4.44017 8.48832C4.43941 8.48524 4.43775 8.48244 4.43541 8.48027C4.43308 8.4781 4.43015 8.47664 4.42699 8.47609C4.42384 8.47553 4.42059 8.47589 4.41763 8.47712Z" fill="#C66720"/>
<path fill-rule="evenodd" clip-rule="evenodd" d="M4.63985 8.62079C4.59557 8.69071 4.56206 8.76677 4.5404 8.84647C4.51083 8.92076 4.48863 8.99772 4.4741 9.07626C4.47301 9.08098 4.47384 9.08593 4.47643 9.09004C4.47902 9.09414 4.48315 9.09706 4.48792 9.09815C4.49268 9.09924 4.49768 9.09841 4.50183 9.09584C4.50597 9.09328 4.50892 9.08918 4.51002 9.08447C4.53057 9.0083 4.55689 8.93377 4.58874 8.86152C4.62773 8.78894 4.65566 8.71104 4.67161 8.63036C4.67225 8.62829 4.67247 8.62613 4.67225 8.62398C4.67204 8.62183 4.67141 8.61974 4.67038 8.61784C4.66935 8.61593 4.66796 8.61424 4.66627 8.61287C4.66459 8.6115 4.66265 8.61047 4.66056 8.60984C4.65848 8.60921 4.65629 8.609 4.65412 8.60921C4.65195 8.60942 4.64984 8.61005 4.64792 8.61107C4.64599 8.61208 4.64429 8.61346 4.64291 8.61513C4.64152 8.6168 4.64048 8.61872 4.63985 8.62079Z" fill="#C66720"/>
<path fill-rule="evenodd" clip-rule="evenodd" d="M4.84303 8.84096C4.79489 8.94779 4.77493 9.06498 4.78502 9.18154C4.78502 9.2048 4.82094 9.20753 4.82094 9.18154C4.82094 9.06802 4.87204 8.95586 4.86513 8.8437C4.86437 8.84153 4.86301 8.83962 4.86121 8.83818C4.85941 8.83674 4.85724 8.83583 4.85494 8.83554C4.85264 8.83526 4.85031 8.83562 4.84821 8.83657C4.8461 8.83753 4.84431 8.83905 4.84303 8.84096Z" fill="#C66720"/>
<path fill-rule="evenodd" clip-rule="evenodd" d="M11.8247 10.8763C11.7759 11.0031 11.7574 11.1393 11.7709 11.2743C11.7709 11.2921 11.8026 11.2907 11.804 11.2743C11.804 11.2087 11.8137 11.1376 11.822 11.0787C11.8379 11.0138 11.8458 10.9472 11.8454 10.8804C11.8454 10.8667 11.8289 10.8681 11.8247 10.8763Z" fill="#C66720"/>
<path fill-rule="evenodd" clip-rule="evenodd" d="M12.1853 11.1388C12.1853 11.0758 12.2157 11.0198 12.2213 10.9568C12.2205 10.9547 12.2191 10.9529 12.2172 10.9517C12.2154 10.9504 12.2132 10.9497 12.2109 10.9497C12.2086 10.9497 12.2064 10.9504 12.2046 10.9517C12.2027 10.9529 12.2013 10.9547 12.2005 10.9568C12.1604 11.0209 12.137 11.0938 12.1324 11.169C12.1278 11.2442 12.1422 11.3194 12.1743 11.3877C12.184 11.4082 12.2116 11.3877 12.2047 11.374C12.18 11.2981 12.1734 11.2176 12.1853 11.1388Z" fill="#C66720"/>
<path fill-rule="evenodd" clip-rule="evenodd" d="M12.5169 11.1853C12.5211 11.1228 12.5156 11.06 12.5003 10.9992C12.4988 10.9964 12.4965 10.994 12.4937 10.9923C12.4909 10.9906 12.4877 10.9897 12.4844 10.9897C12.4811 10.9897 12.4779 10.9906 12.4751 10.9923C12.4723 10.994 12.4701 10.9964 12.4685 10.9992C12.4568 11.0612 12.4568 11.1247 12.4685 11.1866C12.4725 11.258 12.485 11.3288 12.5058 11.3973C12.5058 11.4205 12.5486 11.415 12.5431 11.3973C12.5285 11.3274 12.5198 11.2565 12.5169 11.1853Z" fill="#C66720"/>
<path fill-rule="evenodd" clip-rule="evenodd" d="M24.946 8.06673C24.946 8.05168 24.9253 8.04347 24.9184 8.05578C24.907 8.07356 24.9009 8.0942 24.9009 8.11528C24.9009 8.13636 24.907 8.157 24.9184 8.17478C24.9405 8.21718 24.9943 8.2801 25.0468 8.27326C25.051 8.27228 25.0546 8.26974 25.0569 8.26617C25.0593 8.2626 25.0601 8.25828 25.0593 8.25411C25.0455 8.18025 24.9281 8.15016 24.946 8.06673Z" fill="#C66720"/>
<path fill-rule="evenodd" clip-rule="evenodd" d="M25.4448 7.84658C25.431 7.82469 25.4185 7.82196 25.3937 7.81375C25.3597 7.80321 25.3295 7.78328 25.3067 7.7563C25.2625 7.70467 25.2317 7.64318 25.2169 7.57712C25.2164 7.57443 25.2153 7.57187 25.2137 7.56958C25.2122 7.5673 25.2102 7.56534 25.2079 7.56382C25.2056 7.56229 25.203 7.56123 25.2003 7.5607C25.1976 7.56017 25.1948 7.56017 25.192 7.56071C25.1893 7.56125 25.1867 7.56231 25.1844 7.56384C25.1821 7.56537 25.1801 7.56733 25.1786 7.56962C25.1771 7.57191 25.176 7.57447 25.1755 7.57717C25.1749 7.57986 25.1749 7.58263 25.1755 7.58533C25.1879 7.66081 25.2187 7.73216 25.2652 7.79323C25.2998 7.83564 25.3909 7.90539 25.4462 7.8671C25.4481 7.86395 25.449 7.86029 25.4488 7.85662C25.4485 7.85294 25.4471 7.84943 25.4448 7.84658Z" fill="#C66720"/>
<path fill-rule="evenodd" clip-rule="evenodd" d="M25.6793 7.38289C25.6365 7.34049 25.5909 7.29809 25.5508 7.25295C25.5343 7.2338 25.4997 7.25295 25.5122 7.2762C25.5434 7.33125 25.5815 7.38225 25.6254 7.42803C25.6627 7.46633 25.7041 7.52788 25.7635 7.53198C25.7664 7.53222 25.7694 7.5318 25.7721 7.53076C25.7748 7.52973 25.7772 7.5281 25.7792 7.52599C25.7812 7.52389 25.7827 7.52137 25.7836 7.51861C25.7845 7.51586 25.7847 7.51295 25.7843 7.51009C25.776 7.45675 25.7207 7.42119 25.6793 7.38289Z" fill="#C66720"/>
<path opacity="0.4" fill-rule="evenodd" clip-rule="evenodd" d="M15.5858 2.62164C15.5858 2.99779 15.0043 3.30554 14.2847 3.30554C13.5651 3.30554 12.9836 3.00052 12.9836 2.62164C12.9836 2.24276 13.5651 1.93774 14.2847 1.93774C15.0043 1.93774 15.5858 2.2455 15.5858 2.62164Z" fill="#DA840D"/>
<path fill-rule="evenodd" clip-rule="evenodd" d="M22.7097 8.34041C19.7761 7.60316 18.5482 9.22127 18.5966 11.1252C18.6159 11.8693 19.301 12.8952 19.7513 13.6707C20.1507 14.2903 20.6165 14.8654 21.1407 15.3859C21.4722 15.6198 21.9142 15.8893 22.3575 15.8893C22.5275 15.8727 22.69 15.8118 22.8285 15.7128C22.8934 15.7254 22.9562 15.747 23.015 15.7771C23.2249 15.8482 23.3175 15.5583 23.5467 15.6609C23.9127 15.8264 24.229 15.4899 24.5025 15.3066C24.5909 15.2478 25.4693 13.8991 25.5646 13.828C26.4693 12.6777 26.9251 12.3385 26.9348 10.942C26.9458 9.19665 26.0605 7.63325 22.7097 8.34041Z" fill="#C73A54"/>
<g style="mix-blend-mode:multiply">
<path fill-rule="evenodd" clip-rule="evenodd" d="M23.8218 8.79721C23.8218 8.99691 23.3052 9.17199 22.6574 9.1884C22.0097 9.20482 21.4807 9.05162 21.4751 8.85603C21.4696 8.66043 21.9917 8.47715 22.6395 8.46484C23.2872 8.45253 23.8162 8.59752 23.8218 8.79721Z" fill="#ED6366"/>
</g>
<path fill-rule="evenodd" clip-rule="evenodd" d="M20.8619 9.44295C20.6036 9.05587 20.0746 9.16939 19.7473 9.39645L19.7307 9.40876C19.6547 9.4596 19.586 9.52033 19.5263 9.58931C19.2935 9.83397 19.1459 10.146 19.105 10.4797C19.065 10.8901 19.2045 11.3456 19.5622 11.5275C19.5723 11.5326 19.5805 11.5407 19.5857 11.5507C19.5994 11.5479 19.6128 11.5438 19.6257 11.5384C19.8274 11.4564 19.8177 11.1281 19.8191 10.9612C19.8191 10.5905 20.1299 10.4264 20.4144 10.2677C20.6754 10.1186 21.0884 9.78354 20.8619 9.44295Z" fill="#ED6366"/>
<g style="mix-blend-mode:multiply">
<path fill-rule="evenodd" clip-rule="evenodd" d="M25.5356 12.6024C25.2925 12.2919 24.9279 12.6708 24.7539 12.8623C24.3492 13.3068 24.0964 13.8553 23.6185 14.241C23.1406 14.6267 22.2733 14.3463 21.9017 14.9071C21.8844 14.9341 21.8725 14.9643 21.867 14.9958C21.8614 15.0274 21.8621 15.0597 21.8692 15.091C21.8763 15.1222 21.8895 15.1518 21.9081 15.178C21.9267 15.2042 21.9504 15.2265 21.9777 15.2436C22.0163 15.2586 22.0567 15.2687 22.0979 15.2737C22.1838 15.3214 22.2771 15.3547 22.3741 15.3722C22.6771 15.4114 22.9848 15.3539 23.2525 15.208C23.4956 15.0931 23.7705 15.2272 24.0122 15.1136C24.1015 15.0654 24.1785 14.9976 24.2373 14.9153C24.3148 14.8263 24.3798 14.7274 24.4307 14.6212C24.5522 14.422 24.6909 14.2334 24.845 14.0577C25.0324 13.8471 25.2019 13.6216 25.3519 13.3834C25.5315 13.1276 25.6944 12.8075 25.5356 12.6024Z" fill="#ED6366"/>
</g>
<path fill-rule="evenodd" clip-rule="evenodd" d="M25.4585 5.7415C25.2955 5.68679 24.9958 5.93299 24.8687 6.00822C24.5787 6.18057 24.2845 6.35428 24.0055 6.54303C23.5817 6.83738 23.2305 7.22264 22.9779 7.6701C22.8726 7.86064 22.802 8.06807 22.7694 8.28287C22.7265 8.39564 22.7049 8.51526 22.7058 8.63576C22.7051 8.64421 22.706 8.65272 22.7086 8.66081C22.7112 8.6689 22.7153 8.6764 22.7209 8.68288C22.7264 8.68937 22.7331 8.69471 22.7407 8.69859C22.7484 8.70248 22.7567 8.70483 22.7652 8.70552C23.4724 8.71373 24.1961 8.25551 24.6906 7.79457C24.9497 7.56837 25.1549 7.28808 25.2914 6.97389C25.3594 6.7967 25.4103 6.6135 25.4433 6.42677C25.482 6.22707 25.424 5.98497 25.4889 5.80032C25.4924 5.78853 25.4912 5.77584 25.4856 5.76489C25.4799 5.75394 25.4702 5.74556 25.4585 5.7415Z" fill="#8DB54F"/>
<path fill-rule="evenodd" clip-rule="evenodd" d="M22.5869 8.68097C22.5869 8.48537 22.6463 8.36364 22.7029 7.74813C22.7596 7.13262 22.7485 6.82487 22.7899 6.72365C22.8314 6.62243 23.1629 6.83718 23.1629 6.83718C23.1629 6.83718 23.0565 7.30907 22.9778 7.69615C22.8991 8.08324 22.8203 8.77945 22.8203 8.77945C22.8203 8.77945 22.7775 8.89298 22.6739 8.86425C22.5703 8.83553 22.5869 8.68097 22.5869 8.68097Z" fill="#300D33"/>
</svg>
