<svg width="60" height="60" viewBox="0 0 60 60" fill="none" xmlns="http://www.w3.org/2000/svg">
<circle opacity="0.5" cx="30" cy="30" r="30" fill="white"/>
<g clip-path="url(#clip0_379_10265)">
<path d="M43.2933 20.303H23.5327C23.0534 20.303 22.5937 20.4978 22.2547 20.8446C21.9158 21.1913 21.7253 21.6616 21.7253 22.152V42.3682C21.7253 42.8586 21.9158 43.3289 22.2547 43.6757C22.5937 44.0224 23.0534 44.2172 23.5327 44.2172H37.2045L42.7043 48.8502V44.2172H43.2789C43.7583 44.2172 44.218 44.0224 44.557 43.6757C44.8959 43.3289 45.0863 42.8586 45.0863 42.3682V22.152C45.0863 21.6642 44.8979 21.1961 44.562 20.8497C44.2262 20.5034 43.7702 20.3069 43.2933 20.303Z" fill="white"/>
<path d="M23.751 20.303H43.3765C43.8338 20.303 44.2723 20.4889 44.5956 20.8196C44.9189 21.1504 45.1006 21.599 45.1006 22.0668V27.7845C45.1006 27.8024 45.0936 27.8196 45.0812 27.8323C45.0688 27.845 45.052 27.8521 45.0345 27.8521H21.7913C21.7738 27.8521 21.757 27.845 21.7446 27.8323C21.7322 27.8196 21.7252 27.8024 21.7252 27.7845V22.3726C21.7237 22.1001 21.7751 21.83 21.8764 21.5781C21.9777 21.3261 22.1269 21.0972 22.3153 20.9047C22.5038 20.7121 22.7277 20.5598 22.9742 20.4565C23.2206 20.3533 23.4847 20.3011 23.751 20.303Z" fill="#FF725E"/>
<path d="M31.808 31.4148V39.5459H29.969V32.9258H28.38V31.4148H31.808Z" fill="#263238"/>
<path d="M39.4229 31.4148V32.6348L36.4633 39.5459H34.4519L37.3023 32.9493H34.6789V34.281H33.0439V31.4148H39.4229Z" fill="#263238"/>
<path d="M36.6787 24.5801C36.6787 24.6212 35.0724 24.6565 33.0926 24.6565C31.1128 24.6565 29.5037 24.6271 29.5037 24.5801C29.5037 24.5331 31.11 24.5037 33.0926 24.5037C35.0753 24.5037 36.6787 24.5448 36.6787 24.5801Z" fill="#263238"/>
<path d="M43.2934 20.303C43.2934 20.303 43.3336 20.303 43.417 20.303C43.5374 20.3082 43.6569 20.327 43.7733 20.3588C44.0025 20.42 44.2177 20.5267 44.4065 20.673C44.5954 20.8193 44.7541 21.0022 44.8738 21.2114C45.05 21.5193 45.1376 21.8719 45.1267 22.2285C45.1267 22.6136 45.1267 23.0369 45.1267 23.4896C45.1267 24.4009 45.1267 25.4445 45.1267 26.6115C45.1267 28.9633 45.1267 31.7824 45.1267 35.0219C45.1267 36.6417 45.1267 38.3644 45.1267 40.1752C45.1267 40.6309 45.1267 41.0894 45.1267 41.5539V42.2536C45.1351 42.4964 45.1031 42.739 45.0318 42.9708C44.8769 43.4493 44.5433 43.8456 44.1037 44.0732C43.8987 44.1824 43.6755 44.2512 43.4457 44.276C43.1957 44.276 42.963 44.276 42.7187 44.276L42.7848 44.2084C42.7848 45.6783 42.7848 47.2334 42.7848 48.8384V48.9913L42.6699 48.8943L37.1586 44.276L37.2046 44.2937H23.5099C23.1901 44.2894 22.8767 44.2019 22.5992 44.0394C22.3217 43.8769 22.0892 43.6447 21.9237 43.3647C21.8149 43.1833 21.7363 42.9846 21.691 42.7768C21.6564 42.5681 21.6429 42.3563 21.6508 42.1448V38.4672C21.6508 35.2512 21.6508 32.1499 21.6508 29.1955C21.6508 27.7159 21.6508 26.2764 21.6508 24.8771C21.6508 24.1775 21.6508 23.4916 21.6508 22.8194C21.6379 22.4789 21.6494 22.138 21.6852 21.7993C21.7507 21.4606 21.9035 21.146 22.1277 20.888C22.348 20.6361 22.6296 20.4484 22.9438 20.3442C23.2524 20.2581 23.573 20.2263 23.892 20.2501H29.1561L39.5005 20.2765H42.3136H43.0434C43.2101 20.2765 43.2934 20.2765 43.2934 20.2765H43.0434H42.3136H39.5005L29.1561 20.3001H25.7281H23.9064C23.601 20.2771 23.2941 20.307 22.9984 20.3882C22.7045 20.4879 22.4411 20.6642 22.2341 20.8998C22.0253 21.1403 21.8834 21.4336 21.8232 21.7493C21.7902 22.0804 21.7806 22.4134 21.7944 22.7459V24.8036C21.7944 26.2029 21.7944 27.6424 21.7944 29.122C21.7944 32.0617 21.7944 35.1778 21.7944 38.3938V42.1301C21.7871 42.3269 21.7997 42.5239 21.8318 42.718C21.8721 42.913 21.944 43.0998 22.0444 43.2707C22.2482 43.6161 22.5616 43.8797 22.9323 44.0174C23.3189 44.128 23.722 44.1659 24.1219 44.1291H37.2247L37.2448 44.1467L42.7417 48.7826L42.6268 48.8355C42.6268 47.2304 42.6268 45.6665 42.6268 44.2055V44.1379H42.6957C42.9342 44.1379 43.1814 44.1379 43.4141 44.1379C43.7566 44.1114 44.0838 43.9821 44.3547 43.7661C44.6257 43.5501 44.8282 43.2571 44.937 42.9238C45.0067 42.7058 45.0378 42.4768 45.029 42.2477V41.548C45.029 41.0836 45.029 40.625 45.029 40.1693C45.029 38.3585 45.029 36.6417 45.029 35.0161C45.029 31.7824 45.029 28.9456 45.0433 26.6057C45.0433 25.4298 45.0433 24.395 45.0433 23.4837C45.0433 22.5724 45.1583 21.7699 44.8077 21.229C44.5754 20.8109 44.1913 20.5035 43.7388 20.3735C43.5927 20.3365 43.4436 20.3129 43.2934 20.303Z" fill="#263238"/>
<path d="M36.9 17.96H36.8511C36.4448 17.96 36.1155 18.2969 36.1155 18.7125V22.6076C36.1155 23.0232 36.4448 23.3601 36.8511 23.3601H36.9C37.3062 23.3601 37.6356 23.0232 37.6356 22.6076V18.7125C37.6356 18.2969 37.3062 17.96 36.9 17.96Z" fill="#E0E0E0"/>
<path d="M36.9025 23.3602C37.0589 23.3378 37.2072 23.2751 37.3335 23.178C37.4746 23.0597 37.5652 22.89 37.5864 22.7047C37.5864 22.4901 37.5864 22.2226 37.5864 21.9404C37.5864 21.3524 37.5864 20.6822 37.5864 19.9355C37.5864 19.5563 37.5864 19.1594 37.5864 18.7597C37.5911 18.6633 37.5758 18.567 37.5414 18.4772C37.5071 18.3874 37.4545 18.306 37.3871 18.2385C37.3198 18.171 37.2392 18.1189 37.1507 18.0856C37.0622 18.0523 36.9678 18.0385 36.8738 18.0453C36.779 18.0451 36.6854 18.0657 36.5991 18.1058C36.5128 18.1459 36.436 18.2044 36.3738 18.2775C36.3134 18.3506 36.268 18.4354 36.2403 18.5268C36.2127 18.6182 36.2034 18.7144 36.2129 18.8096C36.2129 19.2212 36.2129 19.618 36.2129 19.9855C36.2129 20.7351 36.2129 21.4142 36.2129 21.9933C36.2129 22.1344 36.2129 22.2696 36.2129 22.399C36.2025 22.5163 36.2025 22.6344 36.2129 22.7517C36.2478 22.9358 36.3508 23.0989 36.5002 23.2074C36.6339 23.2956 36.787 23.3482 36.9456 23.3602C36.9039 23.369 36.8609 23.369 36.8192 23.3602C36.6945 23.3541 36.5737 23.3146 36.4686 23.2456C36.299 23.1337 36.1784 22.9587 36.1324 22.7576C36.114 22.6351 36.1073 22.5111 36.1123 22.3872C36.1123 22.2579 36.1123 22.1226 36.1123 21.9815C36.1123 21.3936 36.1123 20.7234 36.0951 19.9737C36.0951 19.5975 36.0951 19.2006 36.0951 18.7979C36.0849 18.6845 36.097 18.5702 36.1305 18.4617C36.1641 18.3532 36.2184 18.2526 36.2905 18.1658C36.3657 18.0745 36.4593 18.0009 36.565 17.9502C36.6706 17.8994 36.7858 17.8727 36.9025 17.8719C37.0178 17.8654 37.1331 17.8838 37.241 17.9258C37.3489 17.9679 37.447 18.0326 37.5289 18.1159C37.5969 18.2049 37.6469 18.3069 37.676 18.4159C37.7051 18.5249 37.7127 18.6388 37.6985 18.7508C37.6985 19.1594 37.6985 19.5563 37.6985 19.9267C37.6985 20.6734 37.6985 21.3524 37.6812 21.9316C37.6812 22.2255 37.6812 22.4695 37.6611 22.7076C37.6468 22.8088 37.6126 22.9059 37.5608 22.9933C37.509 23.0807 37.4405 23.1565 37.3594 23.2162C37.2608 23.293 37.1435 23.3407 37.0203 23.3544C36.9818 23.3642 36.9418 23.3662 36.9025 23.3602Z" fill="#263238"/>
<path d="M29.7654 17.96H29.7166C29.3103 17.96 28.981 18.2969 28.981 18.7125V22.6076C28.981 23.0232 29.3103 23.3601 29.7166 23.3601H29.7654C30.1717 23.3601 30.501 23.0232 30.501 22.6076V18.7125C30.501 18.2969 30.1717 17.96 29.7654 17.96Z" fill="#E0E0E0"/>
<path d="M29.7651 23.3601C29.9226 23.3384 30.072 23.2756 30.1989 23.1779C30.34 23.0596 30.4306 22.8899 30.4518 22.7046C30.4518 22.49 30.4518 22.2225 30.4518 21.9403C30.4518 21.3523 30.4518 20.6821 30.4346 19.9354C30.4346 19.5562 30.4346 19.1593 30.4346 18.7595C30.4393 18.6632 30.4239 18.5669 30.3896 18.4771C30.3553 18.3872 30.3027 18.3059 30.2353 18.2384C30.168 18.1709 30.0874 18.1187 29.9989 18.0854C29.9104 18.0521 29.816 18.0384 29.722 18.0452C29.6272 18.0446 29.5334 18.065 29.447 18.1051C29.3607 18.1452 29.2839 18.204 29.222 18.2774C29.1612 18.3503 29.1154 18.435 29.0872 18.5264C29.0591 18.6178 29.0492 18.7141 29.0582 18.8095C29.0582 19.2211 29.0582 19.6179 29.0582 19.9854C29.0582 20.735 29.0582 21.4141 29.0409 21.9932C29.0409 22.1343 29.0409 22.2695 29.0409 22.3988C29.0304 22.5162 29.0304 22.6343 29.0409 22.7516C29.0748 22.9361 29.1779 23.0997 29.3283 23.2073C29.4608 23.2956 29.613 23.3482 29.7708 23.3601C29.7708 23.3601 29.7306 23.3601 29.6444 23.3601C29.5206 23.3539 29.4007 23.3143 29.2967 23.2455C29.1262 23.1345 29.0054 22.9591 28.9605 22.7575C28.9426 22.6349 28.9349 22.511 28.9375 22.3871C28.9375 22.2577 28.9375 22.1225 28.9375 21.9814C28.9375 21.3935 28.9375 20.7232 28.9375 19.9736C28.9375 19.5973 28.9375 19.2005 28.9375 18.7977C28.9206 18.5687 28.9917 18.3419 29.1358 18.1657C29.2108 18.0742 29.3045 18.0005 29.4101 17.9498C29.5158 17.899 29.6311 17.8724 29.7478 17.8717C29.8627 17.865 29.9777 17.8832 30.0852 17.9253C30.1927 17.9673 30.2902 18.0322 30.3714 18.1157C30.45 18.1977 30.5115 18.2953 30.552 18.4025C30.5926 18.5096 30.6112 18.6241 30.607 18.7389C30.607 19.1476 30.607 19.5444 30.607 19.9148C30.607 20.6615 30.607 21.3406 30.607 21.9197C30.607 22.2136 30.607 22.4576 30.5869 22.6958C30.5593 22.897 30.4563 23.0794 30.2995 23.2043C30.2006 23.2806 30.0835 23.3283 29.9604 23.3425C29.8988 23.3694 29.8304 23.3756 29.7651 23.3601Z" fill="#263238"/>
<g opacity="0.3">
<path opacity="0.3" d="M28.1096 20.5293C28.2054 21.4867 28.1159 22.4541 27.8461 23.3762C27.5763 24.2982 27.1316 25.1568 26.5373 25.9029C25.943 26.649 25.2109 27.268 24.3827 27.7245C23.5545 28.181 22.6464 28.4661 21.7105 28.5634L21.9979 24.5449L25.558 20.5852L28.1096 20.5293Z" fill="black"/>
</g>
<path d="M22.4734 26.8952C26.0619 25.9696 28.2375 22.2432 27.3328 18.572C26.4281 14.9008 22.7857 12.675 19.1972 13.6005C15.6087 14.5261 13.4331 18.2525 14.3378 21.9237C15.2425 25.5949 18.8849 27.8207 22.4734 26.8952Z" fill="white"/>
<path d="M20.8298 27.8402C19.4066 27.8392 18.0136 27.4197 16.817 26.6316C15.6203 25.8434 14.6703 24.7199 14.0803 23.3949C13.4903 22.0699 13.285 20.5993 13.4891 19.1583C13.6932 17.7173 14.2979 16.3668 15.2312 15.2675C16.1645 14.1683 17.387 13.3668 18.7531 12.9585C20.1192 12.5502 21.5713 12.5523 22.9363 12.9646C24.3012 13.3769 25.5215 14.182 26.4517 15.284C27.382 16.386 27.9829 17.7383 28.1829 19.1799C28.4569 21.173 27.9471 23.196 26.7653 24.8051C25.5834 26.4143 23.8261 27.4782 21.8786 27.7637C21.5313 27.8152 21.1807 27.8407 20.8298 27.8402ZM20.847 14.1325C20.5586 14.1321 20.2706 14.1528 19.985 14.1942C18.8153 14.3661 17.7216 14.8889 16.8422 15.6965C15.9628 16.5041 15.3372 17.5603 15.0444 18.7316C14.7516 19.9028 14.8047 21.1366 15.1971 22.277C15.5895 23.4174 16.3036 24.4132 17.249 25.1385C18.1945 25.8638 19.3288 26.2861 20.5088 26.352C21.6888 26.418 22.8614 26.1245 23.8784 25.5089C24.8954 24.8932 25.7112 23.9829 26.2227 22.893C26.7341 21.8031 26.9183 20.5826 26.7519 19.3857C26.5495 17.93 25.8411 16.5978 24.7566 15.633C23.6722 14.6682 22.2842 14.1355 20.847 14.1325Z" fill="#455A64"/>
<path d="M20.8465 14.1326C20.8789 14.128 20.9118 14.128 20.9442 14.1326C21.0074 14.1326 21.1022 14.1326 21.2315 14.1326C21.5978 14.1495 21.9615 14.2027 22.3177 14.2914C22.8824 14.4341 23.4236 14.661 23.924 14.9645C24.5906 15.3665 25.1758 15.8954 25.648 16.5226C26.2185 17.285 26.6054 18.1743 26.7773 19.1183C26.8212 19.3771 26.8518 19.6381 26.8692 19.9003C26.8764 20.0344 26.8764 20.1688 26.8692 20.303C26.8692 20.4382 26.8692 20.5764 26.8692 20.7116C26.8235 21.277 26.7076 21.8341 26.5244 22.3696C26.3115 22.9261 26.0284 23.4519 25.6825 23.9335C25.3151 24.4278 24.8829 24.868 24.3981 25.2416C23.3584 26.0183 22.1037 26.4354 20.8164 26.4323C19.5291 26.4291 18.2763 26.0058 17.2404 25.224C16.7547 24.8502 16.3224 24.4089 15.9559 23.9129C15.6178 23.4275 15.3434 22.8987 15.1399 22.3402C14.9585 21.8055 14.8446 21.2493 14.8008 20.6851C14.7244 19.5414 14.9608 18.3985 15.4836 17.3845C16.0063 16.3705 16.7947 15.5254 17.7604 14.944C18.4469 14.5343 19.2074 14.2713 19.996 14.1708L20.4586 14.1444L20.7459 14.1297C20.7784 14.1264 20.8112 14.1264 20.8436 14.1297H20.7459L20.4586 14.1561L19.9988 14.1973C19.8178 14.2267 19.6138 14.2678 19.3839 14.3266C18.081 14.6674 16.93 15.451 16.1197 16.549C15.5619 17.2988 15.1831 18.1716 15.0134 19.0977C14.9189 19.6111 14.8909 20.1349 14.9301 20.6558C14.9741 21.2082 15.087 21.7525 15.2663 22.2755C15.4664 22.82 15.7359 23.335 16.068 23.8071C16.4272 24.2902 16.8498 24.7205 17.3237 25.0858C18.335 25.8466 19.5568 26.2584 20.8121 26.2615C22.0674 26.2647 23.2911 25.8591 24.3061 25.1035C24.7815 24.74 25.2051 24.3106 25.5647 23.8277C25.8985 23.3567 26.17 22.8427 26.3721 22.299C26.5554 21.7778 26.6714 21.2342 26.7169 20.6822C26.7342 20.5499 26.7169 20.4147 26.7169 20.2824C26.7241 20.1512 26.7241 20.0197 26.7169 19.8885C26.6911 19.6269 26.6796 19.3711 26.6307 19.1212C26.4666 18.1942 26.0927 17.3193 25.5388 16.5667C24.7274 15.4709 23.5816 14.6836 22.2832 14.3296C21.9309 14.2355 21.5714 14.1726 21.2086 14.1414C20.9787 14.1385 20.8465 14.1385 20.8465 14.1326Z" fill="#263238"/>
<path d="M20.8296 27.8402C20.8296 27.8402 20.8698 27.8402 20.9503 27.8402L21.3008 27.8137C21.456 27.7991 21.6456 27.7814 21.8755 27.7461L22.6427 27.5845C23.3315 27.3936 23.9925 27.1099 24.6082 26.7408C25.4149 26.2367 26.1232 25.5838 26.6971 24.8153C27.3839 23.878 27.8509 22.7917 28.062 21.6404C28.0952 21.4854 28.1183 21.3283 28.131 21.1701C28.131 21.0113 28.1655 20.8526 28.1798 20.688C28.1942 20.5234 28.1798 20.3646 28.1798 20.197V19.9501L28.1568 19.7002C28.1124 19.0124 27.9731 18.3345 27.7431 17.6866C27.2266 16.2386 26.2885 14.9874 25.0554 14.1017C23.8224 13.216 22.3535 12.7384 20.8468 12.7332C19.3359 12.7281 17.8602 13.1999 16.6209 14.0842C15.3816 14.9686 14.4391 16.2224 13.9219 17.6748C13.4687 18.9435 13.3624 20.3145 13.6144 21.6404C13.7213 22.238 13.8978 22.8203 14.1402 23.3748C14.2572 23.6346 14.3877 23.8878 14.531 24.1333L14.7437 24.489L14.9822 24.8153C15.5492 25.5846 16.2555 26.2353 17.0625 26.7319C17.6762 27.1052 18.3377 27.3892 19.028 27.5756C19.2791 27.6454 19.5344 27.6984 19.7923 27.7344C19.9823 27.7692 20.1742 27.7918 20.367 27.802L20.7204 27.8284C20.7606 27.8252 20.8009 27.8252 20.8411 27.8284H20.7204H20.367C20.1743 27.8241 19.9823 27.8055 19.7923 27.7726C19.5323 27.7438 19.2749 27.6946 19.0222 27.6256C18.3225 27.4485 17.651 27.1704 17.028 26.7996C16.2003 26.3042 15.4735 25.6505 14.8873 24.8741L14.646 24.5448L14.4276 24.1862C14.2799 23.9331 14.1457 23.6721 14.0253 23.4042C13.7771 22.8405 13.5957 22.2483 13.4851 21.6404C13.2285 20.2945 13.3337 18.9026 13.7897 17.6131C14.3164 16.1345 15.2756 14.8578 16.5368 13.9568C17.798 13.0557 19.2999 12.5741 20.8382 12.5774C22.3771 12.5787 23.8783 13.0647 25.1379 13.9693C26.3974 14.8739 27.3541 16.1533 27.8781 17.6337C28.1119 18.2958 28.2522 18.9887 28.2948 19.6914L28.3149 19.9442V20.197C28.3149 20.3646 28.3149 20.5322 28.3149 20.6968C28.3149 20.8614 28.2689 21.0202 28.2689 21.1818C28.2566 21.3432 28.2326 21.5033 28.1971 21.661C27.972 22.8301 27.4851 23.9299 26.7747 24.8741C26.1894 25.6494 25.4672 26.3055 24.6455 26.8084C24.0197 27.174 23.3491 27.4528 22.6513 27.6374L21.8755 27.7844C21.685 27.8121 21.4932 27.8298 21.3008 27.8373C21.1457 27.8373 21.0135 27.8373 20.9474 27.8373L20.8296 27.8402Z" fill="#263238"/>
<path d="M24.2357 10.7995L23.6235 11.804L27.5607 14.3155L28.1729 13.311L24.2357 10.7995Z" fill="#455A64"/>
<path d="M27.5531 14.3442C27.5531 14.3442 27.6049 14.2384 27.7054 14.0502L28.1278 13.3094L28.1422 13.3712C27.2514 12.8214 25.8118 11.9395 24.1999 10.896L24.3033 10.8724L24.2832 10.9048L24.2228 10.9988L24.1453 11.1282L23.9901 11.381L23.7027 11.8749L23.6711 11.769C24.7717 12.4804 25.7343 13.1154 26.4296 13.5799L27.2514 14.1296C27.444 14.2619 27.5388 14.3354 27.5388 14.3442C27.4378 14.2994 27.3415 14.2443 27.2514 14.1796L26.4296 13.6769C25.7228 13.2418 24.7228 12.6186 23.5878 11.8984L23.5246 11.8572L23.5648 11.7955L23.8522 11.2987L24.0188 11.0576L24.0964 10.9312L24.1366 10.8666L24.1568 10.8225V10.8048L24.2774 10.7637C25.8923 11.7955 27.3175 12.7215 28.191 13.3006L28.2284 13.3271L28.2054 13.3653C27.9985 13.6857 27.8347 13.9356 27.7256 14.1002C27.676 14.1871 27.6182 14.2688 27.5531 14.3442Z" fill="#263238"/>
<path d="M14.7712 12.4496L11.5523 16.1968L12.4199 16.9769L15.6389 13.2297L14.7712 12.4496Z" fill="#455A64"/>
<path d="M12.4215 16.9752C12.4215 16.9752 12.5077 16.8577 12.6629 16.6636L13.3266 15.8552C13.9013 15.1762 14.6772 14.2384 15.5794 13.1801V13.286L14.7174 12.5069H14.8237L14.795 12.5275L14.7634 12.5716L14.703 12.6422L14.5795 12.7862L14.3352 13.0802L13.864 13.6181L12.9818 14.6323L11.5854 16.2256V16.161C11.8353 16.3991 12.0394 16.596 12.2003 16.7489C12.2794 16.8206 12.3543 16.8972 12.4244 16.9782C12.3367 16.9242 12.254 16.8622 12.1773 16.793C12.025 16.6666 11.798 16.4784 11.5135 16.2286L11.479 16.1992L11.5078 16.1639L12.8698 14.5441L13.7318 13.5182L14.226 12.9685C14.3036 12.8744 14.3869 12.7803 14.4674 12.6745L14.591 12.5305L14.6513 12.457L14.6829 12.4217L14.7001 12.4041H14.8065C15.0938 12.6745 15.3812 12.9361 15.6685 13.186L15.7231 13.236L15.6742 13.2918C14.7634 14.356 13.9416 15.2908 13.3554 15.9493L12.6686 16.7166C12.5919 16.8082 12.5094 16.8947 12.4215 16.9752Z" fill="#263238"/>
<path d="M17.9128 20.8468L18.4846 19.7326L20.5276 20.6792L22.7257 16.5842L23.7544 17.1869L20.9069 22.3519L17.9128 20.8468Z" fill="#455A64"/>
<path d="M20.9099 22.3607L17.9043 20.8497L18.479 19.7297L20.5162 20.6704L22.723 16.5754L23.7574 17.181L20.9099 22.3607ZM17.9244 20.8438L20.907 22.3431L23.7488 17.1898L22.7316 16.6019L20.5306 20.688L18.4991 19.7444L17.9244 20.8438Z" fill="#263238"/>
<path d="M16.8436 28.7105C16.735 28.6764 16.6301 28.6311 16.5304 28.5752C16.4103 28.5181 16.2932 28.4543 16.1798 28.3841C16.0255 28.2943 15.8758 28.1962 15.7316 28.0902C15.35 27.8286 14.9914 27.5335 14.6598 27.2083C14.2545 26.8107 13.8869 26.3746 13.5622 25.906C13.2481 25.4366 12.9768 24.9387 12.7518 24.4185C12.5695 23.9889 12.4225 23.5444 12.3122 23.0898C12.268 22.9154 12.2326 22.7388 12.2059 22.5607C12.1793 22.4277 12.1611 22.2932 12.1513 22.1579C12.1341 22.0432 12.1283 21.927 12.1341 21.811C12.1628 21.811 12.2088 22.299 12.4214 23.0604C12.5431 23.5059 12.6977 23.9412 12.884 24.3627C13.1169 24.8755 13.3918 25.3672 13.7058 25.8325C14.0222 26.2923 14.3759 26.7241 14.7632 27.123C15.0876 27.4424 15.4343 27.7371 15.8006 28.0049C16.4212 28.4723 16.858 28.6958 16.8436 28.7105Z" fill="#263238"/>
<path d="M13.4532 27.1436C13.2695 26.977 13.1082 26.7862 12.9733 26.5763C12.6237 26.0897 12.3188 25.5711 12.0625 25.0271C11.8065 24.4817 11.6015 23.9128 11.4504 23.3279C11.3723 23.0906 11.3268 22.8432 11.3154 22.593C11.407 22.8231 11.4847 23.0587 11.5481 23.2985C11.7263 23.8662 11.9413 24.4211 12.1918 24.9595C12.4463 25.4962 12.7342 26.0156 13.0538 26.5145C13.2015 26.7142 13.3349 26.9244 13.4532 27.1436Z" fill="#263238"/>
</g>
<defs>
<clipPath id="clip0_379_10265">
<rect width="34.4754" height="38.2364" fill="white" transform="translate(10.6885 10.7637)"/>
</clipPath>
</defs>
</svg>
