<svg width="50" height="50" viewBox="0 0 50 50" fill="none" xmlns="http://www.w3.org/2000/svg">
<mask id="mask0_351_281" style="mask-type:alpha" maskUnits="userSpaceOnUse" x="0" y="0" width="50" height="50">
<circle cx="25" cy="25" r="25" fill="#C4C4C4"/>
</mask>
<g mask="url(#mask0_351_281)">
<path d="M37.4141 36.4444C37.832 32.2901 37.4335 28.241 36.7204 24.1518C36.305 21.7604 36.1404 19.3337 36.2292 16.9097C36.3068 15.2258 35.8744 13.557 34.9862 12.1117C33.9715 10.3658 32.2417 8.9565 30.1154 9.20261C30.0188 9.22259 29.919 9.22259 29.8224 9.20261C29.7444 9.17347 29.6717 9.13228 29.607 9.08061C28.5083 8.26657 26.6966 8.02047 25.348 8.00153C23.6865 7.97334 22.0422 8.33397 20.5526 9.05326C18.0364 10.2859 16.0955 12.6628 15.5978 15.3636C15.4233 16.4869 15.4016 17.6277 15.5332 18.7565C15.6194 19.6925 15.7486 20.6496 15.5784 21.5667C15.3393 22.8288 14.5595 23.9184 14.0704 25.111C13.4526 26.5973 13.1541 28.1918 13.1937 29.7954C13.2432 30.9439 13.5944 33.8593 14.9322 34.2758C16.7353 34.8395 18.6396 35.0183 20.5332 35.1929L25.8715 35.6893C26.7849 35.7734 27.7156 35.8576 28.6053 35.643C29.2709 35.4831 29.8849 35.1634 30.5441 34.9825C31.3623 34.7593 32.2269 34.755 33.0474 34.9699" fill="#AA4F7A"/>
<g style="mix-blend-mode:multiply" opacity="0.32">
<g style="mix-blend-mode:multiply" opacity="0.32">
<path d="M21.6491 13.229L18.2023 14.2492C18.1395 14.2638 18.0802 14.2902 18.0278 14.327C17.9693 14.3808 17.9269 14.4492 17.905 14.5247C17.3134 15.9915 16.9124 17.525 16.7116 19.0892C16.4574 21.1317 17.4095 23.151 16.7999 25.1892L16.0976 27.6187C15.7443 28.803 15.3888 30.0482 15.6667 31.2514C15.8822 32.1979 16.4574 33.0183 16.8796 33.8933C17.5142 35.2104 17.8001 36.662 17.7111 38.1149C17.7111 38.0687 20.5117 37.5155 20.768 37.4418C21.8138 37.1498 22.8423 36.8015 23.8486 36.3985C24.7233 36.0493 25.5721 35.6223 26.4488 35.3068C26.9723 35.1217 27.4527 34.9871 27.8146 34.5475C28.8164 33.3296 29.049 31.182 29.0878 29.6864C29.1317 27.9232 28.7917 26.1709 28.0904 24.5456C27.6006 23.4085 26.9263 22.3559 26.0934 21.4283" fill="#AA4F7A"/>
</g>
</g>
<path d="M11.0157 35.8157C9.07686 38.9099 7.88986 42.4247 7.23927 46.0006C6.95922 47.5466 6.78472 49.2062 7.51287 50.605C8.69987 52.9188 11.9679 52.2731 14.0683 51.8124C17.2695 51.1141 21.1774 49.69 23.1808 47.0818" fill="#EA7C99"/>
<path d="M41.0893 52.0815C41.8842 49.875 41.7097 47.1027 41.5201 44.9298C41.2896 42.1553 40.6929 39.6207 39.3422 37.1134C38.3297 35.2371 37.2655 33.1715 35.2728 32.1703C34.3077 31.6844 33.265 31.3667 32.2568 30.9524C31.0289 30.4433 29.8548 29.3516 30.1952 27.936C30.4106 27 31.1 26.2343 31.8087 25.5654C32.2142 25.1647 32.5886 24.7351 32.9289 24.2802C32.9485 24.2512 32.9751 24.2273 33.0065 24.2108C33.0533 24.1996 33.1026 24.204 33.1465 24.2234C33.6782 24.389 34.2477 24.4003 34.7858 24.2558C35.3239 24.1112 35.8074 23.8172 36.1776 23.4094C36.8798 22.6521 37.0694 21.043 36.4511 20.168C35.9169 19.4107 34.5834 19.1499 33.754 19.4906C34.0771 17.7911 34.1375 15.3763 33.4115 13.7672C32.735 12.2085 30.9879 11.0348 29.495 10.3154C28.0021 9.59601 26.3692 9.45928 24.7427 9.63597C23.0344 9.82318 21.2593 10.4479 20.2683 11.8173C19.8909 12.3843 19.6006 13.0023 19.4066 13.6515C18.8462 15.2881 18.4529 16.9749 18.2325 18.6871C18.0473 20.1385 17.9999 21.8591 18.3165 23.2958C18.4925 24.1965 18.943 25.0242 19.6091 25.6706C20.4385 26.432 21.1386 26.676 22.2675 26.8317C23.4459 26.9958 25.1326 27.2187 25.7143 28.3777C26.7527 30.416 25.068 31.3836 23.3317 31.9683C19.5768 33.2304 19.7061 36.964 19.202 40.155C18.9865 41.5685 18.3402 42.7107 17.8771 44.0379C17.6305 44.8465 17.4858 45.6814 17.4462 46.5242C17.4053 46.9954 17.1899 47.658 17.2631 48.1165C17.3407 48.6087 17.7457 48.8612 18.1399 49.183C19.3528 50.1695 20.725 50.9625 22.0757 51.7387C23.2477 52.3873 24.4842 52.918 25.766 53.3226C27.5562 53.9158 29.2128 54.6604 31.0698 55.0579C32.4628 55.3782 33.8798 55.5892 35.3072 55.689C37.4852 55.8131 39.521 55.0032 40.6024 53.1038C40.7944 52.7773 40.9573 52.4353 41.0893 52.0815Z" fill="#FF8DA8"/>
<g style="mix-blend-mode:multiply" opacity="0.2">
<g style="mix-blend-mode:multiply" opacity="0.2">
<path d="M28.4092 9.74536C28.6871 10.9696 28.4631 12.2401 28.3187 13.4853C28.1744 14.7305 28.1248 16.0536 28.7065 17.1727C29.0862 17.8577 29.6731 18.4117 30.3871 18.7591C31.101 19.1066 31.9074 19.2305 32.6962 19.1141C32.2953 16.7052 31.4733 14.3814 30.2662 12.2443" fill="#FF8DA8"/>
</g>
</g>
<path d="M21.2527 13.6811C21.0739 12.9344 19.6736 13.5213 19.3138 13.7863C19.0101 14.0072 18.5943 14.4741 19.0661 14.7665C19.5379 15.0589 20.5461 14.4994 20.9231 14.2385C21.1105 14.1018 21.3065 13.8915 21.2527 13.6811Z" fill="#843860"/>
<path d="M26.8387 13.3907C27.0175 12.644 28.4177 13.2329 28.7775 13.498C29.0791 13.7083 29.4949 14.1837 29.0231 14.4761C28.5513 14.7685 27.5431 14.2089 27.1661 13.9481C26.9808 13.8177 26.7848 13.6137 26.8387 13.3907Z" fill="#843860"/>
<path d="M35.3244 55.6957C37.5024 55.8198 39.5381 55.0099 40.6196 53.1105C40.806 52.7814 40.9631 52.4373 41.0892 52.0819C41.8841 49.8754 41.7096 47.1031 41.5201 44.9302C41.2896 42.1557 40.6928 39.6211 39.3421 37.1138C38.4373 35.431 37.4873 33.6115 35.8737 32.5261C35.8199 32.5577 35.7639 32.5892 35.7122 32.6229C32.7307 34.4802 30.0874 37.2105 26.5867 37.7006C24.5186 37.9888 22.4074 37.4293 20.5268 36.5374C20.2984 36.428 20.0593 36.3144 19.8137 36.2072C19.5164 37.4692 19.4152 38.868 19.2105 40.1638C18.9951 41.5773 18.3488 42.7195 17.8856 44.0467C17.639 44.8553 17.4943 45.6902 17.4548 46.533C17.4138 47.0042 17.1984 47.6668 17.2717 48.1253C17.3492 48.6175 17.7542 48.87 18.1484 49.1918C19.3613 50.1783 20.7336 50.9713 22.0843 51.7475C23.2563 52.3961 24.4927 52.9268 25.7745 53.3314C27.5647 53.9245 29.2214 54.6692 31.0783 55.0667C32.4742 55.3867 33.8941 55.597 35.3244 55.6957Z" fill="#F26757"/>
<g style="mix-blend-mode:multiply" opacity="0.25">
<g style="mix-blend-mode:multiply" opacity="0.25">
<path d="M29.1244 24.5388C30.2701 24.5388 31.1989 23.6319 31.1989 22.5132C31.1989 21.3945 30.2701 20.4875 29.1244 20.4875C27.9786 20.4875 27.0498 21.3945 27.0498 22.5132C27.0498 23.6319 27.9786 24.5388 29.1244 24.5388Z" fill="#FF8DA8"/>
</g>
<g style="mix-blend-mode:multiply" opacity="0.25">
<path d="M19.6261 21.8319C19.6258 21.3916 19.4784 20.9633 19.2063 20.6122C18.9341 20.261 18.5521 20.0062 18.1181 19.8862C18.0293 21.0263 18.0952 22.1728 18.3142 23.2959C18.3422 23.4221 18.3766 23.5483 18.4133 23.6724C18.7751 23.5117 19.0818 23.2527 19.2969 22.9263C19.5119 22.5999 19.6262 22.22 19.6261 21.8319Z" fill="#FF8DA8"/>
</g>
</g>
<path d="M41.8001 44.4797C41.6372 42.7249 41.276 40.993 40.723 39.3158C40.2921 37.9969 39.9001 36.413 38.8488 35.4454C37.2202 33.9456 34.9603 34.2759 33.3856 35.721C31.3304 37.6141 31.9616 40.0604 32.9267 42.2985C33.6139 43.8929 34.3981 45.4915 34.5338 47.2142C34.5571 47.3606 34.5393 47.5104 34.4821 47.6475C34.3442 47.9105 33.9823 47.9589 33.6786 47.9589C32.1404 47.9589 30.6303 47.5781 29.1395 47.2016L24.6759 46.0742C23.3725 45.746 22.0541 45.4137 20.7874 44.9635C19.6931 46.4261 18.7866 48.0141 18.0881 49.6921C20.1067 51.2592 22.2351 52.7758 24.6608 53.6634C28.2757 54.9886 32.8642 56.8943 36.8582 56.0845C37.8744 55.8992 38.8226 55.4555 39.6071 54.7982C40.3915 54.1408 40.9845 53.293 41.3262 52.3403C42.259 49.8604 42.0199 47.0586 41.8001 44.4797Z" fill="#FF8DA8"/>
<path d="M31.2873 30.3802C30.9616 30.1415 30.6852 29.8445 30.473 29.5051C29.0396 29.9727 27.4905 29.9801 26.0524 29.5262C26.0564 29.9058 25.9306 30.2759 25.6948 30.5779C27.5249 31.1555 29.5048 31.0855 31.2873 30.3802Z" fill="#F7BF54"/>
<path d="M28.0364 8.98599C28.8485 9.70327 29.0683 10.7971 29.1738 11.8193C29.3354 13.4053 29.3289 15.0355 29.9386 16.529C30.5483 18.0224 31.9679 19.3876 33.7236 19.4402C33.8236 19.4512 33.9246 19.4313 34.0123 19.3834C34.0758 19.3273 34.1208 19.2541 34.1416 19.173C35.2596 16.2008 34.1416 12.6523 31.4574 10.6624C30.5116 9.9683 29.4043 9.45927 28.3272 8.95654" fill="#AA4F7A"/>
<g style="mix-blend-mode:multiply" opacity="0.2">
<g style="mix-blend-mode:multiply" opacity="0.2">
<path d="M19.1094 14.6588C20.4687 15.0458 21.8841 15.3151 23.2994 15.2246C24.7148 15.1342 26.1344 14.6609 27.1771 13.7164C28.2198 12.772 28.8036 11.3185 28.5106 9.96387C26.6824 11.2908 24.4912 12.0567 22.2158 12.1641" fill="#FF8DA8"/>
</g>
</g>
<path d="M28.573 9.31415C28.9737 10.368 28.4868 11.5775 27.6811 12.3978C26.3541 13.7482 24.3485 14.2194 22.4398 14.3898C20.5311 14.5602 18.5772 14.4992 16.7439 15.0461C17.2286 12.6565 19.2148 10.7361 21.5199 9.80215C23.825 8.86822 26.4058 8.80932 28.8832 9.08067" fill="#AA4F7A"/>
<path d="M21.7418 22.124C21.7429 22.1093 21.7429 22.0946 21.7418 22.0799C21.7349 22.0218 21.7163 21.9657 21.6871 21.9146C21.6578 21.8636 21.6186 21.8188 21.5715 21.7826C21.5245 21.7464 21.4706 21.7197 21.4129 21.7039C21.3553 21.6882 21.295 21.6837 21.2356 21.6907L16.3993 22.246C16.2969 22.2583 16.2017 22.3041 16.1294 22.3759C16.057 22.4477 16.0116 22.5413 16.0007 22.6415L15.139 30.6998C15.1269 30.8171 15.1627 30.9343 15.2385 31.0261C15.3143 31.1178 15.4241 31.1767 15.544 31.1899H15.5936C15.7062 31.1895 15.8146 31.1484 15.8981 31.0747C15.9816 31.0009 16.0343 30.8996 16.046 30.7903L16.8754 23.0874L21.1645 22.5931C21.2015 22.4674 21.2763 22.3555 21.3792 22.2718C21.4822 22.1882 21.6085 22.1367 21.7418 22.124Z" fill="#B9B5EC"/>
<path d="M24.4627 19.9638C24.4412 19.9638 24.4024 20.069 24.2925 20.2352C24.1324 20.4702 23.9087 20.6574 23.6463 20.7758C23.4733 20.8569 23.2845 20.9007 23.0926 20.9041C22.8772 20.9041 22.7609 20.8326 22.8018 20.618C22.8427 20.4035 22.9784 20.1721 23.0624 19.9197C23.162 19.6592 23.2476 19.3938 23.3188 19.1246C23.5752 18.1822 23.6742 17.2055 23.6118 16.2323C23.5622 15.4856 23.4308 15.0397 23.3964 15.046C23.3619 15.0523 23.4201 15.5066 23.4222 16.2386C23.4278 17.1902 23.3061 18.1385 23.0603 19.0594C22.9849 19.3286 22.9073 19.5894 22.8169 19.8355C22.7738 19.9596 22.7242 20.0795 22.679 20.1973C22.6241 20.3201 22.5836 20.4485 22.5584 20.5802C22.5434 20.6538 22.5434 20.7295 22.5584 20.8031C22.5756 20.8846 22.6195 20.9584 22.6833 21.0135C22.7996 21.0993 22.9459 21.1371 23.0905 21.1186C23.3112 21.1041 23.5259 21.0424 23.7195 20.9377C23.9999 20.7922 24.226 20.564 24.3658 20.2857C24.4735 20.0879 24.4756 19.968 24.4627 19.9638Z" fill="#C45673"/>
<path d="M21.97 17.3242C21.9312 17.3242 21.901 17.6671 21.7546 18.1971C21.6737 18.5069 21.5663 18.8094 21.4336 19.1016C21.3554 19.2679 21.2586 19.4252 21.1449 19.5707C21.0407 19.717 20.8888 19.8245 20.714 19.8757C20.634 19.9009 20.5484 19.9044 20.4665 19.8859C20.3846 19.8673 20.3093 19.8275 20.2487 19.7705C20.1301 19.6371 20.04 19.482 19.9837 19.3141C19.8601 19.02 19.7684 18.714 19.7102 18.4012C19.6197 17.8627 19.6434 17.5156 19.6003 17.5114C19.5572 17.5072 19.4796 17.8543 19.527 18.4243C19.5549 18.7588 19.6273 19.0883 19.7425 19.4045C19.8036 19.6074 19.9095 19.7948 20.0527 19.9535C20.1421 20.0448 20.2565 20.1091 20.3823 20.1386C20.5075 20.1692 20.6384 20.1692 20.7636 20.1386C20.9983 20.0737 21.2029 19.9318 21.3431 19.7369C21.467 19.5694 21.5697 19.3879 21.649 19.1963C21.7813 18.8876 21.8795 18.5661 21.942 18.2371C22.0411 17.6776 22.0023 17.3242 21.97 17.3242Z" fill="#C45673"/>
<path d="M28.8831 17.1391C28.8422 17.1391 28.8573 17.5346 28.7301 18.1425C28.6565 18.4948 28.5401 18.8373 28.3833 19.1626C28.2953 19.3448 28.1707 19.5078 28.0171 19.6422C27.8574 19.776 27.6545 19.8505 27.4441 19.8526C27.3414 19.8442 27.2417 19.8147 27.1515 19.7662C27.0613 19.7176 26.9826 19.651 26.9206 19.5707C26.787 19.4146 26.6801 19.2384 26.6039 19.0491C26.464 18.7109 26.3649 18.3579 26.3088 17.9973C26.2118 17.3852 26.2527 16.994 26.2118 16.9898C26.1709 16.9856 26.0718 17.3747 26.1235 18.0205C26.1596 18.4021 26.2487 18.7771 26.3885 19.1353C26.4665 19.3548 26.5823 19.5597 26.731 19.7411C26.8164 19.8476 26.9238 19.9352 27.0464 19.9983C27.1689 20.0614 27.3037 20.0985 27.4419 20.1071C27.7171 20.1091 27.9833 20.0117 28.1894 19.8336C28.3732 19.6768 28.5202 19.4831 28.6203 19.2657C28.775 18.9169 28.8794 18.5488 28.9305 18.1719C28.9973 17.5325 28.9133 17.137 28.8831 17.1391Z" fill="#C45673"/>
<path d="M33.6785 23.5819C33.7151 23.5608 33.5773 23.3547 33.5579 22.9887C33.5494 22.7741 33.583 22.5599 33.657 22.3576C33.7489 22.111 33.8805 21.8802 34.0469 21.674C34.3531 21.2873 34.73 20.9592 35.1585 20.7064C35.4902 20.5108 35.7186 20.4225 35.7078 20.3846C35.697 20.3468 35.445 20.3846 35.0723 20.5466C34.5857 20.7671 34.1618 21.1008 33.8379 21.5184C33.6528 21.7488 33.5126 22.0105 33.4243 22.2903C33.353 22.5228 33.336 22.7679 33.3748 23.0076C33.448 23.4199 33.6591 23.605 33.6785 23.5819Z" fill="#C45673"/>
<path d="M33.9737 23.2727C33.9845 23.3021 34.1353 23.2853 34.3141 23.1338C34.4263 23.0322 34.5165 22.9097 34.5794 22.7735C34.6423 22.6373 34.6766 22.4902 34.6803 22.3408C34.6855 22.049 34.6023 21.7622 34.4412 21.5163C34.3184 21.3333 34.2107 21.2471 34.1827 21.266C34.1547 21.2849 34.2043 21.409 34.2732 21.5962C34.3684 21.8305 34.4167 22.0804 34.4154 22.3324C34.4064 22.5767 34.324 22.813 34.1784 23.0118C34.0642 23.1654 33.9565 23.2369 33.9737 23.2727Z" fill="#C45673"/>
<path d="M21.7352 22.8539C21.6427 22.8278 21.5526 22.794 21.4659 22.753C21.3776 22.7155 21.3026 22.6533 21.2505 22.5742C21.2431 22.5617 21.2393 22.5476 21.2393 22.5332C21.2393 22.5188 21.2431 22.5046 21.2505 22.4921C21.2735 22.4545 21.3062 22.4233 21.3453 22.4017C21.3905 22.3744 21.4509 22.3428 21.5133 22.3134L21.6081 22.2713L21.6814 22.2418C21.7088 22.2235 21.7334 22.2016 21.7546 22.1766C21.7697 22.1577 21.7912 22.1261 21.8128 22.0925C21.8121 22.0063 21.7765 21.9238 21.7137 21.8632L21.6491 21.8317L21.621 21.8106L21.5715 21.777C21.54 21.7548 21.5098 21.7309 21.481 21.7055C21.4237 21.6555 21.371 21.6006 21.3238 21.5414C21.2794 21.4853 21.239 21.4263 21.2031 21.3647C21.1816 21.31 21.188 21.3184 21.2031 21.2995C21.2457 21.2709 21.2958 21.2548 21.3475 21.2532C21.412 21.2501 21.4768 21.2501 21.5413 21.2532L21.9183 21.2658C22.3815 21.2658 22.6702 21.2658 22.6723 21.228C22.6745 21.1901 22.3923 21.1396 21.9334 21.0849L21.5564 21.0429H21.453C21.4121 21.0407 21.3711 21.0407 21.3302 21.0429C21.2306 21.0425 21.1334 21.0727 21.0523 21.1291C20.9968 21.1714 20.9604 21.2334 20.9511 21.3016C20.9434 21.363 20.9547 21.4252 20.9834 21.4804C21.0223 21.5609 21.0699 21.6371 21.1256 21.7076C21.181 21.7828 21.243 21.8532 21.3108 21.9179C21.3453 21.9474 21.3819 21.9789 21.4207 22.0062L21.4789 22.0462L21.5047 22.063L21.4056 22.1114C21.341 22.1451 21.2785 22.1787 21.2096 22.2229C21.135 22.2725 21.0754 22.3408 21.0372 22.4206C21.0188 22.4655 21.0114 22.514 21.0155 22.5622C21.0196 22.6104 21.0352 22.657 21.0609 22.6983C21.1404 22.8078 21.2525 22.8908 21.3819 22.936C21.4356 22.9579 21.4911 22.9755 21.5478 22.9886L21.69 23.0201C22.0519 23.0937 22.2738 23.1253 22.2824 23.0937C22.291 23.0622 22.0799 22.9717 21.7352 22.8539Z" fill="#C45673"/>
<path d="M21.5845 31.2932L10.2703 31.9579L11.9937 46.2908C12.0121 46.4419 12.0897 46.5801 12.2102 46.6765C12.3306 46.773 12.4846 46.8202 12.64 46.8083L19.8589 46.3686C20.0039 46.36 20.1408 46.3005 20.2445 46.2012C20.3481 46.1019 20.4117 45.9694 20.4233 45.8281L21.5845 31.2932Z" fill="#F9A353"/>
<path d="M11.6728 43.67L20.7831 41.1753L21.4165 33.3694L10.7874 36.2785L11.6728 43.67Z" fill="#F7BF54"/>
<g style="mix-blend-mode:multiply" opacity="0.14">
<g style="mix-blend-mode:multiply" opacity="0.14">
<path d="M10.2703 31.9578L11.9937 46.2908C12.0121 46.4418 12.0897 46.58 12.2102 46.6765C12.3306 46.7729 12.4846 46.8202 12.64 46.8082L18.3854 46.459C16.8503 44.2847 15.6505 41.902 14.8244 39.3872C14.0205 36.9216 13.669 34.3367 13.786 31.7517L10.2703 31.9578Z" fill="#F9A353"/>
</g>
</g>
<path d="M21.5945 29.9978L9.6501 30.7152C9.3841 30.7312 9.18172 30.9547 9.19808 31.2144L9.24358 31.9366C9.25995 32.1964 9.48885 32.394 9.75486 32.378L21.6992 31.6606C21.9652 31.6446 22.1676 31.4211 22.1512 31.1614L22.1057 30.4392C22.0894 30.1794 21.8605 29.9818 21.5945 29.9978Z" fill="#F7BF54"/>
<g style="mix-blend-mode:multiply" opacity="0.2">
<g style="mix-blend-mode:multiply" opacity="0.2">
<path d="M41.8002 44.4796C41.6373 42.7247 41.276 40.9929 40.7231 39.3156C40.2922 37.9967 39.9001 36.4128 38.8488 35.4453C37.6575 34.3494 36.1323 34.2337 34.7816 34.8142L32.0715 39.5049C32.2301 40.4694 32.5199 41.4088 32.9332 42.2983C33.4223 43.4321 33.9587 44.57 34.2775 45.7522C35.765 45.9981 37.2693 46.1352 38.7778 46.1624C39.8336 46.1942 40.89 46.1237 41.9316 45.952C41.882 45.443 41.8411 44.9613 41.8002 44.4796Z" fill="#FF8DA8"/>
</g>
</g>
<path d="M32.6789 44.4269C35.5764 45.0579 39.1417 44.9086 41.9423 43.5687C41.8604 42.7799 40.9104 40.0265 40.822 39.7383C40.1908 37.6538 39.7449 35.4641 38.0646 34.059C36.5566 32.7801 34.5014 32.4625 32.9116 33.7771C32.5564 34.0854 32.2602 34.4529 32.0369 34.8625C30.8586 36.9029 31.3347 39.8351 31.9702 41.9932C32.2028 42.8037 32.4391 43.615 32.6789 44.4269Z" fill="#DB5449"/>
<path d="M35.542 30.3149C35.0465 29.24 35.486 28.1988 34.8591 27.1597C34.5273 26.6149 33.9241 26.108 33.713 25.4938C33.5234 24.9532 33.5299 24.2317 33.4782 23.649C33.3341 22.062 33.4563 20.4627 33.8401 18.9142C33.8672 18.8321 33.8767 18.7455 33.8681 18.6596C33.8332 18.5428 33.7643 18.4383 33.6699 18.3588C33.0197 17.7041 32.4158 17.007 31.8625 16.2722L32.4054 19.1035C32.3472 19.684 32.2697 20.2583 32.177 20.8472C32.0209 21.974 31.701 23.0732 31.227 24.1118C30.1262 26.373 29.4303 29.3178 30.557 31.7158C31.0202 32.6981 31.9508 33.5184 33.0517 33.6299C34.4498 33.7687 35.8651 32.7885 37.1986 33.2092C36.5631 32.2922 36.0089 31.3239 35.542 30.3149Z" fill="#AA4F7A"/>
<path d="M21.2722 51.7849C19.3333 50.7837 16.4552 48.9053 16.787 46.3959C16.8716 45.6164 17.0954 44.8575 17.4484 44.1536C17.7478 43.6172 18.0946 43.1355 17.7909 42.4855C17.5905 42.0648 17.0951 41.7662 16.7439 41.4717C16.3025 41.1217 15.9182 40.7082 15.6043 40.2454C15.5814 40.2186 15.5657 40.1867 15.5586 40.1526C15.5514 40.1184 15.5531 40.0831 15.5634 40.0497C15.7616 39.7069 17.1769 40.4515 17.401 40.5903C18.0277 40.9725 18.5433 41.5056 18.8982 42.1385C18.8594 42.0669 18.9219 41.7914 18.9111 41.6925C18.8835 41.5472 18.8371 41.4058 18.7732 41.2718C18.6814 40.9786 18.5691 40.6919 18.4372 40.4136C18.127 39.8289 17.6853 39.324 17.3191 38.775C17.2249 38.6502 17.1602 38.5065 17.1295 38.3544C17.115 38.2793 17.1231 38.2018 17.153 38.1312C17.1828 38.0606 17.2331 38 17.2976 37.9568C17.513 37.8369 17.7737 38.0094 17.9568 38.1671C18.3553 38.5163 18.8529 38.9076 19.0942 39.3872C19.3786 39.9509 19.538 40.6219 19.7405 41.2172C19.9559 41.2613 19.6953 39.8205 19.65 39.69C19.5014 39.2546 19.4604 38.8613 19.1955 38.4806C18.8508 37.9884 18.4027 37.4961 18.4005 36.8988C18.3934 36.8349 18.4027 36.7703 18.4275 36.7108C18.4523 36.6513 18.4919 36.5988 18.5427 36.558C18.7194 36.4507 18.937 36.6064 19.0748 36.7578C20.055 37.8453 20.3954 39.2946 20.5656 40.706L21.13 38.5521C21.1752 38.3838 21.283 38.1735 21.4575 38.2092C21.5132 38.2257 21.5632 38.257 21.6018 38.2997C22.0887 38.794 21.9163 39.5176 21.7914 40.1128C21.647 40.8028 21.5372 41.5011 21.4445 42.1995C21.3627 42.8116 21.2291 43.4195 21.2054 44.0379C21.1774 44.5932 21.507 44.9403 21.9982 45.2137C22.2656 45.338 22.5439 45.4387 22.8297 45.5145C23.1292 45.6176 23.4006 45.7901 23.7087 45.8826" fill="#FF8DA8"/>
<path d="M37.3926 17.8879C35.5744 17.3136 33.4158 17.2716 31.5266 17.28H31.5093C31.2422 15.288 29.7859 13.7588 28.041 13.7588C26.3973 13.7588 25.025 15.1092 24.6372 16.9245C24.3633 16.6757 24.0031 16.5373 23.629 16.5373C23.2549 16.5373 22.8947 16.6757 22.6208 16.9245C22.2934 15.0314 20.8737 13.5842 19.174 13.5842C17.2352 13.5842 15.6604 15.4584 15.6604 17.7617C15.6604 20.065 17.2352 21.9391 19.174 21.9391C21.1128 21.9391 22.6876 20.065 22.6876 17.7617C22.6876 17.6965 22.6876 17.6334 22.6876 17.5682C22.7651 17.3886 22.8955 17.2357 23.0624 17.1289C23.2292 17.0221 23.4249 16.9662 23.6244 16.9685C23.8239 16.9708 24.0182 17.031 24.1825 17.1416C24.3468 17.2521 24.4736 17.408 24.5467 17.5892C24.5467 17.7049 24.5317 17.8206 24.5317 17.9384C24.5317 20.2522 26.1086 22.1158 28.0453 22.1158C29.9819 22.1158 31.5589 20.2396 31.5589 17.9363C31.5589 17.8627 31.5589 17.7932 31.5589 17.7259C32.9489 17.7184 34.3375 17.8154 35.7123 18.0162C36.2401 18.094 36.7636 18.1992 37.2849 18.317C38.3771 18.5652 38.5775 19.6022 38.6292 20.5172C38.6464 20.8012 39.1031 20.8033 39.0837 20.5172C38.9911 19.2972 38.6679 18.2854 37.3926 17.8879ZM19.1783 21.4028C17.5411 21.4028 16.2119 19.7684 16.2119 17.7596C16.2119 15.7508 17.5411 14.1164 19.1783 14.1164C20.8156 14.1164 22.1447 15.7508 22.1447 17.7596C22.1447 19.7684 20.8134 21.4028 19.1783 21.4028ZM28.041 21.5795C26.4059 21.5795 25.0745 19.9451 25.0745 17.9363C25.0745 15.9275 26.4059 14.2931 28.041 14.2931C29.676 14.2931 31.0095 15.9275 31.0095 17.9363C31.0095 19.9451 29.6782 21.5795 28.041 21.5795Z" fill="#F7BF54"/>
</g>
</svg>
