<svg width="50" height="50" viewBox="0 0 50 50" fill="none" xmlns="http://www.w3.org/2000/svg">
<mask id="mask0_351_357" style="mask-type:alpha" maskUnits="userSpaceOnUse" x="0" y="0" width="50" height="50">
<circle cx="25" cy="25" r="25" fill="#C4C4C4"/>
</mask>
<g mask="url(#mask0_351_357)">
<path d="M34.5285 33.2749C35.4013 33.4599 36.3028 33.4636 37.177 33.2858C38.0513 33.108 38.8797 32.7525 39.6109 32.2413C39.9078 32.0438 40.1675 31.7954 40.3778 31.5075C40.7671 30.9391 40.8177 30.1975 40.6776 29.524C40.5199 28.7668 39.9944 28.1088 39.9515 27.3419C39.9068 26.5438 40.3622 25.9793 40.7652 25.3272C42.3127 22.8435 41.2849 19.7505 38.7992 18.3723C38.0206 17.9363 37.0882 17.6599 36.5256 16.9591C36.244 16.5701 36.0362 16.1327 35.9125 15.6686C35.3285 13.8291 34.7154 12.1648 33.382 10.7264C32.0486 9.28789 29.6544 8.69614 27.7663 9.14968C26.3103 9.50006 25.0178 9.74727 23.5307 9.59933C22.8027 9.52536 22.0669 9.57013 21.3369 9.54872C19.7797 9.50395 18.1135 10.302 17.0662 11.4271C15.8575 12.7254 15.3338 14.6778 15.8983 16.3635C16.2176 17.3251 16.4998 17.8234 16.0579 18.8083C15.6881 19.6317 15.0477 20.3013 14.6078 21.0858C14.0737 22.0824 13.8649 23.2212 14.0109 24.3425C14.1568 25.4638 14.65 26.5113 15.4214 27.338C15.7614 27.7064 16.1799 27.9938 16.6458 28.1789C17.2064 28.3736 17.8137 28.3736 18.3977 28.4495C19.0692 28.5351 19.7602 28.7551 20.1943 29.2767C20.5038 29.6524 20.6381 30.141 20.8561 30.579C21.0741 31.0169 21.4401 31.4413 21.9267 31.4783C22.3043 31.5075 22.6567 31.2953 22.9486 31.0559" fill="#CE534A"/>
<g style="mix-blend-mode:multiply" opacity="0.26">
<g style="mix-blend-mode:multiply" opacity="0.26">
<path d="M24.7433 10.804C23.6652 10.8814 22.5924 11.0185 21.5295 11.2147C20.6861 11.3388 19.8664 11.5902 19.0983 11.9602C18.345 12.3495 17.6793 12.9763 17.3815 13.7744C16.6554 15.7209 18.2886 17.9399 17.656 19.9234C17.1246 21.5935 15.1819 22.9055 16.3421 24.7761C17.3776 26.4423 20.1222 25.8525 21.4166 27.3922C22.3899 28.5407 22.3627 30.4697 23.6766 31.1977C24.6167 31.7194 25.7807 31.3417 26.791 30.9505C27.6085 30.6313 28.5273 30.203 28.7628 29.3563C28.8971 28.8716 28.7628 28.3577 28.6811 27.8613C28.4225 26.4228 28.4958 24.9441 28.8952 23.5381C29.1346 22.6875 29.4967 21.8505 29.4928 20.9687C29.4889 20.0869 28.975 19.1137 28.1049 18.9638" fill="#CE534A"/>
</g>
</g>
<path d="M38.8944 49.8747C38.8837 49.7809 38.8964 49.6859 38.9314 49.5983C39.5446 47.9802 39.8099 46.2511 39.71 44.5237C39.6302 42.9334 39.276 41.3664 39.4103 39.7703C39.4175 39.6549 39.4582 39.5442 39.5274 39.4515C39.5965 39.3589 39.6911 39.2884 39.7996 39.2486C39.7237 38.9041 39.6361 38.5576 39.5329 38.2111C38.8321 35.8558 37.6311 33.4733 35.5425 32.062C34.7483 31.5248 33.7906 31.2834 32.9478 30.8396C31.0752 29.8819 30.174 26.7772 31.5444 25.0176C32.0427 24.3771 32.6578 23.801 32.9478 23.0438C34.0125 23.0029 35.4004 22.7499 35.9299 21.7338C36.582 20.486 36.29 18.2982 34.5946 18.23C34.3293 18.2144 34.0646 18.2691 33.8274 18.3888C33.5901 18.5084 33.3888 18.6887 33.2437 18.9113C33.3824 17.4233 33.2236 15.9226 32.7765 14.4966C32.5546 13.7881 32.4047 13.426 31.8441 12.9394C31.2926 12.4492 30.6978 12.0101 30.0669 11.6274C29.0116 11.0251 27.8341 10.6684 26.6219 10.5838C25.4097 10.4992 24.1941 10.6889 23.0653 11.1388C22.306 11.4204 21.6242 11.8781 21.0759 12.4741C20.2798 13.3949 19.9839 14.6426 19.8107 15.8436C19.5087 17.9508 19.5015 20.0898 19.7893 22.199C19.908 23.0632 20.0852 23.9509 20.5679 24.6691C21.0117 25.329 21.7553 25.8818 22.5456 25.9694C23.3359 26.057 24.0522 26.0667 24.8288 26.0901C25.3875 26.1057 25.9656 26.1738 26.4445 26.4619C27.3652 27.0166 27.3652 28.06 26.8065 28.8834C26.6798 29.0809 26.5102 29.2472 26.3102 29.37C25.6328 29.7593 24.7529 29.37 24.0288 29.3953C23.2015 29.4148 22.5047 29.4595 21.7689 29.8897C20.9423 30.3689 20.1846 30.9583 19.5168 31.6416C18.308 32.8757 17.3406 34.3161 16.2797 35.6728C15.7094 36.3989 15.1118 37.1522 14.2592 37.5201C13.1731 37.9892 12.3127 37.1113 11.7579 36.2354C11.1111 35.2253 10.5735 34.1493 10.154 33.0256C8.75597 33.6003 7.40265 34.2783 6.10522 35.0538C6.1208 35.1512 6.13248 35.2368 6.14221 35.2952C6.26095 36.0913 6.6522 36.8524 6.87216 37.631C7.11766 38.4999 7.42335 39.3507 7.78702 40.1771C8.12836 40.9448 8.51846 41.6899 8.95494 42.4078C9.34424 43.0657 9.82698 44.0293 10.4518 44.4984C11.6197 45.3743 13.6422 45.059 14.8763 44.5529C16.889 43.7237 18.4579 42.3728 19.836 40.7338C19.6537 43.646 19.2338 46.5384 18.5805 49.3822C18.5531 49.4374 18.5392 49.4983 18.5399 49.5599C18.5406 49.6216 18.5559 49.6821 18.5846 49.7367C18.6133 49.7912 18.6546 49.8382 18.7049 49.8737C18.7553 49.9092 18.8134 49.9322 18.8744 49.9408C21.0956 50.8967 23.4205 51.5911 25.8021 52.01C27.9433 52.3896 30.6139 53.0417 32.5741 51.7901C32.6919 51.6939 32.8354 51.6343 32.9867 51.6188C33.0842 51.6256 33.1794 51.6514 33.267 51.6947C34.6442 52.2314 36.1453 52.3664 37.5961 52.084C38.1222 51.4065 38.5585 50.6639 38.8944 49.8747Z" fill="#FF927D"/>
<path d="M38.8943 49.8746C38.8836 49.7808 38.8963 49.6859 38.9313 49.5982C39.5445 47.9802 39.8098 46.2511 39.7099 44.5236C39.6301 42.9333 39.2759 41.3664 39.4102 39.7702C39.4175 39.6549 39.4581 39.5441 39.5273 39.4515C39.5964 39.3589 39.691 39.2883 39.7995 39.2485C39.7236 38.904 39.636 38.5575 39.5328 38.211C38.8321 35.8557 37.6311 33.4732 35.5424 32.062C34.7483 31.5247 33.7906 31.2834 32.9477 30.8396C32.7384 30.7332 32.5424 30.6025 32.3638 30.4502C31.4173 31.2144 30.2277 31.613 29.0118 31.5734C28.3428 31.5272 27.6952 31.3181 27.1256 30.9642C26.5559 30.6103 26.0815 30.1225 25.7436 29.5432C25.1869 29.5879 24.5757 29.3894 24.0424 29.403C23.2151 29.4225 22.5182 29.4673 21.7825 29.8974C20.9558 30.3767 20.1982 30.966 19.5303 31.6493C18.5473 32.6518 17.7239 33.7905 16.8811 34.9117C17.4495 36.2139 18.6174 37.2845 19.3571 38.5439C19.6766 39.0288 19.8521 39.5944 19.8632 40.1751C19.8484 40.4115 19.8059 40.6454 19.7367 40.8719L19.8418 40.7493C19.6595 43.6615 19.2396 46.5539 18.5863 49.3977C18.5588 49.4529 18.5449 49.5138 18.5456 49.5755C18.5463 49.6371 18.5617 49.6977 18.5904 49.7522C18.6191 49.8067 18.6603 49.8537 18.7107 49.8892C18.7611 49.9247 18.8192 49.9477 18.8802 49.9564C21.1014 50.9123 23.4262 51.6066 25.8079 52.0255C27.949 52.4051 30.6197 53.0572 32.5798 51.8056C32.6977 51.7094 32.8412 51.6498 32.9925 51.6343C33.09 51.6411 33.1852 51.6669 33.2728 51.7102C34.6499 52.2469 36.1511 52.3819 37.6019 52.0995C38.127 51.4168 38.5615 50.669 38.8943 49.8746Z" fill="#AA4F7A"/>
<path d="M20.5563 15.5847C21.1208 15.4757 22.5242 14.6504 22.3335 13.9146C22.1271 13.1243 20.8852 13.8601 20.5816 14.2027C20.3694 14.4441 19.803 15.0747 19.9665 15.4056C20.0677 15.6022 20.3402 15.6256 20.5563 15.5847Z" fill="#C46153"/>
<path d="M28.3581 14.6C27.7878 14.6778 26.1936 14.3508 26.1371 13.5917C26.0768 12.7761 27.49 13.072 27.889 13.2997C28.1693 13.4613 28.9109 13.8739 28.8623 14.2399C28.8253 14.4579 28.5761 14.5688 28.3581 14.6Z" fill="#C46153"/>
<path d="M25.195 19.2405C25.1794 19.2405 25.1268 19.3203 25.0198 19.4663C24.8705 19.6706 24.6959 19.8551 24.5001 20.0152C24.3779 20.1244 24.2309 20.202 24.0718 20.241C24.006 20.2552 23.9372 20.2462 23.8772 20.2157C23.8772 20.206 23.8772 20.2157 23.8772 20.171C23.8772 20.1262 23.9103 20.0814 23.9278 20.0308C24.0918 19.584 24.2156 19.1235 24.2976 18.6546C24.4514 17.8033 24.4619 16.9322 24.3288 16.0774C24.2275 15.4214 24.0777 15.038 24.0543 15.0458C24.0309 15.0536 24.1127 15.4487 24.1711 16.0969C24.3031 17.4013 24.1537 18.7189 23.7331 19.9607C23.7156 20.0133 23.6981 20.0561 23.6806 20.1243C23.6716 20.1646 23.6716 20.2065 23.6806 20.2469C23.6915 20.293 23.7167 20.3346 23.7526 20.3656C23.8084 20.4091 23.8766 20.4336 23.9472 20.4357C24.0053 20.4398 24.0635 20.4359 24.1205 20.424C24.3083 20.3731 24.4795 20.2738 24.6168 20.1359C24.8143 19.9574 24.9801 19.7468 25.1074 19.513C25.1813 19.3476 25.2086 19.2464 25.195 19.2405Z" fill="#C46153"/>
<path d="M25.7573 20.3635C25.7242 20.3635 25.6833 20.4609 25.5841 20.5952C25.4646 20.7715 25.2932 20.9062 25.0936 20.9805C24.8941 21.0548 24.6763 21.065 24.4706 21.0098C24.3071 20.9728 24.2079 20.9222 24.1884 20.9494C24.1689 20.9767 24.2409 21.074 24.4181 21.1597C24.5353 21.2147 24.6622 21.2458 24.7916 21.2511C24.9209 21.2565 25.0501 21.236 25.1714 21.1908C25.4155 21.0987 25.6135 20.9141 25.7223 20.6769C25.8001 20.492 25.7845 20.3674 25.7573 20.3635Z" fill="#C46153"/>
<path d="M22.6937 17.2338C22.6606 17.2338 22.6372 17.5491 22.5535 18.0494C22.5043 18.3408 22.4394 18.6293 22.3589 18.9136C22.3157 19.0723 22.2445 19.2219 22.1486 19.3555C22.1158 19.4261 22.0625 19.4852 21.9956 19.5252C21.9288 19.5652 21.8515 19.5843 21.7737 19.5799C21.6959 19.5755 21.6213 19.5478 21.5594 19.5006C21.4975 19.4533 21.4512 19.3885 21.4265 19.3146C21.3459 19.1673 21.2806 19.012 21.2318 18.8513C21.1347 18.5755 21.0694 18.2894 21.0372 17.9988C20.9846 17.4985 21.0372 17.1832 20.9943 17.1773C20.9515 17.1715 20.8659 17.4829 20.8775 18.0085C20.8878 18.3164 20.9395 18.6215 21.0313 18.9156C21.0833 19.0934 21.1544 19.2651 21.2435 19.4275C21.2945 19.5199 21.3603 19.6034 21.4381 19.6747C21.5286 19.7561 21.6438 19.8048 21.7652 19.8129C21.8863 19.8184 22.0059 19.7843 22.1058 19.7156C22.1947 19.6555 22.2724 19.5804 22.3355 19.4937C22.4444 19.3371 22.523 19.1615 22.5671 18.9759C22.6387 18.6796 22.6881 18.3783 22.7151 18.0747C22.7559 17.5627 22.7229 17.2338 22.6937 17.2338Z" fill="#C46153"/>
<path d="M28.6673 16.4724C28.6323 16.4724 28.6673 16.8248 28.6206 17.3776C28.5936 17.7007 28.5428 18.0215 28.4688 18.3372C28.4289 18.5196 28.3729 18.6981 28.3014 18.8706C28.275 18.9514 28.2272 19.0235 28.1631 19.0794C28.099 19.1353 28.021 19.1727 27.9374 19.1878C27.7568 19.1807 27.5853 19.1064 27.4566 18.9796C27.3189 18.8548 27.2019 18.7089 27.1101 18.5474C26.9497 18.2689 26.8248 17.9714 26.7383 17.6618C26.5923 17.1284 26.5962 16.778 26.5612 16.778C26.5261 16.778 26.4736 17.1323 26.5845 17.6988C26.6517 18.0307 26.7678 18.3509 26.9291 18.6487C27.0258 18.8333 27.1528 19.0004 27.3047 19.1431C27.4759 19.3137 27.7073 19.4102 27.949 19.4117C28.0817 19.4021 28.2067 19.3455 28.3014 19.2521C28.383 19.1685 28.4489 19.0709 28.496 18.964C28.572 18.7757 28.6281 18.58 28.6634 18.38C28.7326 18.0523 28.7692 17.7184 28.7724 17.3834C28.7744 16.8131 28.6848 16.4686 28.6673 16.4724Z" fill="#C46153"/>
<path d="M34.9586 18.8299C34.945 18.8066 34.7192 18.8981 34.4175 19.1511C34.0253 19.4857 33.7228 19.9128 33.5372 20.3937C33.3517 20.8746 33.2889 21.3942 33.3547 21.9054C33.4092 22.2947 33.5143 22.5147 33.5493 22.5069C33.5844 22.4991 33.5318 22.2655 33.5201 21.8918C33.5012 21.4081 33.5814 20.9257 33.7558 20.4741C33.9302 20.0225 34.1951 19.6114 34.5343 19.266C34.7854 18.9973 34.9781 18.8591 34.9586 18.8299Z" fill="#C46153"/>
<path d="M33.853 22.1155C33.8666 22.1388 34.0029 22.0921 34.1566 21.9208C34.3547 21.695 34.4592 21.4021 34.4487 21.1018C34.4382 20.8016 34.3136 20.5167 34.1002 20.3052C33.9445 20.1475 33.8179 20.093 33.8004 20.1106C33.7829 20.1281 33.8666 20.2351 33.9776 20.4025C34.1235 20.6092 34.2085 20.8527 34.2228 21.1052C34.2282 21.3584 34.1606 21.6077 34.0282 21.8235C33.9231 21.9987 33.8316 22.0882 33.853 22.1155Z" fill="#C46153"/>
<path d="M34.2344 23.6806C34.9877 23.6806 34.9877 22.5127 34.2344 22.5127C33.4811 22.5127 33.4811 23.6806 34.2344 23.6806Z" fill="#FFF5FF"/>
<g style="mix-blend-mode:multiply" opacity="0.33">
<g style="mix-blend-mode:multiply" opacity="0.33">
<path d="M29.6135 23.237C30.5756 23.237 31.3556 22.457 31.3556 21.4948C31.3556 20.5327 30.5756 19.7527 29.6135 19.7527C28.6513 19.7527 27.8713 20.5327 27.8713 21.4948C27.8713 22.457 28.6513 23.237 29.6135 23.237Z" fill="#FF927D"/>
</g>
<g style="mix-blend-mode:multiply" opacity="0.33">
<path d="M19.7953 20.2686C19.733 20.2686 19.6726 20.2686 19.6123 20.2783C19.6454 20.9206 19.7018 21.563 19.7894 22.1995C19.8507 22.7162 19.9608 23.2258 20.1184 23.7217C20.5438 23.6402 20.9235 23.4031 21.1836 23.0568C21.4437 22.7104 21.5654 22.2796 21.5251 21.8484C21.4847 21.4171 21.2852 21.0164 20.9654 20.7243C20.6455 20.4322 20.2284 20.2697 19.7953 20.2686Z" fill="#FF927D"/>
</g>
</g>
<path d="M33.5494 31.1183C33.343 31.0307 33.1387 30.9392 32.9382 30.8361C32.7289 30.7297 32.5329 30.5991 32.3542 30.4468C31.4077 31.211 30.2181 31.6096 29.0023 31.5699C28.3333 31.5237 27.6857 31.3146 27.116 30.9607C26.5464 30.6069 26.0719 30.119 25.7341 29.5397C25.3423 29.544 24.9511 29.5095 24.5662 29.4365C24.8025 30.1285 25.1813 30.7632 25.6782 31.2997C26.1751 31.8362 26.779 32.2624 27.4509 32.551C28.2619 32.8711 29.1375 32.9933 30.0052 32.9073C30.8728 32.8213 31.7075 32.5297 32.4399 32.0565C32.8462 31.7897 33.2188 31.4747 33.5494 31.1183Z" fill="#9B4471"/>
<g style="mix-blend-mode:multiply" opacity="0.21">
<g style="mix-blend-mode:multiply" opacity="0.21">
<path d="M24.6672 10.4966C25.5996 11.4698 25.769 12.922 25.9636 14.2573C26.1583 15.5926 26.5145 17.0544 27.6298 17.8097C28.2138 18.199 28.9223 18.345 29.6172 18.415C31.1688 18.5695 32.7355 18.4046 34.2208 17.9304C32.9745 16.8104 32.1277 15.3144 31.809 13.6694" fill="#FF927D"/>
</g>
</g>
<path d="M24.8502 10.2571C25.5743 10.7067 25.9383 11.5632 26.1193 12.3983C26.3004 13.2333 26.3451 14.0976 26.6449 14.8976C27.0553 15.9285 27.807 16.7874 28.7744 17.3307C30.1486 18.1308 31.3944 17.9789 32.8815 18.1502C33.2083 18.2037 33.5416 18.2037 33.8684 18.1502C34.0304 18.1287 34.184 18.0655 34.3143 17.9669C34.4447 17.8683 34.5472 17.7377 34.612 17.5877C33.6524 16.7877 33.9054 16.1122 33.4285 15.0377C32.8952 13.8387 31.9589 12.8576 30.9233 12.0771C29.1715 10.7632 26.9427 9.9359 24.8054 10.3778" fill="#CE534A"/>
<path d="M30.4407 15.4875C31.0246 16.4296 31.6086 17.3834 31.957 18.4307C32.3055 19.4779 32.4222 20.6439 32.0505 21.6833C31.7643 22.4814 31.2173 23.1529 30.7015 23.8245C30.1857 24.496 29.6796 25.2124 29.5025 26.0416C29.3253 26.8708 29.5531 27.8402 30.2577 28.3112C30.6782 28.5935 31.2037 28.6596 31.7079 28.7005C33.3945 28.8627 35.0912 28.8926 36.7825 28.7901C35.9766 28.2684 35.1591 27.737 34.5303 27.0129C33.9016 26.2888 33.4773 25.3272 33.6077 24.3773C33.6875 23.7817 33.9756 23.2347 34.1099 22.6488C34.3396 21.658 34.1099 20.6108 33.7323 19.6706C33.5376 19.1976 33.2923 18.674 33.4714 18.1932C33.5726 17.9226 33.7926 17.7163 33.9444 17.471C34.0895 17.2297 34.1658 16.9533 34.1651 16.6717C34.1644 16.3901 34.0866 16.114 33.9403 15.8734C33.7939 15.6329 33.5845 15.4369 33.3348 15.3068C33.0851 15.1766 32.8045 15.1173 32.5235 15.1352" fill="#CE534A"/>
<path d="M6.14994 26.0514H6.11101C6.07296 26.0464 6.03628 26.0338 6.00309 26.0145C5.96991 25.9952 5.94089 25.9695 5.91772 25.9389C5.89454 25.9083 5.87767 25.8734 5.86808 25.8363C5.85849 25.7991 5.85638 25.7604 5.86186 25.7224L6.48669 21.0663C6.4969 20.9908 6.5362 20.9223 6.5962 20.8754C6.6562 20.8285 6.73216 20.8069 6.80787 20.8152L10.3116 21.1812C10.35 21.1851 10.3871 21.1966 10.4211 21.2149C10.455 21.2333 10.4849 21.2581 10.5092 21.288C10.5335 21.3179 10.5517 21.3523 10.5627 21.3893C10.5738 21.4262 10.5774 21.465 10.5734 21.5033C10.5695 21.5417 10.558 21.5788 10.5396 21.6128C10.5213 21.6467 10.4965 21.6766 10.4666 21.7009C10.4367 21.7252 10.4022 21.7434 10.3653 21.7544C10.3284 21.7655 10.2896 21.7691 10.2513 21.7651L7.02783 21.4186L6.44387 25.7983C6.43435 25.8692 6.39917 25.9341 6.34499 25.9807C6.29082 26.0273 6.22142 26.0525 6.14994 26.0514Z" fill="#9B4471"/>
<path d="M8.8812 35.879H3.75211C3.64592 35.8789 3.54369 35.8387 3.46578 35.7666C3.38786 35.6944 3.33998 35.5956 3.33166 35.4897L2.3584 25.4788H10.2749L9.30165 35.4897C9.29333 35.5956 9.24545 35.6944 9.16753 35.7666C9.08962 35.8387 8.98739 35.8789 8.8812 35.879Z" fill="#FB93AF"/>
<path d="M6.31936 33.7851C7.78678 33.7851 8.97637 32.4448 8.97637 30.7914C8.97637 29.138 7.78678 27.7976 6.31936 27.7976C4.85194 27.7976 3.66235 29.138 3.66235 30.7914C3.66235 32.4448 4.85194 33.7851 6.31936 33.7851Z" fill="#E27798"/>
<g style="mix-blend-mode:multiply" opacity="0.18">
<g style="mix-blend-mode:multiply" opacity="0.18">
<path d="M9.54475 32.843C8.77587 32.3155 7.88826 31.9962 7.0532 31.5777C6.21814 31.1592 5.40449 30.6045 4.96652 29.783C4.73992 29.318 4.59756 28.8165 4.54607 28.3017C4.42371 27.3665 4.43682 26.4185 4.585 25.4871H2.36597L3.33923 35.498C3.34755 35.6039 3.39543 35.7027 3.47335 35.7749C3.55126 35.847 3.65349 35.8872 3.75968 35.8873H8.88098C8.98683 35.8867 9.08858 35.8463 9.16608 35.7742C9.24359 35.7021 9.2912 35.6036 9.29949 35.498L9.55837 32.8527C9.55311 32.8506 9.54844 32.8473 9.54475 32.843Z" fill="#FB93AF"/>
</g>
</g>
<path d="M10.3603 25.0625H2.2803C2.12549 25.0625 2 25.188 2 25.3428V26.2421C2 26.3969 2.12549 26.5224 2.2803 26.5224H10.3603C10.5151 26.5224 10.6406 26.3969 10.6406 26.2421V25.3428C10.6406 25.188 10.5151 25.0625 10.3603 25.0625Z" fill="#E27798"/>
<path d="M10.9111 35.0018C10.5464 33.8431 10.0996 32.7118 9.57386 31.6168C9.2702 30.988 8.92566 30.3807 8.31835 29.9992C7.94072 29.7637 7.35482 29.5515 7.45993 30.1647C7.50665 30.4372 7.95824 30.733 8.1198 30.9433C8.40228 31.2882 8.60739 31.6898 8.72128 32.1209C9.00742 33.3297 8.22881 34.3594 8.25801 35.5643C8.27163 36.4169 8.65899 37.3162 9.42592 37.7055" fill="#FF927D"/>
<path d="M20.241 34.3223C24.0993 34.3223 27.227 33.9528 27.227 33.497C27.227 33.0411 24.0993 32.6716 20.241 32.6716C16.3827 32.6716 13.2549 33.0411 13.2549 33.497C13.2549 33.9528 16.3827 34.3223 20.241 34.3223Z" fill="#C98E36"/>
<path d="M21.7338 35.0966C21.3487 34.6813 21.1244 34.1423 21.1012 33.5764C21.0316 32.8908 21.1837 32.201 21.5353 31.6084C21.6256 31.4607 21.7497 31.3367 21.8973 31.2464C21.9718 31.2022 22.0554 31.1755 22.1418 31.1684C22.2281 31.1613 22.3149 31.174 22.3956 31.2055C22.5152 31.2693 22.6154 31.3641 22.6857 31.48C23.0362 32.0283 23.1572 32.6924 23.0224 33.3291C22.8845 33.9569 22.5989 34.5428 22.1893 35.0382" fill="#A4B24A"/>
<path d="M22.3315 33.7887C22.4872 33.6758 22.6974 33.5162 22.9271 33.3352L23.0245 33.2593C23.0245 33.2281 23.0245 33.197 23.0381 33.1658C22.9875 33.2022 22.9369 33.2411 22.8863 33.2826C22.6566 33.4617 22.4502 33.6272 22.3023 33.7498C22.2249 33.8106 22.1508 33.8756 22.0804 33.9444C22.0921 33.7693 22.1018 33.5824 22.1057 33.3877C22.1057 33.1464 22.1057 32.9167 22.1057 32.7084C22.1466 32.6792 22.2225 32.6169 22.3237 32.5293L22.9077 32.0271L22.9408 31.9979C22.9341 31.9748 22.9264 31.9521 22.9174 31.9298L22.8629 31.9746C22.6352 32.1692 22.4347 32.3639 22.2926 32.4943C22.2069 32.578 22.1427 32.6422 22.0979 32.6889C22.0979 32.4943 22.0823 32.321 22.0726 32.1731C22.0629 32.0252 22.0493 31.8928 22.0376 31.8052C22.0342 31.7598 22.0264 31.7148 22.0142 31.6709C22.0078 31.7161 22.0078 31.762 22.0142 31.8072C22.0142 31.9415 22.0142 32.0641 22.0278 32.177C22.0278 32.321 22.0278 32.4943 22.0395 32.6831C21.9247 32.5858 21.6385 32.3678 21.2843 32.1108L21.2609 32.175C21.623 32.4339 21.9208 32.6403 22.0395 32.7123C22.0395 32.9206 22.0395 33.1503 22.0395 33.3916C22.0395 33.5863 22.0278 33.7634 22.0201 33.9347C21.9928 33.9075 21.878 33.8315 21.7106 33.7167C21.5432 33.6018 21.3212 33.4617 21.0935 33.2962V33.3761C21.3193 33.5298 21.5237 33.6602 21.6775 33.7654C21.7844 33.835 21.8963 33.8968 22.0123 33.9503C21.9986 34.2033 21.9831 34.4291 21.9675 34.614L21.9383 34.9819C21.9383 35.0228 21.9383 35.054 21.9383 35.0773H21.9519C21.9593 35.0484 21.9651 35.0192 21.9694 34.9897C21.985 34.9021 22.0025 34.7776 22.0201 34.6218C22.0376 34.4661 22.0648 34.2208 22.0804 33.9717C22.1687 33.9172 22.2526 33.856 22.3315 33.7887Z" fill="#8D963D"/>
<path d="M25.5628 33.1659C25.5628 33.3605 25.6271 33.5552 25.6563 33.7674C25.7477 34.4156 25.1638 34.9762 24.5409 35.054C24.1652 35.1027 23.7798 34.9917 23.41 35.0657C23.2032 35.1072 23.012 35.2048 22.8571 35.3479C22.7359 35.4699 22.655 35.6262 22.6255 35.7956C22.6041 35.7781 22.3063 35.5543 22.2985 35.5874C22.4365 35.1229 22.4159 34.6257 22.2401 34.1742C22.0318 33.7206 21.9909 32.9459 22.3121 32.5313C22.4341 32.3799 22.5911 32.2603 22.7696 32.1829C22.937 32.105 23.1044 32.1381 23.2679 32.0719C23.7311 31.8773 23.9569 31.1201 24.2197 30.7366C24.4825 30.3532 24.864 30.0184 25.3214 30.0067C25.5059 30.0043 25.688 30.0485 25.8509 30.1352C26.6295 30.5245 26.0806 31.5503 25.8256 32.142C25.7033 32.4062 25.6175 32.6858 25.5706 32.9732C25.5632 33.0371 25.5606 33.1016 25.5628 33.1659Z" fill="#78894A"/>
<path d="M24.9905 34.1861C25.2222 34.1569 25.4421 34.1238 25.6465 34.0907C25.6465 34.0654 25.6465 34.0381 25.6601 34.0128L24.9808 34.1063C24.4611 34.1744 23.99 34.2269 23.6474 34.2639L23.1569 34.3204C23.3087 34.0206 23.4781 33.7033 23.665 33.3744C23.8518 33.0454 24.0543 32.7106 24.2489 32.4186C24.3151 32.4186 24.4241 32.4011 24.5681 32.3816C24.8056 32.3486 25.1307 32.294 25.4889 32.222L25.8237 32.15L25.8587 32.0702L25.4694 32.15L24.5545 32.333L24.2645 32.3953C24.4922 32.0468 24.7063 31.7373 24.8893 31.4862C25.0723 31.2351 25.1988 31.0638 25.2981 30.9354C25.3522 30.8752 25.4004 30.81 25.4421 30.7407C25.3802 30.8006 25.3235 30.8657 25.2728 30.9354C25.1657 31.058 25.0197 31.241 24.8426 31.4726C24.6655 31.7043 24.4338 32.0254 24.2022 32.3739C24.2022 32.3096 24.1808 32.2045 24.1613 32.0663C24.1282 31.8347 24.0854 31.5154 24.0484 31.1612C24.0484 31.132 24.0484 31.1028 24.0484 31.0716L23.9803 31.2059C24.0173 31.5466 24.0679 31.8541 24.1127 32.076C24.1457 32.2318 24.173 32.3447 24.1925 32.4011C23.9978 32.695 23.8032 33.0162 23.6085 33.3627C23.4139 33.7092 23.2503 34.0148 23.1005 34.3184C23.0868 34.2425 23.0596 34.1238 23.0246 33.9564C22.9662 33.68 22.8844 33.3004 22.8046 32.878C22.7618 32.6561 22.7248 32.4478 22.6917 32.2571C22.6683 32.2695 22.6456 32.2832 22.6236 32.2979C22.6508 32.4809 22.6859 32.6872 22.7248 32.8819C22.8065 33.3062 22.8961 33.6878 22.97 33.9603C23.0187 34.1413 23.0596 34.2737 23.0849 34.3496C22.8902 34.7389 22.7345 35.099 22.6138 35.3968C22.5671 35.5117 22.5262 35.6148 22.4893 35.7102L22.5282 35.7375L22.6644 35.4182C22.7949 35.1204 22.9623 34.7603 23.1608 34.3671H23.2601C23.3555 34.3671 23.4956 34.3671 23.6669 34.3476C23.9959 34.3029 24.4689 34.2561 24.9905 34.1861Z" fill="#647039"/>
<path d="M19.0846 35.2602C19.7241 34.8019 20.1801 34.1314 20.3713 33.3682C20.6205 32.4747 20.6789 31.4333 20.3285 30.5671C20.2471 30.3408 20.1138 30.1368 19.9392 29.9715C19.8508 29.8898 19.7447 29.8297 19.6292 29.7959C19.5137 29.7622 19.3919 29.7556 19.2735 29.7768C19.0928 29.8306 18.9301 29.9321 18.8024 30.0708C18.1742 30.7175 17.8248 31.5848 17.8291 32.4864C17.8414 33.3792 18.067 34.2562 18.4871 35.0441" fill="#A4B24A"/>
<path d="M18.635 33.3118C18.4579 33.1172 18.2146 32.8369 17.9518 32.5332L17.8428 32.4028C17.8428 32.358 17.8428 32.3132 17.8428 32.2685L18.018 32.4631C18.2807 32.7726 18.5143 33.0471 18.6798 33.2631C18.7679 33.369 18.8505 33.4795 18.927 33.5941C18.9601 33.3527 19.001 33.0977 19.0477 32.831C19.108 32.5001 19.1742 32.1887 19.2423 31.9064C19.1956 31.8539 19.11 31.7487 18.9971 31.6028L18.3508 30.758L18.3138 30.7112C18.3314 30.682 18.3469 30.6509 18.3644 30.6237L18.4248 30.7015C18.6798 31.0324 18.9017 31.34 19.0574 31.5677C19.1508 31.704 19.219 31.811 19.2521 31.8753C19.3143 31.6144 19.3766 31.3789 19.4311 31.1823C19.4856 30.9857 19.5421 30.8047 19.581 30.6898C19.5967 30.6286 19.6202 30.5697 19.6511 30.5146C19.6484 30.5808 19.6366 30.6463 19.6161 30.7093C19.5732 30.8884 19.5324 31.0558 19.4954 31.2076C19.4487 31.4023 19.3942 31.6358 19.3377 31.8947C19.5324 31.7935 19.9742 31.5775 20.527 31.3244C20.527 31.3555 20.527 31.3867 20.5407 31.4198C19.9762 31.6709 19.5129 31.8675 19.3299 31.9317C19.2676 32.2159 19.2053 32.5293 19.1353 32.8602C19.0885 33.1191 19.0477 33.3683 19.0107 33.6038C19.0574 33.5746 19.2326 33.5026 19.4934 33.3936C19.7543 33.2846 20.0774 33.1522 20.4511 32.9926L20.4278 33.1035C20.0793 33.2476 19.762 33.3683 19.5168 33.4558C19.3508 33.5193 19.1812 33.5726 19.0087 33.6155C18.9562 33.9619 18.9153 34.2753 18.8842 34.5303C18.8647 34.6841 18.8452 34.8554 18.8219 35.0384C18.8219 35.0948 18.8083 35.1376 18.8044 35.1688H18.7829C18.7829 35.1376 18.7829 35.0948 18.7829 35.0423C18.7829 34.9216 18.7966 34.7444 18.8141 34.5284C18.8355 34.2773 18.8686 33.9697 18.9153 33.6271C18.8152 33.5282 18.7216 33.4228 18.635 33.3118Z" fill="#8D963D"/>
<path d="M15.2714 33.0823C15.2714 33.2769 15.2111 33.4463 15.1838 33.6409C15.1001 34.2424 15.6413 34.7582 16.2174 34.8322C16.5659 34.877 16.9221 34.7738 17.2647 34.8419C17.4562 34.881 17.6332 34.9719 17.7766 35.1047C17.9304 35.2449 17.9265 35.3442 17.9927 35.5193C18.0102 35.5018 18.2866 35.2955 18.2944 35.3247C18.1669 34.8947 18.186 34.4345 18.3489 34.0166C18.5435 33.5981 18.5786 32.8799 18.2807 32.4964C18.1682 32.3561 18.0232 32.2452 17.8583 32.1733C17.7026 32.1012 17.5469 32.1304 17.3951 32.0701C16.9688 31.8988 16.7586 31.1883 16.5152 30.8341C16.2719 30.4798 15.9196 30.1683 15.4953 30.1586C15.3243 30.1555 15.1554 30.1964 15.0047 30.2773C14.2787 30.6472 14.7926 31.5874 15.0281 32.1363C15.1421 32.3803 15.2214 32.6391 15.2636 32.9052C15.271 32.9639 15.2736 33.0231 15.2714 33.0823Z" fill="#78894A"/>
<path d="M15.801 34.0282C15.5869 34.0009 15.3825 33.9698 15.1937 33.9387C15.1937 33.9153 15.1937 33.8919 15.182 33.8666C15.3766 33.8958 15.5888 33.925 15.8107 33.9542C16.2915 34.0185 16.7295 34.0671 17.0448 34.1002C17.2628 34.1236 17.4205 34.1411 17.5003 34.1528C17.3602 33.8744 17.2025 33.5805 17.0292 33.2768C16.856 32.9732 16.6633 32.6617 16.4881 32.3912C16.4278 32.3912 16.3246 32.3756 16.1922 32.3561C15.9723 32.325 15.6706 32.2763 15.3397 32.2082L15.0302 32.144L14.9971 32.07L15.3572 32.144L16.202 32.3114L16.4725 32.3698C16.2623 32.0466 16.0638 31.7605 15.8886 31.5289C15.7134 31.2972 15.6005 31.1396 15.4993 31.0189C15.4489 30.958 15.404 30.8929 15.365 30.8242C15.422 30.8777 15.4747 30.9357 15.5226 30.9975C15.6219 31.1104 15.7582 31.2797 15.9119 31.4938C16.0657 31.7079 16.2896 32.0058 16.4959 32.3289C16.4959 32.2685 16.5173 32.1712 16.5348 32.0427C16.566 31.8286 16.6049 31.5347 16.638 31.2057C16.638 31.1785 16.638 31.1512 16.638 31.124L16.7003 31.2466C16.6652 31.5639 16.6185 31.8481 16.5776 32.0525C16.5465 32.1965 16.5212 32.3016 16.5037 32.3542C16.6828 32.6248 16.8696 32.9226 17.0526 33.2437C17.2356 33.5649 17.3855 33.8491 17.5237 34.1294C17.5373 34.0593 17.5606 33.9348 17.5937 33.7946C17.6482 33.5377 17.7242 33.1854 17.7981 32.7941C17.8371 32.5994 17.8721 32.4048 17.9013 32.2101L17.9655 32.2471C17.9402 32.4184 17.9091 32.6033 17.8721 32.7999C17.7962 33.1892 17.7125 33.5435 17.6443 33.7966C17.5996 33.964 17.5626 34.0866 17.5392 34.1508C17.7164 34.5109 17.8624 34.8438 17.9753 35.1241C18.0181 35.2292 18.0551 35.3187 18.0901 35.4141L18.0531 35.4394C18.0161 35.3499 17.9733 35.2448 17.9266 35.1436C17.8059 34.8672 17.6521 34.5343 17.4672 34.1703H17.4166C17.3271 34.1703 17.1986 34.1703 17.0409 34.1528C16.7217 34.1314 16.2837 34.0924 15.801 34.0282Z" fill="#647039"/>
<path d="M27.2269 33.5066C27.1783 33.9562 24.0716 34.3202 20.2448 34.3202C16.5658 34.3202 13.5526 33.9835 13.282 33.5572C13.2159 35.6283 13.8932 37.8201 14.993 39.5564C15.0708 39.6938 15.1738 39.8153 15.2967 39.9145C15.4359 40.0026 15.5915 40.0616 15.7541 40.0878C17.2319 40.4119 18.7443 40.5505 20.2564 40.5005C21.7685 40.5505 23.2809 40.4119 24.7587 40.0878C24.9201 40.0712 25.0745 40.0137 25.2073 39.9207C25.3402 39.8277 25.4471 39.7023 25.5179 39.5564C26.6255 37.8065 27.3048 35.5933 27.2269 33.5066Z" fill="#F7BF54"/>
<path d="M13.3853 35.2758C13.3969 35.3478 13.4067 35.4179 13.4183 35.4899C17.9669 35.9961 22.5592 35.9648 27.1005 35.3965C27.1121 35.3245 27.1238 35.2524 27.1336 35.1804C22.5708 35.7581 17.9555 35.7901 13.3853 35.2758Z" fill="#E2A744"/>
<path d="M13.6404 36.4789C13.6793 36.6249 13.7221 36.769 13.7669 36.913C18.0898 37.3657 22.4498 37.3344 26.7658 36.8196C26.8106 36.6755 26.8514 36.5315 26.8904 36.3855C22.4918 36.9226 18.0461 36.954 13.6404 36.4789Z" fill="#E2A744"/>
<path d="M14.2632 38.196C14.2963 38.27 14.3313 38.3439 14.3663 38.416C18.2987 38.7901 22.259 38.762 26.1856 38.3323L26.2869 38.1104C22.2928 38.5553 18.2632 38.584 14.2632 38.196Z" fill="#E2A744"/>
<g style="mix-blend-mode:multiply" opacity="0.22">
<g style="mix-blend-mode:multiply" opacity="0.22">
<path d="M25.2123 39.9164C25.3351 39.8177 25.4375 39.696 25.514 39.5583C25.6697 39.313 25.8157 39.0599 25.952 38.7991C23.7368 38.8653 21.4633 39.3344 19.4798 38.4098C19.0625 38.2127 18.6704 37.9663 18.3118 37.676C17.2072 36.77 16.4181 35.5372 16.0578 34.1547C14.5005 34.0146 13.4339 33.8004 13.2781 33.5552C13.2119 35.6263 13.8893 37.8181 14.9891 39.5544C15.0669 39.6918 15.1699 39.8133 15.2928 39.9125C15.432 40.0006 15.5876 40.0595 15.7502 40.0858C17.228 40.4099 18.7404 40.5485 20.2525 40.4984C21.7646 40.5485 23.277 40.4099 24.7548 40.0858C24.9172 40.0607 25.0728 40.0031 25.2123 39.9164Z" fill="#E2A744"/>
</g>
</g>
<path d="M39.93 44.302C39.9611 40.8976 39.3597 37.4444 37.6467 34.4624C37.0102 33.3528 35.5853 32.3406 34.3571 33.2594C33.4403 33.9446 33.1658 35.3208 32.9945 36.3738C32.7918 37.7525 32.7298 39.1482 32.8096 40.5394C32.8622 41.6723 33.0626 42.4451 32.5429 43.5624C32.2179 44.2592 31.9959 44.3196 31.2329 44.2086C30.2908 44.0743 29.481 43.502 28.681 43.0407C28.3501 42.846 25.5666 40.6698 25.4459 40.7555C24.1694 41.6039 23.0366 42.6507 22.0901 43.8563C23.6021 46.3618 25.6927 48.4684 28.1866 49.9995C30.1935 51.255 32.5215 52.4638 34.9333 52.5592C36.0292 52.604 37.635 52.456 38.4136 51.5704C40.0818 49.6803 39.9086 46.6379 39.93 44.302Z" fill="#FF927D"/>
<g style="mix-blend-mode:multiply" opacity="0.21">
<g style="mix-blend-mode:multiply" opacity="0.21">
<path d="M32.5994 43.4513C34.0729 44.2708 35.9454 44.4245 37.5747 44.4343C38.3533 44.4343 39.1384 44.4025 39.93 44.3389V44.3116C39.9592 41.1291 39.4336 37.9017 37.9659 35.0579L32.8096 40.5198V40.5568C32.8602 41.6352 33.0451 42.3924 32.5994 43.4513Z" fill="#FF927D"/>
</g>
</g>
<path d="M36.7924 42.7017C37.4718 42.6138 38.1408 42.4586 38.7895 42.2384C38.9549 42.18 40.4479 41.4773 40.444 41.4443C40.3331 40.7571 40.1034 39.9707 40.0139 39.634C39.6894 38.396 39.3241 37.1736 38.918 35.9667C38.4294 34.5127 37.9447 33.2416 36.6094 32.6421C35.3656 32.0815 34.149 32.4202 33.3003 33.6153C32.693 34.4699 32.4613 35.7117 32.3445 36.7804C32.1499 38.5809 31.9397 40.5683 32.0058 42.3825C33.4706 42.8493 35.0232 42.9725 36.5432 42.7426L36.7924 42.7017Z" fill="#9B4471"/>
<path d="M23.6824 45.9038C22.9038 45.4406 22.458 44.5841 22.0687 43.8055C21.6093 42.8848 21.3232 41.7869 21.5918 40.7689C21.8857 39.6516 22.822 38.6842 22.7208 37.5318C22.6702 36.9479 22.3432 36.3522 22.5262 35.7916C22.7539 35.6982 22.9622 35.961 23.0556 36.1809C23.5101 37.2849 23.5665 38.5125 23.2152 39.6535C23.3262 39.2973 23.6532 38.9547 23.7992 38.5868C24.101 37.7624 24.1611 36.869 23.9724 36.0116C23.9199 35.778 23.6551 35.2914 23.9471 35.1201C24.3364 34.8904 24.714 35.8617 24.788 36.1323C25.0952 37.2382 25.0784 38.409 24.7393 39.5056C25.518 38.873 25.6464 37.7537 25.7126 36.7532C25.7379 36.3834 25.7126 36.0135 25.7321 35.6437C25.7554 35.342 25.8022 34.6529 26.1545 34.978C26.6625 35.4471 26.5438 36.1732 26.5087 36.7883C26.4508 37.5955 26.3508 38.3993 26.209 39.1961C26.7929 38.7834 26.6995 37.8024 27.2698 37.3722C27.29 37.3547 27.3135 37.3415 27.3389 37.3335C27.3644 37.3254 27.3912 37.3227 27.4178 37.3255C27.4403 37.3338 27.4607 37.3467 27.4779 37.3635C27.495 37.3803 27.5083 37.4005 27.517 37.4228C27.772 37.8919 27.5579 38.3241 27.3555 38.7465C27.081 39.3304 26.8572 39.9261 26.608 40.5139C26.4861 40.7337 26.4383 40.987 26.4718 41.2361C26.5594 41.5884 26.935 41.7714 27.2504 41.9543C27.5622 42.1374 27.8471 42.3627 28.0971 42.6239" fill="#FF927D"/>
</g>
</svg>
