<svg width="119" height="100" viewBox="0 0 119 100" fill="none" xmlns="http://www.w3.org/2000/svg">
<path d="M1.13647 79.5313C2.36343 74.3134 14.3452 74.4066 19.8438 77.6678C16.375 76.4409 10.7552 71.953 15.2995 68.9248C18.1927 66.9681 22.6158 68.3812 26.0543 72.2636C24.186 70.5528 22.5732 68.5697 21.2677 66.3779C19.1773 63.3342 18.738 57.4797 23.7216 55.0726C27.9326 53.0227 34.3249 54.6688 37.4605 59.6538C39.3855 63.1445 40.427 67.0739 40.49 71.0833C40.49 68.3502 40.5809 63.1323 46.2006 63.5516C52.0628 63.9864 50.6389 70.9902 50.7449 74.5308C50.7449 74.5308 50.5177 64.3747 56.9252 60.5545C58.3601 59.6389 59.9837 59.0794 61.6667 58.9203C63.3497 58.7613 65.0456 59.0071 66.6196 59.6382C68.343 60.18 69.7876 61.398 70.6388 63.0269C71.49 64.6559 71.6788 66.5637 71.1639 68.3346C69.937 72.4965 65.4078 76.1148 65.4078 76.1148C67.832 74.8387 70.3678 73.7989 72.9817 73.009C78.147 71.9685 86.5236 71.6579 89.841 76.1148C93.1583 80.5717 88.3262 86.8766 78.768 87.1562C72.4515 87.3425 18.738 87.5444 12.4063 87.5444C7.40759 87.5289 -0.135927 84.9821 1.13647 79.5313Z" fill="url(#paint0_linear_398_17203)"/>
<path d="M118.864 72.0927C117.712 66.5643 106.428 66.642 101.247 70.105C104.519 68.785 109.76 64.033 105.549 60.7874C102.838 58.722 98.6719 60.2128 95.4303 64.3281C97.2253 62.4894 98.7554 60.3977 99.9746 58.1164C101.929 54.9018 102.323 48.7988 97.6267 46.1277C93.6732 43.9381 87.6596 45.6929 84.6907 50.9884C82.8823 54.7705 81.9246 58.9204 81.8884 63.1323C81.8884 60.2283 81.8126 54.6844 76.5261 55.1347C70.9972 55.6006 72.3454 63.0392 72.2696 66.7972C72.2696 66.7972 72.4665 55.9267 66.4378 52.0133C65.1375 51.0522 63.6147 50.4562 62.0204 50.2846C60.4262 50.113 58.8159 50.3717 57.3492 51.035C55.6537 51.7674 54.2808 53.1145 53.4929 54.819C52.7049 56.5234 52.557 58.4658 53.0776 60.2749C54.0167 64.6231 58.3489 68.3502 58.3489 68.3502C56.0679 67.02 53.6625 65.9275 51.169 65.089C46.3066 64.002 38.4147 63.6759 35.2943 68.3968C32.1739 73.1177 36.6727 79.8419 45.7158 80.1369C51.6688 80.3233 102.247 80.5562 108.215 80.5562C112.956 80.6028 120.06 77.8852 118.864 72.0927Z" fill="url(#paint1_linear_398_17203)"/>
<path d="M64.9383 1.57369C64.9383 1.57369 71.5123 -0.227714 73.8754 4.40002C73.4404 5.47968 72.7066 6.40508 71.7644 7.06192C70.8222 7.71875 69.7129 8.07825 68.5737 8.096C68.5737 8.096 69.0433 2.55203 64.9383 1.57369Z" fill="#069FAD"/>
<path d="M76.4504 58.7678C70.3174 58.1153 64.5016 55.6494 59.7106 51.6703C54.9195 47.6911 51.3598 42.3703 49.4644 36.355C47.5691 30.3398 47.4198 23.8894 49.0348 17.7888C50.6498 11.6882 53.9595 6.20024 58.5611 1.99268C51.2974 2.33777 44.2687 4.73774 38.2538 8.92666C32.2389 13.1156 27.4726 18.9299 24.483 25.7254C21.4934 32.5209 20.3973 40.0323 21.3161 47.4272C22.2348 54.8222 25.1326 61.812 29.6884 67.6222C34.2441 73.4324 40.2799 77.8362 47.1271 80.3456C53.9742 82.8549 61.3653 83.3719 68.4814 81.8393C75.5976 80.3066 82.1609 76.7841 87.4442 71.6621C92.7275 66.5401 96.5245 60.0186 98.4145 52.8201C92.0567 57.5066 84.2363 59.6244 76.4504 58.7678Z" fill="#FFB842"/>
<path d="M50.2147 31.7011C49.1869 27.914 48.8936 23.957 49.3512 20.0541C50.2904 12.1031 55.3043 4.5248 66.0136 2.3507C66.1226 2.31691 66.218 2.24809 66.2858 2.1544C66.3536 2.06071 66.3902 1.94714 66.3902 1.83047C66.3902 1.7138 66.3536 1.60022 66.2858 1.50654C66.218 1.41285 66.1226 1.34403 66.0136 1.31024C46.8064 -4.63749 27.7507 10.7676 21.7371 25.303C27.6598 35.9717 47.9577 33.7354 50.2147 31.7011Z" fill="url(#paint2_linear_398_17203)"/>
<path d="M36.8696 40.8322H36.6121C35.0782 40.6675 33.5929 40.1847 32.2467 39.4132C30.9004 38.6416 29.7212 37.5975 28.7808 36.3442C28.716 36.2605 28.6683 36.1642 28.6408 36.0611C28.6132 35.958 28.6063 35.8502 28.6204 35.7443C28.6346 35.6383 28.6695 35.5365 28.7231 35.4447C28.7767 35.353 28.8479 35.2734 28.9323 35.2106C29.1013 35.0796 29.314 35.0224 29.524 35.0515C29.7339 35.0806 29.9242 35.1936 30.0532 35.3659C30.0532 35.3659 32.8555 39.0774 36.6727 39.2016C39.0357 39.2016 41.3685 37.9593 43.5952 35.3193C43.7376 35.1576 43.9358 35.0591 44.1479 35.0446C44.3599 35.0301 44.5692 35.1008 44.7313 35.2417C44.8106 35.3115 44.8756 35.3968 44.9225 35.4927C44.9693 35.5885 44.9971 35.693 45.0041 35.8C45.0112 35.9069 44.9974 36.0143 44.9635 36.1157C44.9297 36.2172 44.8765 36.3107 44.807 36.3908C42.3228 39.3414 39.6568 40.8322 36.8696 40.8322Z" fill="#4F4840"/>
<path d="M37.3849 40.2732H36.4609V44.9941H37.3849V40.2732Z" fill="#4F4840"/>
<path d="M38.5172 39.9822L37.6143 40.1833L38.5921 44.7966L39.495 44.5954L38.5172 39.9822Z" fill="#4F4840"/>
<path d="M39.8752 39.5875L38.9951 39.876L40.3974 44.3727L41.2776 44.0842L39.8752 39.5875Z" fill="#4F4840"/>
<path d="M41.0515 39.0533L40.2153 39.4563L42.1745 43.7286L43.0107 43.3256L41.0515 39.0533Z" fill="#4F4840"/>
<path d="M42.1632 38.3555L41.3833 38.8635L43.8528 42.8482L44.6327 42.3402L42.1632 38.3555Z" fill="#4F4840"/>
<path d="M43.2221 37.4397L42.4766 37.9993L45.1969 41.8084L45.9424 41.2488L43.2221 37.4397Z" fill="#4F4840"/>
<path d="M44.1995 36.6073L43.5015 37.228L46.5189 40.7942L47.2169 40.1735L44.1995 36.6073Z" fill="#4F4840"/>
<path d="M35.2772 39.9773L34.2993 44.5906L35.2023 44.7917L36.1801 40.1785L35.2772 39.9773Z" fill="#4F4840"/>
<path d="M33.9241 39.569L32.521 44.0654L33.4011 44.3541L34.8042 39.8576L33.9241 39.569Z" fill="#4F4840"/>
<path d="M32.7556 39.0585L30.7964 43.3308L31.6326 43.7338L33.5918 39.4615L32.7556 39.0585Z" fill="#4F4840"/>
<path d="M31.6276 38.3509L29.1602 42.3369L29.9403 42.8445L32.4077 38.8585L31.6276 38.3509Z" fill="#4F4840"/>
<path d="M30.5743 37.4577L27.854 41.2668L28.5995 41.8265L31.3199 38.0173L30.5743 37.4577Z" fill="#4F4840"/>
<path d="M29.6028 36.6054L26.5859 40.1721L27.284 40.7927L30.3009 37.226L29.6028 36.6054Z" fill="#4F4840"/>
<path d="M66.7561 56.1131C63.8753 58.4095 60.3733 59.7382 56.7283 59.9178C53.3353 59.7936 50.2754 57.5418 48.1699 55.6162C47.75 55.9922 47.2989 56.3299 46.8218 56.6256C55.365 66.7973 66.135 60.5856 69.5887 57.2623C68.5977 57.0138 67.6446 56.6271 66.7561 56.1131Z" fill="#4F4840"/>
<path d="M45.4587 57.7438C45.0428 57.7465 44.629 57.6837 44.2317 57.5575C44.1564 57.5269 44.0878 57.4811 44.03 57.4228C43.9723 57.3645 43.9265 57.2949 43.8954 57.2182C43.8643 57.1414 43.8486 57.0591 43.8491 56.976C43.8497 56.8929 43.8664 56.8108 43.8985 56.7344C43.9592 56.5783 44.0777 56.4532 44.2281 56.3863C44.3785 56.3193 44.5486 56.3161 44.7013 56.3773C44.8073 56.3773 47.3219 57.3246 49.4122 53.349C49.4953 53.21 49.6272 53.109 49.7807 53.0667C49.9343 53.0244 50.0978 53.0441 50.2376 53.1218C50.3774 53.1994 50.4829 53.3291 50.5322 53.484C50.5815 53.639 50.571 53.8074 50.5029 53.9547C48.8215 57.1693 46.7462 57.7438 45.4587 57.7438Z" fill="#4F4840"/>
<path d="M114.865 90.9765C113.608 85.0443 101.141 85.153 95.4304 88.8335C99.0356 87.4359 104.822 82.3422 100.187 78.8947C97.1573 76.674 92.613 78.2736 89.0079 82.6839C90.973 80.7147 92.6514 78.4658 93.9914 76.0063C96.1575 72.5588 96.5817 65.9433 91.4012 63.1791C87.0387 60.8497 80.3888 62.7287 77.1321 68.3814C74.0117 73.8011 74.1026 81.3639 74.1026 81.3639C74.1026 78.258 73.9966 72.3414 68.1647 72.8072C62.1057 73.3042 63.6204 81.2707 63.4841 85.2307C63.4841 85.2307 63.7113 73.6924 57.0464 69.4063C55.5914 68.3709 53.9033 67.7321 52.1411 67.55C50.3788 67.368 48.6004 67.6488 46.9732 68.3658C45.1271 69.1159 43.6215 70.547 42.7525 72.3776C41.8836 74.2082 41.7141 76.3058 42.2774 78.258C43.4286 82.9168 48.1396 86.9544 48.1396 86.9544C45.6218 85.5313 42.9733 84.3661 40.2325 83.4759C34.8551 82.2957 26.1604 81.9229 22.7067 87.001C19.253 92.0791 24.2215 99.2381 34.2189 99.5487C40.7778 99.7661 96.5968 99.9991 103.171 99.9991C108.367 100.061 116.122 97.1727 114.865 90.9765Z" fill="url(#paint3_linear_398_17203)"/>
<path d="M70.7703 32.726L61.6817 33.2229L61.5908 31.4836L67.3318 23.1133L61.7877 23.4239L61.5908 21.4983L69.8008 21.0635L69.8917 22.7562L64.1356 31.1575L70.6794 30.8159L70.7703 32.726Z" fill="#4F4840"/>
<path d="M72.9058 28.238L72.1938 26.4211L76.1171 24.8682L76.829 26.7627L72.9058 28.238Z" fill="#4F4840"/>
<path d="M80.4948 28.7194L79.6465 27.3062L80.2524 20.287L77.0411 22.3368L76.1777 20.8926L81.5248 17.4917L82.3882 18.9204L81.7823 25.9086L85.5995 23.4705L86.4781 24.9302L80.4948 28.7194Z" fill="#4F4840"/>
<path d="M86.7355 20.287L85.2207 18.9981L87.917 15.6748L89.4317 16.9637L86.7355 20.287Z" fill="#4F4840"/>
<path d="M93.6277 16.2806L92.1129 15.5818L88.9319 9.33901L87.3414 12.8797L85.8267 12.1653L88.4926 6.31079L90.0074 7.02514L93.2338 13.2369L95.1121 9.02842L96.6269 9.7583L93.6277 16.2806Z" fill="#4F4840"/>
<path d="M18.8744 17.9733L16.0266 14.4637L11.6035 14.8674L13.9817 11.0161L12.2397 6.82323L16.5416 7.95687L19.8893 4.95972L20.1771 9.50981L23.9943 11.8547L19.859 13.5319L18.8744 17.9733Z" fill="#FFB842"/>
<path d="M98.5813 37.9283L96.294 33.549L91.4619 32.99L94.8247 29.4027L93.8401 24.5265L98.2177 26.7006L102.429 24.2314L101.777 29.1698L105.367 32.5241L100.581 33.4093L98.5813 37.9283Z" fill="#FFB842"/>
<path d="M77.9501 47.4634L75.7234 44.342L71.9517 44.4507L74.1632 41.3137L72.906 37.6644L76.4959 38.8446L79.48 36.4841L79.4952 40.3665L82.6156 42.5406L79.0256 43.7518L77.9501 47.4634Z" fill="#FFB842"/>
<defs>
<linearGradient id="paint0_linear_398_17203" x1="90.8846" y1="87.5444" x2="-24.6087" y2="63.4431" gradientUnits="userSpaceOnUse">
<stop stop-color="#92A3FD"/>
<stop offset="1" stop-color="#9DCEFF"/>
</linearGradient>
<linearGradient id="paint1_linear_398_17203" x1="118.997" y1="80.5568" x2="9.22045" y2="60.2055" gradientUnits="userSpaceOnUse">
<stop stop-color="#92A3FD"/>
<stop offset="1" stop-color="#9DCEFF"/>
</linearGradient>
<linearGradient id="paint2_linear_398_17203" x1="66.3902" y1="33.4018" x2="7.1544" y2="27.2741" gradientUnits="userSpaceOnUse">
<stop stop-color="#C58BF2"/>
<stop offset="1" stop-color="#EEA4CE"/>
</linearGradient>
<linearGradient id="paint3_linear_398_17203" x1="115.001" y1="100" x2="-5.79525" y2="76.9054" gradientUnits="userSpaceOnUse">
<stop stop-color="#C58BF2"/>
<stop offset="1" stop-color="#EEA4CE"/>
</linearGradient>
</defs>
</svg>
