<svg width="16" height="16" viewBox="0 0 16 16" fill="none" xmlns="http://www.w3.org/2000/svg">
<path d="M7.99999 8.66683C8.36818 8.66683 8.66666 8.36835 8.66666 8.00016C8.66666 7.63197 8.36818 7.3335 7.99999 7.3335C7.63181 7.3335 7.33333 7.63197 7.33333 8.00016C7.33333 8.36835 7.63181 8.66683 7.99999 8.66683Z" stroke="#1D1617" stroke-width="2" stroke-linecap="round" stroke-linejoin="round"/>
<path d="M7.99999 3.99984C8.36818 3.99984 8.66666 3.70136 8.66666 3.33317C8.66666 2.96498 8.36818 2.6665 7.99999 2.6665C7.63181 2.6665 7.33333 2.96498 7.33333 3.33317C7.33333 3.70136 7.63181 3.99984 7.99999 3.99984Z" stroke="#1D1617" stroke-width="2" stroke-linecap="round" stroke-linejoin="round"/>
<path d="M7.99999 13.3333C8.36818 13.3333 8.66666 13.0349 8.66666 12.6667C8.66666 12.2985 8.36818 12 7.99999 12C7.63181 12 7.33333 12.2985 7.33333 12.6667C7.33333 13.0349 7.63181 13.3333 7.99999 13.3333Z" stroke="#1D1617" stroke-width="2" stroke-linecap="round" stroke-linejoin="round"/>
</svg>
