<svg width="230" height="272" viewBox="0 0 230 272" fill="none" xmlns="http://www.w3.org/2000/svg">
<path d="M229.217 216.222C229.028 219.848 228.379 227.293 223.489 227.293H223.245C222.636 227.236 222.041 227.067 221.489 226.794C221.235 226.677 220.991 226.539 220.76 226.379C219.617 225.422 218.731 224.184 218.182 222.78C217.634 221.376 217.443 219.853 217.625 218.353C217.654 217.423 217.563 216.492 217.355 215.586C217.276 215.154 217.167 214.729 217.031 214.313C217.019 214.23 217.019 214.146 217.031 214.063C216.815 213.565 216.626 213.178 216.436 212.818C216.326 212.596 216.2 212.383 216.058 212.182C216.077 212.128 216.077 212.069 216.058 212.015C215.984 211.884 215.893 211.763 215.788 211.656C215.5 211.255 215.174 210.884 214.815 210.549L214.653 210.383C214.248 210.023 213.87 209.663 213.491 209.359C212.059 208.113 210.789 207.255 210.952 205.678C211.168 201.969 213.653 197.181 217.085 198.233C217.085 198.233 217.95 193.805 215.572 192.698C214.059 191.923 215.572 191.508 216.49 191.425C218.058 191.286 219.625 191.923 221.3 191.784C221.404 191.687 221.512 191.594 221.624 191.508C222.287 191.411 222.961 191.411 223.624 191.508H223.786C224.505 191.666 225.175 192 225.74 192.482C226.305 192.964 226.747 193.579 227.028 194.275C227.495 195.683 227.733 197.161 227.731 198.648C228.001 204.654 229.541 210.161 229.217 216.222Z" fill="#3B2645"/>
<path d="M219.138 208.113C218.922 208.694 218.463 208.944 217.976 209.276C217.415 209.679 216.882 210.123 216.382 210.604C216.099 210.907 215.837 211.231 215.599 211.573C215.31 211.172 214.985 210.802 214.626 210.466L214.464 210.3C214.647 210.039 214.846 209.789 215.058 209.552C215.869 208.639 217.463 206.951 218.76 207.366C218.905 207.417 219.025 207.523 219.095 207.662C219.166 207.801 219.181 207.963 219.138 208.113Z" fill="#E8CEE5"/>
<path d="M220.381 211.324C219.322 212.351 218.173 213.278 216.95 214.091C216.733 213.593 216.544 213.206 216.355 212.846C217.286 211.705 218.576 210.932 220.003 210.659C220.076 210.666 220.147 210.69 220.209 210.731C220.271 210.771 220.323 210.826 220.36 210.891C220.397 210.956 220.418 211.029 220.422 211.105C220.426 211.18 220.412 211.255 220.381 211.324Z" fill="#E8CEE5"/>
<path d="M229.216 216.222C229.027 219.848 228.379 227.293 223.488 227.293H223.245C222.635 227.236 222.04 227.067 221.489 226.794C228.703 224.027 227.109 214.285 226.433 207.421C226.369 202.019 225.522 196.656 223.92 191.508C224.616 191.681 225.262 192.023 225.802 192.505C226.343 192.986 226.763 193.593 227.028 194.275C227.495 195.683 227.732 197.161 227.73 198.648C228 204.654 229.54 210.161 229.216 216.222Z" fill="#E8CEE5"/>
<path d="M83.8246 69.1527C83.8246 69.1527 83.0951 72.4461 81.8792 77.4554C79.3752 88.1347 76.069 98.5997 71.9901 108.757C70.8756 111.457 69.4516 114.012 67.748 116.368C60.1555 126.22 29.6234 103.665 25.7326 100.731C25.476 100.528 25.1646 100.412 24.841 100.399C22.6794 100.399 14.0332 99.9283 14.2223 93.8119C14.3844 87.142 18.8697 78.7562 28.6777 88.2767C34.7301 94.1163 56.1026 101.367 56.1026 101.367L63.0466 55.2594C63.1341 54.6917 63.3713 54.1592 63.7326 53.7195C64.0939 53.2797 64.5656 52.9495 65.0968 52.7643C65.628 52.5791 66.1985 52.5461 66.7467 52.6688C67.2949 52.7915 67.7999 53.0652 68.2073 53.4605C72.0171 57.086 77.9074 62.9256 83.8246 69.1527Z" fill="#FFEDE5"/>
<path d="M81.8516 77.3448C79.3617 88.0609 76.0645 98.563 71.9894 108.757C71.8543 95.4725 71.5571 77.1788 71.5571 77.1788C73.1574 76.3486 74.9308 75.9299 76.7244 75.9588C78.5179 75.9877 80.2777 76.4634 81.8516 77.3448Z" fill="#E0855C"/>
<path d="M106.196 150.132C100.549 154.229 94.2538 158.186 87.9853 162.088C84.9861 163.943 82.122 165.797 79.4201 167.624C71.4583 173.04 63.7913 178.897 56.4535 185.17C59.6148 189.045 62.9111 197.956 65.8833 208.086C71.8546 228.455 76.6911 253.834 76.6911 253.834C71.2872 258.899 66.7209 256.602 66.7209 256.602C62.4788 248.299 53.3462 230.337 45.6457 213.815C38.4314 198.455 32.4871 184.146 33.0816 179.607C33.676 175.068 45.3484 161.95 57.3991 149.33C70.9089 135.492 84.7429 122.152 84.7429 122.152C89.9266 116.462 95.8018 111.476 102.225 107.318C108.682 103.416 115.734 101.174 121.138 104.827C123.892 106.815 125.963 109.644 127.056 112.908C127.255 113.387 127.426 113.876 127.569 114.375C131.703 127.853 121.003 139.477 106.196 150.132Z" fill="#FFEDE5"/>
<path d="M215.599 205.014C200.738 205.733 185.31 207.477 172.8 208.473C161.992 209.359 153.454 209.746 149.347 208.473C141.241 206.093 128.299 186.664 119.625 172.494C114.519 164.026 110.844 157.411 110.844 157.411C110.844 157.411 108.71 154.644 106.116 150.132C99.2797 138.425 89.3095 116.036 108.818 109.975C117.194 107.373 122.868 109.31 127.38 114.375C133.432 121.156 137.404 133.527 143.051 148.333L158.588 187.882C163.162 186.903 167.831 186.467 172.503 186.581C187.342 187.17 202.092 189.228 216.545 192.726C221.192 198.648 215.599 205.014 215.599 205.014Z" fill="#FFEDE5"/>
<path d="M78.1773 25.8954C83.8784 24.2902 89.5525 22.5743 95.1726 20.6923C98.4689 19.5853 102.09 19.5299 103.278 15.6276C103.729 14.0123 103.815 12.3132 103.529 10.6589C103.244 9.00458 102.594 7.43856 101.63 6.07944C99.7533 3.66089 97.1194 1.97957 94.1728 1.31919C91.2423 0.682665 88.214 0.682665 85.2834 1.31919C83.1689 1.59303 81.1346 2.32137 79.314 3.45649C77.4934 4.59161 75.9275 6.10791 74.7188 7.90605C73.4262 10.5491 72.9189 13.5225 73.2597 16.4579C73.4874 19.0317 74.3421 21.5059 75.7455 23.6536C75.9346 23.9581 77.2046 26.6149 77.853 26.4212C78.0422 26.3105 78.1502 25.923 78.1773 25.8954Z" fill="#3B2645"/>
<path d="M76.6643 21.2735C76.3253 20.9628 75.9195 20.7384 75.4798 20.6186C75.0402 20.4988 74.5791 20.4869 74.1342 20.584C73.6892 20.6811 73.2729 20.8844 72.9191 21.1773C72.5653 21.4702 72.284 21.8446 72.098 22.2698C70.3958 25.5909 75.4214 30.1298 78.4206 29.7146C78.0091 26.8659 77.4225 24.0466 76.6643 21.2735Z" fill="#E0855C"/>
<path d="M126.11 44.5766C124.433 53.7917 123.484 63.1303 123.273 72.5016C123.273 73.4149 123.273 74.2175 123.273 75.0201C123.624 80.8043 126.515 108.065 127.056 112.355C127.056 112.715 127.056 112.908 127.056 112.908C108.871 122.595 87.8503 122.18 85.1754 122.152H84.8781C84.7817 121.758 84.6644 121.37 84.5269 120.99C82.9057 115.98 76.6372 95.3618 71.5845 77.1788C71.5845 76.902 71.4224 76.6529 71.3413 76.3485C68.6394 66.9941 64.8296 59.743 63.8029 54.4015C63.4246 52.3812 69.6391 50.0564 72.6653 48.8664C73.0976 48.6726 73.5569 48.5342 74.0433 48.3682C76.421 47.5102 78.8798 46.7907 80.8522 46.2648L84.9322 45.2962L83.6623 34.2258H84.743C85.4224 34.1961 86.0993 34.1221 86.7695 34.0044C87.6005 33.8655 88.4219 33.6714 89.2283 33.4232L90.3631 33.0634L91.8492 32.4269C92.6411 32.0861 93.4086 31.6884 94.1458 31.2368C94.3123 31.163 94.4747 31.0799 94.6322 30.9877C94.6568 31.0023 94.6848 31.01 94.7132 31.01C94.7417 31.01 94.7697 31.0023 94.7943 30.9877L95.3077 30.6556C96.2146 30.0448 97.0647 29.35 97.8475 28.5799C98.2798 28.1648 98.6581 27.805 98.9553 27.4729L99.1444 27.2515C99.2865 27.119 99.4134 26.9705 99.5227 26.8087C99.627 26.711 99.7179 26.5992 99.7929 26.4766V26.7256C99.7929 26.8917 99.7929 27.0578 99.7929 27.2515C99.7929 29.0781 100.171 31.3752 100.549 33.6723C100.766 35.2498 101.009 36.7997 101.252 38.1558C101.684 40.4806 102.036 42.1688 102.036 42.1688C102.525 42.0474 103.021 41.955 103.522 41.892H103.684H104.494C106.401 41.6018 108.323 41.4262 110.249 41.3662C111.06 41.3662 111.844 41.3662 112.6 41.3662C116.877 41.4346 121.12 42.1528 125.191 43.4972C125.438 43.5506 125.661 43.6848 125.827 43.8796C125.993 44.0743 126.092 44.3189 126.11 44.5766Z" fill="#FFEDE5"/>
<path d="M100.036 26.3658C100.089 28.3886 99.7025 30.3982 98.9053 32.2496C98.108 34.1009 96.9195 35.748 95.4254 37.0718C93.9313 38.3956 92.169 39.3633 90.2656 39.9049C88.3622 40.4465 86.3651 40.5486 84.4185 40.2038L83.77 34.4749C86.8922 34.407 89.963 33.647 92.7709 32.2471C95.5789 30.8472 98.0574 28.8408 100.036 26.3658Z" fill="#E0855C"/>
<path d="M75.5026 13.0262C74.3137 14.9911 74.9622 18.5613 75.6647 22.685C77.8263 34.9454 82.1494 37.9621 88.3639 37.2979C94.5784 36.6337 100.415 32.8698 99.3609 21.3012C98.8475 15.517 98.4692 10.2309 95.9564 8.15521C92.2007 5.16621 79.1232 7.04817 75.5026 13.0262Z" fill="#FFEDE5"/>
<path d="M98.1989 19.9174C98.1989 19.9174 98.9824 14.3822 102.468 16.4856C105.953 18.589 103.495 27.0301 98.9014 27.5559C98.9014 27.3899 97.1181 21.8824 98.1989 19.9174Z" fill="#FFEDE5"/>
<path d="M80.8249 21.2459C80.8249 21.2459 79.8793 21.8824 79.6361 19.9728C79.3929 18.0631 80.2035 18.3399 80.2035 18.3399C80.2035 18.3399 80.906 18.1738 81.1222 19.6683C81.3383 21.1628 80.8249 21.2459 80.8249 21.2459Z" fill="#3B2645"/>
<path d="M91.2278 18.9764C91.2278 18.9764 90.2821 19.5853 90.0389 17.7034C89.7957 15.8214 90.6063 16.0705 90.6063 16.0705C90.6063 16.0705 91.3088 15.9044 91.525 17.3989C91.7411 18.8934 91.2278 18.9764 91.2278 18.9764Z" fill="#3B2645"/>
<path d="M86.5264 25.2034C86.013 25.2034 84.8782 25.8123 84.4999 25.2034C84.3374 23.8895 84.3374 22.5598 84.4999 21.2458C84.6438 19.4879 84.6889 17.7229 84.635 15.9597C84.635 15.9597 84.4729 15.9597 84.4458 15.9597C83.9769 19.1932 83.7691 22.4608 83.8244 25.7293C83.817 25.7725 83.8208 25.817 83.8355 25.8582C83.8502 25.8994 83.8753 25.9359 83.9082 25.9639C83.9411 25.992 83.9807 26.0107 84.0229 26.0181C84.0651 26.0255 84.1085 26.0213 84.1486 26.0061C84.9052 25.84 85.6887 25.84 86.4453 25.6739C86.7966 25.6186 86.7965 25.1758 86.5264 25.2034Z" fill="#E0855C"/>
<path d="M80.7708 15.3509C79.9331 15.1294 78.5551 15.3509 78.0688 16.2365C78.0498 16.2763 78.0429 16.321 78.049 16.3649C78.0552 16.4088 78.074 16.4498 78.1031 16.4826C78.1322 16.5154 78.1702 16.5384 78.2123 16.5488C78.2544 16.5592 78.2985 16.5565 78.339 16.5409C78.6902 16.5409 78.9875 16.1811 79.3387 16.0704C79.7309 15.9876 80.1354 15.9876 80.5276 16.0704C80.6207 16.1035 80.7229 16.0972 80.8116 16.0531C80.9002 16.009 80.9682 15.9306 81.0004 15.8352C81.0327 15.7398 81.0266 15.6351 80.9835 15.5443C80.9404 15.4535 80.8639 15.3839 80.7708 15.3509Z" fill="#3B2645"/>
<path d="M91.768 13.9117C91.5552 13.7062 91.3044 13.5465 91.0303 13.4419C90.7563 13.3374 90.4645 13.2902 90.1724 13.3031C89.8802 13.316 89.5935 13.3888 89.3292 13.5171C89.065 13.6454 88.8285 13.8266 88.6337 14.0501C88.6064 14.0978 88.5911 14.1518 88.5893 14.2071C88.5875 14.2624 88.5992 14.3173 88.6233 14.3668C88.6475 14.4163 88.6834 14.4588 88.7276 14.4905C88.7719 14.5222 88.8232 14.542 88.8769 14.5483C89.3527 14.4867 89.8226 14.3849 90.2819 14.2438C90.6763 14.1877 91.0764 14.1877 91.4708 14.2438C91.687 14.3822 91.9301 14.1054 91.768 13.9117Z" fill="#3B2645"/>
<path d="M89.7959 27.1685C88.6341 27.7773 88.0126 28.6906 86.6346 28.9397C85.9615 29.1203 85.2543 29.1203 84.5811 28.9397C84.2029 28.9397 84.2029 28.746 83.8246 28.7737C83.7968 28.7765 83.7699 28.7856 83.746 28.8004C83.722 28.8151 83.7016 28.8351 83.6861 28.859C83.6706 28.8828 83.6604 28.9098 83.6563 28.9381C83.6522 28.9665 83.6543 28.9953 83.6625 29.0227C83.9867 30.2128 85.824 30.0191 86.7157 29.8807C87.4203 29.8022 88.0959 29.5497 88.6842 29.1447C89.2725 28.7398 89.756 28.1946 90.0931 27.5559C90.1742 27.3345 89.985 27.0854 89.7959 27.1685Z" fill="#E0855C"/>
<path d="M147.32 158.905C146.509 159.514 145.753 160.096 144.969 160.621C144.186 161.147 143.726 161.507 143.105 161.922C136.017 166.947 128.057 170.535 119.652 172.494C114.518 164.025 110.844 157.411 110.844 157.411C110.844 157.411 108.709 154.643 106.115 150.132C100.468 154.228 94.1726 158.186 87.9041 162.088C84.9049 163.942 82.0408 165.797 79.3389 167.623C76.772 166.046 74.4483 164.468 72.3408 162.946C66.816 159.086 61.8027 154.509 57.426 149.33C70.9358 135.492 84.7698 122.152 84.7698 122.152C89.9535 116.462 95.8287 111.476 102.251 107.318C108.331 105.206 114.762 104.359 121.165 104.827C123.909 106.819 125.97 109.647 127.055 112.908C127.255 113.386 127.426 113.876 127.569 114.375C133.621 121.156 137.593 133.527 143.24 148.333C144.672 152.042 145.969 155.529 147.32 158.905Z" fill="#AB8DA8"/>
<path d="M76.6375 253.834C71.2336 258.898 66.6673 256.601 66.6673 256.601C62.4252 248.298 53.2926 230.337 45.592 213.814C52.5393 212.681 59.344 210.769 65.8837 208.113C71.855 228.455 76.6375 253.834 76.6375 253.834Z" fill="#E8CEE5"/>
<path d="M79.4743 257.542C79.5152 257.799 79.5152 258.061 79.4743 258.317C79.2846 259.538 78.6586 260.643 77.718 261.417C76.5375 262.294 75.235 262.984 73.8542 263.465C68.4503 265.707 63.83 269 58.1019 270.467C54.6974 271.38 47.6453 273.041 46.0782 268.281C46.0726 268.198 46.0726 268.114 46.0782 268.031C46.0146 267.545 46.0146 267.051 46.0782 266.565C46.1057 266.154 46.169 265.746 46.2673 265.347C46.7807 263.52 48.3748 261.251 52.752 259.812C53.6228 259.539 54.4576 259.158 55.2378 258.677C55.6027 258.469 55.9546 258.238 56.2915 257.985L56.5077 257.791C56.9081 257.467 57.2789 257.105 57.6155 256.712L57.9668 256.297L58.1019 256.131L58.4801 255.522C58.6954 255.187 58.8851 254.835 59.0475 254.47C59.3448 253.834 59.5609 253.308 59.75 252.837C60.4255 251.066 60.8849 249.627 62.452 249.24C65.9645 248.299 71.1523 249.24 71.2874 252.893C71.2874 252.893 75.6646 252.367 76.0158 249.682C76.259 247.966 77.1506 249.295 77.5019 250.18C78.0963 251.675 78.0153 253.391 78.6637 254.941C78.6637 255.162 78.8529 255.328 78.9339 255.55C79.258 256.155 79.486 256.809 79.6094 257.487C79.5675 257.513 79.5219 257.531 79.4743 257.542Z" fill="#3B2645"/>
<path d="M215.599 205.014C200.738 205.733 185.31 207.477 172.8 208.473C173.705 203.923 174.041 199.273 173.8 194.635C173.761 191.885 173.38 189.15 172.665 186.499C187.504 187.087 202.254 189.145 216.707 192.643C221.192 198.648 215.599 205.014 215.599 205.014Z" fill="#E8CEE5"/>
<path d="M60.2633 262.053C59.0744 260.78 57.9937 259.424 56.7508 258.179L56.3455 257.791C56.7459 257.467 57.1167 257.105 57.4533 256.712C57.6154 256.878 57.7505 257.044 57.9126 257.182C59.1546 258.367 60.2688 259.684 61.236 261.112C61.6413 261.749 60.8037 262.635 60.2633 262.053Z" fill="#E8CEE5"/>
<path d="M63.4246 258.373C63.4665 258.48 63.4762 258.597 63.4525 258.71C63.4288 258.823 63.3728 258.927 63.2916 259.007C63.2104 259.087 63.1077 259.141 62.9966 259.161C62.8856 259.181 62.7712 259.167 62.668 259.12C61.4702 258.305 60.3486 257.379 59.3176 256.352C59.0011 256.072 58.6671 255.813 58.3179 255.577C58.5331 255.242 58.7228 254.891 58.8853 254.526C59.2863 254.686 59.6601 254.91 59.9931 255.19C61.4012 255.907 62.5887 257.008 63.4246 258.373Z" fill="#E8CEE5"/>
<path d="M79.4475 258.317C79.2577 259.538 78.6318 260.643 77.6912 261.417C76.5106 262.294 75.2082 262.984 73.8274 263.465C68.4235 265.707 63.8031 269 58.075 270.467C54.6705 271.38 47.6184 273.041 46.0513 268.281C46.0458 268.198 46.0458 268.114 46.0513 268.031C45.9878 267.545 45.9878 267.051 46.0513 266.565C52.8332 271.242 59.3449 266.98 66.2349 264.71C71.2605 263.022 76.3402 262.026 79.4475 258.317Z" fill="#E8CEE5"/>
<path d="M144.97 160.621C144.348 161.092 143.727 161.507 143.105 161.922C136.513 145.676 130.541 128.96 121.787 114.015C121.328 113.24 122.381 112.41 122.922 113.185C128.326 120.796 131.649 130.206 135.459 138.758C138.701 145.898 141.997 153.232 144.97 160.621Z" fill="#E8CEE5"/>
<path d="M106.197 150.132C100.549 154.228 94.2539 158.186 87.9854 162.088C84.9862 163.943 82.1221 165.797 79.4202 167.624C76.8533 166.046 74.5296 164.469 72.4221 162.946C91.7681 151.655 105.818 150.16 106.197 150.132Z" fill="#826B80"/>
<path d="M127.055 112.908C108.871 122.595 87.85 122.235 85.1751 122.152H84.8778L84.5266 121.073C82.9054 116.063 76.6369 95.4448 71.5842 77.2617C74.2862 67.9626 74.2862 53.5435 74.043 48.5342C76.4207 47.6762 78.8795 46.9567 80.8519 46.4308C80.987 51.3018 82.2569 63.4515 91.3896 63.7836C102.197 64.1711 104.278 48.5065 104.656 41.6429C106.563 41.3527 108.485 41.1771 110.411 41.1171C111.222 41.1171 112.005 41.1171 112.762 41.1171C112.198 45.7255 112.353 50.3965 113.221 54.955C114.656 62.5655 118.159 69.6067 123.327 75.2691C123.489 78.2027 124.272 86.5055 125.083 94.6422C125.894 102.779 127.055 112.908 127.055 112.908Z" fill="#3B2645"/>
<path d="M123.353 75.269C123.353 78.0366 124.272 86.3394 125.083 94.6421C117.075 83.0994 112.906 69.223 113.194 55.0657C114.656 62.6399 118.167 69.6406 123.326 75.269H123.353Z" fill="#291B30"/>
<path d="M31.704 91.4872C30.6502 95.3895 28.7588 98.9043 27.624 102.724C27.0296 104.716 29.7856 105.491 30.8934 104.273C33.5691 100.757 35.4182 96.6564 36.2973 92.2898C36.9728 89.3839 32.4875 88.6089 31.704 91.4872Z" fill="#AB8DA8"/>
<path d="M79.366 40.4806C80.0145 41.3939 80.6899 42.2242 81.3654 43.0821C81.6229 43.3768 81.8577 43.6914 82.0679 44.0231C86.1749 49.8904 86.8774 56.6433 88.9309 63.1471L89.6604 61.9847C89.066 59.4385 88.5526 56.8924 87.8771 54.4015C88.5077 50.5252 90.0571 46.8666 92.3894 43.7463C94.2149 41.8949 95.8701 39.8753 97.334 37.713C98.5533 35.3884 99.2633 32.8195 99.4145 30.1852C99.4697 27.6196 99.9541 25.0828 100.847 22.685C100.946 22.4838 101.019 22.2697 101.063 22.0485C101.071 21.7638 101.012 21.4813 100.89 21.2256C100.767 20.9699 100.585 20.7488 100.36 20.5817C100.191 20.4344 99.9852 20.3385 99.7657 20.3049C99.6522 20.2912 99.5373 20.3129 99.4361 20.3673C99.3348 20.4216 99.252 20.506 99.1983 20.6093C99.1706 20.7556 99.1706 20.9059 99.1983 21.0521C99.2565 22.6717 99.1661 24.2932 98.9281 25.8954C98.766 27.5836 98.685 29.2995 98.4958 31.0154C98.0287 34.9517 96.243 38.6002 93.4432 41.3385C90.2508 44.4927 88.1617 48.6362 87.4989 53.1284C86.8624 50.8023 85.9553 48.5629 84.7969 46.4586C83.2028 43.691 81.0412 41.2555 79.393 38.5433C78.1992 36.654 77.365 34.5506 76.9342 32.3439C76.6358 31.3293 76.4811 30.2761 76.4749 29.2165C76.4749 28.1648 76.9612 26.0615 76.3128 25.1758C75.3131 23.7921 74.9348 25.3973 75.0699 26.3659C75.3941 28.4693 75.3671 30.6003 75.7994 32.676C76.3912 35.19 77.4259 37.5722 78.8526 39.7057L79.366 40.4806Z" fill="#AB8DA8"/>
<path d="M101.576 93.9502C99.9006 95.9428 100.225 99.4854 100.279 101.81C100.545 103.837 100.662 105.882 100.63 107.926C100.618 108.81 100.415 109.68 100.037 110.474C99.6586 111.268 99.1139 111.967 98.4416 112.521C97.9146 112.769 97.3457 112.91 96.7664 112.936C96.2587 113.046 95.734 113.046 95.2263 112.936C94.5032 112.625 93.8837 112.106 93.443 111.441C91.5516 109.006 91.9299 106.847 91.7948 103.941C91.7808 102.707 91.5167 101.489 91.019 100.364C90.5213 99.24 89.801 98.2339 88.9037 97.4097C83.9591 92.0959 86.553 87.5571 88.0391 81.6068C89.9575 73.9129 90.741 64.0326 87.4446 56.6985C88.1423 61.4733 88.5305 66.2902 88.6065 71.1176C88.1999 76.3454 87.1747 81.5033 85.5533 86.4777C84.9914 87.8637 84.7021 89.3497 84.7021 90.8505C84.7021 92.3513 84.9914 93.8373 85.5533 95.2233C86.1538 96.2454 86.8904 97.1769 87.7419 97.9909C90.4438 100.758 90.4438 103.36 90.741 107.152C91.0382 110.943 94.9831 116.34 99.3332 113.157C100.167 112.395 100.811 111.44 101.21 110.371C101.61 109.302 101.754 108.151 101.63 107.013C101.63 105.021 101.225 103.056 101.117 101.063C100.945 99.3822 101.018 97.6847 101.333 96.0259C101.415 95.6948 101.563 95.3842 101.765 95.1126C102.178 94.6538 102.73 94.3515 103.332 94.2546C103.638 94.117 103.972 94.0599 104.305 94.0886C104.733 94.1373 105.133 94.3323 105.44 94.6421C106.19 95.5473 106.8 96.5646 107.25 97.6587C107.25 97.9078 107.439 98.4337 107.709 98.5444C107.979 98.6551 108.412 98.406 108.331 98.0462C107.655 95.2786 104.737 90.2416 101.576 93.9502Z" fill="#AB8DA8"/>
<path d="M112.076 95.2806L105.982 98.329C104.534 99.0535 103.933 100.843 104.641 102.327L112.075 117.919C112.782 119.402 114.53 120.018 115.978 119.293L122.072 116.245C123.52 115.52 124.121 113.731 123.413 112.247L115.979 96.6547C115.272 95.1714 113.524 94.5561 112.076 95.2806Z" fill="#E8CEE5"/>
<path d="M124.111 43.2758C124.536 43.1844 124.977 43.1996 125.396 43.32C125.814 43.4405 126.198 43.6627 126.515 43.9677C131.919 49.1984 157.777 75.3798 160.074 86.7823C162.478 98.7106 127.191 107.871 122.652 108.923C122.343 108.994 122.067 109.17 121.868 109.421C120.517 111.026 114.843 117.253 110.493 113.379C106.143 109.504 102.387 100.482 115.437 98.9043C123.408 97.9357 141.943 86.2011 141.943 86.2011L119.679 68.7376C119.679 68.7376 112.438 45.905 124.111 43.2758Z" fill="#FFEDE5"/>
<path d="M152.859 187.937C142.24 187.301 131.487 187.937 120.868 187.937C110.249 187.937 99.4685 187.522 88.8769 188.297C88.8292 188.314 88.7878 188.346 88.7586 188.388C88.7293 188.43 88.7136 188.481 88.7136 188.532C88.7136 188.584 88.7293 188.635 88.7586 188.677C88.7878 188.719 88.8292 188.751 88.8769 188.768C99.4685 189.543 110.249 189.072 120.868 189.1C131.487 189.128 142.24 189.709 152.859 189.1C153.01 189.1 153.154 189.039 153.26 188.93C153.367 188.821 153.427 188.673 153.427 188.519C153.427 188.364 153.367 188.217 153.26 188.108C153.154 187.999 153.01 187.937 152.859 187.937Z" fill="#F7F8F8"/>
<path d="M229.433 144.071C217.679 143.435 205.818 143.877 194.064 143.877C182.311 143.877 170.368 143.13 158.695 144.21C158.581 144.21 158.471 144.256 158.39 144.339C158.309 144.422 158.263 144.535 158.263 144.652C158.263 144.77 158.309 144.882 158.39 144.965C158.471 145.049 158.581 145.095 158.695 145.095C170.368 146.147 182.365 145.372 194.064 145.4C205.764 145.427 217.679 145.842 229.433 145.234C229.583 145.234 229.727 145.172 229.834 145.063C229.94 144.954 230 144.806 230 144.652C230 144.498 229.94 144.35 229.834 144.241C229.727 144.132 229.583 144.071 229.433 144.071Z" fill="#F7F8F8"/>
<path d="M49.2393 128.434C41.2686 127.936 33.1627 128.296 25.1649 128.434C17.1305 128.093 9.0835 128.222 1.06349 128.822C0.998994 128.822 0.937141 128.848 0.891537 128.895C0.845933 128.942 0.820313 129.005 0.820312 129.071C0.820313 129.137 0.845933 129.2 0.891537 129.247C0.937141 129.294 0.998994 129.32 1.06349 129.32C9.0841 129.906 17.1303 130.035 25.1649 129.708C33.2708 129.708 41.3766 130.067 49.2393 129.708C49.4041 129.708 49.5622 129.64 49.6788 129.521C49.7953 129.402 49.8608 129.24 49.8608 129.071C49.8608 128.902 49.7953 128.74 49.6788 128.621C49.5622 128.502 49.4041 128.434 49.2393 128.434Z" fill="#F7F8F8"/>
<path d="M57.345 134.496C48.7918 133.692 40.1801 133.804 31.6494 134.828C31.6494 134.828 31.6494 135.077 31.6494 135.104C40.1819 136.105 48.7922 136.207 57.345 135.409C57.4446 135.384 57.533 135.325 57.5962 135.242C57.6594 135.159 57.6937 135.057 57.6937 134.952C57.6937 134.847 57.6594 134.745 57.5962 134.662C57.533 134.58 57.4446 134.521 57.345 134.496Z" fill="#F7F8F8"/>
<path d="M198.333 25.4525C187.201 24.8159 175.934 25.2588 164.775 25.2864C153.616 25.3141 142.348 24.899 131.216 25.7016C131.13 25.7016 131.048 25.7366 130.987 25.7988C130.926 25.8611 130.892 25.9456 130.892 26.0337C130.892 26.1218 130.926 26.2062 130.987 26.2685C131.048 26.3308 131.13 26.3658 131.216 26.3658C142.348 27.1684 153.643 26.7809 164.775 26.8086C175.907 26.8363 187.201 27.2791 198.333 26.6425C198.466 26.6131 198.584 26.538 198.67 26.4297C198.755 26.3214 198.801 26.1866 198.801 26.0475C198.801 25.9085 198.755 25.7736 198.67 25.6653C198.584 25.5571 198.466 25.482 198.333 25.4525Z" fill="#F7F8F8"/>
</svg>
