<svg width="184" height="298" viewBox="0 0 184 298" fill="none" xmlns="http://www.w3.org/2000/svg">
<path d="M95.8259 123.645C95.6462 127.299 95.1843 131.531 94.5171 136.21C93.311 144.463 91.4634 153.873 89.3847 163.021C84.8169 183.996 79.3766 203.342 79.3766 203.342C78.911 215.698 77.5298 228 75.245 240.142C75.014 241.482 74.7831 242.77 74.5265 244.084C73.7566 248.316 72.9354 252.391 72.1656 256.149C69.3171 269.502 66.7252 279.149 66.7252 279.149L54.2279 276.941C53.6376 269.686 53.4067 262.747 53.4323 256.255C53.4323 252.207 53.4323 248.369 53.689 244.636C53.689 242.691 53.8942 240.799 54.0226 238.985C55.4853 216.853 59.1549 202.186 59.1549 199.268C59.1549 184.469 60.1044 171.563 61.2592 160.55C64.4926 130.19 70.2153 114.367 70.2153 114.367C78.2988 95.336 90.4112 96.6503 94.4145 110.66C95.5719 114.881 96.0486 119.267 95.8259 123.645Z" fill="#FFEDE5"/>
<path d="M135.576 260.303C135.576 265.56 135.268 271.106 134.806 276.836L122.308 279.281C122.308 279.281 120.101 271.001 117.51 259.12C116.56 254.757 115.559 249.92 114.61 244.821C114.353 243.375 114.071 241.877 113.814 240.405C111.516 228.176 110.126 215.786 109.657 203.342C109.657 203.342 104.165 183.812 99.5462 162.732C97.5446 153.69 95.697 144.332 94.4139 136.157C93.721 131.505 93.2847 127.22 93.1051 123.593C92.8306 119.168 93.2728 114.727 94.4139 110.45C98.4684 96.4401 110.555 95.1521 118.639 114.156C118.639 114.156 124.336 129.928 127.543 160.103C128.897 173.043 129.608 186.044 129.673 199.058C129.673 201.976 133.369 216.354 134.806 238.171C134.806 240.01 135.037 241.877 135.139 243.796C135.55 249.026 135.653 254.494 135.576 260.303Z" fill="#FFEDE5"/>
<path d="M134.986 238.276C127.961 239.365 120.886 240.076 113.789 240.405C111.499 228.175 110.118 215.786 109.657 203.342C109.657 203.342 104.166 183.812 99.5465 162.732C97.5449 153.689 95.6972 144.332 94.4141 136.157C93.208 144.411 91.3604 153.821 89.2817 162.968C84.8166 183.996 79.3762 203.342 79.3762 203.342C78.9106 215.698 77.5295 228 75.2447 240.142C67.5461 239.774 60.1811 239.274 54.0222 238.749C55.4849 216.617 59.1546 201.949 59.1546 199.032C59.1546 184.233 60.1041 171.327 61.2589 160.313C64.4923 129.954 70.2149 114.13 70.2149 114.13C78.2984 95.0994 90.4109 96.4137 94.4141 110.424C97.4936 99.7256 105.269 96.44 112.378 103.958C115.031 106.946 117.15 110.389 118.639 114.13C120.235 118.962 121.555 123.886 122.591 128.876C124.854 139.214 126.542 149.675 127.646 160.208C129 173.148 129.711 186.15 129.776 199.163C129.802 202.081 133.472 216.485 134.986 238.276Z" fill="#AB8DA8"/>
<path d="M122.694 129.007C115.662 121.148 84.8423 119.229 84.8423 119.229L112.48 104.22C115.133 107.209 117.253 110.652 118.742 114.393C120.333 119.182 121.653 124.062 122.694 129.007Z" fill="#826B80"/>
<path d="M68.3671 292.187C68.3813 292.318 68.3813 292.45 68.3671 292.581C67.9566 298.495 63.2348 297.601 56.2547 297.838C50.6861 297.838 47.7093 294.657 48.0429 291.214C48.1523 290.171 48.5236 289.175 49.1207 288.323C50.7098 285.778 51.8721 282.98 52.5594 280.043C52.8615 278.713 53.5941 277.527 54.638 276.678C59.0262 273.051 63.2348 275.837 65.339 277.835C66.2795 278.695 66.9344 279.834 67.2124 281.094C68.0033 284.735 68.3907 288.456 68.3671 292.187Z" fill="#3B2645"/>
<path d="M132.856 297.706C125.696 297.706 120.82 298.547 120.692 292.186V291.634C120.678 288.149 121.057 284.674 121.821 281.278C122.116 279.836 122.853 278.528 123.925 277.545C125.131 276.127 126.791 275.196 128.608 274.921C130.424 274.647 132.276 275.046 133.831 276.047C135.217 277.028 136.203 278.497 136.602 280.174C137.297 282.977 138.441 285.642 139.99 288.059C140.325 288.554 140.593 289.094 140.785 289.663C142.017 293.658 139.117 297.811 132.856 297.706Z" fill="#3B2645"/>
<path d="M107.399 21.9736C108.083 21.1554 108.52 20.1507 108.656 19.0823C108.729 17.383 109.031 15.7023 109.554 14.0881C110.017 13.3735 110.396 12.606 110.684 11.8012C110.778 11.3732 110.767 10.9276 110.65 10.5052C110.534 10.0827 110.316 9.69696 110.016 9.38299C109.58 8.93614 108.964 8.62072 108.759 8.01616C108.707 7.63248 108.707 7.24329 108.759 6.85961C108.68 6.29111 108.462 5.75227 108.125 5.29285C107.789 4.83343 107.345 4.46826 106.834 4.23108C105.788 3.70803 104.673 3.34494 103.524 3.15338C102.394 3.00942 101.312 2.59523 100.367 1.94426C99.9788 1.57289 99.5579 1.23856 99.11 0.94542C98.2593 0.571899 97.3116 0.497944 96.4155 0.735138C94.7137 1.03733 93.0517 1.54009 91.4627 2.2334C90.8896 2.54147 90.2759 2.76281 89.6407 2.89053C88.6912 2.89053 87.6904 2.70653 86.7409 2.89053C86.0297 3.12289 85.3765 3.51139 84.8269 4.02893C84.2773 4.54647 83.8446 5.18059 83.5589 5.88705C83.3861 6.29438 83.1224 6.6545 82.789 6.93846C82.3695 7.15735 81.9193 7.3081 81.4546 7.38531C80.8672 7.62175 80.3451 8.00155 79.9336 8.49171C79.5222 8.98187 79.2338 9.56755 79.0937 10.1978C78.8509 11.5003 78.8509 12.8381 79.0937 14.1406C79.1402 15.4283 79.2775 16.7108 79.5043 17.9783C82.0705 28.4924 82.8147 25.5747 82.8147 25.5747L90.5132 24.7599C94.0033 24.3656 97.4676 23.945 100.932 23.4456C102.318 23.2353 103.703 22.9462 105.089 22.7096C105.921 22.7638 106.744 22.5017 107.399 21.9736Z" fill="#3B2645"/>
<path d="M82.0965 21.001C81.8417 20.6426 81.5078 20.351 81.1221 20.1499C80.7363 19.9488 80.3096 19.844 79.8767 19.844C79.4439 19.844 79.0172 19.9488 78.6314 20.1499C78.2456 20.351 77.9117 20.6426 77.657 21.001C75.527 23.8135 79.4533 28.8866 82.3531 29.0443C82.4256 26.3604 82.3399 23.6744 82.0965 21.001Z" fill="#E0855C"/>
<path d="M124.413 51.3606C121.614 58.7837 119.358 66.41 117.664 74.1762C117.459 75.1751 117.305 76.1476 117.125 77.0939C116.945 78.0402 116.868 78.7499 116.766 79.5121C116.663 80.2744 116.766 80.5899 116.56 81.3258C115.765 89.2114 114.276 111.107 113.994 114.84C113.994 115.208 113.994 115.392 113.994 115.392C94.0548 121.674 72.9351 116.68 72.9351 116.68L72.7811 115.523C72.3192 111.896 68.0079 73.0985 67.854 71.5477C66.9558 62.3215 66.3143 53.8314 66.2629 48.548C66.2629 47.7595 66.9302 47.3126 67.931 47.0235C69.5477 46.5504 71.8316 46.4715 73.6279 46.1561C76.9732 45.5833 80.35 45.2234 83.7387 45.0784H84.5599C84.7308 45.0679 84.9022 45.0679 85.0732 45.0784H85.689L86.3306 34.5642H87.3314C87.9852 34.668 88.6458 34.7207 89.3074 34.722C90.0963 34.7335 90.8852 34.6896 91.6683 34.5905L92.7717 34.4591C93.3106 34.4591 93.7982 34.2751 94.2858 34.1437C95.0725 33.9579 95.8446 33.7118 96.5954 33.4077C96.8263 33.3567 97.0503 33.2773 97.2626 33.1711H97.4679L97.9811 32.9346C98.9231 32.5155 99.8325 32.0235 100.701 31.4626L101.907 30.6214L102.113 30.4374C102.276 30.3278 102.431 30.2047 102.575 30.0695L102.857 29.8329C102.857 30.2272 102.857 30.3849 102.857 30.5426C102.633 32.5851 102.513 34.6381 102.498 36.6934C102.498 38.1916 102.498 39.6899 102.498 41.0041C102.498 43.2384 102.498 44.8681 102.498 44.8681H103.935C103.961 44.8488 103.992 44.8385 104.025 44.8385C104.057 44.8385 104.088 44.8488 104.114 44.8681C106.195 44.8969 108.27 45.0814 110.325 45.4201C114.228 45.9452 118.065 46.8969 121.77 48.2589C122.334 48.4955 122.745 48.7057 123.104 48.8897C123.463 49.0737 124.593 50.8874 124.413 51.3606Z" fill="#FFEDE5"/>
<path d="M102.96 29.8593C102.669 31.7514 101.972 33.5538 100.919 35.1369C99.866 36.72 98.4837 38.0443 96.8714 39.0146C95.259 39.9849 93.4567 40.5771 91.5942 40.7484C89.7316 40.9197 87.8552 40.6659 86.0999 40.0054L86.4335 34.5643C89.3564 35.0348 92.3438 34.8584 95.1945 34.0468C98.0453 33.2351 100.693 31.8073 102.96 29.8593Z" fill="#E0855C"/>
<path d="M82.3785 13.0892C80.9414 14.7189 80.9158 18.3463 80.9158 22.1577C80.9158 33.9598 84.4571 37.5346 90.3594 37.9288C96.2616 38.3231 102.369 35.8786 103.19 24.7862C103.678 19.2926 104.191 14.2721 102.19 11.9064C99.2897 8.67329 86.741 8.12129 82.3785 13.0892Z" fill="#FFEDE5"/>
<path d="M102.446 23.4193C102.446 23.4193 104.088 18.4776 107.014 20.9747C109.939 23.4718 106.218 30.9894 101.881 30.5688C101.856 30.5688 101.112 25.1278 102.446 23.4193Z" fill="#FFEDE5"/>
<path d="M105.757 23.2353C105.096 23.4752 104.511 23.8929 104.063 24.4444C103.539 24.9185 103.12 25.5008 102.831 26.1529C102.831 26.3369 103.037 26.4421 103.165 26.3369C103.293 26.2318 103.806 25.5221 104.14 25.1541C104.368 25.4317 104.659 25.6482 104.987 25.7849C105.045 25.8114 105.11 25.8171 105.171 25.801C105.233 25.7849 105.287 25.7481 105.326 25.6965C105.365 25.6448 105.385 25.5813 105.384 25.5163C105.383 25.4513 105.361 25.3885 105.321 25.3381C105.142 25.0675 104.905 24.8427 104.628 24.681C105.1 24.3487 105.546 23.9796 105.962 23.577C105.991 23.5432 106.008 23.5009 106.012 23.4563C106.015 23.4117 106.005 23.3671 105.982 23.329C105.959 23.2908 105.925 23.2612 105.884 23.2444C105.844 23.2275 105.799 23.2243 105.757 23.2353Z" fill="#E0855C"/>
<path d="M85.9716 21.7108C85.9716 21.7108 84.9964 22.1051 85.0734 20.3177C85.1504 18.5303 85.8946 18.872 85.8946 18.872C85.8946 18.872 86.5875 18.872 86.5105 20.2651C86.4335 21.6582 85.9716 21.7108 85.9716 21.7108Z" fill="#3B2645"/>
<path d="M96.0568 21.3953C96.0568 21.3953 95.0817 21.7896 95.1843 19.9759C95.287 18.1622 95.9799 18.5565 95.9799 18.5565C95.9799 18.5565 96.6727 18.5565 96.6214 19.9496C96.5701 21.3427 96.0568 21.3953 96.0568 21.3953Z" fill="#3B2645"/>
<path d="M90.6928 26.3896C90.1796 26.3896 89.0248 26.6525 88.7682 26.1005C88.8368 24.8432 89.0522 23.599 89.4097 22.3942C89.8258 20.7745 90.1598 19.1339 90.4105 17.4789C90.4105 17.4789 90.4105 17.4789 90.2309 17.4789C89.2954 20.4038 88.5917 23.4013 88.1266 26.4422C88.1139 26.479 88.1102 26.5184 88.1159 26.557C88.1216 26.5956 88.1366 26.6321 88.1595 26.6634C88.1823 26.6946 88.2124 26.7195 88.247 26.736C88.2815 26.7524 88.3195 26.7598 88.3576 26.7576C89.1018 26.7576 89.8203 26.7576 90.5645 26.7576C90.8468 26.8364 90.8981 26.4159 90.6928 26.3896Z" fill="#E0855C"/>
<path d="M87.9476 16.2698C87.3327 16.2169 86.7147 16.2169 86.0999 16.2698C85.4683 16.1178 84.8236 16.0298 84.1752 16.007C84.1013 16.0079 84.0292 16.0305 83.9676 16.0723C83.9059 16.1141 83.8573 16.1731 83.8275 16.2424C83.7977 16.3117 83.7881 16.3883 83.7997 16.4631C83.8113 16.5379 83.8437 16.6077 83.893 16.6641C84.4895 17.0957 85.1788 17.3737 85.9025 17.4743C86.6262 17.575 87.3629 17.4954 88.0502 17.2424C88.157 17.2072 88.2487 17.1353 88.3098 17.0389C88.3709 16.9426 88.3977 16.8275 88.3856 16.7133C88.3736 16.599 88.3234 16.4925 88.2436 16.4117C88.1638 16.3309 88.0592 16.2808 87.9476 16.2698Z" fill="#3B2645"/>
<path d="M98.7765 14.8767C97.9123 15.3736 96.9625 15.6949 95.9794 15.8229C95.3378 15.8229 94.5679 15.6915 94.0547 16.1384C94.0227 16.1893 94.0056 16.2486 94.0056 16.3092C94.0056 16.3698 94.0227 16.4291 94.0547 16.4801C95.0555 17.9783 98.3403 16.2172 99.1871 15.1658C99.2128 14.9818 98.9561 14.7978 98.7765 14.8767Z" fill="#3B2645"/>
<path d="M94.4649 29.4621C93.384 29.308 92.2867 29.308 91.2058 29.4621C90.4616 29.4621 89.4095 29.3338 88.8706 29.9497C89.4608 30.4886 90.4616 30.2576 91.2058 30.232C92.2898 30.3348 93.381 30.3348 94.4649 30.232C94.567 30.232 94.6649 30.1914 94.7371 30.1192C94.8093 30.047 94.8498 29.9491 94.8498 29.847C94.8498 29.7449 94.8093 29.647 94.7371 29.5749C94.6649 29.5027 94.567 29.4621 94.4649 29.4621Z" fill="#E0855C"/>
<path d="M182.332 166.332H2.31329C1.8709 166.332 1.44663 166.152 1.13382 165.832C0.821 165.512 0.645264 165.077 0.645264 164.624C0.645264 164.171 0.821 163.736 1.13382 163.416C1.44663 163.095 1.8709 162.915 2.31329 162.915H182.332C182.774 162.915 183.199 163.095 183.511 163.416C183.824 163.736 184 164.171 184 164.624C184 165.077 183.824 165.512 183.511 165.832C183.199 166.152 182.774 166.332 182.332 166.332Z" fill="#3B2645"/>
<path d="M8.01034 173.429C7.25488 173.429 6.53036 173.122 5.99616 172.575C5.46197 172.028 5.16187 171.286 5.16187 170.512V158.657C5.16187 157.883 5.46197 157.141 5.99616 156.594C6.53036 156.047 7.25488 155.739 8.01034 155.739C8.76581 155.739 9.49032 156.047 10.0245 156.594C10.5587 157.141 10.8588 157.883 10.8588 158.657V170.459C10.8692 170.848 10.803 171.234 10.6641 171.596C10.5253 171.958 10.3167 172.287 10.0508 172.564C9.78494 172.842 9.4672 173.061 9.1166 173.21C8.76601 173.358 8.38976 173.433 8.01034 173.429Z" fill="#3B2645"/>
<path d="M13.7071 183.76C12.9517 183.76 12.2271 183.452 11.6929 182.905C11.1587 182.358 10.8586 181.616 10.8586 180.842V148.406C10.9262 147.677 11.2568 146.999 11.7859 146.506C12.315 146.013 13.0046 145.74 13.7199 145.74C14.4353 145.74 15.1249 146.013 15.654 146.506C16.1831 146.999 16.5137 147.677 16.5813 148.406V180.842C16.5745 181.618 16.2687 182.36 15.7304 182.907C15.1922 183.453 14.465 183.76 13.7071 183.76Z" fill="#291B30"/>
<path d="M19.4296 188.649C19.0546 188.652 18.6827 188.579 18.3355 188.434C17.9884 188.288 17.673 188.074 17.4078 187.802C17.1426 187.53 16.933 187.207 16.791 186.852C16.6491 186.496 16.5777 186.115 16.5812 185.731V144.489C16.5812 143.716 16.8813 142.974 17.4155 142.426C17.9497 141.879 18.6742 141.572 19.4296 141.572C20.1851 141.572 20.9096 141.879 21.4438 142.426C21.978 142.974 22.2781 143.716 22.2781 144.489V185.731C22.2781 186.505 21.978 187.247 21.4438 187.794C20.9096 188.341 20.1851 188.649 19.4296 188.649Z" fill="#3B2645"/>
<path d="M174.145 173.429C174.901 173.429 175.625 173.122 176.159 172.575C176.694 172.028 176.994 171.286 176.994 170.512V158.657C176.994 157.883 176.694 157.141 176.159 156.594C175.625 156.047 174.901 155.739 174.145 155.739C173.39 155.739 172.665 156.047 172.131 156.594C171.597 157.141 171.297 157.883 171.297 158.657V170.459C171.29 170.847 171.359 171.232 171.499 171.592C171.639 171.952 171.848 172.28 172.113 172.556C172.378 172.833 172.694 173.052 173.043 173.202C173.392 173.352 173.767 173.429 174.145 173.429Z" fill="#3B2645"/>
<path d="M168.449 183.76C169.205 183.76 169.929 183.452 170.463 182.905C170.997 182.358 171.298 181.616 171.298 180.842V148.406C171.23 147.677 170.899 146.999 170.37 146.506C169.841 146.013 169.152 145.74 168.436 145.74C167.721 145.74 167.031 146.013 166.502 146.506C165.973 146.999 165.642 147.677 165.575 148.406V180.842C165.582 181.618 165.888 182.36 166.426 182.907C166.964 183.453 167.691 183.76 168.449 183.76Z" fill="#291B30"/>
<path d="M162.726 188.649C163.101 188.652 163.473 188.579 163.82 188.434C164.167 188.288 164.483 188.074 164.748 187.802C165.013 187.53 165.223 187.207 165.365 186.852C165.507 186.496 165.578 186.115 165.575 185.731V144.489C165.575 143.716 165.275 142.974 164.74 142.426C164.206 141.879 163.482 141.572 162.726 141.572C161.971 141.572 161.246 141.879 160.712 142.426C160.178 142.974 159.878 143.716 159.878 144.489V185.731C159.878 186.505 160.178 187.247 160.712 187.794C161.246 188.341 161.971 188.649 162.726 188.649Z" fill="#3B2645"/>
<path d="M77.3999 68.3935C76.3486 72.1477 74.8941 75.7709 73.0631 79.1968C72.3189 80.7739 69.3164 87.4503 69.1881 87.7132C64.5176 98.201 57.9225 113.683 57.3323 115.523C55.8696 121.464 52.7388 156.029 52.7131 156.029C49.5054 160.97 43.3978 158.657 43.3978 158.657C43.3978 158.657 43.3978 157.606 43.1156 155.818C42.4227 148.169 40.7803 126.668 42.6793 113.946C43.2182 110.424 45.2455 101.881 47.8117 92.2343C49.8647 84.3487 50.7628 76.8574 53.2007 69.182C55.2542 62.578 58.3489 56.3626 62.362 50.7823C63.8654 49.0255 65.8363 47.7558 68.0333 47.1287C68.9828 47.1287 69.3934 48.3904 70.1889 48.7584C72.4492 49.8392 74.2661 51.7002 75.3213 54.0154C77.5574 58.4375 78.2889 63.4974 77.3999 68.3935Z" fill="#FFEDE5"/>
<path d="M42.7822 162.206C42.7822 161.049 43.0132 159.866 43.0389 158.71C43.0389 156.896 43.0389 155.713 43.0389 155.713C44.1365 154.621 45.5371 153.904 47.0487 153.659C48.5602 153.414 50.1086 153.654 51.4816 154.347C52.0997 154.809 52.6676 155.337 53.1753 155.924C54.2018 156.923 55.3822 157.711 56.3574 158.762C56.8648 159.264 57.2535 159.877 57.4937 160.556C57.7339 161.235 57.8193 161.961 57.7431 162.679C56.5267 162.816 55.3981 163.394 54.5611 164.309C53.6116 165.518 54.0222 166.622 53.5602 167.962C53.0983 169.303 51.9692 169.434 50.9941 169.592C47.7093 170.091 43.0132 170.249 42.7309 165.912C42.6592 164.677 42.6764 163.438 42.7822 162.206Z" fill="#FFEDE5"/>
<path d="M145.507 155.634C145.353 157.422 145.224 158.473 145.224 158.473C145.224 158.473 139.117 160.865 135.883 155.845C135.883 155.845 132.753 121.385 131.187 115.444C130.931 114.445 128.929 109.583 126.414 103.695C123.899 97.8067 115.816 79.8013 115.559 79.1967C113.717 75.7762 112.262 72.1517 111.222 68.3935C110.248 63.4332 110.945 58.2813 113.198 53.7789C114.268 51.474 116.08 49.6173 118.331 48.5218C119.125 48.1133 120.009 47.9231 120.897 47.9698C121.178 47.969 121.456 48.0225 121.718 48.1275C122.193 48.2622 122.644 48.4753 123.052 48.7584C123.681 49.2079 124.265 49.7184 124.797 50.2829C129.398 55.3039 132.798 61.3506 134.729 67.9466C137.295 75.8322 138.809 84.3224 140.759 91.9188C143.325 101.566 145.327 110.108 145.891 113.63C147.842 126.484 146.174 147.985 145.507 155.634Z" fill="#FFEDE5"/>
<path d="M145.738 162.232C145.738 160.918 145.584 159.603 145.559 158.71C145.559 156.896 145.559 155.713 145.559 155.713C144.467 154.62 143.071 153.901 141.563 153.656C140.055 153.411 138.51 153.652 137.141 154.346C136.521 154.815 135.945 155.343 135.422 155.923C134.421 156.922 133.215 157.711 132.266 158.762C131.753 159.26 131.361 159.873 131.121 160.553C130.88 161.233 130.798 161.961 130.88 162.679C132.056 162.996 133.206 163.409 134.319 163.914C135.268 164.913 134.55 165.807 134.55 166.963C134.55 168.567 135.627 169.119 137.116 169.381L139.99 169.907C141.514 170.282 143.116 170.144 144.558 169.513C144.765 169.391 144.948 169.231 145.097 169.04C145.219 168.847 145.306 168.633 145.353 168.409C145.844 166.391 145.975 164.298 145.738 162.232Z" fill="#FFEDE5"/>
<path d="M117.664 74.1763L119.101 115.313C95.3889 124.802 69.7526 115.944 69.7526 115.944L69.1881 76.5157L68.4182 76.2791C67.2634 75.9111 66.0317 75.5168 64.7742 74.9911C64.0557 74.702 63.3115 74.4129 62.5673 74.0449C59.3559 72.5423 56.2289 70.8574 53.2007 68.9981C55.2542 62.394 58.3488 56.1787 62.362 50.5984C63.8721 48.8496 65.8404 47.5815 68.0333 46.9447C69.65 46.4979 71.9339 46.3927 73.7302 46.0773C77.0756 45.5046 80.4523 45.1446 83.8411 44.9996L93.1563 68.6564C97.1451 60.9455 100.651 52.9825 103.652 44.8156H103.909C103.935 44.7964 103.966 44.786 103.999 44.786C104.031 44.786 104.062 44.7964 104.088 44.8156C106.169 44.8444 108.244 45.0289 110.299 45.3676C114.212 45.9115 118.057 46.8808 121.769 48.259C122.245 48.3937 122.695 48.6068 123.104 48.8898C123.732 49.3393 124.316 49.8499 124.849 50.4144C129.45 55.4354 132.849 61.4821 134.78 68.0781C131.692 69.5283 128.531 70.8093 125.311 71.9157C121.051 73.2826 117.664 74.1763 117.664 74.1763Z" fill="#3B2645"/>
<path d="M69.1883 62.9261V76.5156L68.4184 76.2791C67.2636 75.9111 66.0318 75.5168 64.7744 74.9911C66.4471 71.0498 67.9204 67.0228 69.1883 62.9261Z" fill="#27192E"/>
<path d="M62.6447 283.118C60.6174 281.962 56.8194 281.068 54.9461 282.671C54.9101 282.735 54.8911 282.808 54.8911 282.882C54.8911 282.955 54.9101 283.028 54.9461 283.092V283.25C54.9461 283.46 55.2284 283.512 55.3824 283.434C55.5363 283.355 55.3824 283.434 55.562 283.434C56.0009 283.148 56.5052 282.985 57.0247 282.96C57.6885 282.929 58.3534 282.991 59.0007 283.144C60.2039 283.508 61.4438 283.728 62.696 283.802C62.7845 283.795 62.8667 283.752 62.9244 283.683C62.9822 283.614 63.0108 283.524 63.004 283.434C62.9972 283.343 62.9555 283.259 62.8881 283.2C62.8207 283.141 62.7332 283.111 62.6447 283.118Z" fill="#27192E"/>
<path d="M63.9535 286.825C62.8066 285.872 61.3752 285.353 59.8989 285.353C58.4371 284.994 56.8999 285.151 55.5364 285.799C55.3568 285.957 55.2541 286.351 55.5364 286.483C56.734 286.798 57.9706 286.931 59.2061 286.877C60.6809 287.295 62.1949 287.55 63.7226 287.639C63.8074 287.624 63.8863 287.584 63.9504 287.525C64.0145 287.466 64.0612 287.39 64.0853 287.305C64.1093 287.221 64.1097 287.131 64.0864 287.046C64.0631 286.961 64.0171 286.884 63.9535 286.825Z" fill="#27192E"/>
<path d="M133.035 281.699C131.657 280.922 130.079 280.596 128.515 280.765C126.95 280.934 125.474 281.59 124.284 282.645C124.028 282.987 124.284 283.644 124.669 283.591C125.978 283.591 127.235 282.803 128.518 282.671C129.802 282.54 131.213 283.039 132.547 282.882C133.061 282.829 133.523 282.198 133.035 281.699Z" fill="#27192E"/>
<path d="M134.113 285.142C132.433 284.732 130.695 284.634 128.981 284.853C128.376 284.773 127.761 284.825 127.177 285.006C126.593 285.187 126.053 285.494 125.593 285.904C125.234 286.377 125.593 287.271 126.235 287.035C128.801 286.115 131.701 287.481 134.241 286.535C134.381 286.473 134.497 286.368 134.574 286.234C134.651 286.101 134.685 285.946 134.671 285.791C134.656 285.636 134.595 285.49 134.495 285.374C134.395 285.257 134.261 285.176 134.113 285.142Z" fill="#27192E"/>
<path d="M45.5537 27.9142C36.9056 29.5439 27.9239 28.177 19.5068 31.489C18.9423 31.7256 18.9679 32.6981 19.6608 32.6455C24.7932 32.3564 29.7973 31.305 34.904 30.9896C38.5993 30.753 42.9362 31.5678 46.2979 29.7016C47.2731 29.1233 46.5545 27.7302 45.5537 27.9142Z" fill="#F7F8F8"/>
<path d="M48.6841 15.5864C44.467 13.3609 40.1123 11.4204 35.6478 9.77733C34.878 9.51448 34.4417 10.6973 35.1089 11.1179C39.1393 13.4974 43.3039 15.6303 47.5806 17.5052C48.8381 18.0572 49.9672 16.2172 48.6841 15.5864Z" fill="#F7F8F8"/>
</svg>
