<svg width="206" height="302" viewBox="0 0 206 302" fill="none" xmlns="http://www.w3.org/2000/svg">
<path d="M99.5687 301.999C94.9076 302.008 90.2592 301.501 85.7036 300.489C77.7409 298.808 70.2402 295.334 63.7418 290.316C57.2434 285.299 51.909 278.863 48.1231 271.473C45.1188 264.56 42.8871 257.32 41.4706 249.891L41.1438 248.476C36.4754 228.045 30.5933 206.439 19.7393 186.92C17.9886 183.778 16.0746 180.637 14.2306 177.616C9.76935 170.774 5.99213 163.487 2.95643 155.866C-1.71196 142.797 -0.848304 129.8 5.52404 121.239C6.36345 119.909 7.45564 118.766 8.73513 117.881C10.0146 116.995 11.4551 116.383 12.9701 116.083C13.8933 115.968 14.8296 116.05 15.7209 116.322C16.6123 116.594 17.4397 117.052 18.152 117.666C18.7077 118.121 19.1633 118.692 19.4892 119.34C19.815 119.989 20.0036 120.702 20.0427 121.431H18.5255C18.489 120.922 18.3497 120.427 18.1166 119.977C17.8835 119.527 17.5617 119.132 17.1717 118.817C16.6175 118.344 15.9767 117.99 15.2871 117.776C14.5976 117.562 13.8732 117.492 13.1569 117.57C10.5271 118.186 8.22874 119.817 6.73782 122.126C0.692263 130.303 -0.264756 142.701 4.40363 155.266C7.41362 162.833 11.1678 170.065 15.6078 176.848C17.4518 179.894 19.3658 183.035 21.1398 186.2C32.0171 205.864 37.9693 227.59 42.6377 248.14L42.9645 249.555C44.3513 256.861 46.544 263.981 49.5002 270.778C53.1793 277.959 58.3647 284.212 64.682 289.085C70.9993 293.957 78.2909 297.328 86.0304 298.954C101.68 302.14 117.918 299.879 132.177 292.527C137.887 289.913 143.042 286.174 147.35 281.521C151.732 276.071 155.109 269.847 157.317 263.152C161.215 252.649 164.319 241.57 167.12 230.899C171.438 214.976 175.897 198.502 183.46 183.587C185.794 179.222 188.128 174.93 190.602 170.781C195.235 163.336 199.144 155.44 202.273 147.209C204.957 139.392 205.074 132.821 202.647 128.025C201.794 126.426 200.61 125.038 199.178 123.961C197.747 122.883 196.102 122.142 194.36 121.79C193.145 121.495 191.879 121.495 190.663 121.791C189.447 122.086 188.316 122.669 187.358 123.493L186.354 122.318C187.48 121.328 188.816 120.622 190.254 120.255C191.693 119.889 193.195 119.873 194.64 120.208C196.616 120.627 198.478 121.489 200.092 122.732C201.706 123.976 203.032 125.57 203.977 127.402C206.615 132.677 206.498 139.535 203.674 147.784C200.512 156.12 196.54 164.106 191.816 171.621C189.482 175.769 186.914 180.037 184.813 184.354C177.344 199.126 172.909 215.528 168.614 231.355C165.696 242.098 162.685 253.2 158.74 263.751C156.484 270.631 153.019 277.028 148.517 282.624C144.067 287.425 138.747 291.287 132.854 293.99C122.48 299.178 111.107 301.915 99.5687 301.999Z" fill="#AB8DA8"/>
<path d="M116.701 22.7765C117.908 20.8084 118.599 18.5534 118.708 16.23C118.84 15.1865 118.748 14.1261 118.437 13.1234C118.126 12.1207 117.606 11.2002 116.911 10.4269C116.328 9.85133 115.604 9.39571 115.067 8.77223C114.53 8.14876 114.273 7.5013 113.83 6.9018C113.349 6.25864 112.731 5.73801 112.022 5.38035C111.314 5.02269 110.535 4.83762 109.745 4.83953C108.135 4.83953 106.431 5.60688 105.077 4.83953C104.236 4.40789 103.676 3.54461 102.743 3.06501C101.864 2.60554 100.856 2.47822 99.8949 2.70531C99.0555 3.00608 98.169 3.14431 97.2806 3.11297C96.0201 2.92113 95.1565 1.7701 94.036 1.12264C93.4601 0.820126 92.8267 0.650705 92.1803 0.626254C91.5339 0.601804 90.8901 0.722916 90.2941 0.981098C89.698 1.23928 89.1642 1.62828 88.73 2.12083C88.2957 2.61338 87.9716 3.19754 87.7804 3.83237C87.6282 4.43792 87.6282 5.07327 87.7804 5.67882C88.0372 7.1416 89.0175 8.31662 89.0876 9.77939C89.1576 11.2422 88.2939 12.5131 89.0876 13.808C89.8812 15.1029 91.0483 15.1509 91.6085 16.3739C92.3554 18.0285 91.6085 20.1867 92.2854 21.9612C92.6355 23.0883 92.8223 24.6949 93.8493 25.4143C95.2732 26.4215 98.3776 25.5822 100.082 25.4143L106.687 24.8628C109.605 24.575 113.2 24.8628 115.837 23.376C116.156 23.2272 116.448 23.0246 116.701 22.7765Z" fill="#3B2645"/>
<path d="M94.2935 21.721C94.0617 21.394 93.758 21.1279 93.4071 20.9445C93.0562 20.761 92.6681 20.6654 92.2744 20.6654C91.8807 20.6654 91.4926 20.761 91.1417 20.9445C90.7908 21.1279 90.4871 21.394 90.2553 21.721C88.2246 24.1189 91.6558 28.9149 94.2935 29.2027C94.447 26.7113 94.447 24.2124 94.2935 21.721Z" fill="#E0855C"/>
<path d="M127.089 61.8883C126.474 65.9276 125.648 69.93 124.615 73.8783C124.451 74.6217 124.311 75.3411 124.218 76.0365C124.124 76.7319 124.031 77.2594 123.914 78.1467C123.914 78.3146 123.914 78.5064 123.914 78.6743C123.914 79.2498 123.751 79.8493 123.681 80.4967L120.74 108.673C102.463 113.829 83.3928 108.673 83.3928 108.673C83.3928 108.673 83.3928 108.313 83.3928 107.618C83.0893 104.429 82.1557 94.2852 81.222 82.8467C81.222 82.8467 81.222 82.6789 81.222 82.607C81.2314 82.4312 81.2314 82.2551 81.222 82.0794C80.8252 77.2834 80.4517 72.1997 80.1483 67.3557C79.5881 58.9388 79.2379 51.1693 79.308 46.3494C79.308 44.5749 83.3461 44.7667 86.1004 44.383C88.1312 44.0953 90.2086 43.9034 92.006 43.8075C93.8033 43.7116 95.1571 43.6636 96.0674 43.6636H97.0945C97.0945 43.6636 97.3279 40.9059 97.3279 40.8819L97.9581 34.1196C98.2646 34.2008 98.5768 34.2569 98.8918 34.2875C99.4695 34.3987 100.055 34.4628 100.642 34.4793C101.413 34.4793 102.136 34.4793 102.813 34.4793L103.817 34.3594H104.401C105.054 34.2395 105.684 34.0956 106.268 33.9278C106.851 33.7599 107.038 33.688 107.412 33.5681C109.117 33.0067 110.736 32.1993 112.22 31.1701L112.43 31.0262L112.827 30.7145L113.107 30.4987C113.107 30.8344 113.107 30.9783 113.107 31.1221C112.92 32.7048 112.71 34.7191 112.617 36.7094C112.617 38.1003 112.477 39.4671 112.43 40.6421C112.383 41.8172 112.01 43.5197 112.827 44.1192C113.118 44.2875 113.433 44.4088 113.761 44.4789C115.042 44.6868 116.339 44.7751 117.635 44.7427C118.032 44.7427 118.429 44.7427 118.826 44.7427C119.821 44.6831 120.819 44.6831 121.814 44.7427C122.509 44.7406 123.198 44.8817 123.839 45.1577C124.481 45.4336 125.062 45.8388 125.548 46.3494C126.153 47.2491 126.538 48.2856 126.669 49.3708L126.949 51.3372C127.393 54.8368 127.44 58.3776 127.089 61.8883Z" fill="#FFEDE5"/>
<path d="M113.014 30.33C112.698 32.0461 112.016 33.669 111.017 35.0821C110.018 36.4952 108.727 37.6633 107.236 38.5025C105.745 39.3417 104.091 39.8311 102.394 39.9356C100.697 40.04 98.9989 39.7569 97.4211 39.1066L97.8646 34.1428C100.508 34.6666 103.23 34.5971 105.845 33.939C108.46 33.2809 110.905 32.0498 113.014 30.33Z" fill="#E0855C"/>
<path d="M94.7608 14.5281C93.4069 15.9669 93.2902 19.1802 93.1968 22.7292C92.8467 33.5202 95.9979 36.8773 101.343 37.4768C106.688 38.0763 112.314 35.9421 113.458 25.9665C114.041 20.9547 114.648 16.3745 112.874 14.1923C110.33 10.979 98.8689 10.1158 94.7608 14.5281Z" fill="#FFEDE5"/>
<path d="M112.664 24.504C112.664 24.504 114.298 20.0437 116.889 22.4177C119.48 24.7917 115.909 31.5301 111.941 31.0265C111.987 31.0265 111.45 26.0387 112.664 24.504Z" fill="#FFEDE5"/>
<path d="M115.745 24.4552C115.132 24.6518 114.583 25.0167 114.158 25.5103C113.676 25.924 113.286 26.4391 113.014 27.021C113.014 27.1889 113.177 27.3088 113.294 27.1889C113.623 26.8542 113.935 26.502 114.228 26.1338C114.441 26.375 114.704 26.5635 114.998 26.6853C115.231 26.6853 115.418 26.4695 115.325 26.2776C115.163 26.0237 114.948 25.8106 114.695 25.6542C115.13 25.3675 115.544 25.0468 115.932 24.695C115.939 24.6661 115.94 24.6359 115.933 24.6068C115.927 24.5776 115.915 24.5504 115.897 24.5271C115.879 24.5038 115.855 24.4852 115.829 24.4727C115.803 24.4602 115.774 24.4542 115.745 24.4552Z" fill="#E0855C"/>
<path d="M97.7947 22.4886C97.7947 22.4886 96.8844 22.8243 97.0244 21.1697C97.1645 19.5151 97.7947 19.8987 97.7947 19.8987C97.7947 19.8987 98.4249 19.8987 98.3316 21.1937C98.2382 22.4886 97.7947 22.4886 97.7947 22.4886Z" fill="#3B2645"/>
<path d="M106.968 22.4886C106.968 22.4886 106.081 22.8243 106.221 21.1697C106.361 19.5151 106.968 19.8987 106.968 19.8987C106.968 19.8987 107.598 19.8987 107.505 21.1937C107.412 22.4886 106.968 22.4886 106.968 22.4886Z" fill="#3B2645"/>
<path d="M98.7753 17.4707C98.4085 17.2624 97.9857 17.1752 97.5667 17.2214C97.1478 17.2676 96.7539 17.445 96.4411 17.7282C96.4252 17.7602 96.4178 17.7958 96.4194 17.8315C96.421 17.8672 96.4317 17.9019 96.4504 17.9323C96.469 17.9627 96.4951 17.9879 96.5262 18.0055C96.5572 18.023 96.5922 18.0323 96.6278 18.0326C96.9546 18.0326 97.2347 17.8453 97.5615 17.8219C97.9038 17.8055 98.2457 17.8613 98.5652 17.9858C98.8686 18.0794 99.0787 17.6112 98.7753 17.4707Z" fill="#3B2645"/>
<path d="M108.345 18.2931C107.972 17.3339 106.361 17.262 105.661 17.8375C105.627 17.8644 105.6 17.8989 105.581 17.9384C105.562 17.9779 105.552 18.0213 105.552 18.0653C105.552 18.1093 105.562 18.1528 105.581 18.1922C105.6 18.2317 105.627 18.2663 105.661 18.2931C106.08 18.3291 106.502 18.3291 106.921 18.2931C107.261 18.3493 107.591 18.4542 107.902 18.6049C107.942 18.6653 108.004 18.7068 108.074 18.7203C108.144 18.7338 108.216 18.7182 108.275 18.6768C108.334 18.6355 108.375 18.5718 108.388 18.4999C108.401 18.4279 108.386 18.3536 108.345 18.2931Z" fill="#3B2645"/>
<path d="M99.6387 30.2103C101.608 30.4755 103.609 30.1245 105.381 29.2031C105.116 29.843 104.723 30.4189 104.229 30.8938C103.735 31.3687 103.149 31.7322 102.51 31.9608C100.479 32.5363 99.6387 30.2103 99.6387 30.2103Z" fill="white"/>
<path d="M87.8506 46.325C93.2192 50.1858 93.7094 57.6915 91.0951 63.6865C89.3211 67.6911 86.0299 70.4968 84.0925 74.2856C82.0736 77.9603 79.7295 81.4361 77.0899 84.6689C71.3011 92.2226 65.7924 99.0568 63.6683 101.647C56.3623 110.615 41.0033 122.461 35.4713 126.586C34.2108 127.545 33.4639 128.073 33.4639 128.073C33.4639 128.073 28.1652 125.219 29.5658 119.943C29.5658 119.943 50.5735 97.0186 53.678 92.3425C57.1087 86.2646 60.2253 80.0051 63.0147 73.5902C66.5938 66.4761 70.3208 59.458 74.1955 52.5358C75.9695 49.3465 78.2337 45.3418 82.1318 44.6225C83.7049 44.4408 85.2931 44.7857 86.6601 45.6056C87.0731 45.816 87.471 46.0564 87.8506 46.325Z" fill="#FFEDE5"/>
<path d="M29.5665 119.968C30.1414 119.922 30.7188 119.922 31.2938 119.968C31.2938 119.968 36.3356 122.845 35.472 126.586C35.472 126.586 34.9351 127.09 34.0948 127.857C33.2545 128.624 32.3441 129.536 31.2471 130.687C30.15 131.838 27.6524 135.483 26.5787 135.171C26.3284 135.076 26.1098 134.91 25.9485 134.691L23.7777 132.293C22.5639 130.902 20.5331 128.552 22.0737 126.706C20.9533 127.401 18.339 129.104 17.0552 128.289L16.5183 127.401C16.5183 127.401 20.3697 124.452 21.957 122.989C24.0982 121.145 26.7744 120.082 29.5665 119.968Z" fill="#FFEDE5"/>
<path d="M94.2236 83.0625C94.2155 83.1874 94.2155 83.3127 94.2236 83.4376C94.2236 83.4376 94.4339 83.4376 94.3872 83.4376L94.2236 83.0625Z" fill="#D6BED3"/>
<path d="M102.883 160.782C100.736 178.455 98.2147 193.826 98.2147 193.826C98.5648 198.094 98.7282 202.722 98.7282 207.47C98.7282 216.775 98.1213 226.654 97.351 235.359C96.3707 246.462 95.0169 255.91 94.4333 260.658V261.257C95.297 292.743 86.5671 296.915 82.4822 290.033C78.3974 283.151 82.4822 262.864 82.4822 262.864C82.4954 262.68 82.4954 262.496 82.4822 262.312C80.7637 252.891 79.6177 243.368 79.051 233.8C77.6505 210.636 80.0547 194.785 79.7746 191.907C74.8961 141.55 81.712 113.781 81.712 113.781C82.7761 109.746 84.6973 106.003 87.3374 102.822C92.3092 97.3067 98.2847 98.6975 102.043 105.436C102.438 106.127 102.796 106.839 103.117 107.57C104.648 111.44 105.516 115.554 105.684 119.728C106.058 130.159 104.634 146.25 102.883 160.782Z" fill="#FFEDE5"/>
<path d="M126.996 232.577C126.453 242.345 125.314 252.068 123.588 261.689L123.378 262.864C123.378 262.864 127.462 283.223 123.378 290.033C119.293 296.843 110.656 292.863 111.427 261.689C111.427 261.545 111.427 261.401 111.427 261.281C110.773 256.773 109.466 247.013 108.439 235.455C107.645 226.678 107.038 216.846 107.038 207.542C107.038 202.746 107.225 198.142 107.575 193.85C107.575 193.85 104.984 178.478 102.907 160.829C101.156 146.273 99.7089 130.183 100.316 119.847C100.49 115.672 101.367 111.558 102.907 107.69C103.213 106.936 103.571 106.207 103.98 105.507C108.299 97.8099 115.488 97.1385 120.787 105.819C122.304 108.336 123.497 111.044 124.335 113.876C124.335 113.876 131.15 141.573 126.272 192.003C125.922 194.833 128.233 210.132 126.996 232.577Z" fill="#FFEDE5"/>
<path d="M29.0058 135.531C29.4709 136.084 30.0485 136.525 30.6979 136.823C31.3473 137.122 32.0526 137.27 32.7639 137.257C33.0897 137.179 33.3968 137.034 33.6665 136.831C33.9363 136.628 34.1631 136.37 34.3333 136.075C34.5034 135.779 34.6135 135.45 34.6567 135.11C34.6998 134.769 34.6753 134.423 34.5846 134.092C34.3131 133.362 33.8724 132.712 33.3008 132.197C29.7761 128.6 26.1581 125.003 22.4934 121.67C21.881 120.961 21.0626 120.473 20.1592 120.279C19.3192 120.279 18.5062 120.585 17.865 121.143C17.2239 121.7 16.7961 122.474 16.658 123.325C16.658 124.86 17.9418 125.435 18.9922 126.298C22.3067 129.32 25.6213 132.485 29.0058 135.531Z" fill="#3B2645"/>
<path d="M28.4921 131.285C28.6374 131.131 28.7558 130.953 28.8422 130.758C28.9014 130.51 28.9048 130.252 28.8522 130.002C28.7997 129.753 28.6925 129.519 28.5388 129.319C27.6751 127.856 25.9011 125.506 24.1505 125.29C23.5725 125.26 22.9969 125.386 22.4809 125.655C21.9649 125.924 21.5266 126.328 21.2094 126.825C20.6856 127.599 20.3525 128.492 20.2386 129.428C20.1248 130.364 20.2336 131.314 20.5558 132.197C21.0682 133.785 22.1206 135.13 23.5203 135.985C24.2187 136.289 25.0045 136.304 25.7135 136.027C26.4224 135.75 26.9998 135.203 27.325 134.499C27.6751 133.611 27.5584 132.532 28.1186 131.789C28.2249 131.608 28.3501 131.439 28.4921 131.285Z" fill="#FFEDE5"/>
<path d="M117.822 46.3254C112.43 50.1862 111.94 57.6919 114.578 63.6868C116.328 67.6915 119.62 70.4971 121.58 74.286C123.616 77.95 125.959 81.4243 128.583 84.6693C134.372 92.2229 139.904 99.0572 142.005 101.647C149.334 110.663 164.693 122.462 170.225 126.586L172.256 128.073C172.256 128.073 177.531 125.219 176.13 119.944C176.13 119.944 155.123 97.0189 152.018 92.3428C148.578 86.2702 145.461 80.0102 142.681 73.5906C139.087 66.3966 135.375 59.4664 131.477 52.5362C129.703 49.3469 127.463 45.3422 123.541 44.6228C121.968 44.4429 120.38 44.7876 119.013 45.606C118.599 45.8153 118.201 46.0557 117.822 46.3254Z" fill="#FFEDE5"/>
<path d="M176.107 119.967C175.524 119.922 174.939 119.922 174.357 119.967C174.357 119.967 169.315 122.845 170.178 126.586C170.178 126.586 170.739 127.089 171.556 127.857C172.373 128.624 173.33 129.535 174.403 130.686C175.477 131.837 178.021 135.482 179.072 135.171C179.318 135.069 179.536 134.904 179.702 134.691L181.849 132.293C183.086 130.902 185.094 128.552 183.577 126.706C184.674 127.401 187.288 129.104 188.595 128.288L189.039 127.401C189.039 127.401 185.187 124.452 183.577 122.989C181.477 121.168 178.852 120.106 176.107 119.967Z" fill="#FFEDE5"/>
<path d="M176.644 135.531C176.179 136.084 175.601 136.525 174.952 136.823C174.303 137.122 173.597 137.27 172.886 137.257C172.556 137.185 172.244 137.044 171.969 136.843C171.694 136.642 171.462 136.385 171.287 136.089C171.112 135.792 170.998 135.462 170.952 135.119C170.906 134.775 170.929 134.426 171.019 134.092C171.31 133.394 171.758 132.778 172.326 132.293C175.858 128.696 179.469 125.187 183.157 121.766C183.766 121.053 184.586 120.564 185.491 120.375C186.328 120.376 187.138 120.682 187.775 121.24C188.413 121.798 188.836 122.571 188.969 123.421C188.969 124.955 187.708 125.531 186.635 126.394C183.343 129.32 180.029 132.485 176.644 135.531Z" fill="#3B2645"/>
<path d="M177.181 131.285C177.022 131.138 176.894 130.959 176.807 130.758C176.758 130.508 176.762 130.25 176.818 130.002C176.875 129.753 176.982 129.521 177.134 129.319C177.975 127.856 179.748 125.506 181.499 125.29C182.077 125.26 182.653 125.386 183.169 125.655C183.685 125.924 184.123 126.328 184.44 126.825C184.958 127.603 185.282 128.499 185.384 129.436C185.486 130.373 185.362 131.321 185.024 132.197C184.527 133.793 183.47 135.144 182.059 135.985C181.361 136.289 180.575 136.304 179.866 136.027C179.157 135.75 178.58 135.203 178.255 134.499C177.928 133.611 178.045 132.532 177.461 131.789L177.181 131.285Z" fill="#FFEDE5"/>
<path d="M127.346 217.205V219.603C127.346 221.21 127.346 222.865 127.346 224.567V226.51C127.346 228.476 127.206 230.514 127.112 232.6C121.069 234.313 114.846 235.271 108.579 235.454C108.322 232.768 107.809 225.622 107.785 224.831C107.785 223.2 107.435 218.596 107.412 217.973C107.272 214.472 107.178 210.971 107.178 207.541C107.178 203.081 107.342 198.717 107.669 194.664C107.669 194.376 107.669 194.113 107.669 193.849C107.669 193.585 105.078 178.502 103 160.829C102.767 162.699 102.533 164.569 102.3 166.368C100.339 181.571 98.2617 193.849 98.2617 193.849C98.6119 198.117 98.7752 202.745 98.7752 207.493C98.7752 211.114 98.7752 214.687 98.5185 218.476C98.5185 219.1 98.0516 227.109 97.9816 227.876C97.8182 230.442 97.6081 232.96 97.3981 235.382C94.1302 235.238 90.909 235.022 87.7112 234.735C85.1902 234.519 82.0157 234.375 78.9346 233.919C78.7946 231.761 78.7012 229.699 78.6312 227.685C78.6312 227.181 78.6312 226.677 78.6312 226.174C78.6312 223.968 78.6312 221.881 78.6312 219.867V218.284C78.6312 203.753 80.0083 194.185 79.7983 191.907C74.9198 141.549 81.7356 113.78 81.7356 113.78C82.7998 109.745 84.7209 106.002 87.361 102.821C89.3619 103.139 91.3254 103.67 93.2199 104.404C96.1059 105.179 99.0848 105.526 102.066 105.435H104.214C106.805 105.435 109.396 105.123 111.963 105.051H113.691C116.152 105.014 118.61 105.255 121.02 105.771C122.461 108.314 123.575 111.039 124.335 113.876C126.22 122.927 127.329 132.131 127.649 141.381C128.44 158.266 127.98 175.189 126.272 192.002C125.992 194.137 127.229 203.273 127.346 217.205Z" fill="#3B2645"/>
<path d="M94.2933 261.257C94.6201 273.655 93.4764 281.808 91.7024 286.724C88.9947 294.325 84.6998 294.229 82.3656 290.129C81.7352 288.991 81.3009 287.75 81.0818 286.46C79.3779 277.899 82.3656 262.96 82.3656 262.96C82.3787 262.776 82.3787 262.592 82.3656 262.408C83.527 263.278 84.8435 263.906 86.2404 264.254C87.8077 264.65 89.4576 264.513 90.9429 263.865C92.4283 263.216 93.6693 262.091 94.4801 260.657L94.2933 261.257Z" fill="#AB8DA8"/>
<path d="M124.778 285.788C124.579 287.312 124.104 288.784 123.377 290.129C120.856 294.349 116.515 294.325 113.83 286.148C112.197 281.352 111.146 273.367 111.496 261.665C113.244 263.278 115.496 264.197 117.845 264.254C119.941 264.056 121.932 263.221 123.564 261.856C123.607 262.231 123.607 262.609 123.564 262.983C123.564 262.983 126.225 277.132 124.778 285.788Z" fill="#AB8DA8"/>
<path d="M90.7685 268.618C89.5862 267.894 88.2353 267.512 86.8587 267.512C85.4822 267.512 84.1312 267.894 82.949 268.618C82.9051 268.668 82.8758 268.73 82.8643 268.796C82.8528 268.862 82.8596 268.93 82.8839 268.993C82.9082 269.055 82.9491 269.109 83.0018 269.149C83.0546 269.189 83.1171 269.213 83.1824 269.218C84.3495 269.218 85.5166 268.714 86.6136 268.738C87.8978 268.85 89.1659 269.108 90.395 269.506C90.5002 269.519 90.6068 269.497 90.6988 269.443C90.7908 269.389 90.8633 269.306 90.9054 269.206C90.9475 269.106 90.9569 268.995 90.9322 268.889C90.9075 268.783 90.8501 268.688 90.7685 268.618Z" fill="#291B30"/>
<path d="M90.3949 272.455C88.4016 271.262 86.0625 270.828 83.7891 271.232C83.0189 271.232 82.9955 272.551 83.7891 272.479C84.8874 272.371 85.995 272.419 87.0804 272.623C88.0841 272.815 88.9944 273.246 89.9981 273.462C90.1216 273.489 90.2505 273.471 90.3621 273.41C90.4737 273.349 90.5609 273.25 90.6083 273.13C90.6557 273.01 90.6603 272.876 90.6212 272.752C90.5822 272.629 90.5021 272.524 90.3949 272.455Z" fill="#291B30"/>
<path d="M121.3 268.619C119.526 267.996 115.674 267.756 114.297 269.434C114.11 269.65 114.297 270.106 114.554 270.082C115.651 269.938 116.608 269.482 117.752 269.434C118.895 269.386 120.086 269.698 121.16 269.626C121.224 269.636 121.29 269.632 121.353 269.615C121.416 269.599 121.475 269.57 121.527 269.53C121.579 269.49 121.623 269.439 121.656 269.382C121.689 269.324 121.711 269.261 121.72 269.195C121.729 269.128 121.725 269.061 121.709 268.996C121.693 268.932 121.665 268.871 121.626 268.817C121.587 268.764 121.538 268.719 121.482 268.685C121.426 268.651 121.364 268.628 121.3 268.619Z" fill="#291B30"/>
<path d="M122.164 272.671C120.227 271.784 115.395 271.137 114.415 273.822C114.275 274.182 114.718 274.47 114.998 274.302C116.007 273.724 117.131 273.391 118.284 273.329C119.437 273.267 120.589 273.476 121.651 273.942C122.351 274.23 122.888 272.983 122.164 272.671Z" fill="#291B30"/>
<path d="M33.7911 43.4712C33.7911 43.3273 33.511 43.3273 33.4876 43.4712C32.3206 51.6483 32.9975 60.2571 32.9975 68.6261C32.9975 77.4747 32.7174 86.3953 33.2309 95.2199C33.253 95.3141 33.3053 95.3979 33.3794 95.4579C33.4535 95.5179 33.545 95.5505 33.6394 95.5505C33.7337 95.5505 33.8253 95.5179 33.8994 95.4579C33.9735 95.3979 34.0258 95.3141 34.0479 95.2199C34.538 86.3953 34.2579 77.4747 34.2579 68.6261C34.2579 60.449 34.9348 51.7203 33.7911 43.4712Z" fill="#F7F8F8"/>
<path d="M43.9918 46.253C43.967 46.1353 43.9036 46.0298 43.8123 45.9542C43.721 45.8785 43.6073 45.8373 43.49 45.8373C43.3727 45.8373 43.2589 45.8785 43.1676 45.9542C43.0763 46.0298 43.013 46.1353 42.9881 46.253C42.9881 54.1184 42.4979 62.1277 42.9881 69.9692C42.9881 70.1027 43.0398 70.2308 43.1317 70.3253C43.2236 70.4197 43.3483 70.4727 43.4783 70.4727C43.6083 70.4727 43.733 70.4197 43.8249 70.3253C43.9168 70.2308 43.9685 70.1027 43.9685 69.9692C44.5053 62.1277 44.0385 54.1184 43.9918 46.253Z" fill="#F7F8F8"/>
<path d="M148.353 128.6C148.334 128.529 148.293 128.466 148.236 128.422C148.179 128.377 148.109 128.353 148.038 128.353C147.966 128.353 147.897 128.377 147.84 128.422C147.783 128.466 147.742 128.529 147.723 128.6C147.065 138.897 146.933 149.223 147.326 159.534C147.326 169.845 147.326 180.133 147.699 190.444C147.719 190.521 147.763 190.589 147.824 190.637C147.885 190.685 147.961 190.712 148.038 190.712C148.115 190.712 148.19 190.685 148.251 190.637C148.313 190.589 148.356 190.521 148.376 190.444C148.703 180.133 148.703 169.845 148.75 159.534C149.131 149.222 148.999 138.897 148.353 128.6Z" fill="#F7F8F8"/>
<path d="M166.35 68.2907C166.278 61.4292 165.841 54.5768 165.043 47.7639C165.043 47.3563 164.413 47.4762 164.39 47.7639C164.21 55.132 164.42 62.5048 165.02 69.8494C165.323 76.6837 165.253 83.6859 166.14 90.4482C166.14 91.0717 167.167 90.8798 167.191 90.3043C167.517 82.9904 166.771 75.5327 166.35 68.2907Z" fill="#F7F8F8"/>
<path d="M171.018 72.1034C171.002 72.0497 170.969 72.0028 170.925 71.9695C170.881 71.9362 170.828 71.9182 170.773 71.9182C170.718 71.9182 170.665 71.9362 170.621 71.9695C170.577 72.0028 170.544 72.0497 170.528 72.1034C169.91 81.9555 169.863 91.8367 170.388 101.695C170.374 101.755 170.373 101.817 170.385 101.878C170.398 101.938 170.424 101.995 170.461 102.044C170.498 102.093 170.545 102.132 170.599 102.159C170.654 102.186 170.713 102.2 170.773 102.2C170.833 102.2 170.893 102.186 170.947 102.159C171.001 102.132 171.049 102.093 171.086 102.044C171.123 101.995 171.149 101.938 171.161 101.878C171.174 101.817 171.173 101.755 171.158 101.695C171.684 91.8367 171.637 81.9555 171.018 72.1034Z" fill="#F7F8F8"/>
<path d="M102.183 166.345C102.219 164.477 102.454 162.62 102.883 160.805C102.65 162.676 102.417 164.546 102.183 166.345Z" fill="#291B30"/>
<path d="M127.579 141.382C124.428 121.934 98.4018 121.023 98.4018 121.023C96.7912 113.013 107.295 110.615 107.295 110.615L113.434 105.172C115.895 105.134 118.353 105.376 120.763 105.891C122.284 108.384 123.484 111.068 124.335 113.877C126.182 122.933 127.267 132.135 127.579 141.382Z" fill="#291B30"/>
<path d="M124.707 115.962C103.7 126.106 80.8713 116.802 80.8713 116.802C82.5286 112.006 81.2915 87.5463 81.1748 82.8942C81.1748 82.8942 81.1748 82.7264 81.1748 82.6544C81.1842 82.4787 81.1842 82.3026 81.1748 82.1269C85.5864 71.6237 86.0766 51.3847 86.0999 44.4305C88.084 44.1188 90.1614 43.9509 91.9588 43.855C92.659 51.6245 95.1566 71.5517 102.112 70.6885C109.068 69.8252 112.383 52.0801 113.597 44.3106C114.877 44.5311 116.175 44.6195 117.471 44.5744C117.868 44.5744 118.265 44.5744 118.662 44.5744C118.055 55.1975 123.797 77.5227 123.961 78.1462C123.961 78.3141 123.961 78.5059 123.961 78.6738C123.961 79.2493 123.797 79.8488 123.727 80.4962C123.727 80.4962 123.727 80.76 123.727 80.9039C122.257 94.4286 124.707 115.962 124.707 115.962Z" fill="#AB8DA8"/>
</svg>
