<svg width="121" height="82" viewBox="0 0 121 82" fill="none" xmlns="http://www.w3.org/2000/svg">
<g clip-path="url(#clip0_444_815)">
<path d="M48.2297 31.5407C48.2297 31.5407 50.6937 11.6516 50.1374 4.38795C49.8522 0.662284 48.0371 -0.180594 45.2628 0.0318962C42.4885 0.244386 26.6235 8.62005 26.6235 8.62005L28.8843 14.0385L42.0784 9.91624C42.0784 9.91624 40.734 17.6544 40.4238 19.1241C40.1135 20.5939 39.4645 22.5736 38.9475 24.3479C38.6943 25.2226 38.3413 26.3559 38.3413 26.9048C38.3484 28.201 48.2297 31.5407 48.2297 31.5407Z" fill="#FFEDE5"/>
<path d="M42.0782 9.91648C43.9183 9.56233 45.7547 8.48217 46.3324 7.62158C46.0357 8.58927 45.3808 9.40932 44.4995 9.91648C43.6608 10.4536 42.7724 10.9102 41.8464 11.28L42.0782 9.91648Z" fill="#F28F8F"/>
<path d="M73.2056 31.1866C72.931 30.1738 71.1409 29.1078 65.8063 28.2189C60.4716 27.3299 55.6183 28.2189 55.5898 28.8457C55.5613 29.4726 56.9056 33.6622 63.0569 34.4271C69.2082 35.1921 73.769 33.4107 73.2056 31.1866Z" fill="#263238"/>
<path d="M57.1587 39.7963C57.1587 39.7963 53.6819 17.3998 54.1811 12.8277C54.6982 8.10333 56.5026 5.91114 59.5301 5.60303C63.4847 7.88376 65.5922 13.3341 68.1204 18.7066C70.6487 24.0791 73.3874 35.6031 73.5336 41.1102C73.6798 46.6172 69.2936 50.5412 64.3263 51.2566C59.3589 51.972 57.1587 39.7963 57.1587 39.7963Z" fill="#FFEDE5"/>
<path d="M62.6217 22.2621C61.0173 20.9812 59.9332 19.1675 59.5692 17.1553L64.5437 15.4341L67.8993 18.2071L67.9991 18.4231C68.0419 18.5152 68.0847 18.6073 68.1311 18.6993C68.2274 18.9048 68.3236 19.1208 68.4199 19.3404C68.4449 19.4041 68.4734 19.4679 68.5019 19.5351C68.5768 19.7051 68.6481 19.8893 68.723 20.0664L68.7979 20.2505C68.8978 20.4949 68.994 20.7463 69.0939 21.0049C69.1902 21.2634 69.2864 21.529 69.3827 21.7982C69.4041 21.8584 69.4255 21.915 69.4434 21.9717L69.7001 22.7154C69.7001 22.7508 69.7251 22.7898 69.7393 22.8252C69.939 23.4273 70.1387 24.0506 70.3313 24.688L70.3634 24.7907C70.4597 25.1059 70.5524 25.4247 70.6451 25.7469C70.6451 25.7469 66.0236 25.0882 62.6217 22.2621Z" fill="#F28F8F"/>
<path d="M58.4817 5.79425C60.3717 5.05408 62.6717 6.78587 63.8877 7.56501C66.3589 9.13743 81.4679 20.8315 84.991 23.5726C85.7541 24.033 86.5315 24.4757 87.3232 24.8936L83.1724 31.3391C82.8315 30.4128 82.2982 29.5682 81.6069 28.8601C77.8413 26.1898 70.5525 24.7342 65.8597 22.921C62.2082 21.5044 61.445 20.7111 60.2148 18.6393C59.2734 16.9996 55.875 7.01961 58.4817 5.79425Z" fill="#FFEDE5"/>
<path d="M57.0839 39.92L55.5897 28.8457C55.5897 28.8457 56.9305 31.8985 63.8342 32.7024C70.7379 33.5063 73.3803 32.3483 73.2055 31.1866C73.2055 31.1866 75.0099 38.1209 74.311 42.6257C73.6121 47.1305 66.6834 51.9292 66.6834 51.9292L57.0839 39.92Z" fill="#37474F"/>
<path opacity="0.15" d="M60.1399 41.4356C59.5052 41.4356 58.9097 41.4745 58.3569 41.51L66.0309 51.0968H67.8139C69.8037 49.5279 73.794 46.0006 74.3146 42.6362C74.8281 39.3319 73.9937 34.728 73.5122 32.5039C73.7868 35.0609 68.0278 41.2691 60.1399 41.4356Z" fill="black"/>
<path d="M94.7011 15.5224C92.205 15.062 91.046 16.8505 90.126 18.3273C89.206 19.8041 87.6655 22.5134 86.9773 22.9702C86.2891 23.4271 85.9075 22.9702 84.9269 23.7033C83.9462 24.4364 83.2295 25.8282 83.5326 26.3347L84.2458 27.5671C83.8346 27.5224 83.4185 27.5744 83.0314 27.719C82.6442 27.8636 82.2967 28.0966 82.017 28.3994C80.9473 29.4618 81.5035 29.6389 82.1062 30.2409C82.7088 30.843 84.1245 33.5629 85.5438 34.303C85.5438 34.303 89.3665 33.1662 92.1372 28.8597C94.908 24.5533 94.7011 15.5224 94.7011 15.5224Z" fill="url(#paint0_linear_444_815)"/>
<path d="M86.3319 34.8731C86.1856 34.8473 86.0464 34.7915 85.9231 34.7093C85.7998 34.6271 85.695 34.5203 85.6155 34.3957C85.536 34.2711 85.4835 34.1315 85.4613 33.9856C85.4392 33.8397 85.4478 33.6909 85.4867 33.5486C85.9091 32.2206 86.5437 30.9686 87.366 29.8406C88.3252 28.4877 90.1225 25.9449 90.4256 24.5531C90.7287 23.1613 91.3813 19.2621 92.4475 17.6295C93.5137 15.9969 94.6085 15.0548 96.0134 15.5825C97.4184 16.1102 92.9824 26.5612 91.6808 28.3319C90.3792 30.1027 86.3319 34.8731 86.3319 34.8731Z" fill="#37474F"/>
<path d="M87.1519 34.6466C90.6643 32.7873 91.8197 30.9811 92.8574 28.626C93.8951 26.2709 96.32 24.1 96.9476 21.9857C97.5752 19.8714 97.6394 14.4494 95.2252 15.7633C92.8111 17.0772 92.3083 21.9255 91.2492 24.7268C90.1901 27.5282 83.7072 36.4775 87.1519 34.6466Z" fill="#263238"/>
<path d="M66.0416 40.3731C67.6463 40.1287 70.7308 40.7875 73.5301 44.6689C76.5362 48.8373 77.096 56.1115 75.2097 56.7101C75.2097 56.7101 70.8378 56.2001 67.8353 54.6383C64.8327 53.0765 59.7869 42.5263 66.0416 40.3731Z" fill="#263238"/>
<path d="M117.32 75.0801C112.663 73.2633 108.851 70.1397 105.552 66.6478C102.899 63.0709 91.5309 47.7539 89.559 45.5971C88.8458 44.8321 87.1555 42.8631 84.8127 42.3708C76.5183 40.6 61.1597 40.8621 61.1597 40.8621L55.2545 39.874L43.4868 50.8739C45.1093 52.5916 47.1455 54.0896 50.1231 55.6302C53.1006 57.1707 56.3207 58.2899 60.664 57.9251C69.3578 57.1955 74.5713 54.7554 79.2248 53.6753C80.5728 53.3636 81.9706 53.0768 83.0297 55.2725C84.0888 57.4682 84.1744 58.5696 87.3088 60.9035C91.3277 63.8996 97.9639 67.2499 100.859 70.8197C101.336 71.6948 101.621 72.6605 101.694 73.6529C101.968 77.4175 105.149 76.6773 107.713 78.3135C109.111 79.206 110.149 80.2897 111.832 80.658C113.364 80.9711 114.948 80.9421 116.468 80.573C117.837 80.2507 119.798 79.2697 120.472 77.9452C121.357 76.1815 118.661 75.6007 117.32 75.0801Z" fill="#FFEDE5"/>
<path d="M117.32 75.0801C112.663 73.2633 108.851 70.1397 105.552 66.6478C102.899 63.0709 91.5309 47.7539 89.559 45.5971C88.8458 44.8321 87.1555 42.8631 84.8127 42.3708C76.5183 40.6 61.1597 40.8621 61.1597 40.8621L55.2545 39.874L43.4868 50.8739C45.1093 52.5916 47.1455 54.0896 50.1231 55.6302C53.1006 57.1707 56.3207 58.2899 60.664 57.9251C69.3578 57.1955 74.5713 54.7554 79.2248 53.6753C80.5728 53.3636 81.9706 53.0768 83.0297 55.2725C84.0888 57.4682 84.1744 58.5696 87.3088 60.9035C91.3277 63.8996 97.9639 67.2499 100.859 70.8197C101.336 71.6948 101.621 72.6605 101.694 73.6529C101.968 77.4175 105.149 76.6773 107.713 78.3135C109.111 79.206 110.149 80.2897 111.832 80.658C113.364 80.9711 114.948 80.9421 116.468 80.573C117.837 80.2507 119.798 79.2697 120.472 77.9452C121.357 76.1815 118.661 75.6007 117.32 75.0801Z" fill="#FFEDE5"/>
<path d="M87.0414 59.1184C86.1586 58.1466 85.4883 57.0034 85.073 55.7611C84.754 54.7227 84.3435 53.7142 83.8464 52.7473C82.3986 50.2682 72.7919 53.4308 68.5377 54.727C68.2988 55.0811 67.3003 56.1436 66.9437 57.0289C72.0965 55.9842 75.8051 54.4649 79.2177 53.6716C80.5657 53.36 81.9635 53.0731 83.0226 55.2688C84.0817 57.4646 84.1673 58.566 87.3018 60.8998C88.935 62.1181 90.9997 63.3789 93.0715 64.7211C90.7572 62.9362 89.0134 61.1477 87.0414 59.1184Z" fill="#F28F8F"/>
<path d="M56.1674 39.874C56.1674 39.874 64.608 40.2848 66.0415 40.3875C66.0415 40.3875 62.8643 41.2375 66.7298 48.9969C70.5953 56.7564 75.2132 56.7139 75.2132 56.7139C69.151 58.6405 66.0023 60.8043 58.2749 59.9012C49.064 58.5803 43.4797 51.731 43.4797 51.731L56.1674 39.874Z" fill="#455A64"/>
<path opacity="0.15" d="M75.1918 56.7138C75.1217 56.7183 75.0514 56.7183 74.9814 56.7138C74.2932 56.6359 72.2463 56.1897 69.9534 53.7638C68.1333 54.2459 66.2866 54.6231 64.4226 54.8935C57.5332 55.8957 52.3661 54.6881 44.6672 50.6118L43.4797 51.7238C46.5351 55.1458 50.4546 57.6961 54.8337 59.1114C55.1012 59.1929 55.3758 59.2743 55.6539 59.3487C55.9142 59.416 56.1781 59.4833 56.442 59.5435L56.5133 59.5612C56.7558 59.6179 57.0054 59.6674 57.255 59.717L57.387 59.7418C57.6794 59.7985 57.9718 59.8481 58.2713 59.8906C58.7563 59.9472 59.2199 59.9897 59.6692 60.0251C60.1185 60.0605 60.55 60.0783 60.9707 60.0924H61.5877C61.7909 60.0924 61.9906 60.0924 62.1867 60.0924C62.7751 60.0924 63.335 60.0464 63.8734 59.9933C64.23 59.9578 64.5795 59.9153 64.9218 59.8658C65.7463 59.7417 66.563 59.5715 67.3681 59.3558C67.6819 59.2708 67.9921 59.1823 68.2988 59.0866C69.0726 58.8529 69.8357 58.5908 70.6202 58.3075L71.5723 57.9534C72.6992 57.5425 73.8831 57.1105 75.2096 56.689L75.1918 56.7138Z" fill="black"/>
<path d="M27.9427 29.3094C24.5123 30.4923 21.2708 32.5605 24.0202 38.613C27.9427 47.3534 45.7226 57.0571 54.8514 59.1183C50.2157 52.1521 54.074 44.7681 57.1015 39.9198L56.2849 33.9984C56.2849 33.9984 53.5463 32.6916 49.0104 29.2103C44.4745 25.729 42.5917 24.7834 35.8413 26.8233C31.202 28.2257 27.9427 29.3094 27.9427 29.3094Z" fill="url(#paint1_linear_444_815)"/>
<path opacity="0.05" d="M41.8394 49.064C32.5037 43.7518 29.5689 39.0203 25.9067 34.4766L23.5104 37.3806C23.5746 37.5683 23.6459 37.7595 23.7243 37.9579C23.723 37.9684 23.723 37.9792 23.7243 37.9897C23.8028 38.1916 23.8919 38.4005 23.9882 38.613C25.7284 42.4379 30.0967 46.4468 35.2317 49.9352C35.9449 50.431 36.7151 50.9162 37.4711 51.3872C37.8527 51.6245 38.2342 51.8583 38.6193 52.0955C41.2308 53.6484 43.9339 55.0439 46.7141 56.2745C49.3224 57.4704 52.0387 58.419 54.8266 59.1077C53.8112 57.609 53.1326 55.9107 52.8368 54.1284C49.5918 53.158 46.1114 51.497 41.8394 49.064Z" fill="black"/>
<path d="M25.3682 30.4962C25.3682 30.4962 13.8537 24.3836 12.0315 23.5584L22.1089 17.6831L19.9694 12.1689C19.9694 12.1689 4.99234 17.4564 2.13957 18.9757C0.645438 19.7796 0 20.4419 0 21.5823C0 23.4841 1.8222 25.9489 4.3469 28.0845C9.71366 32.6282 16.9953 36.8603 24.088 40.7276C25.7141 41.9247 27.4044 43.4298 27.4044 43.4298C29.2694 44.3577 31.9831 35.7943 25.3682 30.4962Z" fill="#FFEDE5"/>
<path d="M36.1481 9.25037C35.4289 7.59209 34.0758 6.2855 32.3866 5.61802C30.6973 4.95053 28.8102 4.97684 27.1405 5.69115C25.4708 6.40547 24.1552 7.74927 23.4831 9.42694C22.811 11.1046 22.8375 12.9787 23.5567 14.637C23.6031 14.7503 23.6602 14.853 23.7136 14.9593L21.9735 18.7204L19.4024 14.0137C19.4035 13.643 19.2657 13.2851 19.016 13.0095C18.7662 12.734 18.4223 12.5605 18.0509 12.5227C17.8626 12.5068 17.673 12.529 17.4935 12.5881C17.3141 12.6472 17.1487 12.7419 17.0073 12.8664C16.8659 12.9909 16.7514 13.1427 16.6709 13.3126C16.5904 13.4824 16.5455 13.6667 16.5389 13.8543L18.5038 14.0243C18.0726 14.3083 17.7421 14.7196 17.5588 15.2001C17.0917 16.4113 18.7177 18.8797 20.8965 21.0471C20.8965 21.0471 23.9811 25.3713 24.7299 25.9769C25.2125 26.3416 25.8173 26.5089 26.4202 26.4444L26.6056 17.9448C27.8581 18.6161 29.29 18.8833 30.7024 18.7093C32.1148 18.5353 33.4376 17.9287 34.4869 16.9738C35.5363 16.0189 36.2601 14.7631 36.5578 13.3809C36.8555 11.9987 36.7123 10.5587 36.1481 9.26099V9.25037Z" fill="#263238"/>
<path d="M23.4889 20.187C23.2037 20.5801 22.3336 20.0807 21.6453 19.7903C20.9571 19.4999 19.1135 19.4893 19.0422 21.4407C18.9709 23.392 21.385 24.9822 22.7722 24.837C25.1614 24.5926 24.9118 23.1158 24.9118 23.1158L28.4207 30.8327C32.4823 33.0426 40.0421 29.5649 35.5062 27.3798L34.5042 25.0884C35.3712 24.857 36.2087 24.5279 37.0003 24.1074C38.4267 23.2079 38.8939 21.5788 38.6407 19.7124C38.2377 16.7198 37.5709 14.4391 34.6682 9.44204C31.4588 3.98104 24.6835 6.80716 22.0376 10.6426C19.3917 14.4781 23.4889 20.187 23.4889 20.187Z" fill="#FFEDE5"/>
<path d="M23.7707 20.8419C23.5781 20.9304 22.3122 20.0309 21.6311 19.8007C20.7075 19.4855 19.2062 13.681 19.2062 13.681C19.2062 13.681 17.9795 12.6008 18.6535 10.653C19.2062 9.05578 21.246 7.98624 22.6581 7.27794C25.2042 5.99946 28.0534 4.5439 29.3014 1.86652C29.4013 1.65403 29.5439 1.41321 29.7793 1.40967C29.8524 1.41614 29.9235 1.43702 29.9884 1.47107C30.0533 1.50512 30.1107 1.55167 30.1573 1.60799C30.7452 2.26345 31.0767 3.10668 31.0916 3.98434C31.0916 4.0658 31.1165 4.1685 31.1985 4.19329C31.2806 4.21808 31.3412 4.15079 31.3911 4.09059C31.65 3.77565 31.8472 3.41527 31.9724 3.02814C32.1435 2.50045 33.0421 3.84268 33.1063 4.02684C33.3166 4.60947 33.4072 5.22801 33.3729 5.84598C33.3386 6.46396 33.1801 7.06886 32.9066 7.62501C32.3503 8.7335 31.2057 9.42055 30.1573 10.0261C27.8216 11.379 23.8277 12.6681 23.2714 12.8204C22.5154 13.0293 22.6616 13.7837 23.0896 15.8271C23.4818 17.6333 24.4161 20.5409 23.7707 20.8419Z" fill="#263238"/>
<path d="M34.5042 25.0882C34.5042 25.0882 30.332 25.963 28.8486 25.8532C27.9783 25.7904 27.1477 25.4669 26.4666 24.9253C26.9507 25.5497 27.5572 26.0701 28.2495 26.4552C29.6189 27.1989 34.8965 26.0125 34.8965 26.0125L34.5042 25.0882Z" fill="#F28F8F"/>
<path d="M27.9856 14.3044L26.7447 15.6502C26.5659 15.4775 26.4612 15.2429 26.4526 14.9954C26.444 14.7479 26.532 14.5067 26.6983 14.3221C26.7808 14.2356 26.88 14.1664 26.9899 14.1185C27.0998 14.0707 27.2182 14.0452 27.3382 14.0435C27.4582 14.0419 27.5773 14.0641 27.6885 14.1089C27.7997 14.1537 27.9007 14.2202 27.9856 14.3044Z" fill="#263238"/>
<path d="M31.9832 21.1783L33.8196 21.0933C33.8308 21.2132 33.8176 21.3342 33.7806 21.449C33.7437 21.5638 33.6838 21.67 33.6045 21.7612C33.5253 21.8525 33.4284 21.9269 33.3195 21.9801C33.2106 22.0333 33.0921 22.0641 32.9709 22.0707C32.722 22.0777 32.4801 21.9886 32.2959 21.8222C32.1118 21.6558 31.9997 21.425 31.9832 21.1783Z" fill="#F28F8F"/>
<path d="M35.5383 12.1688L33.7554 11.7155C33.7796 11.5976 33.8277 11.4858 33.8968 11.3869C33.9658 11.2879 34.0544 11.204 34.1571 11.1401C34.2598 11.0761 34.3745 11.0336 34.4942 11.015C34.614 10.9965 34.7362 11.0022 34.8537 11.032C35.0921 11.0993 35.2956 11.2544 35.4228 11.4657C35.5501 11.6769 35.5914 11.9284 35.5383 12.1688Z" fill="#263238"/>
<path d="M31.7334 14.9419L32.9494 19.2873L35.089 17.9982L31.7334 14.9419Z" fill="#F28F8F"/>
<path d="M28.3494 16.8896C28.3501 17.0464 28.3975 17.1994 28.4857 17.3294C28.5739 17.4594 28.6989 17.5605 28.8449 17.62C28.991 17.6795 29.1514 17.6947 29.3062 17.6637C29.4609 17.6327 29.6029 17.5569 29.7142 17.4458C29.8256 17.3347 29.9013 17.1933 29.9318 17.0395C29.9624 16.8858 29.9463 16.7264 29.8858 16.5817C29.8252 16.4369 29.7228 16.3132 29.5916 16.2262C29.4603 16.1392 29.306 16.0928 29.1481 16.0928C29.043 16.0928 28.9388 16.1134 28.8416 16.1535C28.7445 16.1936 28.6563 16.2523 28.5821 16.3264C28.5078 16.4004 28.4491 16.4883 28.4092 16.5849C28.3692 16.6816 28.3489 16.7851 28.3494 16.8896Z" fill="#263238"/>
<path d="M34.1298 14.641C34.1291 14.7932 34.1739 14.9423 34.2587 15.0692C34.3435 15.1962 34.4643 15.2952 34.6058 15.3538C34.7473 15.4124 34.9032 15.4279 35.0537 15.3984C35.2041 15.3689 35.3423 15.2956 35.4507 15.1879C35.5592 15.0802 35.633 14.943 35.6627 14.7935C35.6924 14.6441 35.6768 14.4893 35.6178 14.3488C35.5588 14.2082 35.4591 14.0882 35.3313 14.004C35.2035 13.9199 35.0534 13.8753 34.9 13.876C34.696 13.8769 34.5007 13.9578 34.3564 14.1011C34.2122 14.2443 34.1307 14.4384 34.1298 14.641Z" fill="#263238"/>
<path d="M101.23 74.4424C100.927 74.6478 101.398 75.944 101.673 76.2627C102.245 76.8149 102.951 77.2103 103.723 77.4102C105.127 77.8372 106.439 78.5193 107.592 79.4217C109.014 80.5654 110.669 81.3905 112.442 81.8406C114.546 82.3045 116.978 81.7131 119.099 80.4629C121.325 79.1561 121.118 77.9024 120.815 77.0666L101.23 74.4424Z" fill="#37474F"/>
<path d="M106.044 67.1685C106.758 67.9193 110.637 71.7299 113.615 72.7003C115.986 73.4723 119.071 74.209 120.422 75.6433C121.827 77.1378 119.734 79.0502 116.856 80.1481C113.854 81.2884 111.814 80.3676 109.821 79.3725C108.419 78.6642 106.355 77.2476 105.317 76.6774C104.279 76.1072 102.357 75.7956 101.555 74.9491C101.113 74.4817 100.795 73.1784 100.603 72.0345C100.428 70.972 99.722 70.0123 100.082 69.9556L100.667 70.5896C103.377 71.0854 106.201 68.5992 106.044 67.1685Z" fill="url(#paint2_linear_444_815)"/>
<path d="M12.0316 23.5581C10.3226 24.4749 8.47716 25.1146 6.56494 25.4528C6.56494 25.4528 9.59244 26.2071 13.1941 24.1354L12.0316 23.5581Z" fill="#F28F8F"/>
</g>
<defs>
<linearGradient id="paint0_linear_444_815" x1="94.7046" y1="34.303" x2="76.9356" y2="33.3337" gradientUnits="userSpaceOnUse">
<stop stop-color="#92A3FD"/>
<stop offset="1" stop-color="#9DCEFF"/>
</linearGradient>
<linearGradient id="paint1_linear_444_815" x1="57.1015" y1="59.1183" x2="11.6483" y2="55.5216" gradientUnits="userSpaceOnUse">
<stop stop-color="#92A3FD"/>
<stop offset="1" stop-color="#9DCEFF"/>
</linearGradient>
<linearGradient id="paint2_linear_444_815" x1="120.871" y1="80.6751" x2="93.2581" y2="77.3705" gradientUnits="userSpaceOnUse">
<stop stop-color="#92A3FD"/>
<stop offset="1" stop-color="#9DCEFF"/>
</linearGradient>
<clipPath id="clip0_444_815">
<rect width="121" height="82" fill="white"/>
</clipPath>
</defs>
</svg>
