<svg width="196" height="256" viewBox="0 0 196 256" fill="none" xmlns="http://www.w3.org/2000/svg">
<path d="M149.231 8.40466C149.231 8.40466 167.702 12.9663 175.015 21.7699C182.328 30.5734 179.814 53.2639 177.907 66.3261C176.001 79.3883 170.89 88.8315 176.938 93.3931C182.985 97.9548 185.154 93.7298 185.154 93.7298C185.154 93.7298 176.938 108.071 168.277 110.041C159.617 112.01 147.571 100.901 145.665 91.1207C143.758 81.3409 142.477 66.6459 144.021 56.5295C145.566 46.413 148.59 42.9791 150.118 36.1282C151.646 29.2773 150.43 17.8647 150.43 17.8647L149.231 8.40466Z" fill="#3B2645"/>
<path d="M122.478 255.863C159.417 255.863 189.362 230.157 189.362 198.447C189.362 166.736 159.417 141.03 122.478 141.03C85.5385 141.03 55.5933 166.736 55.5933 198.447C55.5933 230.157 85.5385 255.863 122.478 255.863Z" fill="#AB8DA8"/>
<path d="M65.7493 63.4313L64.2867 62.4382L57.4668 51.9682L62.9227 40.6903L75.1822 39.8655L76.6448 40.8754L65.7493 63.4313Z" fill="#393762"/>
<path d="M78.0081 62.623L65.7486 63.431L58.9287 52.961L64.3682 41.6831L76.6441 40.8751L83.4476 51.3451L78.0081 62.623Z" fill="#636183"/>
<path d="M107.523 58.6676C104.458 62.1311 101.84 65.9837 99.7339 70.1307C95.5927 77.8738 85.1245 88.6468 83.1854 90.835C82.272 92.0117 81.101 92.9516 79.7672 93.5787C77.9208 88.0415 76.46 82.3771 75.3959 76.6282C74.4263 69.895 72.9637 56.6645 72.9637 56.6645L76.8584 48.6858C76.8584 48.6858 73.6868 42.1883 72.4707 41.717C71.2546 41.2457 68.8224 41.9527 65.1742 45.2014C61.5259 48.4501 60.0469 51.682 61.756 55.6545C63.4651 59.6271 67.1133 63.6333 66.6861 70.1139C66.2588 76.5945 66.456 99.3019 68.6417 106.776C70.8273 114.249 70.5973 114.266 73.5717 114.266C76.5462 114.266 85.0752 110.513 94.0315 105.85C99.2773 103.166 103.73 99.0988 106.932 94.0669L107.523 58.6676Z" fill="#FFEDE5"/>
<path d="M126.027 54.6888C121.941 53.9773 117.76 54.0572 113.702 54.9245C107.655 56.4226 104.516 60.3783 103.3 67.5659C102.084 74.7535 97.7452 83.6748 100.654 90.4079C103.563 97.141 106.208 102.309 106.455 107.746C106.573 112.935 106.337 118.127 105.748 123.282C105.268 124.313 104.719 125.308 104.105 126.262C104.105 126.262 103.612 130.217 91.5169 126.75C79.4218 123.282 63.9578 124.275 48.0008 127.995C32.0438 131.715 23.5806 134.729 22.8575 140.132C22.1344 145.535 22.1344 179.251 23.5806 189.166C24.3939 195.841 24.2333 202.603 23.104 209.23C19.0962 212.087 14.7985 214.491 10.2858 216.401C3.5152 219.128 -0.346688 220.609 0.852961 223.134C2.05261 225.659 6.654 226.113 12.455 226.113C18.2561 226.113 26.2428 225.625 26.2428 225.625C26.2428 225.625 18.9956 230.322 14.1477 233.537C9.29981 236.752 4.73128 237.509 6.90051 240.977C9.06974 244.444 29.9075 243.451 34.9526 243.451C39.9977 243.451 45.8316 241.465 46.3082 239.243C46.7847 237.021 44.862 229.329 44.862 226.366C44.862 223.403 44.1389 210.257 47.0312 204.315C49.9235 198.373 54.2949 181.035 54.0484 174.353C53.8019 167.67 53.3253 163.462 53.3253 163.462C53.3253 163.462 81.098 167.367 91.9441 171.323C102.79 175.279 126.997 178.51 138.369 172.821C149.741 167.132 154.326 160.18 152.633 150.282C150.941 140.384 146.339 133.937 147.555 122.289C148.771 110.641 148.755 99.2619 151.664 93.5725C154.572 87.883 161.096 77.716 160.603 71.0334C160.11 64.3508 148.032 57.5672 141.984 55.177C135.937 52.7867 126.027 54.6888 126.027 54.6888Z" fill="#FFEDE5"/>
<path d="M22.7918 140.728C22.0687 146.165 22.0687 179.847 23.5149 189.761C24.3282 196.437 24.1676 203.199 23.0383 209.826C19.0305 212.683 14.7328 215.087 10.2201 216.997C3.44952 219.724 -0.412362 221.205 0.787287 223.73C1.98694 226.255 6.58833 226.709 12.3894 226.709C17.3194 226.709 23.7778 226.356 25.6348 226.238C26.8016 225.851 29.0859 225.026 29.0859 224.555C29.0859 224.083 31.0086 206.039 31.2551 188.634C31.5016 171.229 33.4408 151.13 33.4408 151.13L31.2715 142.209C29.2813 140.294 27.1374 138.554 24.8624 137.008C23.7567 137.951 23.0213 139.272 22.7918 140.728V140.728Z" fill="#FFEDE5"/>
<path d="M28.5929 217.99C28.5929 217.99 27.8698 216.306 26.6537 213.041C26.4395 212.193 25.9793 211.432 25.3337 210.858C24.6882 210.284 23.8878 209.924 23.0383 209.826C19.0305 212.682 14.7328 215.087 10.2201 216.997C3.44952 219.723 -0.412362 221.205 0.787287 223.73C1.98694 226.255 6.58833 226.709 12.3894 226.709C17.3194 226.709 23.7778 226.356 25.6348 226.238C26.8016 225.851 29.0859 225.026 29.0859 224.554C29.0859 224.285 29.3159 221.861 29.6446 218.108L28.5929 217.99Z" fill="#3B2645"/>
<path d="M121.919 135.021C115.692 131.663 110.27 126.932 106.044 121.167C105.913 122.632 105.798 123.659 105.732 123.878C105.251 124.908 104.702 125.903 104.089 126.857C104.089 126.857 103.596 130.813 91.5007 127.345C79.4056 123.878 63.9416 124.871 47.9846 128.591C32.0276 132.311 23.5644 135.324 22.8413 140.727C22.8413 140.98 22.8413 141.299 22.7427 141.67C23.6736 143.06 24.6775 144.397 25.75 145.676C27.8555 148.093 30.4915 149.962 33.4409 151.13C34.1804 154.597 38.7654 165.488 45.536 165.488C52.3066 165.488 53.2762 164.007 53.2762 164.007C53.2762 164.007 81.0982 167.963 91.9444 171.918C102.791 175.874 126.997 179.106 138.369 173.416C149.741 167.727 154.326 160.775 152.633 150.877C151.882 147.075 150.877 143.329 149.626 139.667C142.264 140.071 130.399 139.818 121.919 135.021Z" fill="#3B2645"/>
<path d="M105.748 123.878C105.267 124.908 104.718 125.904 104.105 126.857C104.105 126.857 103.612 130.813 91.5167 127.345C79.4216 123.878 63.9576 124.871 48.0006 128.591C32.0437 132.311 23.5804 135.324 22.8573 140.727C22.7094 141.821 22.5944 144.094 22.5122 147.006C25.6916 149.429 29.4862 150.861 33.4405 151.13C35.1703 148.07 37.6666 145.54 40.6714 143.8C43.6761 142.059 47.0802 141.173 50.5314 141.232C62.758 141.232 114.441 142.209 114.441 142.209L121.344 126.1C121.344 126.1 113.127 120.158 106.373 116.286C106.159 120.09 105.863 123.457 105.748 123.878Z" fill="#3B2645"/>
<path d="M147.653 125.174C148.278 122.43 160.603 107.92 161.836 102.87C163.068 97.8206 167.587 82.4523 163.479 73.6151C159.37 64.7779 154.227 62.6738 154.227 62.6738C150.452 59.8318 146.344 57.4851 142 55.6882C135.969 53.2138 126.043 55.2001 126.043 55.2001C121.957 54.4885 117.776 54.5685 113.718 55.4357C107.671 56.9339 104.532 60.8896 103.316 68.0771C102.1 75.2647 97.7447 84.2702 100.653 91.0033C103.562 97.7365 106.208 102.904 106.454 108.341C106.573 113.531 106.337 118.722 105.748 123.878C105.267 124.908 104.718 125.904 104.104 126.857V126.958C105.896 130.745 110.004 138.741 114.523 142.209C118.766 142.342 122.845 143.91 126.125 146.669C131.055 151.13 137.021 152.106 143.545 152.106C146.641 151.979 149.705 151.413 152.649 150.423C151.006 141.603 147.21 135.459 147.473 125.729C147.569 125.559 147.63 125.37 147.653 125.174V125.174Z" fill="#AB8DA8"/>
<path d="M145.024 40.3198C145.024 40.3198 151.088 30.7757 152.058 22.6118C153.027 14.4479 151.581 6.83951 142.872 2.05901C134.162 -2.72149 121.344 2.05901 117.482 6.83951C113.62 11.62 114.096 20.7097 113.127 22.696C112.157 24.6822 107.802 27.8973 108.295 29.1429C108.788 30.3885 111.927 32.0886 111.927 32.0886L113.571 39.7644C114.047 42.0031 115.493 44.9657 117.186 44.9657C119.487 44.7199 121.77 44.3264 124.022 43.7874C124.022 43.7874 124.499 51.5305 123.069 54.6445C121.146 58.8527 111.237 84.0682 115.592 86.6267C119.947 89.1853 138.369 69.39 143.677 65.1818C148.985 60.9736 142.033 55.7723 142.033 55.7723C142.033 55.7723 139.651 55.6713 140.62 49.4769C141.046 46.0055 142.597 42.7809 145.024 40.3198Z" fill="#FFEDE5"/>
<path d="M34.8867 243.996C39.9647 243.996 45.7657 242.01 46.2423 239.788C46.6367 238.004 45.4863 232.769 44.9933 229.2C43.9925 229.568 42.9477 229.794 41.8874 229.874C39.2925 229.965 36.6969 229.716 34.1636 229.133C34.1063 228.108 33.861 227.103 33.4406 226.171C32.7175 224.487 29.1021 224.487 29.1021 224.487L25.1087 226.272H26.1934C26.1934 226.272 18.9462 230.968 14.0983 234.183C9.25037 237.398 4.68184 238.155 6.85107 241.623C9.0203 245.091 29.8087 243.996 34.8867 243.996Z" fill="#3B2645"/>
<path d="M155.181 24.3279C156.134 16.164 151.582 6.83869 142.872 2.05819C135.592 -1.88068 125.469 0.778896 120.046 4.49893C121.13 4.70002 122.105 5.29835 122.79 6.18221C126.29 10.1042 124.433 17.275 127.572 20.5406C130.711 23.8061 132.338 22.8298 132.338 22.8298C132.338 22.8298 135.855 16.9552 137.432 22.8298C139.01 28.7044 136.808 31.2462 135.214 31.9532C134.08 32.3905 132.908 32.7174 131.713 32.9295C131.713 32.9295 140.259 40.6557 145.025 40.3864C145.025 40.319 154.211 32.5086 155.181 24.3279Z" fill="#3B2645"/>
<path d="M69.9399 66.9659L68.4938 65.9559L61.6738 55.4859L67.1133 44.208L79.3728 43.4L80.8353 44.3932L69.9399 66.9659Z" fill="#393762"/>
<path d="M82.2148 66.1412L69.939 66.966L63.1355 56.4792L68.575 45.2013L80.8344 44.3933L87.6544 54.8633L82.2148 66.1412Z" fill="#636183"/>
<path d="M167.521 160.775C165.814 156.657 164.824 152.265 164.596 147.797C164.596 143.235 159.485 131.469 159.485 128.86C160.177 118.61 161.406 108.406 163.166 98.2918C165.96 88.6635 165.73 78.244 163.478 73.615C161.227 68.986 152.172 69.8277 149.707 77.4024C147.242 84.9771 147.39 99.6721 147.39 99.6721C146.568 106.271 146.01 120.982 145.747 129.82C145.566 137.68 147.193 145.609 150.874 151.264C156.083 159.277 158.548 169.78 160.142 169.78C161.737 169.78 170.183 168.703 170.183 168.703C170.183 168.703 170.627 167.811 167.521 160.775Z" fill="#FFEDE5"/>
<path d="M172.075 177.288C172.075 177.288 173.718 168.165 173.356 166.195C172.995 164.226 167.621 165.556 165.386 165.556C163.151 165.556 161.574 165.219 161.886 166.532C162.198 167.845 166.668 168.215 166.668 168.215L168.311 168.855L172.075 177.288Z" fill="#FFEDE5"/>
<path d="M183.002 170.824H150.2V175.386H183.002V170.824Z" fill="#636183"/>
<path d="M195.097 160.724H180.767V184.862H195.097V160.724Z" fill="#636183"/>
<path d="M150.825 160.724H136.495V184.862H150.825V160.724Z" fill="#636183"/>
<path d="M156.248 167.239L158.039 176.194C158.157 176.792 158.48 177.327 158.951 177.701C159.422 178.075 160.008 178.263 160.603 178.23C162.838 178.096 166.305 177.894 168.343 177.675C171.531 177.355 172.484 178.331 172.813 175.992C172.961 174.813 173.207 172.625 173.421 170.773C173.464 170.368 173.421 169.958 173.295 169.571C173.17 169.184 172.964 168.829 172.693 168.531C172.422 168.232 172.091 167.997 171.723 167.841C171.356 167.685 170.96 167.611 170.562 167.626C168.08 167.626 164.958 167.828 164.202 167.828C162.936 167.895 158.795 164.31 156.248 167.239Z" fill="#FFEDE5"/>
</svg>
