<svg width="50" height="50" viewBox="0 0 50 50" fill="none" xmlns="http://www.w3.org/2000/svg">
<circle opacity="0.3" cx="25" cy="25" r="25" fill="url(#paint0_linear_444_869)"/>
<mask id="mask0_444_869" style="mask-type:alpha" maskUnits="userSpaceOnUse" x="0" y="0" width="50" height="50">
<circle cx="25" cy="25" r="25" fill="#C4C4C4"/>
</mask>
<g mask="url(#mask0_444_869)">
<path d="M24.2965 61.0665C23.44 61.068 22.5858 60.9772 21.7487 60.7955C20.2855 60.4939 18.9072 59.8707 17.7131 58.9705C16.519 58.0704 15.5387 56.9159 14.843 55.5901C14.291 54.35 13.8809 53.0511 13.6206 51.7183L13.5606 51.4645C12.7027 47.7993 11.6218 43.9232 9.62734 40.4214C9.30565 39.8578 8.95393 39.2943 8.61508 38.7522C7.7953 37.5249 7.10121 36.2176 6.54338 34.8503C5.68554 32.5058 5.84424 30.1741 7.0152 28.6383C7.16945 28.3997 7.37014 28.1948 7.60526 28.0359C7.84037 27.8769 8.10506 27.7672 8.38346 27.7134C8.55311 27.6928 8.72515 27.7074 8.88894 27.7563C9.05274 27.8051 9.20479 27.8871 9.33567 27.9973C9.43777 28.079 9.5215 28.1814 9.58138 28.2978C9.64125 28.4142 9.67592 28.542 9.6831 28.6727H9.4043C9.39759 28.5815 9.372 28.4927 9.32917 28.412C9.28633 28.3313 9.2272 28.2604 9.15552 28.2038C9.05369 28.119 8.93594 28.0555 8.80923 28.0171C8.68251 27.9786 8.54941 27.9661 8.41778 27.9801C7.93455 28.0906 7.51221 28.3832 7.23824 28.7975C6.12733 30.2645 5.95147 32.4886 6.80932 34.7428C7.36242 36.1003 8.05228 37.3976 8.86815 38.6146C9.207 39.1609 9.55871 39.7245 9.88469 40.2923C11.8835 43.8199 12.9772 47.7175 13.8351 51.4043L13.8951 51.6581C14.15 52.9688 14.5529 54.2461 15.0961 55.4654C15.7722 56.7537 16.725 57.8755 17.8858 58.7496C19.0467 59.6238 20.3866 60.2285 21.8087 60.5202C24.6845 61.0918 27.6683 60.6861 30.2885 59.3672C31.3377 58.8983 32.2849 58.2274 33.0765 57.3926C33.8818 56.4151 34.5025 55.2983 34.908 54.0973C35.6243 52.2131 36.1948 50.2256 36.7095 48.3112C37.503 45.4547 38.3223 42.4992 39.712 39.8234C40.1409 39.0405 40.5698 38.2704 41.0245 37.5262C41.8758 36.1905 42.5941 34.774 43.1691 33.2973C43.6624 31.8949 43.6838 30.7162 43.2377 29.8558C43.0811 29.5688 42.8635 29.3199 42.6004 29.1267C42.3373 28.9334 42.035 28.8004 41.715 28.7373C41.4917 28.6843 41.259 28.6843 41.0356 28.7373C40.8123 28.7903 40.6043 28.8949 40.4283 29.0427L40.2438 28.8319C40.4508 28.6543 40.6962 28.5276 40.9605 28.4619C41.2249 28.3962 41.5008 28.3932 41.7665 28.4533C42.1296 28.5285 42.4716 28.6832 42.7682 28.9062C43.0648 29.1293 43.3086 29.4154 43.4822 29.7439C43.9669 30.6904 43.9454 31.9207 43.4264 33.4006C42.8455 34.8959 42.1155 36.3286 41.2475 37.6767C40.8186 38.421 40.3468 39.1867 39.9608 39.9611C38.5882 42.6111 37.7732 45.5536 36.984 48.3929C36.4479 50.3202 35.8946 52.312 35.1697 54.2049C34.755 55.4391 34.1183 56.5866 33.291 57.5905C32.4734 58.4519 31.4957 59.1447 30.4129 59.6297C28.5066 60.5604 26.4167 61.0513 24.2965 61.0665Z" fill="url(#paint1_linear_444_869)"/>
<path d="M27.4447 10.9743C27.6665 10.6212 27.7935 10.2167 27.8136 9.79984C27.8378 9.61264 27.8208 9.4224 27.7637 9.24252C27.7066 9.06265 27.6109 8.89751 27.4833 8.75877C27.3761 8.65552 27.2431 8.57378 27.1445 8.46193C27.0458 8.35008 26.9986 8.23393 26.9171 8.12638C26.8288 8.011 26.7151 7.9176 26.5849 7.85343C26.4547 7.78927 26.3116 7.75607 26.1665 7.75641C25.8706 7.75641 25.5574 7.89407 25.3087 7.75641C25.1543 7.67897 25.0513 7.5241 24.8797 7.43806C24.7183 7.35564 24.533 7.33279 24.3565 7.37353C24.2022 7.42749 24.0393 7.45229 23.8761 7.44667C23.6444 7.41225 23.4857 7.20576 23.2799 7.0896C23.174 7.03533 23.0576 7.00494 22.9389 7.00055C22.8201 6.99617 22.7018 7.01789 22.5923 7.06421C22.4827 7.11053 22.3846 7.18032 22.3048 7.26868C22.225 7.35704 22.1655 7.46184 22.1303 7.57573C22.1024 7.68436 22.1024 7.79834 22.1303 7.90698C22.1775 8.1694 22.3577 8.38019 22.3705 8.64261C22.3834 8.90503 22.2247 9.13304 22.3705 9.36534C22.5164 9.59765 22.7308 9.60625 22.8338 9.82565C22.971 10.1225 22.8338 10.5097 22.9582 10.828C23.0225 11.0302 23.0568 11.3184 23.2455 11.4475C23.5072 11.6282 24.0777 11.4776 24.3908 11.4475L25.6046 11.3485C26.1408 11.2969 26.8013 11.3485 27.286 11.0818C27.3445 11.0551 27.3982 11.0188 27.4447 10.9743Z" fill="#3B2645"/>
<path d="M23.327 10.7848C23.2845 10.7262 23.2286 10.6784 23.1642 10.6455C23.0997 10.6126 23.0284 10.5955 22.956 10.5955C22.8837 10.5955 22.8124 10.6126 22.7479 10.6455C22.6834 10.6784 22.6276 10.7262 22.585 10.7848C22.2118 11.215 22.8424 12.0754 23.327 12.127C23.3553 11.6801 23.3553 11.2318 23.327 10.7848Z" fill="#E0855C"/>
<path d="M29.3535 17.9906C29.2404 18.7153 29.0886 19.4333 28.8988 20.1416C28.8688 20.275 28.843 20.404 28.8259 20.5288C28.8087 20.6536 28.7916 20.7482 28.7701 20.9074C28.7701 20.9375 28.7701 20.9719 28.7701 21.002C28.7701 21.1053 28.7401 21.2128 28.7272 21.329L28.1868 26.3838C24.8283 27.3087 21.324 26.3838 21.324 26.3838C21.324 26.3838 21.324 26.3192 21.324 26.1945C21.2683 25.6223 21.0967 23.8026 20.9251 21.7506C20.9251 21.7506 20.9251 21.7204 20.9251 21.7075C20.9269 21.676 20.9269 21.6444 20.9251 21.6129C20.8522 20.7525 20.7836 19.8405 20.7278 18.9715C20.6249 17.4615 20.5605 16.0677 20.5734 15.203C20.5734 14.8846 21.3154 14.919 21.8216 14.8502C22.1947 14.7986 22.5765 14.7642 22.9067 14.747C23.237 14.7298 23.4858 14.7212 23.6531 14.7212H23.8418C23.8418 14.7212 23.8847 14.2264 23.8847 14.2221L24.0005 13.009C24.0568 13.0235 24.1142 13.0336 24.1721 13.0391C24.2782 13.059 24.3858 13.0705 24.4938 13.0735C24.6353 13.0735 24.7683 13.0735 24.8927 13.0735L25.0771 13.052H25.1843C25.3044 13.0305 25.4202 13.0047 25.5275 12.9746C25.6347 12.9444 25.669 12.9315 25.7376 12.91C26.051 12.8093 26.3485 12.6645 26.6212 12.4798L26.6598 12.454L26.7327 12.3981L26.7842 12.3594C26.7842 12.4196 26.7842 12.4454 26.7842 12.4712C26.7499 12.7552 26.7113 13.1165 26.6941 13.4736C26.6941 13.7231 26.6684 13.9683 26.6598 14.1791C26.6512 14.3899 26.5826 14.6953 26.7327 14.8029C26.7863 14.8331 26.8442 14.8548 26.9043 14.8674C27.1397 14.9047 27.378 14.9205 27.6163 14.9147C27.6892 14.9147 27.7622 14.9147 27.8351 14.9147C28.0179 14.9041 28.2012 14.9041 28.3841 14.9147C28.5119 14.9144 28.6384 14.9397 28.7563 14.9892C28.8742 15.0387 28.981 15.1114 29.0704 15.203C29.1815 15.3644 29.2522 15.5503 29.2762 15.745L29.3277 16.0978C29.4094 16.7256 29.418 17.3608 29.3535 17.9906Z" fill="#FFEDE5"/>
<path d="M26.7671 12.3293C26.7091 12.6372 26.5838 12.9284 26.4002 13.1819C26.2166 13.4354 25.9793 13.6449 25.7053 13.7955C25.4314 13.946 25.1275 14.0338 24.8157 14.0526C24.5039 14.0713 24.1918 14.0205 23.9019 13.9039L23.9834 13.0134C24.4691 13.1073 24.9693 13.0949 25.4498 12.9768C25.9303 12.8587 26.3796 12.6379 26.7671 12.3293Z" fill="#E0855C"/>
<path d="M23.413 9.49442C23.1642 9.75254 23.1427 10.329 23.1256 10.9657C23.0612 12.9016 23.6403 13.5038 24.6225 13.6114C25.6048 13.7189 26.6385 13.3361 26.8486 11.5465C26.9559 10.6473 27.0674 9.82567 26.7414 9.43419C26.2739 8.85773 24.1679 8.70286 23.413 9.49442Z" fill="#FFEDE5"/>
<path d="M26.7029 11.2841C26.7029 11.2841 27.0031 10.4839 27.4792 10.9098C27.9553 11.3357 27.2991 12.5445 26.5699 12.4542C26.5785 12.4542 26.4798 11.5594 26.7029 11.2841Z" fill="#FFEDE5"/>
<path d="M27.2689 11.2754C27.1563 11.3107 27.0555 11.3761 26.9773 11.4647C26.8887 11.5389 26.817 11.6313 26.7671 11.7357C26.7671 11.7658 26.7971 11.7873 26.8186 11.7658C26.879 11.7058 26.9363 11.6426 26.9901 11.5765C27.0293 11.6198 27.0777 11.6536 27.1317 11.6755C27.1746 11.6755 27.2089 11.6368 27.1917 11.6024C27.162 11.5568 27.1224 11.5186 27.0759 11.4905C27.156 11.4391 27.232 11.3816 27.3032 11.3184C27.3046 11.3133 27.3047 11.3078 27.3036 11.3026C27.3025 11.2974 27.3001 11.2925 27.2968 11.2883C27.2935 11.2841 27.2892 11.2808 27.2844 11.2786C27.2795 11.2763 27.2743 11.2752 27.2689 11.2754Z" fill="#E0855C"/>
<path d="M23.9705 10.9224C23.9705 10.9224 23.8033 10.9827 23.829 10.6858C23.8547 10.389 23.9705 10.4578 23.9705 10.4578C23.9705 10.4578 24.0863 10.4578 24.0692 10.6901C24.052 10.9224 23.9705 10.9224 23.9705 10.9224Z" fill="#3B2645"/>
<path d="M25.6562 10.9224C25.6562 10.9224 25.4933 10.9827 25.519 10.6858C25.5447 10.389 25.6562 10.4578 25.6562 10.4578C25.6562 10.4578 25.7721 10.4578 25.7549 10.6901C25.7377 10.9224 25.6562 10.9224 25.6562 10.9224Z" fill="#3B2645"/>
<path d="M24.1507 10.0236C24.0833 9.98534 24.0056 9.96931 23.9286 9.9778C23.8517 9.9863 23.7793 10.0189 23.7218 10.0709C23.7189 10.0768 23.7175 10.0833 23.7178 10.0899C23.7181 10.0965 23.7201 10.1028 23.7235 10.1084C23.7269 10.114 23.7317 10.1187 23.7374 10.1219C23.7431 10.1251 23.7496 10.1268 23.7561 10.1269C23.8162 10.1269 23.8676 10.0924 23.9277 10.0881C23.9906 10.0851 24.0534 10.0954 24.1121 10.1183C24.1679 10.1355 24.2065 10.0494 24.1507 10.0236Z" fill="#3B2645"/>
<path d="M25.9093 10.1699C25.8407 9.99782 25.5447 9.98491 25.416 10.0882C25.4098 10.093 25.4047 10.0992 25.4013 10.1063C25.3978 10.1133 25.396 10.1211 25.396 10.129C25.396 10.1369 25.3978 10.1447 25.4013 10.1518C25.4047 10.1589 25.4098 10.1651 25.416 10.1699C25.4931 10.1763 25.5706 10.1763 25.6476 10.1699C25.71 10.18 25.7706 10.1988 25.8278 10.2258C25.8352 10.2367 25.8466 10.2441 25.8594 10.2465C25.8723 10.249 25.8856 10.2461 25.8964 10.2387C25.9072 10.2313 25.9146 10.2199 25.9171 10.207C25.9195 10.1941 25.9167 10.1807 25.9093 10.1699Z" fill="#3B2645"/>
<path d="M24.3092 12.3079C24.671 12.3555 25.0388 12.2925 25.3644 12.1272C25.3157 12.242 25.2436 12.3453 25.1527 12.4305C25.0619 12.5157 24.9542 12.5809 24.8368 12.6219C24.4636 12.7252 24.3092 12.3079 24.3092 12.3079Z" fill="white"/>
<path d="M22.1432 15.1989C23.1297 15.8915 23.2198 17.2381 22.7394 18.3135C22.4134 19.032 21.8086 19.5353 21.4526 20.215C21.0816 20.8742 20.6509 21.4978 20.1658 22.0778C19.1021 23.4329 18.0898 24.6589 17.6995 25.1236C16.357 26.7325 13.5347 28.8577 12.5181 29.5976C12.2865 29.7697 12.1493 29.8643 12.1493 29.8643C12.1493 29.8643 11.1756 29.3524 11.433 28.406C11.433 28.406 15.2933 24.2933 15.8637 23.4544C16.4942 22.364 17.0668 21.2411 17.5794 20.0903C18.2371 18.814 18.9219 17.555 19.634 16.3131C19.9599 15.741 20.376 15.0225 21.0923 14.8935C21.3814 14.8609 21.6732 14.9228 21.9244 15.0699C22.0003 15.1076 22.0734 15.1507 22.1432 15.1989Z" fill="#FFEDE5"/>
<path d="M11.4331 28.4102C11.5387 28.402 11.6448 28.402 11.7505 28.4102C11.7505 28.4102 12.677 28.9264 12.5183 29.5975C12.5183 29.5975 12.4196 29.6878 12.2652 29.8255C12.1108 29.9632 11.9435 30.1266 11.7419 30.3331C11.5403 30.5396 11.0814 31.1935 10.8841 31.1376C10.8381 31.1206 10.7979 31.0907 10.7682 31.0516L10.3694 30.6214C10.1463 30.3719 9.77315 29.9503 10.0562 29.619C9.85035 29.7438 9.36996 30.0492 9.13405 29.9029L9.0354 29.7438C9.0354 29.7438 9.74312 29.2146 10.0348 28.9522C10.4283 28.6213 10.92 28.4307 11.4331 28.4102Z" fill="#FFEDE5"/>
<path d="M23.3143 21.7896C23.3129 21.8125 23.3129 21.8355 23.3143 21.8585C23.3143 21.8585 23.353 21.8585 23.3444 21.8585L23.3143 21.7896Z" fill="#D6BED3"/>
<path d="M24.9054 35.732C24.5108 38.9026 24.0476 41.6601 24.0476 41.6601C24.1119 42.4259 24.1419 43.2562 24.1419 44.1079C24.1419 45.7771 24.0304 47.5495 23.8889 49.1111C23.7087 51.1029 23.4599 52.7979 23.3527 53.6497V53.7572C23.5114 59.4057 21.9072 60.1543 21.1566 58.9196C20.406 57.6849 21.1566 54.0455 21.1566 54.0455C21.159 54.0125 21.159 53.9795 21.1566 53.9465C20.8408 52.2563 20.6303 50.548 20.5261 48.8315C20.2688 44.6758 20.7105 41.8322 20.6591 41.316C19.7626 32.2818 21.0151 27.3002 21.0151 27.3002C21.2106 26.5763 21.5637 25.9049 22.0488 25.3342C22.9624 24.3447 24.0604 24.5942 24.751 25.8031C24.8236 25.9271 24.8895 26.0549 24.9483 26.186C25.2297 26.8803 25.3893 27.6182 25.4201 28.3671C25.4887 30.2384 25.2271 33.125 24.9054 35.732Z" fill="#FFEDE5"/>
<path d="M29.3363 48.6121C29.2365 50.3643 29.0274 52.1086 28.7101 53.8346L28.6715 54.0454C28.6715 54.0454 29.4221 57.6978 28.6715 58.9196C27.9208 60.1413 26.3338 59.4272 26.4754 53.8346C26.4754 53.8088 26.4754 53.783 26.4754 53.7615C26.3553 52.9527 26.1151 51.2018 25.9263 49.1283C25.7805 47.5538 25.669 45.79 25.669 44.1208C25.669 43.2604 25.7033 42.4344 25.7676 41.6644C25.7676 41.6644 25.2915 38.9068 24.9098 35.7406C24.5881 33.1293 24.3222 30.2427 24.4337 28.3885C24.4658 27.6394 24.6269 26.9015 24.9098 26.2074C24.966 26.0723 25.0319 25.9415 25.1071 25.816C25.9006 24.435 27.2217 24.3146 28.1953 25.8719C28.4743 26.3233 28.6934 26.8092 28.8473 27.3173C28.8473 27.3173 30.0998 32.2861 29.2033 41.3331C29.139 41.8408 29.5636 44.5854 29.3363 48.6121Z" fill="#FFEDE5"/>
<path d="M11.3302 31.2021C11.4156 31.3013 11.5218 31.3805 11.6411 31.434C11.7604 31.4876 11.89 31.5141 12.0207 31.5119C12.0806 31.4979 12.137 31.4719 12.1866 31.4354C12.2362 31.3989 12.2778 31.3528 12.3091 31.2997C12.3404 31.2466 12.3606 31.1877 12.3685 31.1266C12.3765 31.0655 12.372 31.0033 12.3553 30.944C12.3054 30.8131 12.2244 30.6965 12.1194 30.6041C11.4717 29.9588 10.8069 29.3136 10.1335 28.7156C10.0209 28.5884 9.87053 28.5009 9.70454 28.4661C9.55017 28.466 9.40078 28.5209 9.28296 28.6209C9.16515 28.721 9.08655 28.8597 9.06116 29.0124C9.06116 29.2877 9.29706 29.391 9.49008 29.5459C10.0992 30.0879 10.7082 30.6558 11.3302 31.2021Z" fill="#3B2645"/>
<path d="M11.2357 30.4405C11.2624 30.4129 11.2842 30.3809 11.3001 30.3459C11.3109 30.3015 11.3116 30.2551 11.3019 30.2104C11.2923 30.1657 11.2726 30.1237 11.2443 30.0878C11.0856 29.8254 10.7596 29.4038 10.4379 29.365C10.3317 29.3596 10.226 29.3822 10.1311 29.4305C10.0363 29.4788 9.95578 29.5512 9.8975 29.6404C9.80124 29.7793 9.74003 29.9395 9.71911 30.1074C9.69819 30.2752 9.71819 30.4456 9.7774 30.604C9.87154 30.8889 10.0649 31.1303 10.3221 31.2837C10.4505 31.3383 10.5949 31.341 10.7251 31.2913C10.8554 31.2416 10.9615 31.1433 11.0213 31.017C11.0856 30.8578 11.0642 30.6642 11.1671 30.5309C11.1866 30.4983 11.2096 30.4681 11.2357 30.4405Z" fill="#FFEDE5"/>
<path d="M27.6507 15.199C26.6599 15.8917 26.5698 17.2382 27.0545 18.3137C27.3762 19.0321 27.9809 19.5354 28.3412 20.2151C28.7152 20.8724 29.1458 21.4957 29.628 22.0779C30.6917 23.433 31.7083 24.6591 32.0943 25.1237C33.4411 26.7412 36.2634 28.8578 37.28 29.5977L37.6532 29.8644C37.6532 29.8644 38.6225 29.3525 38.3652 28.4061C38.3652 28.4061 34.5049 24.2934 33.9344 23.4545C33.3022 22.3651 32.7295 21.242 32.2187 20.0904C31.5582 18.7998 30.8762 17.5565 30.1599 16.3132C29.8339 15.7411 29.4221 15.0227 28.7015 14.8936C28.4125 14.8613 28.1207 14.9232 27.8694 15.07C27.7934 15.1075 27.7203 15.1507 27.6507 15.199Z" fill="#FFEDE5"/>
<path d="M38.3608 28.4101C38.2537 28.402 38.1462 28.402 38.0391 28.4101C38.0391 28.4101 37.1126 28.9263 37.2713 29.5975C37.2713 29.5975 37.3743 29.6878 37.5244 29.8255C37.6745 29.9631 37.8504 30.1266 38.0477 30.3331C38.245 30.5396 38.7125 31.1935 38.9055 31.1376C38.9509 31.1194 38.9908 31.0897 39.0213 31.0515L39.416 30.6213C39.6433 30.3718 40.0122 29.9502 39.7334 29.619C39.9349 29.7437 40.4153 30.0492 40.6555 29.9029L40.737 29.7437C40.737 29.7437 40.0293 29.2146 39.7334 28.9522C39.3475 28.6254 38.8652 28.435 38.3608 28.4101Z" fill="#FFEDE5"/>
<path d="M38.4596 31.2022C38.3741 31.3015 38.268 31.3806 38.1486 31.4342C38.0293 31.4877 37.8997 31.5142 37.769 31.512C37.7083 31.499 37.651 31.4737 37.6005 31.4376C37.5499 31.4016 37.5073 31.3556 37.4751 31.3024C37.443 31.2492 37.422 31.19 37.4136 31.1284C37.4051 31.0668 37.4093 31.0041 37.4259 30.9441C37.4793 30.819 37.5617 30.7085 37.666 30.6215C38.3151 29.9762 38.9785 29.3467 39.6562 28.7329C39.7682 28.605 39.9188 28.5173 40.0852 28.4834C40.239 28.4835 40.3879 28.5385 40.505 28.6386C40.6221 28.7387 40.6998 28.8774 40.7243 29.0297C40.7243 29.3051 40.4926 29.4083 40.2953 29.5632C39.6906 30.088 39.0815 30.6559 38.4596 31.2022Z" fill="#3B2645"/>
<path d="M38.5581 30.4405C38.5288 30.4142 38.5055 30.3819 38.4895 30.3459C38.4804 30.3011 38.4811 30.2548 38.4915 30.2103C38.5018 30.1657 38.5216 30.1239 38.5495 30.0878C38.704 29.8254 39.0299 29.4038 39.3516 29.365C39.4578 29.3596 39.5636 29.3822 39.6584 29.4305C39.7532 29.4788 39.8338 29.5512 39.8921 29.6404C39.9872 29.7799 40.0468 29.9408 40.0655 30.1088C40.0842 30.2768 40.0615 30.4469 39.9993 30.604C39.908 30.8905 39.7139 31.1327 39.4546 31.2837C39.3262 31.3383 39.1818 31.341 39.0516 31.2913C38.9213 31.2416 38.8152 31.1433 38.7554 31.017C38.6954 30.8578 38.7168 30.6642 38.6096 30.5309L38.5581 30.4405Z" fill="#FFEDE5"/>
<path d="M29.4006 45.8543V46.2845C29.4006 46.5728 29.4006 46.8696 29.4006 47.175V47.5235C29.4006 47.8763 29.3749 48.2419 29.3577 48.6162C28.2472 48.9235 27.1037 49.0954 25.9521 49.1281C25.9049 48.6463 25.8105 47.3643 25.8063 47.2224C25.8063 46.9298 25.7419 46.1039 25.7376 45.992C25.7119 45.3639 25.6947 44.7358 25.6947 44.1206C25.6947 43.3205 25.7248 42.5375 25.7848 41.8105C25.7848 41.7589 25.7848 41.7116 25.7848 41.6642C25.7848 41.6169 25.3087 38.911 24.927 35.7404C24.8841 36.076 24.8412 36.4115 24.7983 36.7342C24.438 39.4616 24.0563 41.6642 24.0563 41.6642C24.1206 42.43 24.1506 43.2603 24.1506 44.112C24.1506 44.7616 24.1506 45.4026 24.1034 46.0823C24.1034 46.1942 24.0176 47.6311 24.0048 47.7687C23.9748 48.229 23.9362 48.6807 23.8975 49.1152C23.2971 49.0894 22.7051 49.0507 22.1175 48.9991C21.6543 48.9604 21.0709 48.9345 20.5048 48.8528C20.479 48.4656 20.4619 48.0957 20.449 47.7343C20.449 47.644 20.449 47.5536 20.449 47.4633C20.449 47.0675 20.449 46.6932 20.449 46.3319V46.0479C20.449 43.4409 20.7021 41.7245 20.6635 41.3158C19.767 32.2817 21.0195 27.3 21.0195 27.3C21.215 26.5761 21.568 25.9047 22.0532 25.334C22.4209 25.3911 22.7817 25.4862 23.1298 25.6179C23.6601 25.7569 24.2075 25.8192 24.7554 25.8029H25.15C25.6261 25.8029 26.1022 25.747 26.574 25.7341H26.8914C27.3437 25.7273 27.7954 25.7706 28.2382 25.8631C28.5029 26.3194 28.7077 26.8082 28.8473 27.3172C29.1938 28.9409 29.3976 30.5921 29.4564 32.2515C29.6017 35.2807 29.5171 38.3166 29.2033 41.333C29.1519 41.7159 29.3792 43.3549 29.4006 45.8543Z" fill="#3B2645"/>
<path d="M12.2094 14.6866C12.2094 14.6608 12.1579 14.6608 12.1537 14.6866C11.9392 16.1536 12.0636 17.698 12.0636 19.1994C12.0636 20.7868 12.0121 22.3871 12.1065 23.9702C12.1105 23.9871 12.1201 24.0022 12.1338 24.0129C12.1474 24.0237 12.1642 24.0295 12.1815 24.0295C12.1989 24.0295 12.2157 24.0237 12.2293 24.0129C12.2429 24.0022 12.2525 23.9871 12.2566 23.9702C12.3467 22.3871 12.2952 20.7868 12.2952 19.1994C12.2952 17.7324 12.4196 16.1665 12.2094 14.6866Z" fill="#F7F8F8"/>
<path d="M14.0838 15.1857C14.0793 15.1645 14.0676 15.1456 14.0509 15.1321C14.0341 15.1185 14.0132 15.1111 13.9916 15.1111C13.9701 15.1111 13.9492 15.1185 13.9324 15.1321C13.9156 15.1456 13.904 15.1645 13.8994 15.1857C13.8994 16.5967 13.8093 18.0336 13.8994 19.4403C13.8994 19.4643 13.9089 19.4872 13.9258 19.5042C13.9427 19.5211 13.9656 19.5306 13.9895 19.5306C14.0134 19.5306 14.0363 19.5211 14.0532 19.5042C14.0701 19.4872 14.0796 19.4643 14.0796 19.4403C14.1782 18.0336 14.0924 16.5967 14.0838 15.1857Z" fill="#F7F8F8"/>
<path d="M33.2609 29.9588C33.2574 29.9461 33.2498 29.9349 33.2394 29.9269C33.2289 29.9189 33.2161 29.9146 33.203 29.9146C33.1898 29.9146 33.177 29.9189 33.1666 29.9269C33.1561 29.9349 33.1486 29.9461 33.1451 29.9588C33.0242 31.8061 32.9999 33.6585 33.0722 35.5084C33.0722 37.3582 33.0722 39.2037 33.1408 41.0536C33.1444 41.0674 33.1525 41.0795 33.1637 41.0882C33.175 41.0969 33.1888 41.1016 33.203 41.1016C33.2172 41.1016 33.231 41.0969 33.2422 41.0882C33.2535 41.0795 33.2615 41.0674 33.2652 41.0536C33.3252 39.2037 33.3252 37.3582 33.3338 35.5084C33.4039 33.6585 33.3795 31.8062 33.2609 29.9588Z" fill="#F7F8F8"/>
<path d="M36.568 19.1393C36.5546 17.9083 36.4745 16.679 36.3278 15.4568C36.3278 15.3837 36.212 15.4052 36.2077 15.4568C36.1746 16.7786 36.2133 18.1013 36.3235 19.4189C36.3793 20.645 36.3664 21.9011 36.5294 23.1143C36.5294 23.2261 36.7181 23.1917 36.7224 23.0885C36.7825 21.7764 36.6452 20.4385 36.568 19.1393Z" fill="#F7F8F8"/>
<path d="M37.4258 19.8233C37.4228 19.8136 37.4168 19.8052 37.4087 19.7992C37.4006 19.7933 37.3908 19.79 37.3808 19.79C37.3707 19.79 37.3609 19.7933 37.3528 19.7992C37.3447 19.8052 37.3387 19.8136 37.3357 19.8233C37.2221 21.5907 37.2135 23.3634 37.31 25.1319C37.3073 25.1427 37.3071 25.1539 37.3095 25.1648C37.3118 25.1756 37.3165 25.1858 37.3233 25.1945C37.3302 25.2033 37.3389 25.2104 37.3488 25.2152C37.3588 25.2201 37.3697 25.2226 37.3808 25.2226C37.3918 25.2226 37.4028 25.2201 37.4127 25.2152C37.4227 25.2104 37.4314 25.2033 37.4382 25.1945C37.445 25.1858 37.4498 25.1756 37.4521 25.1648C37.4544 25.1539 37.4542 25.1427 37.4515 25.1319C37.5481 23.3634 37.5395 21.5907 37.4258 19.8233Z" fill="#F7F8F8"/>
<path d="M24.7769 36.7301C24.7834 36.3951 24.8265 36.0619 24.9055 35.7363C24.8626 36.0719 24.8197 36.4074 24.7769 36.7301Z" fill="#291B30"/>
<path d="M29.4435 32.2518C28.8645 28.7629 24.082 28.5994 24.082 28.5994C23.7861 27.1626 25.7162 26.7324 25.7162 26.7324L26.8443 25.7558C27.2966 25.7491 27.7482 25.7923 28.1911 25.8849C28.4705 26.332 28.6911 26.8135 28.8473 27.3174C29.1868 28.942 29.3862 30.5929 29.4435 32.2518Z" fill="#291B30"/>
<path d="M28.9159 27.6916C25.0556 29.5113 20.8607 27.8422 20.8607 27.8422C21.1653 26.9818 20.9379 22.5938 20.9165 21.7592C20.9165 21.7592 20.9165 21.7291 20.9165 21.7162C20.9182 21.6847 20.9182 21.6531 20.9165 21.6215C21.7271 19.7373 21.8172 16.1064 21.8215 14.8589C22.1861 14.8029 22.5678 14.7728 22.8981 14.7556C23.0268 16.1495 23.4857 19.7244 24.7639 19.5695C26.0421 19.4146 26.6512 16.2312 26.8742 14.8374C27.1094 14.8769 27.3479 14.8928 27.5862 14.8847C27.6591 14.8847 27.7321 14.8847 27.805 14.8847C27.6935 16.7904 28.7486 20.7956 28.7786 20.9074C28.7786 20.9375 28.7786 20.972 28.7786 21.0021C28.7786 21.1053 28.7486 21.2129 28.7357 21.329C28.7357 21.329 28.7357 21.3763 28.7357 21.4021C28.4655 23.8285 28.9159 27.6916 28.9159 27.6916Z" fill="url(#paint2_linear_444_869)"/>
</g>
<defs>
<linearGradient id="paint0_linear_444_869" x1="50" y1="50" x2="-16.6397" y2="44.8434" gradientUnits="userSpaceOnUse">
<stop stop-color="#92A3FD"/>
<stop offset="1" stop-color="#9DCEFF"/>
</linearGradient>
<linearGradient id="paint1_linear_444_869" x1="43.8313" y1="61.0665" x2="-6.50419" y2="56.6498" gradientUnits="userSpaceOnUse">
<stop stop-color="#92A3FD"/>
<stop offset="1" stop-color="#9DCEFF"/>
</linearGradient>
<linearGradient id="paint2_linear_444_869" x1="28.9159" y1="28.5414" x2="18.1378" y2="28.054" gradientUnits="userSpaceOnUse">
<stop stop-color="#92A3FD"/>
<stop offset="1" stop-color="#9DCEFF"/>
</linearGradient>
</defs>
</svg>
