<svg width="50" height="50" viewBox="0 0 50 50" fill="none" xmlns="http://www.w3.org/2000/svg">
<mask id="mask0_444_998" style="mask-type:alpha" maskUnits="userSpaceOnUse" x="0" y="0" width="50" height="50">
<circle cx="25" cy="25" r="25" fill="#C4C4C4"/>
</mask>
<g mask="url(#mask0_444_998)">
<g clip-path="url(#clip0_444_998)">
<g opacity="0.3">
<path opacity="0.3" d="M17.2125 29.7038H17.1926L16.4285 29.4817C16.4023 29.4735 16.3803 29.4552 16.3672 29.4306C16.354 29.4061 16.3509 29.3772 16.3583 29.3503C16.3658 29.3234 16.3833 29.3005 16.4071 29.2866C16.4309 29.2727 16.459 29.2689 16.4856 29.2759L17.2444 29.4953C17.2684 29.5033 17.2888 29.52 17.3018 29.5422C17.3147 29.5644 17.3194 29.5906 17.3148 29.6161C17.3103 29.6415 17.2969 29.6644 17.2771 29.6805C17.2574 29.6966 17.2325 29.7049 17.2072 29.7038H17.2125Z" fill="black"/>
<path opacity="0.3" d="M16.4286 30.305C16.4069 30.303 16.3864 30.2943 16.3698 30.28C16.3532 30.2657 16.3413 30.2466 16.3357 30.2252C16.3315 30.2111 16.3302 30.1963 16.3319 30.1817C16.3335 30.1672 16.3381 30.1531 16.3453 30.1404C16.3525 30.1277 16.3622 30.1166 16.3738 30.1079C16.3854 30.0992 16.3986 30.093 16.4127 30.0898L17.1768 29.8921C17.2033 29.8862 17.231 29.8911 17.254 29.9057C17.2771 29.9202 17.2937 29.9434 17.3004 29.9702C17.3071 29.997 17.3034 30.0255 17.29 30.0495C17.2765 30.0736 17.2545 30.0914 17.2285 30.0992L16.4631 30.2969C16.4521 30.3016 16.4404 30.3044 16.4286 30.305Z" fill="black"/>
<path opacity="0.3" d="M16.8186 31.0254C16.7934 31.0229 16.7699 31.0114 16.7523 30.9929C16.7329 30.9729 16.722 30.9459 16.722 30.9178C16.722 30.8896 16.7329 30.8626 16.7523 30.8426L17.3174 30.2807C17.327 30.2699 17.3387 30.2612 17.3517 30.2551C17.3647 30.2491 17.3788 30.2459 17.3932 30.2456C17.4075 30.2454 17.4217 30.2481 17.4349 30.2537C17.4481 30.2592 17.4601 30.2675 17.4701 30.278C17.4801 30.2884 17.4878 30.3009 17.4929 30.3145C17.498 30.3282 17.5003 30.3427 17.4997 30.3573C17.499 30.3719 17.4955 30.3862 17.4892 30.3993C17.483 30.4125 17.4742 30.4242 17.4633 30.4337L16.9008 30.9983C16.8897 31.0084 16.8767 31.016 16.8625 31.0207C16.8483 31.0253 16.8334 31.027 16.8186 31.0254Z" fill="black"/>
<path opacity="0.3" d="M17.5043 31.4519H17.4844C17.4708 31.4481 17.4582 31.4415 17.4472 31.4325C17.4362 31.4235 17.4271 31.4124 17.4204 31.3998C17.4137 31.3871 17.4096 31.3732 17.4083 31.3589C17.407 31.3446 17.4085 31.3302 17.4128 31.3165L17.6224 30.542C17.6304 30.5152 17.6483 30.4928 17.6724 30.4794C17.6965 30.466 17.7247 30.4627 17.7511 30.4703C17.7775 30.478 17.7999 30.4958 17.8135 30.5201C17.8271 30.5444 17.8309 30.5732 17.824 30.6002L17.6091 31.3748C17.6026 31.3977 17.5887 31.4178 17.5697 31.4318C17.5507 31.4458 17.5277 31.4529 17.5043 31.4519Z" fill="black"/>
</g>
<path d="M38.228 19.4276L36.327 20.5447L32.1643 21.1595C32.1643 21.1595 29.1251 16.4988 28.6595 15.7662C28.1939 15.0337 27.6486 14.5638 26.3871 14.5652L26.6259 18.2834C26.6657 18.404 29.1822 21.5684 30.8417 23.2935C31.428 23.9015 31.7875 24.0572 32.6989 23.7972C35.0376 23.1351 37.8725 21.173 38.1007 20.6828C38.4071 20.0424 38.2055 19.4412 38.228 19.4276Z" fill="#FFEDE5"/>
<path d="M37.4466 17.0704C37.6959 16.239 38.7147 15.562 39.6606 15.8328C39.8104 15.8751 39.954 15.9374 40.0877 16.0183C41.0163 16.5599 41.7552 17.8801 41.7552 18.9661C41.7583 19.1495 41.7332 19.3322 41.6809 19.5077C41.4329 20.3378 40.4167 21.0202 39.4669 20.748C39.3173 20.7052 39.1737 20.6428 39.0398 20.5625C38.1191 20.0209 37.3723 18.6993 37.3723 17.6134C37.3696 17.4296 37.3946 17.2464 37.4466 17.0704Z" fill="#455A64"/>
<path d="M39.0413 20.5543C38.1206 20.0127 37.3738 18.6911 37.3738 17.6052C37.3738 16.5192 38.1206 16.0805 39.0413 16.6221C39.9619 17.1638 40.7048 18.484 40.7048 19.5699C40.7048 20.6559 39.9619 21.096 39.0413 20.5543Z" fill="#37474F"/>
<path d="M39.041 17.8258C38.6868 17.6173 38.3989 17.7866 38.3989 18.2036C38.411 18.431 38.4754 18.6522 38.587 18.8494C38.6985 19.0465 38.8541 19.2141 39.041 19.3383C39.3952 19.5469 39.6817 19.3776 39.6817 18.9605C39.6699 18.7333 39.6057 18.5121 39.4944 18.3149C39.3831 18.1177 39.2277 17.9502 39.041 17.8258Z" fill="#455A64"/>
<path d="M38.8209 18.4531C38.8251 18.5309 38.8473 18.6067 38.8855 18.6742C38.9238 18.7417 38.9771 18.7991 39.0411 18.8417C39.0621 18.8571 39.0866 18.8671 39.1122 18.8706C39.1379 18.8742 39.1641 18.8712 39.1883 18.862L39.2043 18.8525C39.2232 18.8359 39.2381 18.815 39.2478 18.7915C39.2575 18.768 39.2617 18.7425 39.26 18.7171C39.2558 18.6394 39.2338 18.5637 39.1958 18.4963C39.1578 18.4288 39.1048 18.3713 39.0411 18.3285C39.0201 18.313 38.9956 18.3031 38.97 18.2995C38.9443 18.296 38.9181 18.299 38.8939 18.3082L38.8779 18.3177C38.8586 18.334 38.8434 18.3548 38.8335 18.3784C38.8236 18.4019 38.8193 18.4275 38.8209 18.4531Z" fill="#37474F"/>
<path d="M35.299 20.5288C35.3031 20.6066 35.325 20.6823 35.3631 20.7498C35.4011 20.8173 35.4541 20.8747 35.5179 20.9175C35.5464 20.9362 35.5795 20.9465 35.6134 20.9472C35.6391 20.9467 35.6643 20.9393 35.6863 20.9256L39.1885 18.862L39.2044 18.8525C39.2234 18.8359 39.2383 18.815 39.2479 18.7915C39.2576 18.768 39.2618 18.7425 39.2601 18.7171C39.2559 18.6394 39.2339 18.5637 39.1959 18.4963C39.1579 18.4288 39.1049 18.3713 39.0412 18.3285C39.0202 18.313 38.9958 18.3031 38.9701 18.2995C38.9444 18.296 38.9183 18.299 38.894 18.3082L38.8781 18.3177L35.3759 20.3812C35.3508 20.396 35.3302 20.4176 35.3166 20.4437C35.303 20.4698 35.2969 20.4993 35.299 20.5288Z" fill="#FAFAFA"/>
<path d="M31.8619 20.3623C32.11 19.5322 33.1261 18.8457 34.0759 19.1179C34.2259 19.161 34.3699 19.2233 34.5044 19.3034C35.4251 19.845 36.1719 21.1666 36.1719 22.2526C36.1742 22.4359 36.1491 22.6185 36.0976 22.7942C35.8482 23.6242 34.8334 24.3067 33.8836 24.0359C33.7341 23.9928 33.5905 23.9304 33.4564 23.8504C32.5358 23.3087 31.789 21.9872 31.789 20.9026C31.7859 20.7197 31.8105 20.5375 31.8619 20.3623Z" fill="#455A64"/>
<path d="M33.455 23.8448C32.5343 23.3032 31.7875 21.9816 31.7875 20.897C31.7875 19.8124 32.5343 19.371 33.455 19.9126C34.3756 20.4543 35.1225 21.7758 35.1225 22.8618C35.1225 23.9477 34.3769 24.3878 33.455 23.8448Z" fill="#37474F"/>
<path d="M33.4548 21.1138C33.1006 20.9039 32.8141 21.0732 32.8141 21.4916C32.8261 21.7186 32.8904 21.9395 33.0017 22.1365C33.113 22.3334 33.2683 22.5007 33.4548 22.6249C33.809 22.8335 34.0969 22.6642 34.0969 22.2471C34.0846 22.02 34.0201 21.7991 33.9086 21.6021C33.797 21.4052 33.6416 21.2379 33.4548 21.1138Z" fill="#455A64"/>
<path d="M33.2361 21.7431C33.2402 21.8209 33.2621 21.8965 33.3001 21.964C33.3381 22.0315 33.3912 22.089 33.4549 22.1317C33.476 22.1472 33.5004 22.1571 33.5261 22.1607C33.5518 22.1642 33.5779 22.1612 33.6022 22.152C33.6081 22.15 33.6135 22.1468 33.6181 22.1426C33.6373 22.1261 33.6525 22.1053 33.6624 22.0818C33.6723 22.0583 33.6767 22.0327 33.6751 22.0071C33.6708 21.9293 33.6486 21.8536 33.6103 21.7861C33.5721 21.7186 33.5189 21.6612 33.4549 21.6185C33.4339 21.6035 33.4097 21.5939 33.3843 21.5906C33.3588 21.5873 33.333 21.5904 33.309 21.5996L33.2931 21.6091C33.2738 21.6252 33.2586 21.6457 33.2487 21.669C33.2388 21.6923 33.2344 21.7177 33.2361 21.7431Z" fill="#37474F"/>
<path d="M32.7055 22.0615C32.7093 22.1393 32.7311 22.2151 32.7691 22.2827C32.8072 22.3502 32.8604 22.4076 32.9244 22.4501C32.9529 22.4689 32.986 22.4792 33.0199 22.4799C33.0456 22.4793 33.0708 22.4718 33.0928 22.4582L33.6022 22.1576C33.6081 22.1556 33.6135 22.1524 33.6182 22.1482C33.6374 22.1317 33.6525 22.1109 33.6624 22.0874C33.6723 22.0639 33.6767 22.0383 33.6752 22.0128C33.6708 21.9349 33.6487 21.8592 33.6104 21.7917C33.5722 21.7242 33.5189 21.6668 33.455 21.6241C33.434 21.6091 33.4098 21.5996 33.3843 21.5963C33.3589 21.593 33.3331 21.596 33.3091 21.6052L33.2932 21.6147L32.7824 21.9139C32.7573 21.9286 32.7367 21.9503 32.7231 21.9764C32.7095 22.0025 32.7034 22.032 32.7055 22.0615Z" fill="#FAFAFA"/>
<path d="M32.7055 22.0614C32.7094 22.1393 32.7312 22.2153 32.7693 22.283C32.8073 22.3508 32.8604 22.4085 32.9244 22.4513C32.9456 22.4664 32.9701 22.4759 32.9957 22.4792C33.0214 22.4825 33.0474 22.4795 33.0716 22.4703L33.0875 22.4608C33.1069 22.4445 33.1222 22.4237 33.1321 22.4002C33.142 22.3766 33.1463 22.351 33.1446 22.3254C33.1401 22.2474 33.1179 22.1715 33.0797 22.1038C33.0414 22.0361 32.9883 21.9785 32.9244 21.9354C32.9031 21.9204 32.8787 21.9108 32.853 21.9075C32.8274 21.9042 32.8013 21.9073 32.7771 21.9165L32.7612 21.926C32.7421 21.9425 32.7272 21.9633 32.7175 21.9869C32.7078 22.0104 32.7037 22.0359 32.7055 22.0614Z" fill="#E0E0E0"/>
<path d="M37.0128 21.6363C37.818 21.0093 38.5901 21.0134 38.4508 19.4806C38.3327 18.8036 38.1682 18.7548 37.5222 18.4975C37.2383 18.3852 36.8589 18.2998 36.6321 18.5652C36.6072 18.5986 36.5797 18.6298 36.5498 18.6587C36.4829 18.7022 36.4062 18.7274 36.327 18.7318C36.1757 18.7393 36.0319 18.8012 35.921 18.9065C35.8454 18.9945 35.8162 19.115 35.7419 19.203C35.6706 19.272 35.5938 19.3349 35.5125 19.3912C35.4541 19.4429 35.4071 19.5064 35.3744 19.5778C35.3418 19.6492 35.3241 19.7268 35.3228 19.8056C35.3281 19.8956 35.3527 19.9834 35.3949 20.0627C35.4371 20.142 35.4958 20.2109 35.5668 20.2646L35.9728 20.0263C36.1386 19.9098 36.4808 20.3255 36.3336 20.5449C36.0988 20.8942 37.0128 21.6363 37.0128 21.6363Z" fill="#FFEDE5"/>
<path d="M27.6341 24.7181C27.8914 23.6565 27.9657 21.0039 27.9657 21.0039L20.4335 21.2341L20.8434 22.9091C20.911 23.2867 20.947 23.6694 20.9508 24.0533C20.9508 24.0533 21.6818 25.4358 23.8494 25.6781C25.1813 25.8077 26.5166 25.469 27.6341 24.7181Z" fill="#FFEDE5"/>
<path d="M27.9697 21.004C27.979 21.088 27.9259 21.8909 27.9259 21.8909C26.9628 22.7183 23.8732 23.1367 20.6298 22.0358L19.9426 19.3277C19.9426 19.3277 22.2747 18.2824 20.6988 14.7753L22.3928 14.6399L25.4001 14.5627H26.3871C27.1986 15.3675 27.8845 16.2945 28.4207 17.3115C28.8147 18.0616 29.3161 19.1611 27.9697 21.004Z" fill="#455A64"/>
<path d="M23.7075 21.0284C22.3504 20.675 22.0108 19.8097 21.914 19.1733C21.914 19.1733 21.658 21.0284 23.5974 21.4604C25.643 21.9153 26.484 20.262 26.484 20.262C26.484 20.262 25.3445 21.4549 23.7075 21.0284Z" fill="#37474F"/>
<path d="M12.1557 41.6709C11.7577 41.9674 10.8411 42.0392 10.0332 41.6519C9.22531 41.2646 8.88837 40.1624 9.03959 39.3107C9.22266 38.2722 9.72543 37.7048 9.85278 37.0792C9.98013 36.4537 9.85278 35.5898 10.0465 35.0319C10.1263 34.8175 10.2506 34.6232 10.4109 34.4624C10.5712 34.3016 10.7636 34.1781 10.9751 34.1003C11.1098 34.0471 11.2548 34.0262 11.3987 34.0391C11.5427 34.052 11.6818 34.0984 11.8055 34.1748L12.0443 34.3183L12.1557 41.6709Z" fill="#263238"/>
<path d="M13.1042 37.7102L12.4754 39.6357C12.4754 39.6357 12.8733 41.0087 12.6491 41.3743C12.3188 41.9159 11.7365 42.0107 10.7561 41.7047C9.63518 41.3567 9.3712 40.3208 9.42957 39.5165C9.50916 38.3696 10.5479 37.5071 10.4285 36.4022C10.3701 35.8606 10.4431 35.2553 10.7336 34.7895C11.0586 34.2695 11.5919 34.172 12.145 34.3413C12.62 34.4875 13.0365 34.7922 13.4384 35.0779C13.5538 35.1529 13.6583 35.244 13.7489 35.3487C13.8209 35.4467 13.8748 35.5573 13.9081 35.675C13.9808 35.9117 14.0025 36.1616 13.9717 36.4076C13.9425 36.6378 13.7979 36.7718 13.664 36.9492L13.1042 37.7102Z" fill="url(#paint0_linear_444_998)"/>
<path d="M15.8143 36.7991C15.7759 36.7842 13.855 35.5303 13.648 35.4356C13.4411 35.3408 12.9317 35.2067 12.4395 36.3699C12.088 37.1972 12.5934 37.5032 12.5934 37.5032L14.8486 38.8708L15.8143 36.7991Z" fill="#FFEDE5"/>
<path d="M12.4755 39.6358C12.069 39.4285 11.6191 39.3257 11.1648 39.3366C11.1311 39.3398 11.0971 39.3345 11.0658 39.3212C11.0346 39.3079 11.007 39.2869 10.9855 39.2602C10.964 39.2334 10.9493 39.2017 10.9426 39.1678C10.936 39.1339 10.9376 39.0989 10.9473 39.0658C10.96 39.0263 10.984 38.9916 11.0161 38.966C11.0482 38.9405 11.0871 38.9252 11.1277 38.9222C11.4315 38.8978 12.169 38.8884 12.6585 39.3C12.7885 39.5681 12.4755 39.6358 12.4755 39.6358Z" fill="url(#paint1_linear_444_998)"/>
<path d="M12.7063 38.7555C12.311 38.527 11.8669 38.401 11.4129 38.3885C11.3787 38.3903 11.3446 38.3833 11.3137 38.3683C11.2828 38.3533 11.256 38.3307 11.2357 38.3025C11.2155 38.2743 11.2024 38.2414 11.1977 38.2068C11.1929 38.1722 11.1967 38.137 11.2086 38.1042C11.2232 38.0653 11.2488 38.0317 11.282 38.0076C11.3153 37.9835 11.3548 37.97 11.3956 37.9688C11.7007 37.9607 12.4383 37.9918 12.9066 38.4278C13.022 38.7054 12.7063 38.7555 12.7063 38.7555Z" fill="url(#paint2_linear_444_998)"/>
<path opacity="0.3" d="M12.4755 39.6358C12.069 39.4285 11.6191 39.3257 11.1648 39.3366C11.1311 39.3398 11.0971 39.3345 11.0658 39.3212C11.0346 39.3079 11.007 39.2869 10.9855 39.2602C10.964 39.2334 10.9493 39.2017 10.9426 39.1678C10.936 39.1339 10.9376 39.0989 10.9473 39.0658C10.96 39.0263 10.984 38.9916 11.0161 38.966C11.0482 38.9405 11.0871 38.9252 11.1277 38.9222C11.4315 38.8978 12.169 38.8884 12.6585 39.3C12.7885 39.5681 12.4755 39.6358 12.4755 39.6358Z" fill="black"/>
<path opacity="0.3" d="M12.7063 38.7555C12.311 38.527 11.8669 38.401 11.4129 38.3885C11.3787 38.3903 11.3446 38.3833 11.3137 38.3683C11.2828 38.3533 11.256 38.3307 11.2357 38.3025C11.2155 38.2743 11.2024 38.2414 11.1977 38.2068C11.1929 38.1722 11.1967 38.137 11.2086 38.1042C11.2232 38.0653 11.2488 38.0317 11.282 38.0076C11.3153 37.9835 11.3548 37.97 11.3956 37.9688C11.7007 37.9607 12.4383 37.9918 12.9066 38.4278C13.022 38.7054 12.7063 38.7555 12.7063 38.7555Z" fill="black"/>
<path d="M32.2824 41.8797L34.7777 40.8696C34.7353 40.2128 34.5761 39.3381 34.7419 37.6198L31.911 37.0701V39.9623L32.2824 41.8797Z" fill="#FFEDE5"/>
<path d="M39.402 44.1163C39.4683 44.3213 39.456 44.5444 39.3675 44.7405C39.2826 44.9233 38.3474 45.4609 37.0858 45.3742C36.1503 45.3073 35.2493 44.9861 34.4764 44.444C33.9962 44.119 33.4948 44.0581 32.8713 44.0215C32.2478 43.9849 31.4253 43.6667 31.2887 43.3688C31.1521 43.0709 31.3099 42.5564 31.3099 42.5564L39.402 44.1163Z" fill="#263238"/>
<path d="M34.3119 40.0973L34.4114 40.0756C34.4655 40.0608 34.522 40.058 34.5772 40.0675C34.6385 40.0868 34.6929 40.124 34.7338 40.1745C34.8573 40.3352 34.9648 40.508 35.0548 40.6904C35.3201 41.1304 35.8746 41.496 36.4809 41.8278C36.8934 42.0539 37.2967 42.234 37.7225 42.4249C38.1484 42.6158 38.732 42.7458 39.0716 42.9801C39.5665 43.32 39.6315 44.1757 39.0716 44.5129C38.5861 44.8054 37.306 45.1209 35.9635 44.7322C35.2312 44.521 34.4194 43.7235 33.4603 43.649C32.8501 43.6003 31.6946 43.4256 31.3019 42.953C31.1574 42.7431 31.351 42.0769 31.5102 41.5028C31.684 40.8759 31.7477 39.771 31.952 39.8265C31.952 39.8265 31.8962 39.9822 31.9758 40.0661C32.0554 40.1501 32.3353 40.318 32.4176 40.3884C32.5551 40.5316 32.6662 40.6991 32.7453 40.8826C32.7781 40.9655 32.8394 41.0334 32.9177 41.0736C33.0212 41.1128 33.0981 41.0465 33.183 41.0045C33.2978 40.9521 33.4271 40.943 33.5478 40.9788C33.5362 40.8544 33.5144 40.7312 33.4828 40.6105C33.4692 40.5723 33.466 40.5312 33.4735 40.4913C33.4902 40.4542 33.5175 40.423 33.5518 40.402C33.7815 40.2473 34.0405 40.1435 34.3119 40.0973Z" fill="url(#paint3_linear_444_998)"/>
<path d="M35.9106 41.4894C35.9106 41.4894 35.823 41.2498 35.4609 41.1821C35.1823 41.1293 34.6915 41.3378 34.3864 41.5883C34.3577 41.6125 34.3351 41.6434 34.3208 41.6785C34.3064 41.7135 34.3006 41.7516 34.3039 41.7895C34.3071 41.8273 34.3194 41.8638 34.3395 41.8957C34.3597 41.9277 34.3871 41.9541 34.4195 41.9728C34.4612 41.9971 34.5093 42.0074 34.5569 42.002C34.6046 41.9966 34.6494 41.976 34.6848 41.9431C35.0207 41.6359 35.4599 41.4734 35.9106 41.4894Z" fill="url(#paint4_linear_444_998)"/>
<path d="M36.7714 41.981C36.7112 41.8944 36.6317 41.8238 36.5394 41.7751C36.4471 41.7263 36.3447 41.7008 36.2407 41.7007C36.2407 41.7007 35.5151 41.7223 35.0654 42.1489C35.038 42.1724 35.0166 42.2023 35.0029 42.2361C34.9892 42.2698 34.9837 42.3064 34.9868 42.3428C34.9899 42.3792 35.0016 42.4143 35.0208 42.4451C35.04 42.476 35.0662 42.5016 35.0972 42.5199C35.1366 42.5422 35.1819 42.5514 35.2266 42.546C35.2714 42.5407 35.3134 42.5211 35.3466 42.4901C35.5318 42.3021 35.7559 42.1587 36.0024 42.0706C36.249 41.9825 36.5117 41.9519 36.7714 41.981Z" fill="url(#paint5_linear_444_998)"/>
<path d="M37.7227 42.4254C37.6534 42.345 37.5681 42.2809 37.4724 42.2372C37.3767 42.1935 37.273 42.1713 37.1682 42.1721C37.1682 42.1721 36.4916 42.1979 36.0432 42.6244C36.0155 42.6476 35.9937 42.6774 35.9798 42.7112C35.9658 42.7449 35.9601 42.7816 35.9631 42.8181C35.9661 42.8546 35.9777 42.8898 35.997 42.9207C36.0163 42.9516 36.0426 42.9772 36.0737 42.9954C36.1134 43.0177 36.1588 43.0268 36.2038 43.0214C36.2487 43.0161 36.2909 42.9966 36.3245 42.9656C36.5003 42.7707 36.7182 42.6204 36.9609 42.5266C37.2037 42.4328 37.4645 42.3981 37.7227 42.4254Z" fill="url(#paint6_linear_444_998)"/>
<path opacity="0.3" d="M35.9106 41.4894C35.9106 41.4894 35.823 41.2498 35.4609 41.1821C35.1823 41.1293 34.6915 41.3378 34.3864 41.5883C34.3577 41.6125 34.3351 41.6434 34.3208 41.6785C34.3064 41.7135 34.3006 41.7516 34.3039 41.7895C34.3071 41.8273 34.3194 41.8638 34.3395 41.8957C34.3597 41.9277 34.3871 41.9541 34.4195 41.9728C34.4612 41.9971 34.5093 42.0074 34.5569 42.002C34.6046 41.9966 34.6494 41.976 34.6848 41.9431C35.0207 41.6359 35.4599 41.4734 35.9106 41.4894Z" fill="black"/>
<path opacity="0.3" d="M36.7714 41.981C36.7112 41.8944 36.6317 41.8238 36.5394 41.7751C36.4471 41.7263 36.3447 41.7008 36.2407 41.7007C36.2407 41.7007 35.5151 41.7223 35.0654 42.1489C35.038 42.1724 35.0166 42.2023 35.0029 42.2361C34.9892 42.2698 34.9837 42.3064 34.9868 42.3428C34.9899 42.3792 35.0016 42.4143 35.0208 42.4451C35.04 42.476 35.0662 42.5016 35.0972 42.5199C35.1366 42.5422 35.1819 42.5514 35.2266 42.546C35.2714 42.5407 35.3134 42.5211 35.3466 42.4901C35.5318 42.3021 35.7559 42.1587 36.0024 42.0706C36.249 41.9825 36.5117 41.9519 36.7714 41.981Z" fill="black"/>
<path opacity="0.3" d="M37.7227 42.4254C37.6534 42.345 37.5681 42.2809 37.4724 42.2372C37.3767 42.1935 37.273 42.1713 37.1682 42.1721C37.1682 42.1721 36.4916 42.1979 36.0432 42.6244C36.0155 42.6476 35.9937 42.6774 35.9798 42.7112C35.9658 42.7449 35.9601 42.7816 35.9631 42.8181C35.9661 42.8546 35.9777 42.8898 35.997 42.9207C36.0163 42.9516 36.0426 42.9772 36.0737 42.9954C36.1134 43.0177 36.1588 43.0268 36.2038 43.0214C36.2487 43.0161 36.2909 42.9966 36.3245 42.9656C36.5003 42.7707 36.7182 42.6204 36.9609 42.5266C37.2037 42.4328 37.4645 42.3981 37.7227 42.4254Z" fill="black"/>
<path d="M33.9883 27.3544C32.0913 26.9198 27.5611 25.953 27.5611 25.953L27.6341 24.7181C25.9958 25.5847 22.5427 25.3396 20.9508 24.0532L20.7001 25.3626C20.0966 26.1002 19.5739 26.9029 19.1414 27.7566C18.7779 28.4918 18.1704 29.6387 18.7753 32.3103C19.1308 33.8797 19.6044 38.0109 19.6044 38.0109L14.9614 36.2642C14.9614 36.2642 14.5634 36.3332 14.2265 37.2215C14.0275 37.7469 13.9612 38.2519 14.1628 38.5133C15.8608 39.8822 18.6121 42.1178 21.3926 43.3716C23.2498 44.0974 24.2367 42.5037 24.327 41.9133C24.6758 39.652 25.0778 32.3861 25.0778 32.3861L31.2861 32.1844C31.0805 33.3841 31.9162 38.0718 31.9162 38.0718C31.9162 38.0718 33.4444 38.7489 34.71 38.0556C34.71 38.0556 35.5563 32.661 35.6386 30.8614C35.7221 28.8547 35.823 27.7755 33.9883 27.3544Z" fill="url(#paint7_linear_444_998)"/>
<path opacity="0.15" d="M31.286 32.1845C31.286 31.8609 31.497 30.7302 32.2146 30.1277C32.2146 30.1277 31.2303 30.3078 30.7793 32.2008L31.286 32.1845Z" fill="black"/>
<path opacity="0.15" d="M19.6043 38.011C19.6043 38.011 19.737 39.7943 20.0713 40.6636C20.0713 40.6636 19.2342 39.12 19.1427 37.835L19.6043 38.011Z" fill="black"/>
<path opacity="0.15" d="M27.5596 25.9531L27.6326 24.7195C25.9943 25.5848 22.5426 25.3397 20.952 24.0547L20.7013 25.3627C20.7146 25.3749 21.736 26.4527 24.3918 26.5922C27.0476 26.7317 27.5596 25.9531 27.5596 25.9531Z" fill="black"/>
<path opacity="0.15" d="M25.0831 32.3861C25.0611 31.7159 24.9058 31.0572 24.6267 30.4501C24.3475 29.8431 23.9504 29.3003 23.4594 28.8547C23.4594 28.8547 24.8867 29.5318 25.3643 31.6753C25.3643 31.6753 26.4256 31.1702 26.9801 29.6563C26.9801 29.6563 26.8103 31.1702 25.9559 32.0314L28.5308 32.2737L25.0831 32.3861Z" fill="black"/>
<path d="M24.2553 5.00025C23.7103 4.99936 23.1704 5.10814 22.6666 5.32038C22.1628 5.53261 21.705 5.84414 21.3192 6.23713C20.9334 6.63013 20.6274 7.09689 20.4185 7.61072C20.2096 8.12456 20.102 8.67538 20.1018 9.2317C20.1018 9.78813 20.2093 10.3391 20.4181 10.8531C20.6269 11.3671 20.933 11.834 21.3187 12.2271C21.7045 12.6203 22.1624 12.9319 22.6663 13.1442C23.1702 13.3566 23.7102 13.4654 24.2553 13.4645C25.3538 13.4627 26.4067 13.0159 27.1828 12.2223C27.9588 11.4286 28.3945 10.353 28.3942 9.2317C28.3942 8.11062 27.9583 7.03536 27.1823 6.242C26.4063 5.44865 25.3536 5.00204 24.2553 5.00025Z" fill="#263238"/>
<path d="M19.9242 7.57291C20.0741 7.56591 20.2244 7.57453 20.3726 7.59864C20.4228 7.60201 20.4701 7.62419 20.5053 7.66093C20.5257 7.69131 20.5372 7.72701 20.5384 7.76384C20.5727 7.99892 20.5513 8.23896 20.4761 8.46389C20.4177 8.62096 20.236 8.70085 20.1205 8.81459C19.6722 9.25872 19.6364 9.99398 19.8128 10.6047C19.9892 11.2153 20.3434 11.7597 20.5729 12.35C20.8024 12.9404 20.9244 13.6513 20.5994 14.2457C20.4734 14.4732 20.2439 14.652 20.2718 14.9228C20.3036 15.2545 20.5875 15.5714 20.7095 15.8706C20.8435 16.2251 20.8891 16.6081 20.8422 16.985C20.8086 17.4537 20.6381 17.9013 20.3527 18.27C20.1345 18.5295 19.8529 18.7254 19.5364 18.8377C19.22 18.9499 18.88 18.9746 18.5512 18.9091C18.4126 18.8844 18.2814 18.8274 18.1678 18.7426C17.9728 18.5828 17.8946 18.3215 17.7884 18.0899C17.4475 17.3411 16.7272 16.7968 16.5083 16.002C16.2709 15.1557 16.6662 14.2755 17.1517 13.5565C17.3785 13.2207 17.6319 12.8917 17.7433 12.499C17.8932 11.9696 17.7619 11.4063 17.7274 10.8552C17.6945 10.3168 17.7551 9.77683 17.9065 9.26008C18.0153 8.88635 18.1838 8.45576 18.469 8.18766C18.8692 7.81621 19.3839 7.59882 19.9242 7.57291Z" fill="#263238"/>
<path d="M26.8473 6.93652C27.301 7.21411 27.8595 8.38537 27.7945 10.8362C27.7388 12.9134 27.0768 13.4238 26.7452 13.5714C26.4136 13.719 25.7741 13.6242 25.1533 13.5159V14.763C25.1533 14.763 26.0076 15.784 25.9493 16.3567C25.8909 16.9295 24.7076 17.0581 23.9063 16.4921C23.1051 15.9261 22.4325 14.8388 22.4325 14.8388L22.4591 11.9709C22.4591 11.9709 22.0889 12.3365 21.4694 11.7814C20.9614 11.3223 20.7916 10.5519 21.1922 10.1457C21.5928 9.73943 22.3291 9.84911 22.6103 10.4395C22.6103 10.4395 23.5999 10.4801 24.9225 9.7462C25.437 9.46514 25.8794 9.06429 26.2138 8.57613C26.5483 8.08798 26.7653 7.52627 26.8473 6.93652Z" fill="#FFEDE5"/>
<path d="M25.5237 10.3054C25.5239 10.3567 25.5093 10.407 25.4817 10.4499C25.4541 10.4928 25.4148 10.5265 25.3685 10.5467C25.3223 10.567 25.2713 10.5729 25.2218 10.5637C25.1723 10.5545 25.1266 10.5306 25.0903 10.4951C25.054 10.4595 25.0288 10.4139 25.0178 10.3638C25.0068 10.3137 25.0105 10.2614 25.0284 10.2134C25.0463 10.1655 25.0777 10.124 25.1186 10.0941C25.1595 10.0642 25.2081 10.0473 25.2583 10.0454C25.3269 10.0454 25.3928 10.0724 25.4423 10.1209C25.4918 10.1693 25.5209 10.2355 25.5237 10.3054Z" fill="#263238"/>
<g style="mix-blend-mode:multiply" opacity="0.5">
<g style="mix-blend-mode:multiply" opacity="0.5">
<path d="M25.5819 12.0671L26.1749 12.2621C26.1641 12.3028 26.1454 12.3407 26.1199 12.3738C26.0943 12.4069 26.0625 12.4344 26.0264 12.4546C25.9902 12.4748 25.9504 12.4874 25.9094 12.4915C25.8683 12.4957 25.8269 12.4914 25.7875 12.4788C25.7076 12.4509 25.6414 12.3923 25.603 12.3155C25.5646 12.2387 25.557 12.1496 25.5819 12.0671Z" fill="#F28F8F"/>
</g>
</g>
<path d="M27.6261 9.51202L27.1101 9.14372C27.1317 9.10805 27.1603 9.07727 27.194 9.05329C27.2277 9.0293 27.2658 9.0126 27.3061 9.00423C27.3464 8.99586 27.3879 8.99599 27.4281 9.00461C27.4683 9.01323 27.5064 9.03015 27.5399 9.05435C27.6085 9.10526 27.6555 9.18085 27.6715 9.26582C27.6875 9.35079 27.6713 9.43879 27.6261 9.51202Z" fill="#263238"/>
<path d="M27.504 10.1241C27.5045 10.1755 27.4901 10.2259 27.4627 10.269C27.4353 10.3121 27.396 10.346 27.3498 10.3664C27.3036 10.3869 27.2525 10.3929 27.203 10.3839C27.1534 10.3749 27.1076 10.3511 27.0711 10.3156C27.0347 10.2801 27.0094 10.2345 26.9983 10.1844C26.9871 10.1342 26.9908 10.0819 27.0086 10.0338C27.0265 9.9858 27.0579 9.9442 27.0988 9.91426C27.1397 9.88431 27.1884 9.86734 27.2387 9.86548C27.307 9.86541 27.3728 9.89226 27.4222 9.94044C27.4716 9.98862 27.5009 10.0544 27.504 10.1241Z" fill="#263238"/>
<g style="mix-blend-mode:multiply" opacity="0.5">
<g style="mix-blend-mode:multiply" opacity="0.5">
<path d="M26.2969 9.96948L26.3314 11.5429L27.1432 11.2897L26.2969 9.96948Z" fill="#F28F8F"/>
</g>
</g>
<g style="mix-blend-mode:multiply" opacity="0.5">
<g style="mix-blend-mode:multiply" opacity="0.5">
<path d="M25.1547 13.5162C24.4993 13.4268 23.1542 13.026 22.9473 12.4817C23.0306 12.7568 23.1945 12.9992 23.4169 13.1763C23.8175 13.5311 25.152 13.9373 25.152 13.9373L25.1547 13.5162Z" fill="#F28F8F"/>
</g>
</g>
<path d="M20.6987 14.7766C19.4146 14.87 18.8853 15.0366 18.1703 16.6561C17.5269 18.1117 15.9881 21.8787 15.6034 22.7182C15.2187 23.5577 15.1457 23.8949 15.4707 24.7737C15.7361 25.49 17.9037 29.605 18.1411 30.2048C18.3786 30.8047 18.4834 31.4113 18.888 32.11C19.2926 32.8087 19.932 33.4911 20.4374 33.6523C21.1869 33.8919 22.1619 33.5588 22.1898 33.0971C22.2177 32.6354 21.0901 31.8649 20.7836 30.8399C20.9876 30.9766 21.2023 31.0957 21.4257 31.196C21.7295 31.3233 22.0691 31.2948 22.1699 31.1188C22.2707 30.9428 21.9669 30.8358 21.6963 30.5609C21.5345 30.3971 21.2479 30.0288 20.8818 29.7038C20.6337 29.4844 20.2278 29.4195 20.0447 29.1784C19.9466 29.0498 19.5009 27.9354 19.1652 26.9429C18.7513 25.712 18.2061 24.0736 18.2061 24.0736L20.4374 19.3344C20.4374 19.3344 22.1871 17.5524 20.6987 14.7766Z" fill="#FFEDE5"/>
<path d="M18.1372 30.2047C18.1372 30.2047 18.6506 29.1445 20.0408 29.1783L19.6733 28.3442C19.6733 28.3442 18.3163 28.4417 17.7445 29.3801L18.1372 30.2047Z" fill="#37474F"/>
<path d="M17.9873 29.3043L18.2858 29.7362C18.3074 29.7676 18.335 29.7942 18.3669 29.8145C18.3988 29.8348 18.4344 29.8483 18.4715 29.8543C18.5087 29.8602 18.5466 29.8585 18.5831 29.8491C18.6195 29.8398 18.6538 29.823 18.6838 29.7998L19.2144 29.3936C19.2761 29.3454 19.3174 29.275 19.33 29.1968C19.3425 29.1185 19.3254 29.0383 19.282 28.9725L19.0048 28.5555C18.9839 28.5233 18.9569 28.4957 18.9253 28.4746C18.8936 28.4534 18.8581 28.439 18.8209 28.4323C18.7837 28.4256 18.7455 28.4267 18.7087 28.4355C18.6719 28.4444 18.6372 28.4607 18.6068 28.4837L18.0443 28.8899C17.9831 28.9372 17.9427 29.0074 17.932 29.0851C17.9213 29.1627 17.9412 29.2415 17.9873 29.3043Z" fill="#263238"/>
<path d="M17.8877 29.2937L18.1888 29.7256C18.2105 29.7569 18.2382 29.7834 18.2701 29.8035C18.302 29.8237 18.3376 29.8372 18.3747 29.8431C18.4118 29.849 18.4496 29.8473 18.4861 29.8381C18.5225 29.8288 18.5567 29.8122 18.5868 29.7892L19.1174 29.383C19.179 29.3348 19.2204 29.2645 19.2333 29.1864C19.2461 29.1082 19.2293 29.028 19.1864 28.9619L18.9092 28.5449C18.8882 28.5128 18.861 28.4855 18.8294 28.4644C18.7978 28.4433 18.7623 28.429 18.7252 28.4223C18.688 28.4156 18.6499 28.4167 18.6131 28.4254C18.5763 28.4341 18.5416 28.4503 18.5112 28.4731L17.9487 28.8861C17.8885 28.9325 17.8483 29.0011 17.8369 29.0772C17.8255 29.1534 17.8438 29.231 17.8877 29.2937Z" fill="#455A64"/>
<path d="M19.1321 29.1512C19.1254 29.2047 19.0982 29.2534 19.0564 29.2866L18.5258 29.6928C18.5074 29.7078 18.486 29.7186 18.4631 29.7245C18.4402 29.7303 18.4164 29.731 18.3932 29.7266C18.3704 29.7231 18.3486 29.7149 18.329 29.7025C18.3094 29.6902 18.2924 29.674 18.2791 29.6549L17.9766 29.2216C17.9511 29.1856 17.9397 29.1411 17.9448 29.097C17.9466 29.0702 17.9542 29.0442 17.967 29.0208C17.9799 28.9974 17.9976 28.9772 18.0191 28.9616L18.5815 28.5554C18.6003 28.5411 18.6218 28.531 18.6447 28.5257C18.6675 28.5203 18.6912 28.5198 18.7142 28.5242C18.7369 28.5283 18.7586 28.537 18.778 28.5498C18.7973 28.5626 18.814 28.5792 18.8269 28.5987L19.1042 29.0158C19.1302 29.0556 19.1415 29.1036 19.136 29.1512H19.1321Z" fill="url(#paint8_linear_444_998)"/>
</g>
</g>
<defs>
<linearGradient id="paint0_linear_444_998" x1="13.9853" y1="41.8774" x2="7.88008" y2="41.5942" gradientUnits="userSpaceOnUse">
<stop stop-color="#92A3FD"/>
<stop offset="1" stop-color="#9DCEFF"/>
</linearGradient>
<linearGradient id="paint1_linear_444_998" x1="12.6901" y1="39.6358" x2="10.4214" y2="39.2106" gradientUnits="userSpaceOnUse">
<stop stop-color="#92A3FD"/>
<stop offset="1" stop-color="#9DCEFF"/>
</linearGradient>
<linearGradient id="paint2_linear_444_998" x1="12.9319" y1="38.7555" x2="10.6698" y2="38.3697" gradientUnits="userSpaceOnUse">
<stop stop-color="#92A3FD"/>
<stop offset="1" stop-color="#9DCEFF"/>
</linearGradient>
<linearGradient id="paint3_linear_444_998" x1="39.4675" y1="44.9131" x2="28.6205" y2="43.5578" gradientUnits="userSpaceOnUse">
<stop stop-color="#92A3FD"/>
<stop offset="1" stop-color="#9DCEFF"/>
</linearGradient>
<linearGradient id="paint4_linear_444_998" x1="35.9106" y1="42.0034" x2="33.8026" y2="41.6873" gradientUnits="userSpaceOnUse">
<stop stop-color="#92A3FD"/>
<stop offset="1" stop-color="#9DCEFF"/>
</linearGradient>
<linearGradient id="paint5_linear_444_998" x1="36.7714" y1="42.5475" x2="34.4396" y2="42.1671" gradientUnits="userSpaceOnUse">
<stop stop-color="#92A3FD"/>
<stop offset="1" stop-color="#9DCEFF"/>
</linearGradient>
<linearGradient id="paint6_linear_444_998" x1="37.7227" y1="43.0229" x2="35.4214" y2="42.6545" gradientUnits="userSpaceOnUse">
<stop stop-color="#92A3FD"/>
<stop offset="1" stop-color="#9DCEFF"/>
</linearGradient>
<linearGradient id="paint7_linear_444_998" x1="35.6755" y1="43.5575" x2="6.88006" y2="41.0858" gradientUnits="userSpaceOnUse">
<stop stop-color="#92A3FD"/>
<stop offset="1" stop-color="#9DCEFF"/>
</linearGradient>
<linearGradient id="paint8_linear_444_998" x1="19.1374" y1="29.7295" x2="17.5461" y2="29.6078" gradientUnits="userSpaceOnUse">
<stop stop-color="#92A3FD"/>
<stop offset="1" stop-color="#9DCEFF"/>
</linearGradient>
<clipPath id="clip0_444_998">
<rect width="32.7556" height="40.3836" fill="white" transform="translate(8.99988 5.00024)"/>
</clipPath>
</defs>
</svg>
