<svg width="50" height="50" viewBox="0 0 50 50" fill="none" xmlns="http://www.w3.org/2000/svg">
<circle opacity="0.3" cx="25" cy="25" r="25" fill="url(#paint0_linear_444_1361)"/>
<mask id="mask0_444_1361" style="mask-type:alpha" maskUnits="userSpaceOnUse" x="0" y="0" width="50" height="50">
<circle cx="25" cy="25" r="25" fill="#C4C4C4"/>
</mask>
<g mask="url(#mask0_444_1361)">
<g clip-path="url(#clip0_444_1361)">
<path d="M19.0849 21.1347C19.0849 21.1347 20.111 12.8521 19.8793 9.82721C19.7605 8.27568 19.0047 7.92467 17.8493 8.01316C16.694 8.10165 10.0872 11.5896 10.0872 11.5896L11.0287 13.8461L16.5232 12.1294C16.5232 12.1294 15.9634 15.3519 15.8342 15.964C15.705 16.576 15.4347 17.4005 15.2194 18.1394C15.1139 18.5036 14.9669 18.9756 14.9669 19.2042C14.9699 19.744 19.0849 21.1347 19.0849 21.1347Z" fill="#FFEDE5"/>
<path d="M16.5232 12.1295C17.2894 11.982 18.0542 11.5322 18.2948 11.1738C18.1712 11.5768 17.8985 11.9183 17.5315 12.1295C17.1822 12.3532 16.8122 12.5433 16.4266 12.6973L16.5232 12.1295Z" fill="#F28F8F"/>
<path d="M29.4858 20.9873C29.3715 20.5655 28.626 20.1216 26.4044 19.7514C24.1828 19.3812 22.1617 19.7514 22.1498 20.0125C22.138 20.2735 22.6978 22.0182 25.2595 22.3368C27.8211 22.6554 29.7204 21.9135 29.4858 20.9873Z" fill="#263238"/>
<path d="M22.8033 24.5725C22.8033 24.5725 21.3554 15.2457 21.5633 13.3417C21.7786 11.3742 22.53 10.4613 23.7908 10.333C25.4377 11.2828 26.3153 13.5526 27.3682 15.7899C28.4211 18.0272 29.5616 22.8263 29.6224 25.1197C29.6833 27.4131 27.8568 29.0472 25.7881 29.3451C23.7195 29.643 22.8033 24.5725 22.8033 24.5725Z" fill="#FFEDE5"/>
<path d="M25.0783 17.2707C24.4102 16.7373 23.9587 15.982 23.8071 15.144L25.8787 14.4272L27.2761 15.582L27.3177 15.672C27.3355 15.7103 27.3533 15.7487 27.3726 15.787C27.4127 15.8726 27.4528 15.9625 27.4929 16.054C27.5033 16.0805 27.5152 16.1071 27.5271 16.1351C27.5583 16.2059 27.588 16.2826 27.6192 16.3563L27.6503 16.433C27.6919 16.5348 27.732 16.6395 27.7736 16.7472C27.8137 16.8548 27.8538 16.9654 27.8939 17.0775C27.9028 17.1026 27.9117 17.1262 27.9191 17.1498L28.0261 17.4595C28.0261 17.4742 28.0365 17.4905 28.0424 17.5052C28.1256 17.7559 28.2087 18.0155 28.2889 18.281L28.3023 18.3238C28.3424 18.455 28.381 18.5877 28.4196 18.722C28.4196 18.722 26.495 18.4476 25.0783 17.2707Z" fill="#F28F8F"/>
<path d="M23.3543 10.4128C24.1413 10.1046 25.0992 10.8258 25.6056 11.1503C26.6347 11.8051 32.9267 16.675 34.3939 17.8165C34.7117 18.0082 35.0354 18.1926 35.3651 18.3666L33.6365 21.0508C33.4946 20.6651 33.2725 20.3133 32.9846 20.0184C31.4164 18.9064 28.3811 18.3003 26.4268 17.5451C24.9061 16.9552 24.5883 16.6248 24.076 15.7621C23.684 15.0792 22.2687 10.9231 23.3543 10.4128Z" fill="#FFEDE5"/>
<path d="M22.7721 24.6243L22.1499 20.0125C22.1499 20.0125 22.7083 21.2838 25.5833 21.6185C28.4582 21.9533 29.5586 21.4711 29.4859 20.9873C29.4859 20.9873 30.2373 23.875 29.9462 25.751C29.6552 27.627 26.7698 29.6254 26.7698 29.6254L22.7721 24.6243Z" fill="#37474F"/>
<path opacity="0.15" d="M24.0449 25.2554C23.7805 25.2554 23.5325 25.2716 23.3024 25.2864L26.4981 29.2788H27.2406C28.0693 28.6254 29.731 27.1565 29.9478 25.7554C30.1617 24.3794 29.8142 22.4621 29.6137 21.5359C29.728 22.6007 27.3297 25.1861 24.0449 25.2554Z" fill="black"/>
<path d="M38.4376 14.4643C37.3981 14.2726 36.9154 15.0174 36.5323 15.6324C36.1492 16.2474 35.5076 17.3756 35.221 17.5659C34.9344 17.7561 34.7755 17.5659 34.3672 17.8712C33.9588 18.1764 33.6603 18.7561 33.7865 18.967L34.0835 19.4802C33.9123 19.4616 33.739 19.4832 33.5778 19.5434C33.4165 19.6037 33.2718 19.7007 33.1554 19.8268C32.7099 20.2692 32.9415 20.343 33.1925 20.5937C33.4435 20.8444 34.033 21.9771 34.6241 22.2853C34.6241 22.2853 36.216 21.8119 37.3698 20.0185C38.5237 18.2251 38.4376 14.4643 38.4376 14.4643Z" fill="url(#paint1_linear_444_1361)"/>
<path d="M34.9522 22.5226C34.8913 22.5118 34.8334 22.4886 34.782 22.4544C34.7306 22.4202 34.687 22.3757 34.6539 22.3238C34.6208 22.2719 34.5989 22.2137 34.5897 22.153C34.5805 22.0923 34.5841 22.0303 34.6003 21.971C34.7762 21.418 35.0404 20.8966 35.3829 20.4269C35.7824 19.8635 36.5308 18.8045 36.657 18.2249C36.7833 17.6453 37.055 16.0215 37.499 15.3416C37.9431 14.6617 38.399 14.2694 38.9841 14.4892C39.5692 14.7089 37.7218 19.0612 37.1798 19.7986C36.6377 20.536 34.9522 22.5226 34.9522 22.5226Z" fill="#37474F"/>
<path d="M35.2937 22.4282C36.7564 21.6539 37.2375 20.9018 37.6697 19.921C38.1018 18.9402 39.1116 18.0362 39.373 17.1557C39.6344 16.2752 39.6611 14.0172 38.6557 14.5644C37.6504 15.1116 37.441 17.1306 36.9999 18.2972C36.5589 19.4638 33.8591 23.1907 35.2937 22.4282Z" fill="#263238"/>
<path d="M26.5024 24.8129C27.1707 24.7112 28.4552 24.9855 29.621 26.6019C30.8728 28.3378 31.106 31.3671 30.3204 31.6163C30.3204 31.6163 28.4998 31.4039 27.2494 30.7535C25.999 30.1031 23.8977 25.7096 26.5024 24.8129Z" fill="#263238"/>
<path d="M47.857 39.2663C45.9176 38.5097 44.3301 37.2089 42.9564 35.7547C41.8516 34.2651 37.1173 27.8865 36.2961 26.9883C35.9991 26.6697 35.2952 25.8497 34.3196 25.6447C30.8654 24.9073 24.4695 25.0165 24.4695 25.0165L22.0103 24.605L17.1097 29.1858C17.7854 29.9011 18.6334 30.525 19.8734 31.1665C21.1133 31.8081 22.4543 32.2741 24.2631 32.1222C27.8835 31.8184 30.0546 30.8022 31.9926 30.3524C32.5539 30.2226 33.136 30.1032 33.5771 31.0176C34.0181 31.932 34.0538 32.3906 35.3591 33.3625C37.0327 34.6102 39.7963 36.0054 41.0021 37.4921C41.2008 37.8565 41.3192 38.2587 41.3496 38.6719C41.464 40.2397 42.7886 39.9314 43.8563 40.6128C44.4385 40.9845 44.8706 41.4358 45.5715 41.5892C46.2097 41.7196 46.8691 41.7075 47.5021 41.5538C48.0723 41.4195 48.8891 41.011 49.1697 40.4594C49.538 39.725 48.4153 39.4831 47.857 39.2663Z" fill="#FFEDE5"/>
<path d="M47.857 39.2663C45.9176 38.5097 44.3301 37.2089 42.9564 35.7547C41.8516 34.2651 37.1173 27.8865 36.2961 26.9883C35.9991 26.6697 35.2952 25.8497 34.3196 25.6447C30.8654 24.9073 24.4695 25.0165 24.4695 25.0165L22.0103 24.605L17.1097 29.1858C17.7854 29.9011 18.6334 30.525 19.8734 31.1665C21.1133 31.8081 22.4543 32.2741 24.2631 32.1222C27.8835 31.8184 30.0546 30.8022 31.9926 30.3524C32.5539 30.2226 33.136 30.1032 33.5771 31.0176C34.0181 31.932 34.0538 32.3906 35.3591 33.3625C37.0327 34.6102 39.7963 36.0054 41.0021 37.4921C41.2008 37.8565 41.3192 38.2587 41.3496 38.6719C41.464 40.2397 42.7886 39.9314 43.8563 40.6128C44.4385 40.9845 44.8706 41.4358 45.5715 41.5892C46.2097 41.7196 46.8691 41.7075 47.5021 41.5538C48.0723 41.4195 48.8891 41.011 49.1697 40.4594C49.538 39.725 48.4153 39.4831 47.857 39.2663Z" fill="#FFEDE5"/>
<path d="M35.2477 32.6192C34.8801 32.2145 34.6009 31.7384 34.428 31.2211C34.2951 30.7887 34.1242 30.3687 33.9171 29.966C33.3142 28.9336 29.3136 30.2507 27.542 30.7905C27.4425 30.9379 27.0267 31.3804 26.8782 31.7491C29.024 31.314 30.5684 30.6813 31.9896 30.351C32.5509 30.2212 33.1331 30.1017 33.5741 31.0161C34.0152 31.9305 34.0508 32.3892 35.3561 33.3611C36.0363 33.8684 36.8961 34.3935 37.7589 34.9524C36.7951 34.2091 36.0689 33.4643 35.2477 32.6192Z" fill="#F28F8F"/>
<path d="M22.3905 24.605C22.3905 24.605 25.9055 24.7761 26.5025 24.8188C26.5025 24.8188 25.1794 25.1728 26.7891 28.4042C28.3989 31.6355 30.322 31.6178 30.322 31.6178C27.7974 32.4201 26.4862 33.3212 23.2681 32.9452C19.4323 32.395 17.1068 29.5427 17.1068 29.5427L22.3905 24.605Z" fill="#455A64"/>
<path opacity="0.15" d="M30.313 31.618C30.2839 31.6199 30.2546 31.6199 30.2254 31.618V31.618C29.9388 31.5856 29.0864 31.3998 28.1316 30.3895C27.3736 30.5903 26.6045 30.7474 25.8283 30.86C22.9593 31.2774 20.8075 30.7744 17.6013 29.0769L17.1068 29.54C18.3792 30.9651 20.0114 32.0271 21.8351 32.6165V32.6165C21.9465 32.6504 22.0608 32.6843 22.1767 32.7153C22.2851 32.7433 22.3949 32.7714 22.5048 32.7964L22.5345 32.8038C22.6355 32.8274 22.7395 32.8481 22.8434 32.8687L22.8984 32.879C23.0201 32.9026 23.1419 32.9233 23.2667 32.941C23.4686 32.9646 23.6617 32.9823 23.8488 32.997C24.0359 33.0118 24.2156 33.0191 24.3908 33.025H24.6477C24.7324 33.025 24.8155 33.025 24.8972 33.025C25.1422 33.025 25.3754 33.0059 25.5996 32.9837C25.7481 32.969 25.8936 32.9513 26.0362 32.9306C26.3795 32.879 26.7197 32.8081 27.0549 32.7183C27.1856 32.6829 27.3148 32.646 27.4425 32.6062C27.7648 32.5088 28.0826 32.3997 28.4093 32.2817L28.8058 32.1342C29.275 31.9632 29.768 31.7832 30.3205 31.6077L30.313 31.618Z" fill="black"/>
<path d="M10.6365 20.2057C9.20792 20.6983 7.85804 21.5596 9.00299 24.0801C10.6365 27.72 18.0408 31.7611 21.8424 32.6194C19.9119 29.7184 21.5187 26.6434 22.7795 24.6243L22.4394 22.1584C22.4394 22.1584 21.2989 21.6142 19.41 20.1644C17.521 18.7147 16.7369 18.3209 13.9258 19.1704C11.9938 19.7544 10.6365 20.2057 10.6365 20.2057Z" fill="url(#paint2_linear_444_1361)"/>
<path opacity="0.05" d="M16.4238 28.4323C12.536 26.22 11.3138 24.2496 9.7887 22.3574L8.79077 23.5668C8.8175 23.645 8.8472 23.7246 8.87987 23.8072C8.87931 23.8116 8.87931 23.816 8.87987 23.8205C8.91254 23.9045 8.94967 23.9915 8.98976 24.08C9.71445 25.6728 11.5336 27.3424 13.672 28.7951C13.969 29.0015 14.2898 29.2036 14.6046 29.3997C14.7635 29.4986 14.9224 29.5959 15.0828 29.6947C16.1703 30.3414 17.296 30.9225 18.4538 31.435C19.54 31.933 20.6712 32.3281 21.8322 32.6149C21.4093 31.9907 21.1267 31.2835 21.0035 30.5413C19.6522 30.1372 18.2028 29.4455 16.4238 28.4323Z" fill="black"/>
<path d="M9.5644 20.6996C9.5644 20.6996 4.76928 18.1541 4.01044 17.8104L8.20709 15.3637L7.31608 13.0674C7.31608 13.0674 1.07902 15.2693 -0.108991 15.902C-0.731212 16.2368 -1 16.5126 -1 16.9875C-1 17.7795 -0.241157 18.806 0.810233 19.6953C3.04518 21.5875 6.07758 23.3499 9.03128 24.9604C9.70844 25.4589 10.4123 26.0857 10.4123 26.0857C11.189 26.4721 12.3191 22.906 9.5644 20.6996Z" fill="#FFEDE5"/>
<path d="M14.0537 11.8524C13.7541 11.1618 13.1907 10.6177 12.4872 10.3398C11.7837 10.0618 10.9979 10.0727 10.3025 10.3702C9.60718 10.6677 9.0593 11.2273 8.77941 11.926C8.49953 12.6246 8.51056 13.4051 8.81008 14.0956C8.82939 14.1428 8.85315 14.1856 8.87542 14.2299L8.15074 15.7961L7.08004 13.8361C7.08048 13.6817 7.02313 13.5326 6.91912 13.4179C6.81511 13.3032 6.67187 13.2309 6.51722 13.2152C6.43879 13.2085 6.35982 13.2178 6.28511 13.2424C6.2104 13.267 6.14151 13.3064 6.08262 13.3583C6.02372 13.4102 5.97607 13.4734 5.94254 13.5441C5.90901 13.6148 5.89031 13.6916 5.88757 13.7697L6.70582 13.8405C6.52626 13.9588 6.38862 14.13 6.31229 14.3301C6.11775 14.8345 6.79492 15.8625 7.70226 16.7651C7.70226 16.7651 8.9868 18.5659 9.29865 18.8181C9.49959 18.9699 9.75148 19.0396 10.0025 19.0127L10.0798 15.4731C10.6014 15.7527 11.1977 15.864 11.7858 15.7915C12.374 15.7191 12.9249 15.4664 13.3619 15.0688C13.7989 14.6711 14.1003 14.1481 14.2243 13.5725C14.3482 12.9969 14.2886 12.3973 14.0537 11.8568V11.8524Z" fill="#263238"/>
<path d="M8.78178 16.4064C8.66298 16.5701 8.30063 16.3622 8.01403 16.2412C7.72742 16.1203 6.95967 16.1159 6.92996 16.9285C6.90026 17.7411 7.90562 18.4033 8.48329 18.3429C9.47825 18.2411 9.3743 17.6261 9.3743 17.6261L10.8356 20.8397C12.527 21.76 15.6752 20.3118 13.7863 19.4018L13.369 18.4476C13.73 18.3512 14.0788 18.2141 14.4085 18.039C15.0025 17.6644 15.197 16.986 15.0916 16.2088C14.9238 14.9625 14.6461 14.0127 13.4373 11.9318C12.1008 9.65756 9.27926 10.8345 8.17738 12.4317C7.0755 14.029 8.78178 16.4064 8.78178 16.4064Z" fill="#FFEDE5"/>
<path d="M8.89905 16.6793C8.81885 16.7162 8.29167 16.3416 8.00804 16.2457C7.62342 16.1145 6.99823 13.6972 6.99823 13.6972C6.99823 13.6972 6.48738 13.2474 6.76805 12.4362C6.99823 11.7711 7.84765 11.3257 8.43572 11.0307C9.49602 10.4983 10.6825 9.89214 11.2023 8.77717C11.2439 8.68868 11.3033 8.58839 11.4013 8.58691C11.4317 8.58961 11.4613 8.5983 11.4884 8.61248C11.5154 8.62666 11.5393 8.64605 11.5587 8.6695C11.8035 8.94247 11.9416 9.29362 11.9478 9.65912C11.9478 9.69304 11.9582 9.73581 11.9923 9.74613C12.0265 9.75646 12.0517 9.72843 12.0725 9.70336C12.1804 9.57221 12.2625 9.42213 12.3146 9.26091C12.3859 9.04116 12.7601 9.60012 12.7868 9.67682C12.8744 9.91945 12.9121 10.177 12.8978 10.4344C12.8836 10.6917 12.8175 10.9436 12.7037 11.1752C12.472 11.6369 11.9953 11.923 11.5587 12.1752C10.586 12.7386 8.92281 13.2754 8.69114 13.3388C8.37632 13.4258 8.43721 13.74 8.61541 14.591C8.77876 15.3431 9.16783 16.554 8.89905 16.6793Z" fill="#263238"/>
<path d="M13.369 18.4475C13.369 18.4475 11.6315 18.8118 11.0137 18.766C10.6513 18.7399 10.3054 18.6052 10.0217 18.3796C10.2234 18.6396 10.4759 18.8564 10.7642 19.0168C11.3345 19.3265 13.5323 18.8324 13.5323 18.8324L13.369 18.4475Z" fill="#F28F8F"/>
<path d="M10.6544 13.9568L10.1376 14.5173C10.0632 14.4453 10.0196 14.3476 10.016 14.2446C10.0124 14.1415 10.0491 14.041 10.1183 13.9642C10.1527 13.9282 10.194 13.8993 10.2397 13.8794C10.2855 13.8595 10.3348 13.8489 10.3848 13.8482C10.4347 13.8475 10.4843 13.8568 10.5307 13.8754C10.577 13.8941 10.619 13.9217 10.6544 13.9568V13.9568Z" fill="#263238"/>
<path d="M12.3191 16.8196L13.0839 16.7842C13.0885 16.8341 13.083 16.8845 13.0676 16.9323C13.0522 16.9801 13.0273 17.0243 12.9943 17.0623C12.9613 17.1003 12.9209 17.1313 12.8756 17.1535C12.8303 17.1756 12.7809 17.1885 12.7304 17.1912C12.6268 17.1941 12.526 17.157 12.4493 17.0877C12.3726 17.0184 12.326 16.9223 12.3191 16.8196V16.8196Z" fill="#F28F8F"/>
<path d="M13.7998 13.0674L13.0573 12.8787C13.0673 12.8295 13.0874 12.783 13.1161 12.7418C13.1449 12.7006 13.1818 12.6656 13.2245 12.639C13.2673 12.6124 13.3151 12.5947 13.3649 12.587C13.4148 12.5792 13.4657 12.5816 13.5146 12.594C13.6139 12.6221 13.6987 12.6866 13.7517 12.7746C13.8046 12.8626 13.8218 12.9673 13.7998 13.0674V13.0674Z" fill="#263238"/>
<path d="M12.2151 14.2222L12.7215 16.0318L13.6125 15.4949L12.2151 14.2222Z" fill="#F28F8F"/>
<path d="M10.8058 15.0335C10.8061 15.0988 10.8258 15.1625 10.8626 15.2166C10.8993 15.2708 10.9514 15.3129 11.0122 15.3377C11.073 15.3624 11.1398 15.3688 11.2042 15.3559C11.2687 15.3429 11.3278 15.3114 11.3742 15.2651C11.4205 15.2188 11.4521 15.16 11.4648 15.0959C11.4775 15.0319 11.4708 14.9655 11.4456 14.9053C11.4204 14.845 11.3778 14.7935 11.3231 14.7572C11.2684 14.721 11.2042 14.7017 11.1384 14.7017C11.0946 14.7017 11.0512 14.7103 11.0108 14.7269C10.9703 14.7436 10.9336 14.7681 10.9027 14.7989C10.8718 14.8298 10.8473 14.8664 10.8307 14.9066C10.8141 14.9469 10.8056 14.99 10.8058 15.0335V15.0335Z" fill="#263238"/>
<path d="M13.213 14.0969C13.2127 14.1603 13.2314 14.2224 13.2667 14.2752C13.302 14.3281 13.3523 14.3693 13.4113 14.3938C13.4702 14.4182 13.5351 14.4246 13.5978 14.4123C13.6604 14.4 13.718 14.3695 13.7631 14.3247C13.8083 14.2798 13.839 14.2227 13.8514 14.1604C13.8638 14.0982 13.8573 14.0337 13.8327 13.9752C13.8081 13.9167 13.7666 13.8667 13.7134 13.8316C13.6601 13.7966 13.5976 13.778 13.5338 13.7783C13.4488 13.7787 13.3675 13.8124 13.3074 13.8721C13.2473 13.9317 13.2134 14.0125 13.213 14.0969V14.0969Z" fill="#263238"/>
<path d="M41.1566 39.001C41.0304 39.0865 41.2264 39.6263 41.3407 39.759C41.5789 39.989 41.8732 40.1536 42.1946 40.2369C42.7793 40.4147 43.3256 40.6988 43.8059 41.0746C44.3982 41.5509 45.0871 41.8945 45.8255 42.0819C46.7016 42.2751 47.7144 42.0288 48.598 41.5082C49.5247 40.964 49.4385 40.4419 49.3123 40.0938L41.1566 39.001Z" fill="#37474F"/>
<path d="M43.1613 35.9717C43.4583 36.2843 45.074 37.8713 46.314 38.2754C47.3016 38.5969 48.5861 38.9036 49.1489 39.501C49.734 40.1233 48.8623 40.9197 47.6639 41.3769C46.4135 41.8518 45.5641 41.4684 44.734 41.054C44.1504 40.759 43.2905 40.1691 42.8584 39.9316C42.4262 39.6942 41.6258 39.5644 41.2917 39.2119C41.1076 39.0172 40.9754 38.4745 40.8952 37.9981C40.8224 37.5557 40.5284 37.156 40.6784 37.1324L40.9219 37.3964C42.0505 37.6028 43.2267 36.5675 43.1613 35.9717Z" fill="url(#paint3_linear_444_1361)"/>
<path d="M4.01054 17.8105C3.29888 18.1924 2.53034 18.4587 1.73401 18.5996C1.73401 18.5996 2.99479 18.9137 4.49465 18.0509L4.01054 17.8105Z" fill="#F28F8F"/>
</g>
</g>
<defs>
<linearGradient id="paint0_linear_444_1361" x1="50" y1="50" x2="-16.6397" y2="44.8434" gradientUnits="userSpaceOnUse">
<stop stop-color="#92A3FD"/>
<stop offset="1" stop-color="#9DCEFF"/>
</linearGradient>
<linearGradient id="paint1_linear_444_1361" x1="38.439" y1="22.2853" x2="31.0392" y2="21.8816" gradientUnits="userSpaceOnUse">
<stop stop-color="#92A3FD"/>
<stop offset="1" stop-color="#9DCEFF"/>
</linearGradient>
<linearGradient id="paint2_linear_444_1361" x1="22.7795" y1="32.6194" x2="3.85082" y2="31.1216" gradientUnits="userSpaceOnUse">
<stop stop-color="#92A3FD"/>
<stop offset="1" stop-color="#9DCEFF"/>
</linearGradient>
<linearGradient id="paint3_linear_444_1361" x1="49.3356" y1="41.5964" x2="37.8366" y2="40.2202" gradientUnits="userSpaceOnUse">
<stop stop-color="#92A3FD"/>
<stop offset="1" stop-color="#9DCEFF"/>
</linearGradient>
<clipPath id="clip0_444_1361">
<rect width="50.3895" height="34.1483" fill="white" transform="translate(-1 8)"/>
</clipPath>
</defs>
</svg>
