<svg width="24" height="24" viewBox="0 0 24 24" fill="none" xmlns="http://www.w3.org/2000/svg">
<g id="Iconly/Bold/Activity">
<g id="Activity">
<path id="Activity_2" fill-rule="evenodd" clip-rule="evenodd" d="M17.1796 4.41C17.1796 3.08 18.2596 2 19.5896 2C20.9196 2 21.9996 3.08 21.9996 4.41C21.9996 5.74 20.9196 6.82 19.5896 6.82C18.2596 6.82 17.1796 5.74 17.1796 4.41ZM13.3295 14.7593L16.2195 11.0303L16.1795 11.0503C16.3395 10.8303 16.3695 10.5503 16.2595 10.3003C16.1505 10.0503 15.9095 9.8803 15.6505 9.8603C15.3795 9.8303 15.1105 9.9503 14.9495 10.1703L12.5305 13.3003L9.75951 11.1203C9.58951 10.9903 9.38951 10.9393 9.18951 10.9603C8.99051 10.9903 8.81051 11.0993 8.68951 11.2593L5.73051 15.1103L5.66951 15.2003C5.49951 15.5193 5.57951 15.9293 5.87951 16.1503C6.01951 16.2403 6.16951 16.3003 6.33951 16.3003C6.57051 16.3103 6.78951 16.1893 6.92951 16.0003L9.43951 12.7693L12.2895 14.9103L12.3795 14.9693C12.6995 15.1393 13.0995 15.0603 13.3295 14.7593ZM15.4495 3.7803C15.4095 4.0303 15.3895 4.2803 15.3895 4.5303C15.3895 6.7803 17.2095 8.5993 19.4495 8.5993C19.6995 8.5993 19.9395 8.5703 20.1895 8.5303V16.5993C20.1895 19.9903 18.1895 22.0003 14.7895 22.0003H7.40051C3.99951 22.0003 1.99951 19.9903 1.99951 16.5993V9.2003C1.99951 5.8003 3.99951 3.7803 7.40051 3.7803H15.4495Z" fill="#130F26"/>
</g>
</g>
</svg>
