<svg width="24" height="24" viewBox="0 0 24 24" fill="none" xmlns="http://www.w3.org/2000/svg">
<path fill-rule="evenodd" clip-rule="evenodd" d="M2 16.0801V7.91012C2 4.38012 4.271 2.00012 7.66 2.00012H16.33C19.72 2.00012 22 4.38012 22 7.91012V16.0801C22 19.6201 19.72 22.0001 16.33 22.0001H7.66C4.271 22.0001 2 19.6201 2 16.0801ZM12.75 14.2701V7.92012C12.75 7.50012 12.41 7.17012 12 7.17012C11.58 7.17012 11.25 7.50012 11.25 7.92012V14.2701L8.78 11.7901C8.64 11.6501 8.44 11.5701 8.25 11.5701C8.061 11.5701 7.87 11.6501 7.72 11.7901C7.43 12.0801 7.43 12.5601 7.72 12.8501L11.47 16.6201C11.75 16.9001 12.25 16.9001 12.53 16.6201L16.28 12.8501C16.57 12.5601 16.57 12.0801 16.28 11.7901C15.98 11.5001 15.51 11.5001 15.21 11.7901L12.75 14.2701Z" fill="#130F26"/>
</svg>
