<svg width="15" height="17" viewBox="0 0 15 17" fill="none" xmlns="http://www.w3.org/2000/svg">
<mask id="mask0_414_4918" style="mask-type:alpha" maskUnits="userSpaceOnUse" x="0" y="0" width="15" height="14">
<path fill-rule="evenodd" clip-rule="evenodd" d="M0.25 0.75H14.1227V13.761H0.25V0.75Z" fill="white"/>
</mask>
<g mask="url(#mask0_414_4918)">
<path fill-rule="evenodd" clip-rule="evenodd" d="M7.18525 1.875C4.564 1.875 2.737 3.9285 2.737 5.77125C2.737 7.3305 2.30425 8.05125 1.92175 8.68725C1.615 9.198 1.37275 9.6015 1.37275 10.4782C1.498 11.8927 2.43175 12.636 7.18525 12.636C11.9125 12.636 12.8755 11.8597 13 10.4295C12.9977 9.6015 12.7555 9.198 12.4487 8.68725C12.0662 8.05125 11.6335 7.3305 11.6335 5.77125C11.6335 3.9285 9.8065 1.875 7.18525 1.875ZM7.18526 13.761C3.67826 13.761 0.50876 13.5135 0.25001 10.5262C0.24776 9.29025 0.62501 8.66175 0.95801 8.10825C1.29476 7.54725 1.61201 7.0185 1.61201 5.77125C1.61201 3.3465 3.85151 0.75 7.18526 0.75C10.519 0.75 12.7585 3.3465 12.7585 5.77125C12.7585 7.0185 13.0758 7.54725 13.4125 8.10825C13.7455 8.66175 14.1228 9.29025 14.1228 10.4782C13.861 13.5135 10.6923 13.761 7.18526 13.761Z" fill="#1D1617"/>
</g>
<path fill-rule="evenodd" clip-rule="evenodd" d="M7.14876 16.875H7.14726C6.30651 16.8742 5.51076 16.5037 4.90701 15.831C4.69926 15.6007 4.71801 15.2445 4.94901 15.0375C5.18001 14.829 5.53551 14.8477 5.74326 15.0795C6.13176 15.5122 6.63051 15.75 7.14801 15.75H7.14876C7.66851 15.75 8.16951 15.5122 8.55876 15.0787C8.76726 14.8485 9.12276 14.8297 9.35301 15.0375C9.58401 15.2452 9.60276 15.6015 9.39501 15.8317C8.78901 16.5045 7.99176 16.875 7.14876 16.875Z" fill="#1D1617"/>
</svg>
