<svg width="24" height="24" viewBox="0 0 24 24" fill="none" xmlns="http://www.w3.org/2000/svg">
<g id="Iconly/Bold/Call Silent">
<g id="Call Silent">
<g id="Group">
<path id="Combined Shape" fill-rule="evenodd" clip-rule="evenodd" d="M21.3746 3.86948V3.85931C21.7017 3.51374 21.7017 2.97505 21.3746 2.62948C21.216 2.46685 20.998 2.3642 20.77 2.3642C20.542 2.3642 20.324 2.46685 20.1753 2.62948L2.21511 21.0567C2.18537 21.0872 2.16555 21.1167 2.14573 21.1482L2.11599 21.1888C1.92767 21.5141 1.96731 21.9511 2.24484 22.2459C2.42326 22.4085 2.6314 22.5 2.84946 22.5C3.06752 22.5 3.27567 22.4085 3.44417 22.2459L8.80583 16.7478C16.2063 23.9875 18.6902 21.3327 19.2649 20.7184C19.303 20.6777 19.3327 20.646 19.3549 20.6266C22.0219 17.9051 21.2874 17.1915 19.4479 15.4043L19.4479 15.4043C19.191 15.1547 18.9126 14.8842 18.6189 14.5844C17.5129 13.4605 16.7238 13.7446 15.8466 14.0604C14.8811 14.408 13.8089 14.7939 12.0901 13.3824L11.5623 13.9212L11.9584 13.5151L21.3746 3.86948ZM6.18501 14.2053C0.192084 7.41506 2.57556 5.0604 3.15871 4.48431C3.20138 4.44215 3.23441 4.40951 3.25382 4.38536C5.94079 1.6602 6.63999 2.40731 8.39072 4.27801C8.63945 4.54378 8.9094 4.83222 9.20929 5.13661C10.3148 6.26403 10.0385 7.07031 9.73113 7.96734C9.4738 8.71836 9.19468 9.53299 9.68636 10.6529L6.18501 14.2053Z" fill="#130F26"/>
</g>
</g>
</g>
</svg>
