<svg width="24" height="24" viewBox="0 0 24 24" fill="none" xmlns="http://www.w3.org/2000/svg">
<g id="Iconly/Bold/Discount">
<g id="Discount">
<path id="Discount_2" fill-rule="evenodd" clip-rule="evenodd" d="M20.3992 9.14599L21.1194 9.86599C21.6897 10.426 21.9998 11.186 21.9998 11.986C22.0098 12.786 21.6997 13.547 21.1395 14.116C21.1328 14.1233 21.1261 14.1298 21.1194 14.1362C21.1161 14.1394 21.1128 14.1427 21.1094 14.146L20.3992 14.856C20.1191 15.136 19.959 15.516 19.959 15.917V16.946C19.959 18.606 18.6085 19.957 16.9479 19.957H15.9176C15.5174 19.957 15.1373 20.116 14.8572 20.396L14.1369 21.116C13.5467 21.707 12.7764 21.996 12.0061 21.996C11.2359 21.996 10.4656 21.707 9.87537 21.127L9.14511 20.396C8.865 20.116 8.48487 19.957 8.08472 19.957H7.05435C5.39375 19.957 4.04326 18.606 4.04326 16.946V15.917C4.04326 15.516 3.8832 15.136 3.6031 14.846L2.88284 14.136C1.71241 12.967 1.70241 11.056 2.87283 9.87699L3.6031 9.14599C3.8832 8.86599 4.04326 8.48599 4.04326 8.07599V7.05599C4.04326 5.39599 5.39375 4.04699 7.05435 4.04699H8.08472C8.48487 4.04699 8.865 3.88599 9.14511 3.60599L9.86537 2.88599C11.0358 1.70699 12.9465 1.70699 14.1269 2.87699L14.8572 3.60599C15.1373 3.88599 15.5174 4.04699 15.9176 4.04699H16.9479C18.6085 4.04699 19.959 5.39599 19.959 7.05599V8.08699C19.959 8.48599 20.1191 8.86599 20.3992 9.14599ZM9.42521 15.446C9.66529 15.446 9.88537 15.356 10.0454 15.186L15.1873 10.047C15.5274 9.70699 15.5274 9.14599 15.1873 8.80599C14.8472 8.46699 14.297 8.46699 13.9569 8.80599L8.81499 13.946C8.47486 14.286 8.47486 14.846 8.81499 15.186C8.97504 15.356 9.19512 15.446 9.42521 15.446ZM13.6968 14.566C13.6968 15.056 14.0869 15.446 14.5771 15.446C15.0572 15.446 15.4474 15.056 15.4474 14.566C15.4474 14.087 15.0572 13.696 14.5771 13.696C14.0869 13.696 13.6968 14.087 13.6968 14.566ZM9.43521 8.55599C9.91539 8.55599 10.3055 8.94599 10.3055 9.42599C10.3055 9.91699 9.91539 10.306 9.43521 10.306C8.95504 10.306 8.55489 9.91699 8.55489 9.42599C8.55489 8.94599 8.95504 8.55599 9.43521 8.55599Z" fill="#130F26"/>
</g>
</g>
</svg>
