<svg width="24" height="24" viewBox="0 0 24 24" fill="none" xmlns="http://www.w3.org/2000/svg">
<g id="Iconly/Bold/Image 2">
<g id="Image 2">
<path id="Image 2_2" fill-rule="evenodd" clip-rule="evenodd" d="M7.63751 3.39543C5.06051 3.39543 3.39551 5.16243 3.39551 7.88843V16.1024C3.39551 16.8674 3.53751 17.5504 3.78051 18.1414C3.791 18.1289 4.01987 17.85 4.31843 17.4862C4.90191 16.7751 5.75156 15.7397 5.75751 15.7344C6.44951 14.9444 7.74851 13.7664 9.45351 14.4794C9.82712 14.6343 10.1592 14.8465 10.4649 15.0419C10.4947 15.0609 10.5242 15.0798 10.5535 15.0984C11.1265 15.4814 11.4635 15.6614 11.8135 15.6314C11.9585 15.6114 12.0945 15.5684 12.2235 15.4884C12.7101 15.1884 13.9718 13.4008 14.3496 12.8655C14.405 12.787 14.4414 12.7354 14.4535 12.7194C15.5435 11.2994 17.2235 10.9194 18.6235 11.7594C18.8115 11.8714 20.1585 12.8124 20.6045 13.1904V7.88843C20.6045 5.16243 18.9395 3.39543 16.3535 3.39543H7.63751ZM16.3535 2.00043C19.7305 2.00043 21.9995 4.36243 21.9995 7.88843V16.1024C21.9995 16.1911 21.9902 16.2743 21.9809 16.3574C21.9744 16.4158 21.9678 16.4742 21.9645 16.5344C21.9624 16.5709 21.9613 16.6073 21.9603 16.6437C21.9589 16.6923 21.9575 16.7409 21.9535 16.7894C21.9515 16.8084 21.9478 16.8267 21.944 16.8449C21.9403 16.8632 21.9365 16.8814 21.9345 16.9004C21.9015 17.2144 21.8505 17.5144 21.7795 17.8054C21.7627 17.8781 21.7433 17.9482 21.7238 18.019L21.7195 18.0344C21.6395 18.3164 21.5455 18.5854 21.4325 18.8424C21.4127 18.8856 21.3918 18.9278 21.3709 18.9699C21.357 18.998 21.3431 19.026 21.3295 19.0544C21.2075 19.2994 21.0755 19.5344 20.9225 19.7524C20.8942 19.7928 20.8641 19.8306 20.8339 19.8685C20.814 19.8935 20.794 19.9186 20.7745 19.9444C20.6155 20.1504 20.4495 20.3474 20.2615 20.5264C20.224 20.5621 20.1834 20.5948 20.1428 20.6274C20.1175 20.6479 20.0921 20.6683 20.0675 20.6894C19.8745 20.8554 19.6775 21.0144 19.4605 21.1504C19.4132 21.1802 19.3628 21.2051 19.3127 21.23C19.2803 21.2461 19.2479 21.2621 19.2165 21.2794C18.9955 21.4014 18.7725 21.5204 18.5295 21.6124C18.4711 21.6346 18.4088 21.6507 18.3465 21.6668C18.3021 21.6783 18.2577 21.6897 18.2145 21.7034C18.1929 21.7101 18.1713 21.7169 18.1497 21.7236C17.9326 21.7911 17.7162 21.8584 17.4825 21.8984C17.3471 21.9222 17.2034 21.9313 17.0596 21.9404C16.9974 21.9443 16.9351 21.9483 16.8735 21.9534C16.8073 21.9584 16.7423 21.9664 16.6773 21.9744C16.5716 21.9874 16.4656 22.0004 16.3535 22.0004H7.63751C7.26151 22.0004 6.90251 21.9624 6.55551 21.9054C6.54251 21.9034 6.53051 21.9014 6.51851 21.8994C5.16551 21.6664 4.04251 21.0134 3.25551 20.0284C3.25005 20.0284 3.2479 20.0247 3.24504 20.0198C3.24319 20.0166 3.24105 20.013 3.23751 20.0094C2.44651 19.0134 1.99951 17.6744 1.99951 16.1024V7.88843C1.99951 4.36243 4.27051 2.00043 7.63751 2.00043H16.3535ZM11.0001 8.51499C11.0001 9.86994 9.86639 11 8.50496 11C7.30825 11 6.2879 10.1257 6.05922 8.99366C6.02143 8.82381 6.00011 8.64913 6.00011 8.46866C6.00011 7.10406 7.10864 6.00003 8.47879 6.00003C9.17647 6.00003 9.80825 6.29341 10.2608 6.76146C10.7152 7.21311 11.0001 7.83558 11.0001 8.51499Z" fill="#130F26"/>
</g>
</g>
</svg>
