<svg width="24" height="24" viewBox="0 0 24 24" fill="none" xmlns="http://www.w3.org/2000/svg">
<g id="Iconly/Bold/Info Circle">
<g id="Info Circle">
<path id="Info Circle_2" fill-rule="evenodd" clip-rule="evenodd" d="M2 11.9993C2 6.48033 6.48 1.99933 12 1.99933C17.53 1.99933 22 6.48033 22 11.9993C22 17.5203 17.53 21.9993 12 21.9993C6.48 21.9993 2 17.5203 2 11.9993ZM11.12 8.20933C11.12 7.73033 11.52 7.32933 12 7.32933C12.48 7.32933 12.87 7.73033 12.87 8.20933V12.6293C12.87 13.1103 12.48 13.4993 12 13.4993C11.52 13.4993 11.12 13.1103 11.12 12.6293V8.20933ZM12.01 16.6803C11.52 16.6803 11.13 16.2803 11.13 15.8003C11.13 15.3203 11.52 14.9303 12 14.9303C12.49 14.9303 12.88 15.3203 12.88 15.8003C12.88 16.2803 12.49 16.6803 12.01 16.6803Z" fill="#130F26"/>
</g>
</g>
</svg>
