<svg width="24" height="24" viewBox="0 0 24 24" fill="none" xmlns="http://www.w3.org/2000/svg">
<g id="Iconly/Bold/Password">
<g id="Password">
<path id="Password_2" fill-rule="evenodd" clip-rule="evenodd" d="M17.0105 14.6012C17.4245 14.6012 17.7605 14.2652 17.7605 13.8512V11.9992C17.7605 11.5852 17.4245 11.2492 17.0105 11.2492H11.3185C10.9945 10.1822 10.0125 9.39821 8.84051 9.39821C7.40651 9.39821 6.23951 10.5652 6.23951 11.9992C6.23951 13.4342 7.40651 14.6012 8.84051 14.6012C10.0125 14.6012 10.9945 13.8172 11.3185 12.7492H13.4305V13.8512C13.4305 14.2652 13.7665 14.6012 14.1805 14.6012C14.5945 14.6012 14.9305 14.2652 14.9305 13.8512V12.7492H16.2605V13.8512C16.2605 14.2652 16.5965 14.6012 17.0105 14.6012ZM7.66551 1.99921H16.3345C19.7225 1.99921 21.9995 4.37721 21.9995 7.91621V16.0832C21.9995 19.6222 19.7225 21.9992 16.3335 21.9992H7.66551C4.27651 21.9992 1.99951 19.6222 1.99951 16.0832V7.91621C1.99951 4.37721 4.27651 1.99921 7.66551 1.99921ZM7.73861 12.0001C7.73861 11.3921 8.23361 10.8981 8.84061 10.8981C9.44761 10.8981 9.94261 11.3921 9.94261 12.0001C9.94261 12.6071 9.44761 13.1011 8.84061 13.1011C8.23361 13.1011 7.73861 12.6071 7.73861 12.0001Z" fill="#130F26"/>
</g>
</g>
</svg>
