<svg width="24" height="24" viewBox="0 0 24 24" fill="none" xmlns="http://www.w3.org/2000/svg">
<g id="Iconly/Bold/Volume Down">
<g id="Volume Down">
<path id="Volume Down_2" fill-rule="evenodd" clip-rule="evenodd" d="M15.1396 4.95612C15.2687 5.45964 15.3212 5.96423 15.3716 6.45057L15.4188 6.89289C15.5994 8.36909 15.5994 15.6213 15.4188 17.1082L15.3716 17.5666L15.3707 17.5752C15.3259 18.0353 15.2794 18.5113 15.1469 19.0192C14.7952 20.2206 13.8577 21 12.7932 21C12.7596 21 12.726 21 12.6882 20.9989C12.1003 20.9989 11.461 20.6382 11.0988 20.3236L7.56822 17.383H5.75517C4.35575 17.383 3.33112 16.3706 3.1453 14.8043C2.93114 13.2379 2.97313 10.5506 3.1453 9.12706C3.34792 7.64441 4.42084 6.61698 5.75517 6.61698H7.56822L11.0316 3.71933C11.4494 3.35645 12.1864 2.99787 12.7691 3.00002C13.8136 3.00002 14.7879 3.75154 15.1396 4.95612ZM18.1476 6.2584C18.5665 5.9653 19.1397 6.07052 19.4263 6.49459C20.4404 7.98797 21 9.94299 21 12C21 14.057 20.4404 16.0121 19.4263 17.5054C19.2541 17.7577 18.9728 17.9091 18.6715 17.9091C18.4836 17.9091 18.3019 17.8511 18.1476 17.7416C17.7319 17.4453 17.629 16.8591 17.9177 16.434C18.7208 15.2509 19.1628 13.6759 19.1628 12C19.1628 10.323 18.7208 8.74915 17.9177 7.56604C17.629 7.14089 17.7319 6.55471 18.1476 6.2584Z" fill="#130F26"/>
</g>
</g>
</svg>
